%TF.GenerationSoftware,KiCad,Pcbnew,(5.1.9-0-10_14)*%
%TF.CreationDate,2021-02-13T14:26:34+01:00*%
%TF.ProjectId,f_buzzer,665f6275-7a7a-4657-922e-6b696361645f,rev?*%
%TF.SameCoordinates,Original*%
%TF.FileFunction,Soldermask,Top*%
%TF.FilePolarity,Negative*%
%FSLAX46Y46*%
G04 Gerber Fmt 4.6, Leading zero omitted, Abs format (unit mm)*
G04 Created by KiCad (PCBNEW (5.1.9-0-10_14)) date 2021-02-13 14:26:34*
%MOMM*%
%LPD*%
G01*
G04 APERTURE LIST*
%ADD10O,1.500000X14.000000*%
%ADD11O,1.500000X10.000000*%
%ADD12C,1.524000*%
%ADD13R,1.700000X1.700000*%
%ADD14O,1.700000X1.700000*%
G04 APERTURE END LIST*
%TO.C,R3*%
G36*
G01*
X121265000Y-79965000D02*
X120715000Y-79965000D01*
G75*
G02*
X120515000Y-79765000I0J200000D01*
G01*
X120515000Y-79365000D01*
G75*
G02*
X120715000Y-79165000I200000J0D01*
G01*
X121265000Y-79165000D01*
G75*
G02*
X121465000Y-79365000I0J-200000D01*
G01*
X121465000Y-79765000D01*
G75*
G02*
X121265000Y-79965000I-200000J0D01*
G01*
G37*
G36*
G01*
X121265000Y-81615000D02*
X120715000Y-81615000D01*
G75*
G02*
X120515000Y-81415000I0J200000D01*
G01*
X120515000Y-81015000D01*
G75*
G02*
X120715000Y-80815000I200000J0D01*
G01*
X121265000Y-80815000D01*
G75*
G02*
X121465000Y-81015000I0J-200000D01*
G01*
X121465000Y-81415000D01*
G75*
G02*
X121265000Y-81615000I-200000J0D01*
G01*
G37*
%TD*%
%TO.C,R2*%
G36*
G01*
X130655000Y-78695000D02*
X130655000Y-78145000D01*
G75*
G02*
X130855000Y-77945000I200000J0D01*
G01*
X131255000Y-77945000D01*
G75*
G02*
X131455000Y-78145000I0J-200000D01*
G01*
X131455000Y-78695000D01*
G75*
G02*
X131255000Y-78895000I-200000J0D01*
G01*
X130855000Y-78895000D01*
G75*
G02*
X130655000Y-78695000I0J200000D01*
G01*
G37*
G36*
G01*
X129005000Y-78695000D02*
X129005000Y-78145000D01*
G75*
G02*
X129205000Y-77945000I200000J0D01*
G01*
X129605000Y-77945000D01*
G75*
G02*
X129805000Y-78145000I0J-200000D01*
G01*
X129805000Y-78695000D01*
G75*
G02*
X129605000Y-78895000I-200000J0D01*
G01*
X129205000Y-78895000D01*
G75*
G02*
X129005000Y-78695000I0J200000D01*
G01*
G37*
%TD*%
%TO.C,R1*%
G36*
G01*
X134055000Y-86695000D02*
X134055000Y-86145000D01*
G75*
G02*
X134255000Y-85945000I200000J0D01*
G01*
X134655000Y-85945000D01*
G75*
G02*
X134855000Y-86145000I0J-200000D01*
G01*
X134855000Y-86695000D01*
G75*
G02*
X134655000Y-86895000I-200000J0D01*
G01*
X134255000Y-86895000D01*
G75*
G02*
X134055000Y-86695000I0J200000D01*
G01*
G37*
G36*
G01*
X132405000Y-86695000D02*
X132405000Y-86145000D01*
G75*
G02*
X132605000Y-85945000I200000J0D01*
G01*
X133005000Y-85945000D01*
G75*
G02*
X133205000Y-86145000I0J-200000D01*
G01*
X133205000Y-86695000D01*
G75*
G02*
X133005000Y-86895000I-200000J0D01*
G01*
X132605000Y-86895000D01*
G75*
G02*
X132405000Y-86695000I0J200000D01*
G01*
G37*
%TD*%
%TO.C,C3*%
G36*
G01*
X133345000Y-89980000D02*
X133345000Y-90480000D01*
G75*
G02*
X133120000Y-90705000I-225000J0D01*
G01*
X132670000Y-90705000D01*
G75*
G02*
X132445000Y-90480000I0J225000D01*
G01*
X132445000Y-89980000D01*
G75*
G02*
X132670000Y-89755000I225000J0D01*
G01*
X133120000Y-89755000D01*
G75*
G02*
X133345000Y-89980000I0J-225000D01*
G01*
G37*
G36*
G01*
X134895000Y-89980000D02*
X134895000Y-90480000D01*
G75*
G02*
X134670000Y-90705000I-225000J0D01*
G01*
X134220000Y-90705000D01*
G75*
G02*
X133995000Y-90480000I0J225000D01*
G01*
X133995000Y-89980000D01*
G75*
G02*
X134220000Y-89755000I225000J0D01*
G01*
X134670000Y-89755000D01*
G75*
G02*
X134895000Y-89980000I0J-225000D01*
G01*
G37*
%TD*%
%TO.C,C2*%
G36*
G01*
X134010000Y-82545000D02*
X133510000Y-82545000D01*
G75*
G02*
X133285000Y-82320000I0J225000D01*
G01*
X133285000Y-81870000D01*
G75*
G02*
X133510000Y-81645000I225000J0D01*
G01*
X134010000Y-81645000D01*
G75*
G02*
X134235000Y-81870000I0J-225000D01*
G01*
X134235000Y-82320000D01*
G75*
G02*
X134010000Y-82545000I-225000J0D01*
G01*
G37*
G36*
G01*
X134010000Y-84095000D02*
X133510000Y-84095000D01*
G75*
G02*
X133285000Y-83870000I0J225000D01*
G01*
X133285000Y-83420000D01*
G75*
G02*
X133510000Y-83195000I225000J0D01*
G01*
X134010000Y-83195000D01*
G75*
G02*
X134235000Y-83420000I0J-225000D01*
G01*
X134235000Y-83870000D01*
G75*
G02*
X134010000Y-84095000I-225000J0D01*
G01*
G37*
%TD*%
%TO.C,C1*%
G36*
G01*
X120710000Y-88725000D02*
X121210000Y-88725000D01*
G75*
G02*
X121435000Y-88950000I0J-225000D01*
G01*
X121435000Y-89400000D01*
G75*
G02*
X121210000Y-89625000I-225000J0D01*
G01*
X120710000Y-89625000D01*
G75*
G02*
X120485000Y-89400000I0J225000D01*
G01*
X120485000Y-88950000D01*
G75*
G02*
X120710000Y-88725000I225000J0D01*
G01*
G37*
G36*
G01*
X120710000Y-87175000D02*
X121210000Y-87175000D01*
G75*
G02*
X121435000Y-87400000I0J-225000D01*
G01*
X121435000Y-87850000D01*
G75*
G02*
X121210000Y-88075000I-225000J0D01*
G01*
X120710000Y-88075000D01*
G75*
G02*
X120485000Y-87850000I0J225000D01*
G01*
X120485000Y-87400000D01*
G75*
G02*
X120710000Y-87175000I225000J0D01*
G01*
G37*
%TD*%
%TO.C,U1*%
G36*
G01*
X123470000Y-81485000D02*
X123470000Y-81185000D01*
G75*
G02*
X123620000Y-81035000I150000J0D01*
G01*
X125270000Y-81035000D01*
G75*
G02*
X125420000Y-81185000I0J-150000D01*
G01*
X125420000Y-81485000D01*
G75*
G02*
X125270000Y-81635000I-150000J0D01*
G01*
X123620000Y-81635000D01*
G75*
G02*
X123470000Y-81485000I0J150000D01*
G01*
G37*
G36*
G01*
X123470000Y-82755000D02*
X123470000Y-82455000D01*
G75*
G02*
X123620000Y-82305000I150000J0D01*
G01*
X125270000Y-82305000D01*
G75*
G02*
X125420000Y-82455000I0J-150000D01*
G01*
X125420000Y-82755000D01*
G75*
G02*
X125270000Y-82905000I-150000J0D01*
G01*
X123620000Y-82905000D01*
G75*
G02*
X123470000Y-82755000I0J150000D01*
G01*
G37*
G36*
G01*
X123470000Y-84025000D02*
X123470000Y-83725000D01*
G75*
G02*
X123620000Y-83575000I150000J0D01*
G01*
X125270000Y-83575000D01*
G75*
G02*
X125420000Y-83725000I0J-150000D01*
G01*
X125420000Y-84025000D01*
G75*
G02*
X125270000Y-84175000I-150000J0D01*
G01*
X123620000Y-84175000D01*
G75*
G02*
X123470000Y-84025000I0J150000D01*
G01*
G37*
G36*
G01*
X123470000Y-85295000D02*
X123470000Y-84995000D01*
G75*
G02*
X123620000Y-84845000I150000J0D01*
G01*
X125270000Y-84845000D01*
G75*
G02*
X125420000Y-84995000I0J-150000D01*
G01*
X125420000Y-85295000D01*
G75*
G02*
X125270000Y-85445000I-150000J0D01*
G01*
X123620000Y-85445000D01*
G75*
G02*
X123470000Y-85295000I0J150000D01*
G01*
G37*
G36*
G01*
X123470000Y-86565000D02*
X123470000Y-86265000D01*
G75*
G02*
X123620000Y-86115000I150000J0D01*
G01*
X125270000Y-86115000D01*
G75*
G02*
X125420000Y-86265000I0J-150000D01*
G01*
X125420000Y-86565000D01*
G75*
G02*
X125270000Y-86715000I-150000J0D01*
G01*
X123620000Y-86715000D01*
G75*
G02*
X123470000Y-86565000I0J150000D01*
G01*
G37*
G36*
G01*
X123470000Y-87835000D02*
X123470000Y-87535000D01*
G75*
G02*
X123620000Y-87385000I150000J0D01*
G01*
X125270000Y-87385000D01*
G75*
G02*
X125420000Y-87535000I0J-150000D01*
G01*
X125420000Y-87835000D01*
G75*
G02*
X125270000Y-87985000I-150000J0D01*
G01*
X123620000Y-87985000D01*
G75*
G02*
X123470000Y-87835000I0J150000D01*
G01*
G37*
G36*
G01*
X123470000Y-89105000D02*
X123470000Y-88805000D01*
G75*
G02*
X123620000Y-88655000I150000J0D01*
G01*
X125270000Y-88655000D01*
G75*
G02*
X125420000Y-88805000I0J-150000D01*
G01*
X125420000Y-89105000D01*
G75*
G02*
X125270000Y-89255000I-150000J0D01*
G01*
X123620000Y-89255000D01*
G75*
G02*
X123470000Y-89105000I0J150000D01*
G01*
G37*
G36*
G01*
X123470000Y-90375000D02*
X123470000Y-90075000D01*
G75*
G02*
X123620000Y-89925000I150000J0D01*
G01*
X125270000Y-89925000D01*
G75*
G02*
X125420000Y-90075000I0J-150000D01*
G01*
X125420000Y-90375000D01*
G75*
G02*
X125270000Y-90525000I-150000J0D01*
G01*
X123620000Y-90525000D01*
G75*
G02*
X123470000Y-90375000I0J150000D01*
G01*
G37*
G36*
G01*
X128420000Y-90375000D02*
X128420000Y-90075000D01*
G75*
G02*
X128570000Y-89925000I150000J0D01*
G01*
X130220000Y-89925000D01*
G75*
G02*
X130370000Y-90075000I0J-150000D01*
G01*
X130370000Y-90375000D01*
G75*
G02*
X130220000Y-90525000I-150000J0D01*
G01*
X128570000Y-90525000D01*
G75*
G02*
X128420000Y-90375000I0J150000D01*
G01*
G37*
G36*
G01*
X128420000Y-89105000D02*
X128420000Y-88805000D01*
G75*
G02*
X128570000Y-88655000I150000J0D01*
G01*
X130220000Y-88655000D01*
G75*
G02*
X130370000Y-88805000I0J-150000D01*
G01*
X130370000Y-89105000D01*
G75*
G02*
X130220000Y-89255000I-150000J0D01*
G01*
X128570000Y-89255000D01*
G75*
G02*
X128420000Y-89105000I0J150000D01*
G01*
G37*
G36*
G01*
X128420000Y-87835000D02*
X128420000Y-87535000D01*
G75*
G02*
X128570000Y-87385000I150000J0D01*
G01*
X130220000Y-87385000D01*
G75*
G02*
X130370000Y-87535000I0J-150000D01*
G01*
X130370000Y-87835000D01*
G75*
G02*
X130220000Y-87985000I-150000J0D01*
G01*
X128570000Y-87985000D01*
G75*
G02*
X128420000Y-87835000I0J150000D01*
G01*
G37*
G36*
G01*
X128420000Y-86565000D02*
X128420000Y-86265000D01*
G75*
G02*
X128570000Y-86115000I150000J0D01*
G01*
X130220000Y-86115000D01*
G75*
G02*
X130370000Y-86265000I0J-150000D01*
G01*
X130370000Y-86565000D01*
G75*
G02*
X130220000Y-86715000I-150000J0D01*
G01*
X128570000Y-86715000D01*
G75*
G02*
X128420000Y-86565000I0J150000D01*
G01*
G37*
G36*
G01*
X128420000Y-85295000D02*
X128420000Y-84995000D01*
G75*
G02*
X128570000Y-84845000I150000J0D01*
G01*
X130220000Y-84845000D01*
G75*
G02*
X130370000Y-84995000I0J-150000D01*
G01*
X130370000Y-85295000D01*
G75*
G02*
X130220000Y-85445000I-150000J0D01*
G01*
X128570000Y-85445000D01*
G75*
G02*
X128420000Y-85295000I0J150000D01*
G01*
G37*
G36*
G01*
X128420000Y-84025000D02*
X128420000Y-83725000D01*
G75*
G02*
X128570000Y-83575000I150000J0D01*
G01*
X130220000Y-83575000D01*
G75*
G02*
X130370000Y-83725000I0J-150000D01*
G01*
X130370000Y-84025000D01*
G75*
G02*
X130220000Y-84175000I-150000J0D01*
G01*
X128570000Y-84175000D01*
G75*
G02*
X128420000Y-84025000I0J150000D01*
G01*
G37*
G36*
G01*
X128420000Y-82755000D02*
X128420000Y-82455000D01*
G75*
G02*
X128570000Y-82305000I150000J0D01*
G01*
X130220000Y-82305000D01*
G75*
G02*
X130370000Y-82455000I0J-150000D01*
G01*
X130370000Y-82755000D01*
G75*
G02*
X130220000Y-82905000I-150000J0D01*
G01*
X128570000Y-82905000D01*
G75*
G02*
X128420000Y-82755000I0J150000D01*
G01*
G37*
G36*
G01*
X128420000Y-81485000D02*
X128420000Y-81185000D01*
G75*
G02*
X128570000Y-81035000I150000J0D01*
G01*
X130220000Y-81035000D01*
G75*
G02*
X130370000Y-81185000I0J-150000D01*
G01*
X130370000Y-81485000D01*
G75*
G02*
X130220000Y-81635000I-150000J0D01*
G01*
X128570000Y-81635000D01*
G75*
G02*
X128420000Y-81485000I0J150000D01*
G01*
G37*
%TD*%
D10*
%TO.C,BZ1*%
X161740000Y-99680000D03*
X161740000Y-85020000D03*
%TD*%
D11*
%TO.C,BZ2*%
X168810000Y-93490000D03*
X168820000Y-82850000D03*
%TD*%
D12*
%TO.C,RV1*%
X131035000Y-108365000D03*
X125955000Y-108365000D03*
X128495000Y-105825000D03*
%TD*%
D13*
%TO.C,REF\u002A\u002A*%
X181580000Y-86230000D03*
D14*
X181580000Y-88770000D03*
X181580000Y-91310000D03*
%TD*%
M02*
