%TF.GenerationSoftware,KiCad,Pcbnew,(5.1.9-0-10_14)*%
%TF.CreationDate,2021-02-13T20:36:48+01:00*%
%TF.ProjectId,f_buzzer,665f6275-7a7a-4657-922e-6b696361645f,rev?*%
%TF.SameCoordinates,Original*%
%TF.FileFunction,Legend,Top*%
%TF.FilePolarity,Positive*%
%FSLAX46Y46*%
G04 Gerber Fmt 4.6, Leading zero omitted, Abs format (unit mm)*
G04 Created by KiCad (PCBNEW (5.1.9-0-10_14)) date 2021-02-13 20:36:48*
%MOMM*%
%LPD*%
G01*
G04 APERTURE LIST*
%ADD10C,0.100000*%
%ADD11C,0.120000*%
%ADD12C,0.150000*%
G04 APERTURE END LIST*
D10*
X126292380Y-90359047D02*
X127006666Y-90359047D01*
X127149523Y-90406666D01*
X127244761Y-90501904D01*
X127292380Y-90644761D01*
X127292380Y-90740000D01*
X127292380Y-89406666D02*
X127292380Y-89882857D01*
X126292380Y-89882857D01*
X127197142Y-88501904D02*
X127244761Y-88549523D01*
X127292380Y-88692380D01*
X127292380Y-88787619D01*
X127244761Y-88930476D01*
X127149523Y-89025714D01*
X127054285Y-89073333D01*
X126863809Y-89120952D01*
X126720952Y-89120952D01*
X126530476Y-89073333D01*
X126435238Y-89025714D01*
X126340000Y-88930476D01*
X126292380Y-88787619D01*
X126292380Y-88692380D01*
X126340000Y-88549523D01*
X126387619Y-88501904D01*
X126292380Y-87787619D02*
X127006666Y-87787619D01*
X127149523Y-87835238D01*
X127244761Y-87930476D01*
X127292380Y-88073333D01*
X127292380Y-88168571D01*
X127292380Y-86835238D02*
X127292380Y-87311428D01*
X126292380Y-87311428D01*
X127197142Y-85930476D02*
X127244761Y-85978095D01*
X127292380Y-86120952D01*
X127292380Y-86216190D01*
X127244761Y-86359047D01*
X127149523Y-86454285D01*
X127054285Y-86501904D01*
X126863809Y-86549523D01*
X126720952Y-86549523D01*
X126530476Y-86501904D01*
X126435238Y-86454285D01*
X126340000Y-86359047D01*
X126292380Y-86216190D01*
X126292380Y-86120952D01*
X126340000Y-85978095D01*
X126387619Y-85930476D01*
X126292380Y-85216190D02*
X127006666Y-85216190D01*
X127149523Y-85263809D01*
X127244761Y-85359047D01*
X127292380Y-85501904D01*
X127292380Y-85597142D01*
X127292380Y-84263809D02*
X127292380Y-84740000D01*
X126292380Y-84740000D01*
X127197142Y-83359047D02*
X127244761Y-83406666D01*
X127292380Y-83549523D01*
X127292380Y-83644761D01*
X127244761Y-83787619D01*
X127149523Y-83882857D01*
X127054285Y-83930476D01*
X126863809Y-83978095D01*
X126720952Y-83978095D01*
X126530476Y-83930476D01*
X126435238Y-83882857D01*
X126340000Y-83787619D01*
X126292380Y-83644761D01*
X126292380Y-83549523D01*
X126340000Y-83406666D01*
X126387619Y-83359047D01*
X126292380Y-82644761D02*
X127006666Y-82644761D01*
X127149523Y-82692380D01*
X127244761Y-82787619D01*
X127292380Y-82930476D01*
X127292380Y-83025714D01*
X127292380Y-81692380D02*
X127292380Y-82168571D01*
X126292380Y-82168571D01*
X127197142Y-80787619D02*
X127244761Y-80835238D01*
X127292380Y-80978095D01*
X127292380Y-81073333D01*
X127244761Y-81216190D01*
X127149523Y-81311428D01*
X127054285Y-81359047D01*
X126863809Y-81406666D01*
X126720952Y-81406666D01*
X126530476Y-81359047D01*
X126435238Y-81311428D01*
X126340000Y-81216190D01*
X126292380Y-81073333D01*
X126292380Y-80978095D01*
X126340000Y-80835238D01*
X126387619Y-80787619D01*
D11*
%TO.C,U1*%
X126920000Y-90840000D02*
X128870000Y-90840000D01*
X126920000Y-90840000D02*
X124970000Y-90840000D01*
X126920000Y-80720000D02*
X128870000Y-80720000D01*
X126920000Y-80720000D02*
X123470000Y-80720000D01*
%TO.C,BZ2*%
X179820000Y-88170000D02*
G75*
G03*
X179820000Y-88170000I-11000000J0D01*
G01*
%TO.C,R3*%
X121512500Y-80627258D02*
X121512500Y-80152742D01*
X120467500Y-80627258D02*
X120467500Y-80152742D01*
%TO.C,R2*%
X129992742Y-78942500D02*
X130467258Y-78942500D01*
X129992742Y-77897500D02*
X130467258Y-77897500D01*
%TO.C,R1*%
X133217500Y-87012742D02*
X133217500Y-87487258D01*
X134262500Y-87012742D02*
X134262500Y-87487258D01*
%TO.C,C3*%
X134374420Y-91370000D02*
X134655580Y-91370000D01*
X134374420Y-90350000D02*
X134655580Y-90350000D01*
%TO.C,C2*%
X134260000Y-83540580D02*
X134260000Y-83259420D01*
X133240000Y-83540580D02*
X133240000Y-83259420D01*
%TO.C,C1*%
X120450000Y-88259420D02*
X120450000Y-88540580D01*
X121470000Y-88259420D02*
X121470000Y-88540580D01*
%TO.C,RV1*%
X134210000Y-108365000D02*
G75*
G03*
X134210000Y-108365000I-5715000J0D01*
G01*
%TO.C,REF\u002A\u002A*%
X180250000Y-84900000D02*
X181580000Y-84900000D01*
X180250000Y-86230000D02*
X180250000Y-84900000D01*
X180250000Y-87500000D02*
X182910000Y-87500000D01*
X182910000Y-87500000D02*
X182910000Y-92640000D01*
X180250000Y-87500000D02*
X180250000Y-92640000D01*
X180250000Y-92640000D02*
X182910000Y-92640000D01*
%TO.C,U1*%
D12*
X126158095Y-79332380D02*
X126158095Y-80141904D01*
X126205714Y-80237142D01*
X126253333Y-80284761D01*
X126348571Y-80332380D01*
X126539047Y-80332380D01*
X126634285Y-80284761D01*
X126681904Y-80237142D01*
X126729523Y-80141904D01*
X126729523Y-79332380D01*
X127729523Y-80332380D02*
X127158095Y-80332380D01*
X127443809Y-80332380D02*
X127443809Y-79332380D01*
X127348571Y-79475238D01*
X127253333Y-79570476D01*
X127158095Y-79618095D01*
%TO.C,R3*%
X120012380Y-80556666D02*
X119536190Y-80890000D01*
X120012380Y-81128095D02*
X119012380Y-81128095D01*
X119012380Y-80747142D01*
X119060000Y-80651904D01*
X119107619Y-80604285D01*
X119202857Y-80556666D01*
X119345714Y-80556666D01*
X119440952Y-80604285D01*
X119488571Y-80651904D01*
X119536190Y-80747142D01*
X119536190Y-81128095D01*
X119012380Y-80223333D02*
X119012380Y-79604285D01*
X119393333Y-79937619D01*
X119393333Y-79794761D01*
X119440952Y-79699523D01*
X119488571Y-79651904D01*
X119583809Y-79604285D01*
X119821904Y-79604285D01*
X119917142Y-79651904D01*
X119964761Y-79699523D01*
X120012380Y-79794761D01*
X120012380Y-80080476D01*
X119964761Y-80175714D01*
X119917142Y-80223333D01*
%TO.C,R2*%
X130063333Y-77442380D02*
X129730000Y-76966190D01*
X129491904Y-77442380D02*
X129491904Y-76442380D01*
X129872857Y-76442380D01*
X129968095Y-76490000D01*
X130015714Y-76537619D01*
X130063333Y-76632857D01*
X130063333Y-76775714D01*
X130015714Y-76870952D01*
X129968095Y-76918571D01*
X129872857Y-76966190D01*
X129491904Y-76966190D01*
X130444285Y-76537619D02*
X130491904Y-76490000D01*
X130587142Y-76442380D01*
X130825238Y-76442380D01*
X130920476Y-76490000D01*
X130968095Y-76537619D01*
X131015714Y-76632857D01*
X131015714Y-76728095D01*
X130968095Y-76870952D01*
X130396666Y-77442380D01*
X131015714Y-77442380D01*
%TO.C,R1*%
X132762380Y-87416666D02*
X132286190Y-87750000D01*
X132762380Y-87988095D02*
X131762380Y-87988095D01*
X131762380Y-87607142D01*
X131810000Y-87511904D01*
X131857619Y-87464285D01*
X131952857Y-87416666D01*
X132095714Y-87416666D01*
X132190952Y-87464285D01*
X132238571Y-87511904D01*
X132286190Y-87607142D01*
X132286190Y-87988095D01*
X132762380Y-86464285D02*
X132762380Y-87035714D01*
X132762380Y-86750000D02*
X131762380Y-86750000D01*
X131905238Y-86845238D01*
X132000476Y-86940476D01*
X132048095Y-87035714D01*
%TO.C,C3*%
X134348333Y-89787142D02*
X134300714Y-89834761D01*
X134157857Y-89882380D01*
X134062619Y-89882380D01*
X133919761Y-89834761D01*
X133824523Y-89739523D01*
X133776904Y-89644285D01*
X133729285Y-89453809D01*
X133729285Y-89310952D01*
X133776904Y-89120476D01*
X133824523Y-89025238D01*
X133919761Y-88930000D01*
X134062619Y-88882380D01*
X134157857Y-88882380D01*
X134300714Y-88930000D01*
X134348333Y-88977619D01*
X134681666Y-88882380D02*
X135300714Y-88882380D01*
X134967380Y-89263333D01*
X135110238Y-89263333D01*
X135205476Y-89310952D01*
X135253095Y-89358571D01*
X135300714Y-89453809D01*
X135300714Y-89691904D01*
X135253095Y-89787142D01*
X135205476Y-89834761D01*
X135110238Y-89882380D01*
X134824523Y-89882380D01*
X134729285Y-89834761D01*
X134681666Y-89787142D01*
%TO.C,C2*%
X132677142Y-83566666D02*
X132724761Y-83614285D01*
X132772380Y-83757142D01*
X132772380Y-83852380D01*
X132724761Y-83995238D01*
X132629523Y-84090476D01*
X132534285Y-84138095D01*
X132343809Y-84185714D01*
X132200952Y-84185714D01*
X132010476Y-84138095D01*
X131915238Y-84090476D01*
X131820000Y-83995238D01*
X131772380Y-83852380D01*
X131772380Y-83757142D01*
X131820000Y-83614285D01*
X131867619Y-83566666D01*
X131867619Y-83185714D02*
X131820000Y-83138095D01*
X131772380Y-83042857D01*
X131772380Y-82804761D01*
X131820000Y-82709523D01*
X131867619Y-82661904D01*
X131962857Y-82614285D01*
X132058095Y-82614285D01*
X132200952Y-82661904D01*
X132772380Y-83233333D01*
X132772380Y-82614285D01*
%TO.C,C1*%
X119887142Y-88576666D02*
X119934761Y-88624285D01*
X119982380Y-88767142D01*
X119982380Y-88862380D01*
X119934761Y-89005238D01*
X119839523Y-89100476D01*
X119744285Y-89148095D01*
X119553809Y-89195714D01*
X119410952Y-89195714D01*
X119220476Y-89148095D01*
X119125238Y-89100476D01*
X119030000Y-89005238D01*
X118982380Y-88862380D01*
X118982380Y-88767142D01*
X119030000Y-88624285D01*
X119077619Y-88576666D01*
X119982380Y-87624285D02*
X119982380Y-88195714D01*
X119982380Y-87910000D02*
X118982380Y-87910000D01*
X119125238Y-88005238D01*
X119220476Y-88100476D01*
X119268095Y-88195714D01*
%TO.C,RV1*%
X127974761Y-116032380D02*
X127641428Y-115556190D01*
X127403333Y-116032380D02*
X127403333Y-115032380D01*
X127784285Y-115032380D01*
X127879523Y-115080000D01*
X127927142Y-115127619D01*
X127974761Y-115222857D01*
X127974761Y-115365714D01*
X127927142Y-115460952D01*
X127879523Y-115508571D01*
X127784285Y-115556190D01*
X127403333Y-115556190D01*
X128260476Y-115032380D02*
X128593809Y-116032380D01*
X128927142Y-115032380D01*
X129784285Y-116032380D02*
X129212857Y-116032380D01*
X129498571Y-116032380D02*
X129498571Y-115032380D01*
X129403333Y-115175238D01*
X129308095Y-115270476D01*
X129212857Y-115318095D01*
%TD*%
M02*
