%TF.GenerationSoftware,KiCad,Pcbnew,(5.1.9-0-10_14)*%
%TF.CreationDate,2021-02-13T14:26:34+01:00*%
%TF.ProjectId,f_buzzer,665f6275-7a7a-4657-922e-6b696361645f,rev?*%
%TF.SameCoordinates,Original*%
%TF.FileFunction,Legend,Top*%
%TF.FilePolarity,Positive*%
%FSLAX46Y46*%
G04 Gerber Fmt 4.6, Leading zero omitted, Abs format (unit mm)*
G04 Created by KiCad (PCBNEW (5.1.9-0-10_14)) date 2021-02-13 14:26:34*
%MOMM*%
%LPD*%
G01*
G04 APERTURE LIST*
%ADD10C,0.100000*%
%ADD11C,0.120000*%
%ADD12C,0.150000*%
G04 APERTURE END LIST*
D10*
X126292380Y-90359047D02*
X127006666Y-90359047D01*
X127149523Y-90406666D01*
X127244761Y-90501904D01*
X127292380Y-90644761D01*
X127292380Y-90740000D01*
X127292380Y-89406666D02*
X127292380Y-89882857D01*
X126292380Y-89882857D01*
X127197142Y-88501904D02*
X127244761Y-88549523D01*
X127292380Y-88692380D01*
X127292380Y-88787619D01*
X127244761Y-88930476D01*
X127149523Y-89025714D01*
X127054285Y-89073333D01*
X126863809Y-89120952D01*
X126720952Y-89120952D01*
X126530476Y-89073333D01*
X126435238Y-89025714D01*
X126340000Y-88930476D01*
X126292380Y-88787619D01*
X126292380Y-88692380D01*
X126340000Y-88549523D01*
X126387619Y-88501904D01*
X126292380Y-87787619D02*
X127006666Y-87787619D01*
X127149523Y-87835238D01*
X127244761Y-87930476D01*
X127292380Y-88073333D01*
X127292380Y-88168571D01*
X127292380Y-86835238D02*
X127292380Y-87311428D01*
X126292380Y-87311428D01*
X127197142Y-85930476D02*
X127244761Y-85978095D01*
X127292380Y-86120952D01*
X127292380Y-86216190D01*
X127244761Y-86359047D01*
X127149523Y-86454285D01*
X127054285Y-86501904D01*
X126863809Y-86549523D01*
X126720952Y-86549523D01*
X126530476Y-86501904D01*
X126435238Y-86454285D01*
X126340000Y-86359047D01*
X126292380Y-86216190D01*
X126292380Y-86120952D01*
X126340000Y-85978095D01*
X126387619Y-85930476D01*
X126292380Y-85216190D02*
X127006666Y-85216190D01*
X127149523Y-85263809D01*
X127244761Y-85359047D01*
X127292380Y-85501904D01*
X127292380Y-85597142D01*
X127292380Y-84263809D02*
X127292380Y-84740000D01*
X126292380Y-84740000D01*
X127197142Y-83359047D02*
X127244761Y-83406666D01*
X127292380Y-83549523D01*
X127292380Y-83644761D01*
X127244761Y-83787619D01*
X127149523Y-83882857D01*
X127054285Y-83930476D01*
X126863809Y-83978095D01*
X126720952Y-83978095D01*
X126530476Y-83930476D01*
X126435238Y-83882857D01*
X126340000Y-83787619D01*
X126292380Y-83644761D01*
X126292380Y-83549523D01*
X126340000Y-83406666D01*
X126387619Y-83359047D01*
X126292380Y-82644761D02*
X127006666Y-82644761D01*
X127149523Y-82692380D01*
X127244761Y-82787619D01*
X127292380Y-82930476D01*
X127292380Y-83025714D01*
X127292380Y-81692380D02*
X127292380Y-82168571D01*
X126292380Y-82168571D01*
X127197142Y-80787619D02*
X127244761Y-80835238D01*
X127292380Y-80978095D01*
X127292380Y-81073333D01*
X127244761Y-81216190D01*
X127149523Y-81311428D01*
X127054285Y-81359047D01*
X126863809Y-81406666D01*
X126720952Y-81406666D01*
X126530476Y-81359047D01*
X126435238Y-81311428D01*
X126340000Y-81216190D01*
X126292380Y-81073333D01*
X126292380Y-80978095D01*
X126340000Y-80835238D01*
X126387619Y-80787619D01*
D11*
%TO.C,R3*%
X121512500Y-80627258D02*
X121512500Y-80152742D01*
X120467500Y-80627258D02*
X120467500Y-80152742D01*
%TO.C,R2*%
X129992742Y-78942500D02*
X130467258Y-78942500D01*
X129992742Y-77897500D02*
X130467258Y-77897500D01*
%TO.C,R1*%
X133392742Y-86942500D02*
X133867258Y-86942500D01*
X133392742Y-85897500D02*
X133867258Y-85897500D01*
%TO.C,C3*%
X133810580Y-89720000D02*
X133529420Y-89720000D01*
X133810580Y-90740000D02*
X133529420Y-90740000D01*
%TO.C,C2*%
X134270000Y-83010580D02*
X134270000Y-82729420D01*
X133250000Y-83010580D02*
X133250000Y-82729420D01*
%TO.C,C1*%
X120450000Y-88259420D02*
X120450000Y-88540580D01*
X121470000Y-88259420D02*
X121470000Y-88540580D01*
%TO.C,U1*%
X126920000Y-80720000D02*
X123470000Y-80720000D01*
X126920000Y-80720000D02*
X128870000Y-80720000D01*
X126920000Y-90840000D02*
X124970000Y-90840000D01*
X126920000Y-90840000D02*
X128870000Y-90840000D01*
%TO.C,BZ2*%
X179820000Y-88170000D02*
G75*
G03*
X179820000Y-88170000I-11000000J0D01*
G01*
%TO.C,RV1*%
X134210000Y-108365000D02*
G75*
G03*
X134210000Y-108365000I-5715000J0D01*
G01*
%TO.C,REF\u002A\u002A*%
X180250000Y-92640000D02*
X182910000Y-92640000D01*
X180250000Y-87500000D02*
X180250000Y-92640000D01*
X182910000Y-87500000D02*
X182910000Y-92640000D01*
X180250000Y-87500000D02*
X182910000Y-87500000D01*
X180250000Y-86230000D02*
X180250000Y-84900000D01*
X180250000Y-84900000D02*
X181580000Y-84900000D01*
%TO.C,R3*%
D12*
X120012380Y-80556666D02*
X119536190Y-80890000D01*
X120012380Y-81128095D02*
X119012380Y-81128095D01*
X119012380Y-80747142D01*
X119060000Y-80651904D01*
X119107619Y-80604285D01*
X119202857Y-80556666D01*
X119345714Y-80556666D01*
X119440952Y-80604285D01*
X119488571Y-80651904D01*
X119536190Y-80747142D01*
X119536190Y-81128095D01*
X119012380Y-80223333D02*
X119012380Y-79604285D01*
X119393333Y-79937619D01*
X119393333Y-79794761D01*
X119440952Y-79699523D01*
X119488571Y-79651904D01*
X119583809Y-79604285D01*
X119821904Y-79604285D01*
X119917142Y-79651904D01*
X119964761Y-79699523D01*
X120012380Y-79794761D01*
X120012380Y-80080476D01*
X119964761Y-80175714D01*
X119917142Y-80223333D01*
%TO.C,R2*%
X130063333Y-77442380D02*
X129730000Y-76966190D01*
X129491904Y-77442380D02*
X129491904Y-76442380D01*
X129872857Y-76442380D01*
X129968095Y-76490000D01*
X130015714Y-76537619D01*
X130063333Y-76632857D01*
X130063333Y-76775714D01*
X130015714Y-76870952D01*
X129968095Y-76918571D01*
X129872857Y-76966190D01*
X129491904Y-76966190D01*
X130444285Y-76537619D02*
X130491904Y-76490000D01*
X130587142Y-76442380D01*
X130825238Y-76442380D01*
X130920476Y-76490000D01*
X130968095Y-76537619D01*
X131015714Y-76632857D01*
X131015714Y-76728095D01*
X130968095Y-76870952D01*
X130396666Y-77442380D01*
X131015714Y-77442380D01*
%TO.C,R1*%
X133463333Y-85442380D02*
X133130000Y-84966190D01*
X132891904Y-85442380D02*
X132891904Y-84442380D01*
X133272857Y-84442380D01*
X133368095Y-84490000D01*
X133415714Y-84537619D01*
X133463333Y-84632857D01*
X133463333Y-84775714D01*
X133415714Y-84870952D01*
X133368095Y-84918571D01*
X133272857Y-84966190D01*
X132891904Y-84966190D01*
X134415714Y-85442380D02*
X133844285Y-85442380D01*
X134130000Y-85442380D02*
X134130000Y-84442380D01*
X134034761Y-84585238D01*
X133939523Y-84680476D01*
X133844285Y-84728095D01*
%TO.C,C3*%
X133503333Y-92017142D02*
X133455714Y-92064761D01*
X133312857Y-92112380D01*
X133217619Y-92112380D01*
X133074761Y-92064761D01*
X132979523Y-91969523D01*
X132931904Y-91874285D01*
X132884285Y-91683809D01*
X132884285Y-91540952D01*
X132931904Y-91350476D01*
X132979523Y-91255238D01*
X133074761Y-91160000D01*
X133217619Y-91112380D01*
X133312857Y-91112380D01*
X133455714Y-91160000D01*
X133503333Y-91207619D01*
X133836666Y-91112380D02*
X134455714Y-91112380D01*
X134122380Y-91493333D01*
X134265238Y-91493333D01*
X134360476Y-91540952D01*
X134408095Y-91588571D01*
X134455714Y-91683809D01*
X134455714Y-91921904D01*
X134408095Y-92017142D01*
X134360476Y-92064761D01*
X134265238Y-92112380D01*
X133979523Y-92112380D01*
X133884285Y-92064761D01*
X133836666Y-92017142D01*
%TO.C,C2*%
X132687142Y-83036666D02*
X132734761Y-83084285D01*
X132782380Y-83227142D01*
X132782380Y-83322380D01*
X132734761Y-83465238D01*
X132639523Y-83560476D01*
X132544285Y-83608095D01*
X132353809Y-83655714D01*
X132210952Y-83655714D01*
X132020476Y-83608095D01*
X131925238Y-83560476D01*
X131830000Y-83465238D01*
X131782380Y-83322380D01*
X131782380Y-83227142D01*
X131830000Y-83084285D01*
X131877619Y-83036666D01*
X131877619Y-82655714D02*
X131830000Y-82608095D01*
X131782380Y-82512857D01*
X131782380Y-82274761D01*
X131830000Y-82179523D01*
X131877619Y-82131904D01*
X131972857Y-82084285D01*
X132068095Y-82084285D01*
X132210952Y-82131904D01*
X132782380Y-82703333D01*
X132782380Y-82084285D01*
%TO.C,C1*%
X119887142Y-88576666D02*
X119934761Y-88624285D01*
X119982380Y-88767142D01*
X119982380Y-88862380D01*
X119934761Y-89005238D01*
X119839523Y-89100476D01*
X119744285Y-89148095D01*
X119553809Y-89195714D01*
X119410952Y-89195714D01*
X119220476Y-89148095D01*
X119125238Y-89100476D01*
X119030000Y-89005238D01*
X118982380Y-88862380D01*
X118982380Y-88767142D01*
X119030000Y-88624285D01*
X119077619Y-88576666D01*
X119982380Y-87624285D02*
X119982380Y-88195714D01*
X119982380Y-87910000D02*
X118982380Y-87910000D01*
X119125238Y-88005238D01*
X119220476Y-88100476D01*
X119268095Y-88195714D01*
%TO.C,U1*%
X126158095Y-79332380D02*
X126158095Y-80141904D01*
X126205714Y-80237142D01*
X126253333Y-80284761D01*
X126348571Y-80332380D01*
X126539047Y-80332380D01*
X126634285Y-80284761D01*
X126681904Y-80237142D01*
X126729523Y-80141904D01*
X126729523Y-79332380D01*
X127729523Y-80332380D02*
X127158095Y-80332380D01*
X127443809Y-80332380D02*
X127443809Y-79332380D01*
X127348571Y-79475238D01*
X127253333Y-79570476D01*
X127158095Y-79618095D01*
%TO.C,RV1*%
X127974761Y-116032380D02*
X127641428Y-115556190D01*
X127403333Y-116032380D02*
X127403333Y-115032380D01*
X127784285Y-115032380D01*
X127879523Y-115080000D01*
X127927142Y-115127619D01*
X127974761Y-115222857D01*
X127974761Y-115365714D01*
X127927142Y-115460952D01*
X127879523Y-115508571D01*
X127784285Y-115556190D01*
X127403333Y-115556190D01*
X128260476Y-115032380D02*
X128593809Y-116032380D01*
X128927142Y-115032380D01*
X129784285Y-116032380D02*
X129212857Y-116032380D01*
X129498571Y-116032380D02*
X129498571Y-115032380D01*
X129403333Y-115175238D01*
X129308095Y-115270476D01*
X129212857Y-115318095D01*
%TD*%
M02*
