%TF.GenerationSoftware,KiCad,Pcbnew,(5.1.9-0-10_14)*%
%TF.CreationDate,2021-02-09T22:32:08+01:00*%
%TF.ProjectId,f_buzzer,665f6275-7a7a-4657-922e-6b696361645f,rev?*%
%TF.SameCoordinates,Original*%
%TF.FileFunction,Copper,L1,Top*%
%TF.FilePolarity,Positive*%
%FSLAX46Y46*%
G04 Gerber Fmt 4.6, Leading zero omitted, Abs format (unit mm)*
G04 Created by KiCad (PCBNEW (5.1.9-0-10_14)) date 2021-02-09 22:32:08*
%MOMM*%
%LPD*%
G01*
G04 APERTURE LIST*
%TA.AperFunction,ComponentPad*%
%ADD10O,1.500000X14.000000*%
%TD*%
%TA.AperFunction,ComponentPad*%
%ADD11O,1.500000X10.000000*%
%TD*%
%TA.AperFunction,ComponentPad*%
%ADD12O,1.600000X1.600000*%
%TD*%
%TA.AperFunction,ComponentPad*%
%ADD13R,1.600000X1.600000*%
%TD*%
%TA.AperFunction,ComponentPad*%
%ADD14C,1.524000*%
%TD*%
%TA.AperFunction,ComponentPad*%
%ADD15R,1.700000X1.700000*%
%TD*%
%TA.AperFunction,ComponentPad*%
%ADD16O,1.700000X1.700000*%
%TD*%
%TA.AperFunction,ComponentPad*%
%ADD17C,1.600000*%
%TD*%
%TA.AperFunction,Conductor*%
%ADD18C,0.250000*%
%TD*%
%TA.AperFunction,Conductor*%
%ADD19C,0.254000*%
%TD*%
%TA.AperFunction,Conductor*%
%ADD20C,0.100000*%
%TD*%
G04 APERTURE END LIST*
D10*
%TO.P,BZ1,2*%
%TO.N,Net-(BZ1-Pad2)*%
X161740000Y-99680000D03*
%TO.P,BZ1,1*%
%TO.N,Net-(BZ1-Pad1)*%
X161740000Y-85020000D03*
%TD*%
D11*
%TO.P,BZ2,2*%
%TO.N,Net-(BZ1-Pad2)*%
X168810000Y-93490000D03*
%TO.P,BZ2,1*%
%TO.N,Net-(BZ1-Pad1)*%
X168820000Y-82850000D03*
%TD*%
D12*
%TO.P,U1,16*%
%TO.N,VCC*%
X136740000Y-91280000D03*
%TO.P,U1,8*%
%TO.N,GND*%
X118960000Y-83660000D03*
%TO.P,U1,15*%
%TO.N,Net-(C2-Pad2)*%
X134200000Y-91280000D03*
%TO.P,U1,7*%
%TO.N,Net-(C1-Pad2)*%
X121500000Y-83660000D03*
%TO.P,U1,14*%
%TO.N,Net-(C2-Pad1)*%
X131660000Y-91280000D03*
%TO.P,U1,6*%
%TO.N,Net-(C1-Pad1)*%
X124040000Y-83660000D03*
%TO.P,U1,13*%
%TO.N,Net-(U1-Pad13)*%
X129120000Y-91280000D03*
%TO.P,U1,5*%
%TO.N,Net-(BZ1-Pad1)*%
X126580000Y-83660000D03*
%TO.P,U1,12*%
%TO.N,Net-(R1-Pad1)*%
X126580000Y-91280000D03*
%TO.P,U1,4*%
%TO.N,Net-(U1-Pad10)*%
X129120000Y-83660000D03*
%TO.P,U1,11*%
%TO.N,/DVR*%
X124040000Y-91280000D03*
%TO.P,U1,3*%
X131660000Y-83660000D03*
%TO.P,U1,10*%
%TO.N,Net-(U1-Pad10)*%
X121500000Y-91280000D03*
%TO.P,U1,2*%
%TO.N,Net-(R1-Pad1)*%
X134200000Y-83660000D03*
%TO.P,U1,9*%
%TO.N,GND*%
X118960000Y-91280000D03*
D13*
%TO.P,U1,1*%
X136740000Y-83660000D03*
%TD*%
D14*
%TO.P,RV1,3*%
%TO.N,Net-(C3-Pad1)*%
X131035000Y-108365000D03*
%TO.P,RV1,2*%
%TO.N,Net-(BZ1-Pad2)*%
X125955000Y-108365000D03*
%TO.P,RV1,1*%
%TO.N,Net-(BZ1-Pad1)*%
X128495000Y-105825000D03*
%TD*%
D15*
%TO.P,REF\u002A\u002A,1*%
%TO.N,VCC*%
X181580000Y-86230000D03*
D16*
%TO.P,REF\u002A\u002A,2*%
%TO.N,/DVR*%
X181580000Y-88770000D03*
%TO.P,REF\u002A\u002A,3*%
%TO.N,GND*%
X181580000Y-91310000D03*
%TD*%
D12*
%TO.P,R3,2*%
%TO.N,VCC*%
X141830000Y-78580000D03*
D17*
%TO.P,R3,1*%
%TO.N,Net-(C1-Pad2)*%
X134210000Y-78580000D03*
%TD*%
D12*
%TO.P,R2,2*%
%TO.N,Net-(C2-Pad2)*%
X134200000Y-95150000D03*
D17*
%TO.P,R2,1*%
%TO.N,VCC*%
X141820000Y-95150000D03*
%TD*%
D12*
%TO.P,R1,2*%
%TO.N,Net-(C3-Pad1)*%
X145120000Y-91280000D03*
D17*
%TO.P,R1,1*%
%TO.N,Net-(R1-Pad1)*%
X145120000Y-83660000D03*
%TD*%
%TO.P,C3,2*%
%TO.N,GND*%
X145010000Y-101880000D03*
%TO.P,C3,1*%
%TO.N,Net-(C3-Pad1)*%
X140010000Y-101880000D03*
%TD*%
%TO.P,C2,2*%
%TO.N,Net-(C2-Pad2)*%
X122470000Y-96230000D03*
%TO.P,C2,1*%
%TO.N,Net-(C2-Pad1)*%
X117470000Y-96230000D03*
%TD*%
%TO.P,C1,2*%
%TO.N,Net-(C1-Pad2)*%
X121820000Y-78700000D03*
%TO.P,C1,1*%
%TO.N,Net-(C1-Pad1)*%
X126820000Y-78700000D03*
%TD*%
D18*
%TO.N,Net-(C1-Pad2)*%
X121500000Y-79020000D02*
X121500000Y-83660000D01*
X121820000Y-78700000D02*
X121500000Y-79020000D01*
X132550000Y-76990000D02*
X134150000Y-78590000D01*
X123530000Y-76990000D02*
X132550000Y-76990000D01*
X121820000Y-78700000D02*
X123530000Y-76990000D01*
%TO.N,Net-(C1-Pad1)*%
X126820000Y-80880000D02*
X124040000Y-83660000D01*
X126820000Y-78700000D02*
X126820000Y-80880000D01*
%TO.N,Net-(C2-Pad2)*%
X134200000Y-91280000D02*
X134200000Y-95150000D01*
X134190000Y-95140000D02*
X134200000Y-95150000D01*
X123550000Y-95150000D02*
X122470000Y-96230000D01*
X134200000Y-95150000D02*
X123550000Y-95150000D01*
%TO.N,Net-(C2-Pad1)*%
X119000000Y-94700000D02*
X117470000Y-96230000D01*
X131660000Y-94170000D02*
X131130000Y-94700000D01*
X131130000Y-94700000D02*
X119000000Y-94700000D01*
X131660000Y-91280000D02*
X131660000Y-94170000D01*
%TO.N,Net-(C3-Pad1)*%
X145120000Y-96770000D02*
X140010000Y-101880000D01*
X145120000Y-91280000D02*
X145120000Y-96770000D01*
X137520000Y-101880000D02*
X140010000Y-101880000D01*
X131035000Y-108365000D02*
X137520000Y-101880000D01*
%TO.N,Net-(R1-Pad1)*%
X134200000Y-83660000D02*
X126580000Y-91280000D01*
X145120000Y-81980000D02*
X145120000Y-83660000D01*
X144540000Y-81400000D02*
X145120000Y-81980000D01*
X136460000Y-81400000D02*
X144540000Y-81400000D01*
X134200000Y-83660000D02*
X136460000Y-81400000D01*
%TO.N,/DVR*%
X131660000Y-83660000D02*
X124040000Y-91280000D01*
X169850000Y-77040000D02*
X138280000Y-77040000D01*
X138280000Y-77040000D02*
X131660000Y-83660000D01*
X181580000Y-88770000D02*
X169850000Y-77040000D01*
%TO.N,Net-(U1-Pad10)*%
X129120000Y-83660000D02*
X121500000Y-91280000D01*
%TD*%
D19*
%TO.N,GND*%
X122143886Y-77301312D02*
X121961335Y-77265000D01*
X121678665Y-77265000D01*
X121401426Y-77320147D01*
X121140273Y-77428320D01*
X120905241Y-77585363D01*
X120705363Y-77785241D01*
X120548320Y-78020273D01*
X120440147Y-78281426D01*
X120385000Y-78558665D01*
X120385000Y-78841335D01*
X120440147Y-79118574D01*
X120548320Y-79379727D01*
X120705363Y-79614759D01*
X120740000Y-79649396D01*
X120740001Y-82441956D01*
X120585241Y-82545363D01*
X120385363Y-82745241D01*
X120228320Y-82980273D01*
X120223933Y-82990865D01*
X120112385Y-82804869D01*
X119923414Y-82596481D01*
X119697420Y-82428963D01*
X119443087Y-82308754D01*
X119309039Y-82268096D01*
X119087000Y-82390085D01*
X119087000Y-83533000D01*
X119107000Y-83533000D01*
X119107000Y-83787000D01*
X119087000Y-83787000D01*
X119087000Y-84929915D01*
X119309039Y-85051904D01*
X119443087Y-85011246D01*
X119697420Y-84891037D01*
X119923414Y-84723519D01*
X120112385Y-84515131D01*
X120223933Y-84329135D01*
X120228320Y-84339727D01*
X120385363Y-84574759D01*
X120585241Y-84774637D01*
X120820273Y-84931680D01*
X121081426Y-85039853D01*
X121358665Y-85095000D01*
X121641335Y-85095000D01*
X121918574Y-85039853D01*
X122179727Y-84931680D01*
X122414759Y-84774637D01*
X122614637Y-84574759D01*
X122770000Y-84342241D01*
X122925363Y-84574759D01*
X123125241Y-84774637D01*
X123360273Y-84931680D01*
X123621426Y-85039853D01*
X123898665Y-85095000D01*
X124181335Y-85095000D01*
X124458574Y-85039853D01*
X124719727Y-84931680D01*
X124954759Y-84774637D01*
X125154637Y-84574759D01*
X125310000Y-84342241D01*
X125465363Y-84574759D01*
X125665241Y-84774637D01*
X125900273Y-84931680D01*
X126161426Y-85039853D01*
X126438665Y-85095000D01*
X126610198Y-85095000D01*
X121823887Y-89881312D01*
X121641335Y-89845000D01*
X121358665Y-89845000D01*
X121081426Y-89900147D01*
X120820273Y-90008320D01*
X120585241Y-90165363D01*
X120385363Y-90365241D01*
X120228320Y-90600273D01*
X120223933Y-90610865D01*
X120112385Y-90424869D01*
X119923414Y-90216481D01*
X119697420Y-90048963D01*
X119443087Y-89928754D01*
X119309039Y-89888096D01*
X119087000Y-90010085D01*
X119087000Y-91153000D01*
X119107000Y-91153000D01*
X119107000Y-91407000D01*
X119087000Y-91407000D01*
X119087000Y-92549915D01*
X119309039Y-92671904D01*
X119443087Y-92631246D01*
X119697420Y-92511037D01*
X119923414Y-92343519D01*
X120112385Y-92135131D01*
X120223933Y-91949135D01*
X120228320Y-91959727D01*
X120385363Y-92194759D01*
X120585241Y-92394637D01*
X120820273Y-92551680D01*
X121081426Y-92659853D01*
X121358665Y-92715000D01*
X121641335Y-92715000D01*
X121918574Y-92659853D01*
X122179727Y-92551680D01*
X122414759Y-92394637D01*
X122614637Y-92194759D01*
X122770000Y-91962241D01*
X122925363Y-92194759D01*
X123125241Y-92394637D01*
X123360273Y-92551680D01*
X123621426Y-92659853D01*
X123898665Y-92715000D01*
X124181335Y-92715000D01*
X124458574Y-92659853D01*
X124719727Y-92551680D01*
X124954759Y-92394637D01*
X125154637Y-92194759D01*
X125310000Y-91962241D01*
X125465363Y-92194759D01*
X125665241Y-92394637D01*
X125900273Y-92551680D01*
X126161426Y-92659853D01*
X126438665Y-92715000D01*
X126721335Y-92715000D01*
X126998574Y-92659853D01*
X127259727Y-92551680D01*
X127494759Y-92394637D01*
X127694637Y-92194759D01*
X127850000Y-91962241D01*
X128005363Y-92194759D01*
X128205241Y-92394637D01*
X128440273Y-92551680D01*
X128701426Y-92659853D01*
X128978665Y-92715000D01*
X129261335Y-92715000D01*
X129538574Y-92659853D01*
X129799727Y-92551680D01*
X130034759Y-92394637D01*
X130234637Y-92194759D01*
X130390000Y-91962241D01*
X130545363Y-92194759D01*
X130745241Y-92394637D01*
X130900000Y-92498044D01*
X130900001Y-93855198D01*
X130815199Y-93940000D01*
X119037325Y-93940000D01*
X119000000Y-93936324D01*
X118962675Y-93940000D01*
X118962667Y-93940000D01*
X118851014Y-93950997D01*
X118707753Y-93994454D01*
X118575724Y-94065026D01*
X118459999Y-94159999D01*
X118436201Y-94188997D01*
X117793886Y-94831312D01*
X117611335Y-94795000D01*
X117328665Y-94795000D01*
X117051426Y-94850147D01*
X116790273Y-94958320D01*
X116555241Y-95115363D01*
X116355363Y-95315241D01*
X116198320Y-95550273D01*
X116090147Y-95811426D01*
X116035000Y-96088665D01*
X116035000Y-96371335D01*
X116090147Y-96648574D01*
X116198320Y-96909727D01*
X116355363Y-97144759D01*
X116555241Y-97344637D01*
X116790273Y-97501680D01*
X117051426Y-97609853D01*
X117328665Y-97665000D01*
X117611335Y-97665000D01*
X117888574Y-97609853D01*
X118149727Y-97501680D01*
X118384759Y-97344637D01*
X118584637Y-97144759D01*
X118741680Y-96909727D01*
X118849853Y-96648574D01*
X118905000Y-96371335D01*
X118905000Y-96088665D01*
X118868688Y-95906114D01*
X119314802Y-95460000D01*
X121258638Y-95460000D01*
X121198320Y-95550273D01*
X121090147Y-95811426D01*
X121035000Y-96088665D01*
X121035000Y-96371335D01*
X121090147Y-96648574D01*
X121198320Y-96909727D01*
X121355363Y-97144759D01*
X121555241Y-97344637D01*
X121790273Y-97501680D01*
X122051426Y-97609853D01*
X122328665Y-97665000D01*
X122611335Y-97665000D01*
X122888574Y-97609853D01*
X123149727Y-97501680D01*
X123384759Y-97344637D01*
X123584637Y-97144759D01*
X123741680Y-96909727D01*
X123849853Y-96648574D01*
X123905000Y-96371335D01*
X123905000Y-96088665D01*
X123869461Y-95910000D01*
X132981957Y-95910000D01*
X133085363Y-96064759D01*
X133285241Y-96264637D01*
X133520273Y-96421680D01*
X133781426Y-96529853D01*
X134058665Y-96585000D01*
X134341335Y-96585000D01*
X134618574Y-96529853D01*
X134879727Y-96421680D01*
X135114759Y-96264637D01*
X135314637Y-96064759D01*
X135471680Y-95829727D01*
X135579853Y-95568574D01*
X135635000Y-95291335D01*
X135635000Y-95008665D01*
X140385000Y-95008665D01*
X140385000Y-95291335D01*
X140440147Y-95568574D01*
X140548320Y-95829727D01*
X140705363Y-96064759D01*
X140905241Y-96264637D01*
X141140273Y-96421680D01*
X141401426Y-96529853D01*
X141678665Y-96585000D01*
X141961335Y-96585000D01*
X142238574Y-96529853D01*
X142499727Y-96421680D01*
X142734759Y-96264637D01*
X142934637Y-96064759D01*
X143091680Y-95829727D01*
X143199853Y-95568574D01*
X143255000Y-95291335D01*
X143255000Y-95008665D01*
X143199853Y-94731426D01*
X143091680Y-94470273D01*
X142934637Y-94235241D01*
X142734759Y-94035363D01*
X142499727Y-93878320D01*
X142238574Y-93770147D01*
X141961335Y-93715000D01*
X141678665Y-93715000D01*
X141401426Y-93770147D01*
X141140273Y-93878320D01*
X140905241Y-94035363D01*
X140705363Y-94235241D01*
X140548320Y-94470273D01*
X140440147Y-94731426D01*
X140385000Y-95008665D01*
X135635000Y-95008665D01*
X135579853Y-94731426D01*
X135471680Y-94470273D01*
X135314637Y-94235241D01*
X135114759Y-94035363D01*
X134960000Y-93931957D01*
X134960000Y-92498043D01*
X135114759Y-92394637D01*
X135314637Y-92194759D01*
X135470000Y-91962241D01*
X135625363Y-92194759D01*
X135825241Y-92394637D01*
X136060273Y-92551680D01*
X136321426Y-92659853D01*
X136598665Y-92715000D01*
X136881335Y-92715000D01*
X137158574Y-92659853D01*
X137419727Y-92551680D01*
X137654759Y-92394637D01*
X137854637Y-92194759D01*
X138011680Y-91959727D01*
X138119853Y-91698574D01*
X138175000Y-91421335D01*
X138175000Y-91138665D01*
X138119853Y-90861426D01*
X138011680Y-90600273D01*
X137854637Y-90365241D01*
X137654759Y-90165363D01*
X137419727Y-90008320D01*
X137158574Y-89900147D01*
X136881335Y-89845000D01*
X136598665Y-89845000D01*
X136321426Y-89900147D01*
X136060273Y-90008320D01*
X135825241Y-90165363D01*
X135625363Y-90365241D01*
X135470000Y-90597759D01*
X135314637Y-90365241D01*
X135114759Y-90165363D01*
X134879727Y-90008320D01*
X134618574Y-89900147D01*
X134341335Y-89845000D01*
X134058665Y-89845000D01*
X133781426Y-89900147D01*
X133520273Y-90008320D01*
X133285241Y-90165363D01*
X133085363Y-90365241D01*
X132930000Y-90597759D01*
X132774637Y-90365241D01*
X132574759Y-90165363D01*
X132339727Y-90008320D01*
X132078574Y-89900147D01*
X131801335Y-89845000D01*
X131518665Y-89845000D01*
X131241426Y-89900147D01*
X130980273Y-90008320D01*
X130745241Y-90165363D01*
X130545363Y-90365241D01*
X130390000Y-90597759D01*
X130234637Y-90365241D01*
X130034759Y-90165363D01*
X129799727Y-90008320D01*
X129538574Y-89900147D01*
X129261335Y-89845000D01*
X129089801Y-89845000D01*
X133876114Y-85058688D01*
X134058665Y-85095000D01*
X134341335Y-85095000D01*
X134618574Y-85039853D01*
X134879727Y-84931680D01*
X135114759Y-84774637D01*
X135313357Y-84576039D01*
X135314188Y-84584482D01*
X135350498Y-84704180D01*
X135409463Y-84814494D01*
X135488815Y-84911185D01*
X135585506Y-84990537D01*
X135695820Y-85049502D01*
X135815518Y-85085812D01*
X135940000Y-85098072D01*
X136454250Y-85095000D01*
X136613000Y-84936250D01*
X136613000Y-83787000D01*
X136867000Y-83787000D01*
X136867000Y-84936250D01*
X137025750Y-85095000D01*
X137540000Y-85098072D01*
X137664482Y-85085812D01*
X137784180Y-85049502D01*
X137894494Y-84990537D01*
X137991185Y-84911185D01*
X138070537Y-84814494D01*
X138129502Y-84704180D01*
X138165812Y-84584482D01*
X138178072Y-84460000D01*
X138175000Y-83945750D01*
X138016250Y-83787000D01*
X136867000Y-83787000D01*
X136613000Y-83787000D01*
X136593000Y-83787000D01*
X136593000Y-83533000D01*
X136613000Y-83533000D01*
X136613000Y-82383750D01*
X136867000Y-82383750D01*
X136867000Y-83533000D01*
X138016250Y-83533000D01*
X138175000Y-83374250D01*
X138178072Y-82860000D01*
X138165812Y-82735518D01*
X138129502Y-82615820D01*
X138070537Y-82505506D01*
X137991185Y-82408815D01*
X137894494Y-82329463D01*
X137784180Y-82270498D01*
X137664482Y-82234188D01*
X137540000Y-82221928D01*
X137025750Y-82225000D01*
X136867000Y-82383750D01*
X136613000Y-82383750D01*
X136582026Y-82352776D01*
X136774802Y-82160000D01*
X144225199Y-82160000D01*
X144360000Y-82294802D01*
X144360000Y-82441956D01*
X144205241Y-82545363D01*
X144005363Y-82745241D01*
X143848320Y-82980273D01*
X143740147Y-83241426D01*
X143685000Y-83518665D01*
X143685000Y-83801335D01*
X143740147Y-84078574D01*
X143848320Y-84339727D01*
X144005363Y-84574759D01*
X144205241Y-84774637D01*
X144440273Y-84931680D01*
X144701426Y-85039853D01*
X144978665Y-85095000D01*
X145261335Y-85095000D01*
X145538574Y-85039853D01*
X145799727Y-84931680D01*
X146034759Y-84774637D01*
X146234637Y-84574759D01*
X146391680Y-84339727D01*
X146499853Y-84078574D01*
X146555000Y-83801335D01*
X146555000Y-83518665D01*
X146499853Y-83241426D01*
X146391680Y-82980273D01*
X146234637Y-82745241D01*
X146034759Y-82545363D01*
X145880000Y-82441957D01*
X145880000Y-82017323D01*
X145883676Y-81980000D01*
X145880000Y-81942677D01*
X145880000Y-81942667D01*
X145869003Y-81831014D01*
X145825546Y-81687753D01*
X145754974Y-81555724D01*
X145660001Y-81439999D01*
X145631004Y-81416202D01*
X145103803Y-80889002D01*
X145080001Y-80859999D01*
X144964276Y-80765026D01*
X144832247Y-80694454D01*
X144688986Y-80650997D01*
X144577333Y-80640000D01*
X144577322Y-80640000D01*
X144540000Y-80636324D01*
X144502678Y-80640000D01*
X136497325Y-80640000D01*
X136460000Y-80636324D01*
X136422675Y-80640000D01*
X136422667Y-80640000D01*
X136311014Y-80650997D01*
X136167753Y-80694454D01*
X136035724Y-80765026D01*
X135919999Y-80859999D01*
X135896201Y-80888997D01*
X134523886Y-82261312D01*
X134341335Y-82225000D01*
X134169801Y-82225000D01*
X138594802Y-77800000D01*
X140625320Y-77800000D01*
X140558320Y-77900273D01*
X140450147Y-78161426D01*
X140395000Y-78438665D01*
X140395000Y-78721335D01*
X140450147Y-78998574D01*
X140558320Y-79259727D01*
X140715363Y-79494759D01*
X140915241Y-79694637D01*
X141150273Y-79851680D01*
X141411426Y-79959853D01*
X141688665Y-80015000D01*
X141971335Y-80015000D01*
X142248574Y-79959853D01*
X142509727Y-79851680D01*
X142744759Y-79694637D01*
X142944637Y-79494759D01*
X143101680Y-79259727D01*
X143209853Y-78998574D01*
X143265000Y-78721335D01*
X143265000Y-78438665D01*
X143209853Y-78161426D01*
X143101680Y-77900273D01*
X143034680Y-77800000D01*
X160744364Y-77800000D01*
X160582844Y-77996812D01*
X160454237Y-78237419D01*
X160375041Y-78498493D01*
X160355001Y-78701963D01*
X160355000Y-91338036D01*
X160375040Y-91541506D01*
X160454236Y-91802580D01*
X160582843Y-92043187D01*
X160755919Y-92254080D01*
X160872797Y-92350000D01*
X160755920Y-92445919D01*
X160582844Y-92656812D01*
X160454237Y-92897419D01*
X160375041Y-93158493D01*
X160355001Y-93361963D01*
X160355000Y-105998036D01*
X160375040Y-106201506D01*
X160454236Y-106462580D01*
X160582843Y-106703187D01*
X160755919Y-106914080D01*
X160966812Y-107087157D01*
X161207419Y-107215764D01*
X161468493Y-107294960D01*
X161740000Y-107321701D01*
X162011506Y-107294960D01*
X162272580Y-107215764D01*
X162513187Y-107087157D01*
X162724080Y-106914081D01*
X162897157Y-106703188D01*
X163025764Y-106462581D01*
X163104960Y-106201507D01*
X163125000Y-105998037D01*
X163125000Y-93361963D01*
X163104960Y-93158493D01*
X163025764Y-92897419D01*
X162897157Y-92656812D01*
X162724081Y-92445919D01*
X162607203Y-92350000D01*
X162724080Y-92254081D01*
X162897157Y-92043188D01*
X163025764Y-91802581D01*
X163104960Y-91541507D01*
X163125000Y-91338037D01*
X163125000Y-78701963D01*
X163104960Y-78498493D01*
X163025764Y-78237419D01*
X162897157Y-77996812D01*
X162735637Y-77800000D01*
X167684848Y-77800000D01*
X167662843Y-77826813D01*
X167534236Y-78067420D01*
X167455040Y-78328494D01*
X167435000Y-78531964D01*
X167435001Y-87168037D01*
X167455041Y-87371507D01*
X167534237Y-87632581D01*
X167662844Y-87873188D01*
X167835920Y-88084081D01*
X167935612Y-88165896D01*
X167825919Y-88255920D01*
X167652843Y-88466813D01*
X167524236Y-88707420D01*
X167445040Y-88968494D01*
X167425000Y-89171964D01*
X167425001Y-97808037D01*
X167445041Y-98011507D01*
X167524237Y-98272581D01*
X167652844Y-98513188D01*
X167825920Y-98724081D01*
X168036813Y-98897157D01*
X168277420Y-99025764D01*
X168538494Y-99104960D01*
X168810000Y-99131701D01*
X169081507Y-99104960D01*
X169342581Y-99025764D01*
X169583188Y-98897157D01*
X169794081Y-98724081D01*
X169967157Y-98513188D01*
X170095764Y-98272581D01*
X170174960Y-98011507D01*
X170195000Y-97808037D01*
X170195000Y-91666890D01*
X180138524Y-91666890D01*
X180183175Y-91814099D01*
X180308359Y-92076920D01*
X180482412Y-92310269D01*
X180698645Y-92505178D01*
X180948748Y-92654157D01*
X181223109Y-92751481D01*
X181453000Y-92630814D01*
X181453000Y-91437000D01*
X181707000Y-91437000D01*
X181707000Y-92630814D01*
X181936891Y-92751481D01*
X182211252Y-92654157D01*
X182461355Y-92505178D01*
X182677588Y-92310269D01*
X182851641Y-92076920D01*
X182976825Y-91814099D01*
X183021476Y-91666890D01*
X182900155Y-91437000D01*
X181707000Y-91437000D01*
X181453000Y-91437000D01*
X180259845Y-91437000D01*
X180138524Y-91666890D01*
X170195000Y-91666890D01*
X170195000Y-89171963D01*
X170174960Y-88968493D01*
X170095764Y-88707419D01*
X169967157Y-88466812D01*
X169794080Y-88255919D01*
X169694388Y-88174104D01*
X169804081Y-88084081D01*
X169977157Y-87873188D01*
X170105764Y-87632581D01*
X170184960Y-87371507D01*
X170205000Y-87168037D01*
X170205000Y-78531963D01*
X170198209Y-78463010D01*
X180138790Y-88403592D01*
X180095000Y-88623740D01*
X180095000Y-88916260D01*
X180152068Y-89203158D01*
X180264010Y-89473411D01*
X180426525Y-89716632D01*
X180633368Y-89923475D01*
X180815534Y-90045195D01*
X180698645Y-90114822D01*
X180482412Y-90309731D01*
X180308359Y-90543080D01*
X180183175Y-90805901D01*
X180138524Y-90953110D01*
X180259845Y-91183000D01*
X181453000Y-91183000D01*
X181453000Y-91163000D01*
X181707000Y-91163000D01*
X181707000Y-91183000D01*
X182900155Y-91183000D01*
X183021476Y-90953110D01*
X182976825Y-90805901D01*
X182851641Y-90543080D01*
X182677588Y-90309731D01*
X182461355Y-90114822D01*
X182344466Y-90045195D01*
X182526632Y-89923475D01*
X182733475Y-89716632D01*
X182895990Y-89473411D01*
X183007932Y-89203158D01*
X183065000Y-88916260D01*
X183065000Y-88623740D01*
X183007932Y-88336842D01*
X182895990Y-88066589D01*
X182733475Y-87823368D01*
X182601620Y-87691513D01*
X182674180Y-87669502D01*
X182784494Y-87610537D01*
X182881185Y-87531185D01*
X182960537Y-87434494D01*
X183019502Y-87324180D01*
X183055812Y-87204482D01*
X183068072Y-87080000D01*
X183068072Y-85380000D01*
X183055812Y-85255518D01*
X183019502Y-85135820D01*
X182960537Y-85025506D01*
X182881185Y-84928815D01*
X182784494Y-84849463D01*
X182674180Y-84790498D01*
X182554482Y-84754188D01*
X182430000Y-84741928D01*
X180730000Y-84741928D01*
X180605518Y-84754188D01*
X180485820Y-84790498D01*
X180375506Y-84849463D01*
X180278815Y-84928815D01*
X180199463Y-85025506D01*
X180140498Y-85135820D01*
X180104188Y-85255518D01*
X180091928Y-85380000D01*
X180091928Y-86207126D01*
X172821125Y-78936323D01*
X180540497Y-78936323D01*
X180540497Y-79363677D01*
X180623870Y-79782821D01*
X180787412Y-80177645D01*
X181024837Y-80532977D01*
X181327023Y-80835163D01*
X181682355Y-81072588D01*
X182077179Y-81236130D01*
X182496323Y-81319503D01*
X182923677Y-81319503D01*
X183342821Y-81236130D01*
X183737645Y-81072588D01*
X184092977Y-80835163D01*
X184395163Y-80532977D01*
X184632588Y-80177645D01*
X184796130Y-79782821D01*
X184879503Y-79363677D01*
X184879503Y-78936323D01*
X184796130Y-78517179D01*
X184632588Y-78122355D01*
X184395163Y-77767023D01*
X184092977Y-77464837D01*
X183737645Y-77227412D01*
X183342821Y-77063870D01*
X182923677Y-76980497D01*
X182496323Y-76980497D01*
X182077179Y-77063870D01*
X181682355Y-77227412D01*
X181327023Y-77464837D01*
X181024837Y-77767023D01*
X180787412Y-78122355D01*
X180623870Y-78517179D01*
X180540497Y-78936323D01*
X172821125Y-78936323D01*
X170694801Y-76810000D01*
X182677721Y-76810000D01*
X183163893Y-76857670D01*
X183600498Y-76989489D01*
X184003185Y-77203600D01*
X184356612Y-77491848D01*
X184647327Y-77843261D01*
X184864242Y-78244439D01*
X184999106Y-78680113D01*
X185050000Y-79164344D01*
X185050001Y-93117711D01*
X185002330Y-93603894D01*
X184870512Y-94040497D01*
X184656399Y-94443186D01*
X184368150Y-94796613D01*
X184016739Y-95087327D01*
X183615564Y-95304240D01*
X183179886Y-95439106D01*
X182695664Y-95490000D01*
X178677581Y-95490000D01*
X178647937Y-95492920D01*
X178629238Y-95492789D01*
X178620067Y-95493689D01*
X178037777Y-95554890D01*
X177979191Y-95566916D01*
X177920420Y-95578127D01*
X177911598Y-95580790D01*
X177352285Y-95753928D01*
X177297167Y-95777098D01*
X177241678Y-95799516D01*
X177233542Y-95803843D01*
X176718510Y-96082319D01*
X176668936Y-96115757D01*
X176618862Y-96148524D01*
X176611721Y-96154348D01*
X176160588Y-96527558D01*
X176118431Y-96570010D01*
X176075699Y-96611856D01*
X176069825Y-96618957D01*
X175699773Y-97072685D01*
X175666679Y-97122496D01*
X175632873Y-97171868D01*
X175628490Y-97179974D01*
X175353616Y-97696938D01*
X175330812Y-97752265D01*
X175307256Y-97807225D01*
X175304531Y-97816029D01*
X175135304Y-98376536D01*
X175123682Y-98435231D01*
X175111248Y-98493727D01*
X175110285Y-98502892D01*
X175053150Y-99085595D01*
X175050000Y-99117582D01*
X175050001Y-105617711D01*
X175002330Y-106103894D01*
X174870512Y-106540497D01*
X174656399Y-106943186D01*
X174368150Y-107296613D01*
X174016739Y-107587327D01*
X173615564Y-107804240D01*
X173179886Y-107939106D01*
X172695664Y-107990000D01*
X143177581Y-107990000D01*
X143147937Y-107992920D01*
X143129238Y-107992789D01*
X143120067Y-107993689D01*
X142537777Y-108054890D01*
X142479191Y-108066916D01*
X142420420Y-108078127D01*
X142411598Y-108080790D01*
X141852285Y-108253928D01*
X141797167Y-108277098D01*
X141741678Y-108299516D01*
X141733542Y-108303843D01*
X141218510Y-108582319D01*
X141168936Y-108615757D01*
X141118862Y-108648524D01*
X141111721Y-108654348D01*
X140660588Y-109027558D01*
X140618431Y-109070010D01*
X140575699Y-109111856D01*
X140569825Y-109118957D01*
X140199773Y-109572685D01*
X140166679Y-109622496D01*
X140132873Y-109671868D01*
X140128490Y-109679974D01*
X139853616Y-110196938D01*
X139830812Y-110252265D01*
X139807256Y-110307225D01*
X139804531Y-110316029D01*
X139635304Y-110876536D01*
X139623682Y-110935231D01*
X139611248Y-110993727D01*
X139610285Y-111002892D01*
X139553150Y-111585595D01*
X139553150Y-111585608D01*
X139550001Y-111617581D01*
X139550000Y-117117721D01*
X139502330Y-117603894D01*
X139370512Y-118040497D01*
X139156399Y-118443186D01*
X138868150Y-118796613D01*
X138516739Y-119087327D01*
X138115564Y-119304240D01*
X137679886Y-119439106D01*
X137195664Y-119490000D01*
X117242279Y-119490000D01*
X116756106Y-119442330D01*
X116319503Y-119310512D01*
X115916814Y-119096399D01*
X115563387Y-118808150D01*
X115272673Y-118456739D01*
X115055760Y-118055564D01*
X114920894Y-117619886D01*
X114870000Y-117135664D01*
X114870000Y-116936323D01*
X115040497Y-116936323D01*
X115040497Y-117363677D01*
X115123870Y-117782821D01*
X115287412Y-118177645D01*
X115524837Y-118532977D01*
X115827023Y-118835163D01*
X116182355Y-119072588D01*
X116577179Y-119236130D01*
X116996323Y-119319503D01*
X117423677Y-119319503D01*
X117842821Y-119236130D01*
X118237645Y-119072588D01*
X118592977Y-118835163D01*
X118895163Y-118532977D01*
X119132588Y-118177645D01*
X119296130Y-117782821D01*
X119379503Y-117363677D01*
X119379503Y-116936323D01*
X119296130Y-116517179D01*
X119132588Y-116122355D01*
X118895163Y-115767023D01*
X118592977Y-115464837D01*
X118237645Y-115227412D01*
X117842821Y-115063870D01*
X117423677Y-114980497D01*
X116996323Y-114980497D01*
X116577179Y-115063870D01*
X116182355Y-115227412D01*
X115827023Y-115464837D01*
X115524837Y-115767023D01*
X115287412Y-116122355D01*
X115123870Y-116517179D01*
X115040497Y-116936323D01*
X114870000Y-116936323D01*
X114870000Y-108227408D01*
X124558000Y-108227408D01*
X124558000Y-108502592D01*
X124611686Y-108772490D01*
X124716995Y-109026727D01*
X124869880Y-109255535D01*
X125064465Y-109450120D01*
X125293273Y-109603005D01*
X125547510Y-109708314D01*
X125817408Y-109762000D01*
X126092592Y-109762000D01*
X126362490Y-109708314D01*
X126616727Y-109603005D01*
X126845535Y-109450120D01*
X127040120Y-109255535D01*
X127193005Y-109026727D01*
X127298314Y-108772490D01*
X127352000Y-108502592D01*
X127352000Y-108227408D01*
X129638000Y-108227408D01*
X129638000Y-108502592D01*
X129691686Y-108772490D01*
X129796995Y-109026727D01*
X129949880Y-109255535D01*
X130144465Y-109450120D01*
X130373273Y-109603005D01*
X130627510Y-109708314D01*
X130897408Y-109762000D01*
X131172592Y-109762000D01*
X131442490Y-109708314D01*
X131696727Y-109603005D01*
X131925535Y-109450120D01*
X132120120Y-109255535D01*
X132273005Y-109026727D01*
X132378314Y-108772490D01*
X132432000Y-108502592D01*
X132432000Y-108227408D01*
X132401372Y-108073429D01*
X137834802Y-102640000D01*
X138791957Y-102640000D01*
X138895363Y-102794759D01*
X139095241Y-102994637D01*
X139330273Y-103151680D01*
X139591426Y-103259853D01*
X139868665Y-103315000D01*
X140151335Y-103315000D01*
X140428574Y-103259853D01*
X140689727Y-103151680D01*
X140924759Y-102994637D01*
X141046694Y-102872702D01*
X144196903Y-102872702D01*
X144268486Y-103116671D01*
X144523996Y-103237571D01*
X144798184Y-103306300D01*
X145080512Y-103320217D01*
X145360130Y-103278787D01*
X145626292Y-103183603D01*
X145751514Y-103116671D01*
X145823097Y-102872702D01*
X145010000Y-102059605D01*
X144196903Y-102872702D01*
X141046694Y-102872702D01*
X141124637Y-102794759D01*
X141281680Y-102559727D01*
X141389853Y-102298574D01*
X141445000Y-102021335D01*
X141445000Y-101950512D01*
X143569783Y-101950512D01*
X143611213Y-102230130D01*
X143706397Y-102496292D01*
X143773329Y-102621514D01*
X144017298Y-102693097D01*
X144830395Y-101880000D01*
X145189605Y-101880000D01*
X146002702Y-102693097D01*
X146246671Y-102621514D01*
X146367571Y-102366004D01*
X146436300Y-102091816D01*
X146450217Y-101809488D01*
X146408787Y-101529870D01*
X146313603Y-101263708D01*
X146246671Y-101138486D01*
X146002702Y-101066903D01*
X145189605Y-101880000D01*
X144830395Y-101880000D01*
X144017298Y-101066903D01*
X143773329Y-101138486D01*
X143652429Y-101393996D01*
X143583700Y-101668184D01*
X143569783Y-101950512D01*
X141445000Y-101950512D01*
X141445000Y-101738665D01*
X141408688Y-101556113D01*
X142077503Y-100887298D01*
X144196903Y-100887298D01*
X145010000Y-101700395D01*
X145823097Y-100887298D01*
X145751514Y-100643329D01*
X145496004Y-100522429D01*
X145221816Y-100453700D01*
X144939488Y-100439783D01*
X144659870Y-100481213D01*
X144393708Y-100576397D01*
X144268486Y-100643329D01*
X144196903Y-100887298D01*
X142077503Y-100887298D01*
X145631003Y-97333799D01*
X145660001Y-97310001D01*
X145754974Y-97194276D01*
X145825546Y-97062247D01*
X145869003Y-96918986D01*
X145880000Y-96807333D01*
X145880000Y-96807324D01*
X145883676Y-96770001D01*
X145880000Y-96732678D01*
X145880000Y-92498043D01*
X146034759Y-92394637D01*
X146234637Y-92194759D01*
X146391680Y-91959727D01*
X146499853Y-91698574D01*
X146555000Y-91421335D01*
X146555000Y-91138665D01*
X146499853Y-90861426D01*
X146391680Y-90600273D01*
X146234637Y-90365241D01*
X146034759Y-90165363D01*
X145799727Y-90008320D01*
X145538574Y-89900147D01*
X145261335Y-89845000D01*
X144978665Y-89845000D01*
X144701426Y-89900147D01*
X144440273Y-90008320D01*
X144205241Y-90165363D01*
X144005363Y-90365241D01*
X143848320Y-90600273D01*
X143740147Y-90861426D01*
X143685000Y-91138665D01*
X143685000Y-91421335D01*
X143740147Y-91698574D01*
X143848320Y-91959727D01*
X144005363Y-92194759D01*
X144205241Y-92394637D01*
X144360000Y-92498044D01*
X144360001Y-96455197D01*
X140333887Y-100481312D01*
X140151335Y-100445000D01*
X139868665Y-100445000D01*
X139591426Y-100500147D01*
X139330273Y-100608320D01*
X139095241Y-100765363D01*
X138895363Y-100965241D01*
X138791957Y-101120000D01*
X137557323Y-101120000D01*
X137520000Y-101116324D01*
X137482677Y-101120000D01*
X137482667Y-101120000D01*
X137371014Y-101130997D01*
X137227753Y-101174454D01*
X137095723Y-101245026D01*
X137012083Y-101313668D01*
X136979999Y-101339999D01*
X136956201Y-101368997D01*
X131326571Y-106998628D01*
X131172592Y-106968000D01*
X130897408Y-106968000D01*
X130627510Y-107021686D01*
X130373273Y-107126995D01*
X130144465Y-107279880D01*
X129949880Y-107474465D01*
X129796995Y-107703273D01*
X129691686Y-107957510D01*
X129638000Y-108227408D01*
X127352000Y-108227408D01*
X127298314Y-107957510D01*
X127193005Y-107703273D01*
X127040120Y-107474465D01*
X126845535Y-107279880D01*
X126616727Y-107126995D01*
X126362490Y-107021686D01*
X126092592Y-106968000D01*
X125817408Y-106968000D01*
X125547510Y-107021686D01*
X125293273Y-107126995D01*
X125064465Y-107279880D01*
X124869880Y-107474465D01*
X124716995Y-107703273D01*
X124611686Y-107957510D01*
X124558000Y-108227408D01*
X114870000Y-108227408D01*
X114870000Y-105687408D01*
X127098000Y-105687408D01*
X127098000Y-105962592D01*
X127151686Y-106232490D01*
X127256995Y-106486727D01*
X127409880Y-106715535D01*
X127604465Y-106910120D01*
X127833273Y-107063005D01*
X128087510Y-107168314D01*
X128357408Y-107222000D01*
X128632592Y-107222000D01*
X128902490Y-107168314D01*
X129156727Y-107063005D01*
X129385535Y-106910120D01*
X129580120Y-106715535D01*
X129733005Y-106486727D01*
X129838314Y-106232490D01*
X129892000Y-105962592D01*
X129892000Y-105687408D01*
X129838314Y-105417510D01*
X129733005Y-105163273D01*
X129580120Y-104934465D01*
X129385535Y-104739880D01*
X129156727Y-104586995D01*
X128902490Y-104481686D01*
X128632592Y-104428000D01*
X128357408Y-104428000D01*
X128087510Y-104481686D01*
X127833273Y-104586995D01*
X127604465Y-104739880D01*
X127409880Y-104934465D01*
X127256995Y-105163273D01*
X127151686Y-105417510D01*
X127098000Y-105687408D01*
X114870000Y-105687408D01*
X114870000Y-91629040D01*
X117568091Y-91629040D01*
X117662930Y-91893881D01*
X117807615Y-92135131D01*
X117996586Y-92343519D01*
X118222580Y-92511037D01*
X118476913Y-92631246D01*
X118610961Y-92671904D01*
X118833000Y-92549915D01*
X118833000Y-91407000D01*
X117689376Y-91407000D01*
X117568091Y-91629040D01*
X114870000Y-91629040D01*
X114870000Y-90930960D01*
X117568091Y-90930960D01*
X117689376Y-91153000D01*
X118833000Y-91153000D01*
X118833000Y-90010085D01*
X118610961Y-89888096D01*
X118476913Y-89928754D01*
X118222580Y-90048963D01*
X117996586Y-90216481D01*
X117807615Y-90424869D01*
X117662930Y-90666119D01*
X117568091Y-90930960D01*
X114870000Y-90930960D01*
X114870000Y-84009040D01*
X117568091Y-84009040D01*
X117662930Y-84273881D01*
X117807615Y-84515131D01*
X117996586Y-84723519D01*
X118222580Y-84891037D01*
X118476913Y-85011246D01*
X118610961Y-85051904D01*
X118833000Y-84929915D01*
X118833000Y-83787000D01*
X117689376Y-83787000D01*
X117568091Y-84009040D01*
X114870000Y-84009040D01*
X114870000Y-83310960D01*
X117568091Y-83310960D01*
X117689376Y-83533000D01*
X118833000Y-83533000D01*
X118833000Y-82390085D01*
X118610961Y-82268096D01*
X118476913Y-82308754D01*
X118222580Y-82428963D01*
X117996586Y-82596481D01*
X117807615Y-82804869D01*
X117662930Y-83046119D01*
X117568091Y-83310960D01*
X114870000Y-83310960D01*
X114870000Y-79182279D01*
X114894116Y-78936323D01*
X115040497Y-78936323D01*
X115040497Y-79363677D01*
X115123870Y-79782821D01*
X115287412Y-80177645D01*
X115524837Y-80532977D01*
X115827023Y-80835163D01*
X116182355Y-81072588D01*
X116577179Y-81236130D01*
X116996323Y-81319503D01*
X117423677Y-81319503D01*
X117842821Y-81236130D01*
X118237645Y-81072588D01*
X118592977Y-80835163D01*
X118895163Y-80532977D01*
X119132588Y-80177645D01*
X119296130Y-79782821D01*
X119379503Y-79363677D01*
X119379503Y-78936323D01*
X119296130Y-78517179D01*
X119132588Y-78122355D01*
X118895163Y-77767023D01*
X118592977Y-77464837D01*
X118237645Y-77227412D01*
X117842821Y-77063870D01*
X117423677Y-76980497D01*
X116996323Y-76980497D01*
X116577179Y-77063870D01*
X116182355Y-77227412D01*
X115827023Y-77464837D01*
X115524837Y-77767023D01*
X115287412Y-78122355D01*
X115123870Y-78517179D01*
X115040497Y-78936323D01*
X114894116Y-78936323D01*
X114917670Y-78696107D01*
X115049489Y-78259502D01*
X115263600Y-77856815D01*
X115551848Y-77503388D01*
X115903261Y-77212673D01*
X116304439Y-76995758D01*
X116740113Y-76860894D01*
X117224344Y-76810000D01*
X122635198Y-76810000D01*
X122143886Y-77301312D01*
%TA.AperFunction,Conductor*%
D20*
G36*
X122143886Y-77301312D02*
G01*
X121961335Y-77265000D01*
X121678665Y-77265000D01*
X121401426Y-77320147D01*
X121140273Y-77428320D01*
X120905241Y-77585363D01*
X120705363Y-77785241D01*
X120548320Y-78020273D01*
X120440147Y-78281426D01*
X120385000Y-78558665D01*
X120385000Y-78841335D01*
X120440147Y-79118574D01*
X120548320Y-79379727D01*
X120705363Y-79614759D01*
X120740000Y-79649396D01*
X120740001Y-82441956D01*
X120585241Y-82545363D01*
X120385363Y-82745241D01*
X120228320Y-82980273D01*
X120223933Y-82990865D01*
X120112385Y-82804869D01*
X119923414Y-82596481D01*
X119697420Y-82428963D01*
X119443087Y-82308754D01*
X119309039Y-82268096D01*
X119087000Y-82390085D01*
X119087000Y-83533000D01*
X119107000Y-83533000D01*
X119107000Y-83787000D01*
X119087000Y-83787000D01*
X119087000Y-84929915D01*
X119309039Y-85051904D01*
X119443087Y-85011246D01*
X119697420Y-84891037D01*
X119923414Y-84723519D01*
X120112385Y-84515131D01*
X120223933Y-84329135D01*
X120228320Y-84339727D01*
X120385363Y-84574759D01*
X120585241Y-84774637D01*
X120820273Y-84931680D01*
X121081426Y-85039853D01*
X121358665Y-85095000D01*
X121641335Y-85095000D01*
X121918574Y-85039853D01*
X122179727Y-84931680D01*
X122414759Y-84774637D01*
X122614637Y-84574759D01*
X122770000Y-84342241D01*
X122925363Y-84574759D01*
X123125241Y-84774637D01*
X123360273Y-84931680D01*
X123621426Y-85039853D01*
X123898665Y-85095000D01*
X124181335Y-85095000D01*
X124458574Y-85039853D01*
X124719727Y-84931680D01*
X124954759Y-84774637D01*
X125154637Y-84574759D01*
X125310000Y-84342241D01*
X125465363Y-84574759D01*
X125665241Y-84774637D01*
X125900273Y-84931680D01*
X126161426Y-85039853D01*
X126438665Y-85095000D01*
X126610198Y-85095000D01*
X121823887Y-89881312D01*
X121641335Y-89845000D01*
X121358665Y-89845000D01*
X121081426Y-89900147D01*
X120820273Y-90008320D01*
X120585241Y-90165363D01*
X120385363Y-90365241D01*
X120228320Y-90600273D01*
X120223933Y-90610865D01*
X120112385Y-90424869D01*
X119923414Y-90216481D01*
X119697420Y-90048963D01*
X119443087Y-89928754D01*
X119309039Y-89888096D01*
X119087000Y-90010085D01*
X119087000Y-91153000D01*
X119107000Y-91153000D01*
X119107000Y-91407000D01*
X119087000Y-91407000D01*
X119087000Y-92549915D01*
X119309039Y-92671904D01*
X119443087Y-92631246D01*
X119697420Y-92511037D01*
X119923414Y-92343519D01*
X120112385Y-92135131D01*
X120223933Y-91949135D01*
X120228320Y-91959727D01*
X120385363Y-92194759D01*
X120585241Y-92394637D01*
X120820273Y-92551680D01*
X121081426Y-92659853D01*
X121358665Y-92715000D01*
X121641335Y-92715000D01*
X121918574Y-92659853D01*
X122179727Y-92551680D01*
X122414759Y-92394637D01*
X122614637Y-92194759D01*
X122770000Y-91962241D01*
X122925363Y-92194759D01*
X123125241Y-92394637D01*
X123360273Y-92551680D01*
X123621426Y-92659853D01*
X123898665Y-92715000D01*
X124181335Y-92715000D01*
X124458574Y-92659853D01*
X124719727Y-92551680D01*
X124954759Y-92394637D01*
X125154637Y-92194759D01*
X125310000Y-91962241D01*
X125465363Y-92194759D01*
X125665241Y-92394637D01*
X125900273Y-92551680D01*
X126161426Y-92659853D01*
X126438665Y-92715000D01*
X126721335Y-92715000D01*
X126998574Y-92659853D01*
X127259727Y-92551680D01*
X127494759Y-92394637D01*
X127694637Y-92194759D01*
X127850000Y-91962241D01*
X128005363Y-92194759D01*
X128205241Y-92394637D01*
X128440273Y-92551680D01*
X128701426Y-92659853D01*
X128978665Y-92715000D01*
X129261335Y-92715000D01*
X129538574Y-92659853D01*
X129799727Y-92551680D01*
X130034759Y-92394637D01*
X130234637Y-92194759D01*
X130390000Y-91962241D01*
X130545363Y-92194759D01*
X130745241Y-92394637D01*
X130900000Y-92498044D01*
X130900001Y-93855198D01*
X130815199Y-93940000D01*
X119037325Y-93940000D01*
X119000000Y-93936324D01*
X118962675Y-93940000D01*
X118962667Y-93940000D01*
X118851014Y-93950997D01*
X118707753Y-93994454D01*
X118575724Y-94065026D01*
X118459999Y-94159999D01*
X118436201Y-94188997D01*
X117793886Y-94831312D01*
X117611335Y-94795000D01*
X117328665Y-94795000D01*
X117051426Y-94850147D01*
X116790273Y-94958320D01*
X116555241Y-95115363D01*
X116355363Y-95315241D01*
X116198320Y-95550273D01*
X116090147Y-95811426D01*
X116035000Y-96088665D01*
X116035000Y-96371335D01*
X116090147Y-96648574D01*
X116198320Y-96909727D01*
X116355363Y-97144759D01*
X116555241Y-97344637D01*
X116790273Y-97501680D01*
X117051426Y-97609853D01*
X117328665Y-97665000D01*
X117611335Y-97665000D01*
X117888574Y-97609853D01*
X118149727Y-97501680D01*
X118384759Y-97344637D01*
X118584637Y-97144759D01*
X118741680Y-96909727D01*
X118849853Y-96648574D01*
X118905000Y-96371335D01*
X118905000Y-96088665D01*
X118868688Y-95906114D01*
X119314802Y-95460000D01*
X121258638Y-95460000D01*
X121198320Y-95550273D01*
X121090147Y-95811426D01*
X121035000Y-96088665D01*
X121035000Y-96371335D01*
X121090147Y-96648574D01*
X121198320Y-96909727D01*
X121355363Y-97144759D01*
X121555241Y-97344637D01*
X121790273Y-97501680D01*
X122051426Y-97609853D01*
X122328665Y-97665000D01*
X122611335Y-97665000D01*
X122888574Y-97609853D01*
X123149727Y-97501680D01*
X123384759Y-97344637D01*
X123584637Y-97144759D01*
X123741680Y-96909727D01*
X123849853Y-96648574D01*
X123905000Y-96371335D01*
X123905000Y-96088665D01*
X123869461Y-95910000D01*
X132981957Y-95910000D01*
X133085363Y-96064759D01*
X133285241Y-96264637D01*
X133520273Y-96421680D01*
X133781426Y-96529853D01*
X134058665Y-96585000D01*
X134341335Y-96585000D01*
X134618574Y-96529853D01*
X134879727Y-96421680D01*
X135114759Y-96264637D01*
X135314637Y-96064759D01*
X135471680Y-95829727D01*
X135579853Y-95568574D01*
X135635000Y-95291335D01*
X135635000Y-95008665D01*
X140385000Y-95008665D01*
X140385000Y-95291335D01*
X140440147Y-95568574D01*
X140548320Y-95829727D01*
X140705363Y-96064759D01*
X140905241Y-96264637D01*
X141140273Y-96421680D01*
X141401426Y-96529853D01*
X141678665Y-96585000D01*
X141961335Y-96585000D01*
X142238574Y-96529853D01*
X142499727Y-96421680D01*
X142734759Y-96264637D01*
X142934637Y-96064759D01*
X143091680Y-95829727D01*
X143199853Y-95568574D01*
X143255000Y-95291335D01*
X143255000Y-95008665D01*
X143199853Y-94731426D01*
X143091680Y-94470273D01*
X142934637Y-94235241D01*
X142734759Y-94035363D01*
X142499727Y-93878320D01*
X142238574Y-93770147D01*
X141961335Y-93715000D01*
X141678665Y-93715000D01*
X141401426Y-93770147D01*
X141140273Y-93878320D01*
X140905241Y-94035363D01*
X140705363Y-94235241D01*
X140548320Y-94470273D01*
X140440147Y-94731426D01*
X140385000Y-95008665D01*
X135635000Y-95008665D01*
X135579853Y-94731426D01*
X135471680Y-94470273D01*
X135314637Y-94235241D01*
X135114759Y-94035363D01*
X134960000Y-93931957D01*
X134960000Y-92498043D01*
X135114759Y-92394637D01*
X135314637Y-92194759D01*
X135470000Y-91962241D01*
X135625363Y-92194759D01*
X135825241Y-92394637D01*
X136060273Y-92551680D01*
X136321426Y-92659853D01*
X136598665Y-92715000D01*
X136881335Y-92715000D01*
X137158574Y-92659853D01*
X137419727Y-92551680D01*
X137654759Y-92394637D01*
X137854637Y-92194759D01*
X138011680Y-91959727D01*
X138119853Y-91698574D01*
X138175000Y-91421335D01*
X138175000Y-91138665D01*
X138119853Y-90861426D01*
X138011680Y-90600273D01*
X137854637Y-90365241D01*
X137654759Y-90165363D01*
X137419727Y-90008320D01*
X137158574Y-89900147D01*
X136881335Y-89845000D01*
X136598665Y-89845000D01*
X136321426Y-89900147D01*
X136060273Y-90008320D01*
X135825241Y-90165363D01*
X135625363Y-90365241D01*
X135470000Y-90597759D01*
X135314637Y-90365241D01*
X135114759Y-90165363D01*
X134879727Y-90008320D01*
X134618574Y-89900147D01*
X134341335Y-89845000D01*
X134058665Y-89845000D01*
X133781426Y-89900147D01*
X133520273Y-90008320D01*
X133285241Y-90165363D01*
X133085363Y-90365241D01*
X132930000Y-90597759D01*
X132774637Y-90365241D01*
X132574759Y-90165363D01*
X132339727Y-90008320D01*
X132078574Y-89900147D01*
X131801335Y-89845000D01*
X131518665Y-89845000D01*
X131241426Y-89900147D01*
X130980273Y-90008320D01*
X130745241Y-90165363D01*
X130545363Y-90365241D01*
X130390000Y-90597759D01*
X130234637Y-90365241D01*
X130034759Y-90165363D01*
X129799727Y-90008320D01*
X129538574Y-89900147D01*
X129261335Y-89845000D01*
X129089801Y-89845000D01*
X133876114Y-85058688D01*
X134058665Y-85095000D01*
X134341335Y-85095000D01*
X134618574Y-85039853D01*
X134879727Y-84931680D01*
X135114759Y-84774637D01*
X135313357Y-84576039D01*
X135314188Y-84584482D01*
X135350498Y-84704180D01*
X135409463Y-84814494D01*
X135488815Y-84911185D01*
X135585506Y-84990537D01*
X135695820Y-85049502D01*
X135815518Y-85085812D01*
X135940000Y-85098072D01*
X136454250Y-85095000D01*
X136613000Y-84936250D01*
X136613000Y-83787000D01*
X136867000Y-83787000D01*
X136867000Y-84936250D01*
X137025750Y-85095000D01*
X137540000Y-85098072D01*
X137664482Y-85085812D01*
X137784180Y-85049502D01*
X137894494Y-84990537D01*
X137991185Y-84911185D01*
X138070537Y-84814494D01*
X138129502Y-84704180D01*
X138165812Y-84584482D01*
X138178072Y-84460000D01*
X138175000Y-83945750D01*
X138016250Y-83787000D01*
X136867000Y-83787000D01*
X136613000Y-83787000D01*
X136593000Y-83787000D01*
X136593000Y-83533000D01*
X136613000Y-83533000D01*
X136613000Y-82383750D01*
X136867000Y-82383750D01*
X136867000Y-83533000D01*
X138016250Y-83533000D01*
X138175000Y-83374250D01*
X138178072Y-82860000D01*
X138165812Y-82735518D01*
X138129502Y-82615820D01*
X138070537Y-82505506D01*
X137991185Y-82408815D01*
X137894494Y-82329463D01*
X137784180Y-82270498D01*
X137664482Y-82234188D01*
X137540000Y-82221928D01*
X137025750Y-82225000D01*
X136867000Y-82383750D01*
X136613000Y-82383750D01*
X136582026Y-82352776D01*
X136774802Y-82160000D01*
X144225199Y-82160000D01*
X144360000Y-82294802D01*
X144360000Y-82441956D01*
X144205241Y-82545363D01*
X144005363Y-82745241D01*
X143848320Y-82980273D01*
X143740147Y-83241426D01*
X143685000Y-83518665D01*
X143685000Y-83801335D01*
X143740147Y-84078574D01*
X143848320Y-84339727D01*
X144005363Y-84574759D01*
X144205241Y-84774637D01*
X144440273Y-84931680D01*
X144701426Y-85039853D01*
X144978665Y-85095000D01*
X145261335Y-85095000D01*
X145538574Y-85039853D01*
X145799727Y-84931680D01*
X146034759Y-84774637D01*
X146234637Y-84574759D01*
X146391680Y-84339727D01*
X146499853Y-84078574D01*
X146555000Y-83801335D01*
X146555000Y-83518665D01*
X146499853Y-83241426D01*
X146391680Y-82980273D01*
X146234637Y-82745241D01*
X146034759Y-82545363D01*
X145880000Y-82441957D01*
X145880000Y-82017323D01*
X145883676Y-81980000D01*
X145880000Y-81942677D01*
X145880000Y-81942667D01*
X145869003Y-81831014D01*
X145825546Y-81687753D01*
X145754974Y-81555724D01*
X145660001Y-81439999D01*
X145631004Y-81416202D01*
X145103803Y-80889002D01*
X145080001Y-80859999D01*
X144964276Y-80765026D01*
X144832247Y-80694454D01*
X144688986Y-80650997D01*
X144577333Y-80640000D01*
X144577322Y-80640000D01*
X144540000Y-80636324D01*
X144502678Y-80640000D01*
X136497325Y-80640000D01*
X136460000Y-80636324D01*
X136422675Y-80640000D01*
X136422667Y-80640000D01*
X136311014Y-80650997D01*
X136167753Y-80694454D01*
X136035724Y-80765026D01*
X135919999Y-80859999D01*
X135896201Y-80888997D01*
X134523886Y-82261312D01*
X134341335Y-82225000D01*
X134169801Y-82225000D01*
X138594802Y-77800000D01*
X140625320Y-77800000D01*
X140558320Y-77900273D01*
X140450147Y-78161426D01*
X140395000Y-78438665D01*
X140395000Y-78721335D01*
X140450147Y-78998574D01*
X140558320Y-79259727D01*
X140715363Y-79494759D01*
X140915241Y-79694637D01*
X141150273Y-79851680D01*
X141411426Y-79959853D01*
X141688665Y-80015000D01*
X141971335Y-80015000D01*
X142248574Y-79959853D01*
X142509727Y-79851680D01*
X142744759Y-79694637D01*
X142944637Y-79494759D01*
X143101680Y-79259727D01*
X143209853Y-78998574D01*
X143265000Y-78721335D01*
X143265000Y-78438665D01*
X143209853Y-78161426D01*
X143101680Y-77900273D01*
X143034680Y-77800000D01*
X160744364Y-77800000D01*
X160582844Y-77996812D01*
X160454237Y-78237419D01*
X160375041Y-78498493D01*
X160355001Y-78701963D01*
X160355000Y-91338036D01*
X160375040Y-91541506D01*
X160454236Y-91802580D01*
X160582843Y-92043187D01*
X160755919Y-92254080D01*
X160872797Y-92350000D01*
X160755920Y-92445919D01*
X160582844Y-92656812D01*
X160454237Y-92897419D01*
X160375041Y-93158493D01*
X160355001Y-93361963D01*
X160355000Y-105998036D01*
X160375040Y-106201506D01*
X160454236Y-106462580D01*
X160582843Y-106703187D01*
X160755919Y-106914080D01*
X160966812Y-107087157D01*
X161207419Y-107215764D01*
X161468493Y-107294960D01*
X161740000Y-107321701D01*
X162011506Y-107294960D01*
X162272580Y-107215764D01*
X162513187Y-107087157D01*
X162724080Y-106914081D01*
X162897157Y-106703188D01*
X163025764Y-106462581D01*
X163104960Y-106201507D01*
X163125000Y-105998037D01*
X163125000Y-93361963D01*
X163104960Y-93158493D01*
X163025764Y-92897419D01*
X162897157Y-92656812D01*
X162724081Y-92445919D01*
X162607203Y-92350000D01*
X162724080Y-92254081D01*
X162897157Y-92043188D01*
X163025764Y-91802581D01*
X163104960Y-91541507D01*
X163125000Y-91338037D01*
X163125000Y-78701963D01*
X163104960Y-78498493D01*
X163025764Y-78237419D01*
X162897157Y-77996812D01*
X162735637Y-77800000D01*
X167684848Y-77800000D01*
X167662843Y-77826813D01*
X167534236Y-78067420D01*
X167455040Y-78328494D01*
X167435000Y-78531964D01*
X167435001Y-87168037D01*
X167455041Y-87371507D01*
X167534237Y-87632581D01*
X167662844Y-87873188D01*
X167835920Y-88084081D01*
X167935612Y-88165896D01*
X167825919Y-88255920D01*
X167652843Y-88466813D01*
X167524236Y-88707420D01*
X167445040Y-88968494D01*
X167425000Y-89171964D01*
X167425001Y-97808037D01*
X167445041Y-98011507D01*
X167524237Y-98272581D01*
X167652844Y-98513188D01*
X167825920Y-98724081D01*
X168036813Y-98897157D01*
X168277420Y-99025764D01*
X168538494Y-99104960D01*
X168810000Y-99131701D01*
X169081507Y-99104960D01*
X169342581Y-99025764D01*
X169583188Y-98897157D01*
X169794081Y-98724081D01*
X169967157Y-98513188D01*
X170095764Y-98272581D01*
X170174960Y-98011507D01*
X170195000Y-97808037D01*
X170195000Y-91666890D01*
X180138524Y-91666890D01*
X180183175Y-91814099D01*
X180308359Y-92076920D01*
X180482412Y-92310269D01*
X180698645Y-92505178D01*
X180948748Y-92654157D01*
X181223109Y-92751481D01*
X181453000Y-92630814D01*
X181453000Y-91437000D01*
X181707000Y-91437000D01*
X181707000Y-92630814D01*
X181936891Y-92751481D01*
X182211252Y-92654157D01*
X182461355Y-92505178D01*
X182677588Y-92310269D01*
X182851641Y-92076920D01*
X182976825Y-91814099D01*
X183021476Y-91666890D01*
X182900155Y-91437000D01*
X181707000Y-91437000D01*
X181453000Y-91437000D01*
X180259845Y-91437000D01*
X180138524Y-91666890D01*
X170195000Y-91666890D01*
X170195000Y-89171963D01*
X170174960Y-88968493D01*
X170095764Y-88707419D01*
X169967157Y-88466812D01*
X169794080Y-88255919D01*
X169694388Y-88174104D01*
X169804081Y-88084081D01*
X169977157Y-87873188D01*
X170105764Y-87632581D01*
X170184960Y-87371507D01*
X170205000Y-87168037D01*
X170205000Y-78531963D01*
X170198209Y-78463010D01*
X180138790Y-88403592D01*
X180095000Y-88623740D01*
X180095000Y-88916260D01*
X180152068Y-89203158D01*
X180264010Y-89473411D01*
X180426525Y-89716632D01*
X180633368Y-89923475D01*
X180815534Y-90045195D01*
X180698645Y-90114822D01*
X180482412Y-90309731D01*
X180308359Y-90543080D01*
X180183175Y-90805901D01*
X180138524Y-90953110D01*
X180259845Y-91183000D01*
X181453000Y-91183000D01*
X181453000Y-91163000D01*
X181707000Y-91163000D01*
X181707000Y-91183000D01*
X182900155Y-91183000D01*
X183021476Y-90953110D01*
X182976825Y-90805901D01*
X182851641Y-90543080D01*
X182677588Y-90309731D01*
X182461355Y-90114822D01*
X182344466Y-90045195D01*
X182526632Y-89923475D01*
X182733475Y-89716632D01*
X182895990Y-89473411D01*
X183007932Y-89203158D01*
X183065000Y-88916260D01*
X183065000Y-88623740D01*
X183007932Y-88336842D01*
X182895990Y-88066589D01*
X182733475Y-87823368D01*
X182601620Y-87691513D01*
X182674180Y-87669502D01*
X182784494Y-87610537D01*
X182881185Y-87531185D01*
X182960537Y-87434494D01*
X183019502Y-87324180D01*
X183055812Y-87204482D01*
X183068072Y-87080000D01*
X183068072Y-85380000D01*
X183055812Y-85255518D01*
X183019502Y-85135820D01*
X182960537Y-85025506D01*
X182881185Y-84928815D01*
X182784494Y-84849463D01*
X182674180Y-84790498D01*
X182554482Y-84754188D01*
X182430000Y-84741928D01*
X180730000Y-84741928D01*
X180605518Y-84754188D01*
X180485820Y-84790498D01*
X180375506Y-84849463D01*
X180278815Y-84928815D01*
X180199463Y-85025506D01*
X180140498Y-85135820D01*
X180104188Y-85255518D01*
X180091928Y-85380000D01*
X180091928Y-86207126D01*
X172821125Y-78936323D01*
X180540497Y-78936323D01*
X180540497Y-79363677D01*
X180623870Y-79782821D01*
X180787412Y-80177645D01*
X181024837Y-80532977D01*
X181327023Y-80835163D01*
X181682355Y-81072588D01*
X182077179Y-81236130D01*
X182496323Y-81319503D01*
X182923677Y-81319503D01*
X183342821Y-81236130D01*
X183737645Y-81072588D01*
X184092977Y-80835163D01*
X184395163Y-80532977D01*
X184632588Y-80177645D01*
X184796130Y-79782821D01*
X184879503Y-79363677D01*
X184879503Y-78936323D01*
X184796130Y-78517179D01*
X184632588Y-78122355D01*
X184395163Y-77767023D01*
X184092977Y-77464837D01*
X183737645Y-77227412D01*
X183342821Y-77063870D01*
X182923677Y-76980497D01*
X182496323Y-76980497D01*
X182077179Y-77063870D01*
X181682355Y-77227412D01*
X181327023Y-77464837D01*
X181024837Y-77767023D01*
X180787412Y-78122355D01*
X180623870Y-78517179D01*
X180540497Y-78936323D01*
X172821125Y-78936323D01*
X170694801Y-76810000D01*
X182677721Y-76810000D01*
X183163893Y-76857670D01*
X183600498Y-76989489D01*
X184003185Y-77203600D01*
X184356612Y-77491848D01*
X184647327Y-77843261D01*
X184864242Y-78244439D01*
X184999106Y-78680113D01*
X185050000Y-79164344D01*
X185050001Y-93117711D01*
X185002330Y-93603894D01*
X184870512Y-94040497D01*
X184656399Y-94443186D01*
X184368150Y-94796613D01*
X184016739Y-95087327D01*
X183615564Y-95304240D01*
X183179886Y-95439106D01*
X182695664Y-95490000D01*
X178677581Y-95490000D01*
X178647937Y-95492920D01*
X178629238Y-95492789D01*
X178620067Y-95493689D01*
X178037777Y-95554890D01*
X177979191Y-95566916D01*
X177920420Y-95578127D01*
X177911598Y-95580790D01*
X177352285Y-95753928D01*
X177297167Y-95777098D01*
X177241678Y-95799516D01*
X177233542Y-95803843D01*
X176718510Y-96082319D01*
X176668936Y-96115757D01*
X176618862Y-96148524D01*
X176611721Y-96154348D01*
X176160588Y-96527558D01*
X176118431Y-96570010D01*
X176075699Y-96611856D01*
X176069825Y-96618957D01*
X175699773Y-97072685D01*
X175666679Y-97122496D01*
X175632873Y-97171868D01*
X175628490Y-97179974D01*
X175353616Y-97696938D01*
X175330812Y-97752265D01*
X175307256Y-97807225D01*
X175304531Y-97816029D01*
X175135304Y-98376536D01*
X175123682Y-98435231D01*
X175111248Y-98493727D01*
X175110285Y-98502892D01*
X175053150Y-99085595D01*
X175050000Y-99117582D01*
X175050001Y-105617711D01*
X175002330Y-106103894D01*
X174870512Y-106540497D01*
X174656399Y-106943186D01*
X174368150Y-107296613D01*
X174016739Y-107587327D01*
X173615564Y-107804240D01*
X173179886Y-107939106D01*
X172695664Y-107990000D01*
X143177581Y-107990000D01*
X143147937Y-107992920D01*
X143129238Y-107992789D01*
X143120067Y-107993689D01*
X142537777Y-108054890D01*
X142479191Y-108066916D01*
X142420420Y-108078127D01*
X142411598Y-108080790D01*
X141852285Y-108253928D01*
X141797167Y-108277098D01*
X141741678Y-108299516D01*
X141733542Y-108303843D01*
X141218510Y-108582319D01*
X141168936Y-108615757D01*
X141118862Y-108648524D01*
X141111721Y-108654348D01*
X140660588Y-109027558D01*
X140618431Y-109070010D01*
X140575699Y-109111856D01*
X140569825Y-109118957D01*
X140199773Y-109572685D01*
X140166679Y-109622496D01*
X140132873Y-109671868D01*
X140128490Y-109679974D01*
X139853616Y-110196938D01*
X139830812Y-110252265D01*
X139807256Y-110307225D01*
X139804531Y-110316029D01*
X139635304Y-110876536D01*
X139623682Y-110935231D01*
X139611248Y-110993727D01*
X139610285Y-111002892D01*
X139553150Y-111585595D01*
X139553150Y-111585608D01*
X139550001Y-111617581D01*
X139550000Y-117117721D01*
X139502330Y-117603894D01*
X139370512Y-118040497D01*
X139156399Y-118443186D01*
X138868150Y-118796613D01*
X138516739Y-119087327D01*
X138115564Y-119304240D01*
X137679886Y-119439106D01*
X137195664Y-119490000D01*
X117242279Y-119490000D01*
X116756106Y-119442330D01*
X116319503Y-119310512D01*
X115916814Y-119096399D01*
X115563387Y-118808150D01*
X115272673Y-118456739D01*
X115055760Y-118055564D01*
X114920894Y-117619886D01*
X114870000Y-117135664D01*
X114870000Y-116936323D01*
X115040497Y-116936323D01*
X115040497Y-117363677D01*
X115123870Y-117782821D01*
X115287412Y-118177645D01*
X115524837Y-118532977D01*
X115827023Y-118835163D01*
X116182355Y-119072588D01*
X116577179Y-119236130D01*
X116996323Y-119319503D01*
X117423677Y-119319503D01*
X117842821Y-119236130D01*
X118237645Y-119072588D01*
X118592977Y-118835163D01*
X118895163Y-118532977D01*
X119132588Y-118177645D01*
X119296130Y-117782821D01*
X119379503Y-117363677D01*
X119379503Y-116936323D01*
X119296130Y-116517179D01*
X119132588Y-116122355D01*
X118895163Y-115767023D01*
X118592977Y-115464837D01*
X118237645Y-115227412D01*
X117842821Y-115063870D01*
X117423677Y-114980497D01*
X116996323Y-114980497D01*
X116577179Y-115063870D01*
X116182355Y-115227412D01*
X115827023Y-115464837D01*
X115524837Y-115767023D01*
X115287412Y-116122355D01*
X115123870Y-116517179D01*
X115040497Y-116936323D01*
X114870000Y-116936323D01*
X114870000Y-108227408D01*
X124558000Y-108227408D01*
X124558000Y-108502592D01*
X124611686Y-108772490D01*
X124716995Y-109026727D01*
X124869880Y-109255535D01*
X125064465Y-109450120D01*
X125293273Y-109603005D01*
X125547510Y-109708314D01*
X125817408Y-109762000D01*
X126092592Y-109762000D01*
X126362490Y-109708314D01*
X126616727Y-109603005D01*
X126845535Y-109450120D01*
X127040120Y-109255535D01*
X127193005Y-109026727D01*
X127298314Y-108772490D01*
X127352000Y-108502592D01*
X127352000Y-108227408D01*
X129638000Y-108227408D01*
X129638000Y-108502592D01*
X129691686Y-108772490D01*
X129796995Y-109026727D01*
X129949880Y-109255535D01*
X130144465Y-109450120D01*
X130373273Y-109603005D01*
X130627510Y-109708314D01*
X130897408Y-109762000D01*
X131172592Y-109762000D01*
X131442490Y-109708314D01*
X131696727Y-109603005D01*
X131925535Y-109450120D01*
X132120120Y-109255535D01*
X132273005Y-109026727D01*
X132378314Y-108772490D01*
X132432000Y-108502592D01*
X132432000Y-108227408D01*
X132401372Y-108073429D01*
X137834802Y-102640000D01*
X138791957Y-102640000D01*
X138895363Y-102794759D01*
X139095241Y-102994637D01*
X139330273Y-103151680D01*
X139591426Y-103259853D01*
X139868665Y-103315000D01*
X140151335Y-103315000D01*
X140428574Y-103259853D01*
X140689727Y-103151680D01*
X140924759Y-102994637D01*
X141046694Y-102872702D01*
X144196903Y-102872702D01*
X144268486Y-103116671D01*
X144523996Y-103237571D01*
X144798184Y-103306300D01*
X145080512Y-103320217D01*
X145360130Y-103278787D01*
X145626292Y-103183603D01*
X145751514Y-103116671D01*
X145823097Y-102872702D01*
X145010000Y-102059605D01*
X144196903Y-102872702D01*
X141046694Y-102872702D01*
X141124637Y-102794759D01*
X141281680Y-102559727D01*
X141389853Y-102298574D01*
X141445000Y-102021335D01*
X141445000Y-101950512D01*
X143569783Y-101950512D01*
X143611213Y-102230130D01*
X143706397Y-102496292D01*
X143773329Y-102621514D01*
X144017298Y-102693097D01*
X144830395Y-101880000D01*
X145189605Y-101880000D01*
X146002702Y-102693097D01*
X146246671Y-102621514D01*
X146367571Y-102366004D01*
X146436300Y-102091816D01*
X146450217Y-101809488D01*
X146408787Y-101529870D01*
X146313603Y-101263708D01*
X146246671Y-101138486D01*
X146002702Y-101066903D01*
X145189605Y-101880000D01*
X144830395Y-101880000D01*
X144017298Y-101066903D01*
X143773329Y-101138486D01*
X143652429Y-101393996D01*
X143583700Y-101668184D01*
X143569783Y-101950512D01*
X141445000Y-101950512D01*
X141445000Y-101738665D01*
X141408688Y-101556113D01*
X142077503Y-100887298D01*
X144196903Y-100887298D01*
X145010000Y-101700395D01*
X145823097Y-100887298D01*
X145751514Y-100643329D01*
X145496004Y-100522429D01*
X145221816Y-100453700D01*
X144939488Y-100439783D01*
X144659870Y-100481213D01*
X144393708Y-100576397D01*
X144268486Y-100643329D01*
X144196903Y-100887298D01*
X142077503Y-100887298D01*
X145631003Y-97333799D01*
X145660001Y-97310001D01*
X145754974Y-97194276D01*
X145825546Y-97062247D01*
X145869003Y-96918986D01*
X145880000Y-96807333D01*
X145880000Y-96807324D01*
X145883676Y-96770001D01*
X145880000Y-96732678D01*
X145880000Y-92498043D01*
X146034759Y-92394637D01*
X146234637Y-92194759D01*
X146391680Y-91959727D01*
X146499853Y-91698574D01*
X146555000Y-91421335D01*
X146555000Y-91138665D01*
X146499853Y-90861426D01*
X146391680Y-90600273D01*
X146234637Y-90365241D01*
X146034759Y-90165363D01*
X145799727Y-90008320D01*
X145538574Y-89900147D01*
X145261335Y-89845000D01*
X144978665Y-89845000D01*
X144701426Y-89900147D01*
X144440273Y-90008320D01*
X144205241Y-90165363D01*
X144005363Y-90365241D01*
X143848320Y-90600273D01*
X143740147Y-90861426D01*
X143685000Y-91138665D01*
X143685000Y-91421335D01*
X143740147Y-91698574D01*
X143848320Y-91959727D01*
X144005363Y-92194759D01*
X144205241Y-92394637D01*
X144360000Y-92498044D01*
X144360001Y-96455197D01*
X140333887Y-100481312D01*
X140151335Y-100445000D01*
X139868665Y-100445000D01*
X139591426Y-100500147D01*
X139330273Y-100608320D01*
X139095241Y-100765363D01*
X138895363Y-100965241D01*
X138791957Y-101120000D01*
X137557323Y-101120000D01*
X137520000Y-101116324D01*
X137482677Y-101120000D01*
X137482667Y-101120000D01*
X137371014Y-101130997D01*
X137227753Y-101174454D01*
X137095723Y-101245026D01*
X137012083Y-101313668D01*
X136979999Y-101339999D01*
X136956201Y-101368997D01*
X131326571Y-106998628D01*
X131172592Y-106968000D01*
X130897408Y-106968000D01*
X130627510Y-107021686D01*
X130373273Y-107126995D01*
X130144465Y-107279880D01*
X129949880Y-107474465D01*
X129796995Y-107703273D01*
X129691686Y-107957510D01*
X129638000Y-108227408D01*
X127352000Y-108227408D01*
X127298314Y-107957510D01*
X127193005Y-107703273D01*
X127040120Y-107474465D01*
X126845535Y-107279880D01*
X126616727Y-107126995D01*
X126362490Y-107021686D01*
X126092592Y-106968000D01*
X125817408Y-106968000D01*
X125547510Y-107021686D01*
X125293273Y-107126995D01*
X125064465Y-107279880D01*
X124869880Y-107474465D01*
X124716995Y-107703273D01*
X124611686Y-107957510D01*
X124558000Y-108227408D01*
X114870000Y-108227408D01*
X114870000Y-105687408D01*
X127098000Y-105687408D01*
X127098000Y-105962592D01*
X127151686Y-106232490D01*
X127256995Y-106486727D01*
X127409880Y-106715535D01*
X127604465Y-106910120D01*
X127833273Y-107063005D01*
X128087510Y-107168314D01*
X128357408Y-107222000D01*
X128632592Y-107222000D01*
X128902490Y-107168314D01*
X129156727Y-107063005D01*
X129385535Y-106910120D01*
X129580120Y-106715535D01*
X129733005Y-106486727D01*
X129838314Y-106232490D01*
X129892000Y-105962592D01*
X129892000Y-105687408D01*
X129838314Y-105417510D01*
X129733005Y-105163273D01*
X129580120Y-104934465D01*
X129385535Y-104739880D01*
X129156727Y-104586995D01*
X128902490Y-104481686D01*
X128632592Y-104428000D01*
X128357408Y-104428000D01*
X128087510Y-104481686D01*
X127833273Y-104586995D01*
X127604465Y-104739880D01*
X127409880Y-104934465D01*
X127256995Y-105163273D01*
X127151686Y-105417510D01*
X127098000Y-105687408D01*
X114870000Y-105687408D01*
X114870000Y-91629040D01*
X117568091Y-91629040D01*
X117662930Y-91893881D01*
X117807615Y-92135131D01*
X117996586Y-92343519D01*
X118222580Y-92511037D01*
X118476913Y-92631246D01*
X118610961Y-92671904D01*
X118833000Y-92549915D01*
X118833000Y-91407000D01*
X117689376Y-91407000D01*
X117568091Y-91629040D01*
X114870000Y-91629040D01*
X114870000Y-90930960D01*
X117568091Y-90930960D01*
X117689376Y-91153000D01*
X118833000Y-91153000D01*
X118833000Y-90010085D01*
X118610961Y-89888096D01*
X118476913Y-89928754D01*
X118222580Y-90048963D01*
X117996586Y-90216481D01*
X117807615Y-90424869D01*
X117662930Y-90666119D01*
X117568091Y-90930960D01*
X114870000Y-90930960D01*
X114870000Y-84009040D01*
X117568091Y-84009040D01*
X117662930Y-84273881D01*
X117807615Y-84515131D01*
X117996586Y-84723519D01*
X118222580Y-84891037D01*
X118476913Y-85011246D01*
X118610961Y-85051904D01*
X118833000Y-84929915D01*
X118833000Y-83787000D01*
X117689376Y-83787000D01*
X117568091Y-84009040D01*
X114870000Y-84009040D01*
X114870000Y-83310960D01*
X117568091Y-83310960D01*
X117689376Y-83533000D01*
X118833000Y-83533000D01*
X118833000Y-82390085D01*
X118610961Y-82268096D01*
X118476913Y-82308754D01*
X118222580Y-82428963D01*
X117996586Y-82596481D01*
X117807615Y-82804869D01*
X117662930Y-83046119D01*
X117568091Y-83310960D01*
X114870000Y-83310960D01*
X114870000Y-79182279D01*
X114894116Y-78936323D01*
X115040497Y-78936323D01*
X115040497Y-79363677D01*
X115123870Y-79782821D01*
X115287412Y-80177645D01*
X115524837Y-80532977D01*
X115827023Y-80835163D01*
X116182355Y-81072588D01*
X116577179Y-81236130D01*
X116996323Y-81319503D01*
X117423677Y-81319503D01*
X117842821Y-81236130D01*
X118237645Y-81072588D01*
X118592977Y-80835163D01*
X118895163Y-80532977D01*
X119132588Y-80177645D01*
X119296130Y-79782821D01*
X119379503Y-79363677D01*
X119379503Y-78936323D01*
X119296130Y-78517179D01*
X119132588Y-78122355D01*
X118895163Y-77767023D01*
X118592977Y-77464837D01*
X118237645Y-77227412D01*
X117842821Y-77063870D01*
X117423677Y-76980497D01*
X116996323Y-76980497D01*
X116577179Y-77063870D01*
X116182355Y-77227412D01*
X115827023Y-77464837D01*
X115524837Y-77767023D01*
X115287412Y-78122355D01*
X115123870Y-78517179D01*
X115040497Y-78936323D01*
X114894116Y-78936323D01*
X114917670Y-78696107D01*
X115049489Y-78259502D01*
X115263600Y-77856815D01*
X115551848Y-77503388D01*
X115903261Y-77212673D01*
X116304439Y-76995758D01*
X116740113Y-76860894D01*
X117224344Y-76810000D01*
X122635198Y-76810000D01*
X122143886Y-77301312D01*
G37*
%TD.AperFunction*%
%TD*%
M02*
