M48
; DRILL file {KiCad (5.1.9-0-10_14)} date Tuesday, February 09, 2021 at 10:32:10 PM
; FORMAT={3:3/ absolute / metric / suppress leading zeros}
; #@! TF.CreationDate,2021-02-09T22:32:10+01:00
; #@! TF.GenerationSoftware,Kicad,Pcbnew,(5.1.9-0-10_14)
FMAT,2
METRIC,TZ
T1C0.762
T2C0.800
T3C1.000
T4C1.200
%
G90
G05
T1
X125955Y-108365
X131035Y-108365
T2
X117470Y-96230
X118960Y-83660
X118960Y-91280
X121500Y-83660
X121500Y-91280
X121820Y-78700
X122470Y-96230
X124040Y-83660
X124040Y-91280
X126580Y-83660
X126580Y-91280
X126820Y-78700
X128495Y-105825
X129120Y-83660
X129120Y-91280
X131660Y-83660
X131660Y-91280
X134200Y-83660
X134200Y-91280
X134200Y-95150
X134210Y-78580
X136740Y-83660
X136740Y-91280
X140010Y-101880
X141820Y-95150
X141830Y-78580
X145010Y-101880
X145120Y-83660
X145120Y-91280
T3
X181580Y-86230
X181580Y-88770
X181580Y-91310
T4
G00X161740Y-91270
M15
G01X161740Y-78770
M16
G05
G00X161740Y-105930
M15
G01X161740Y-93430
M16
G05
G00X168810Y-89240
M15
G01X168810Y-97740
M16
G05
G00X168820Y-78600
M15
G01X168820Y-87100
M16
G05
T0
M30
