%TF.GenerationSoftware,KiCad,Pcbnew,(5.1.9-0-10_14)*%
%TF.CreationDate,2021-02-09T22:32:08+01:00*%
%TF.ProjectId,f_buzzer,665f6275-7a7a-4657-922e-6b696361645f,rev?*%
%TF.SameCoordinates,Original*%
%TF.FileFunction,Legend,Top*%
%TF.FilePolarity,Positive*%
%FSLAX46Y46*%
G04 Gerber Fmt 4.6, Leading zero omitted, Abs format (unit mm)*
G04 Created by KiCad (PCBNEW (5.1.9-0-10_14)) date 2021-02-09 22:32:08*
%MOMM*%
%LPD*%
G01*
G04 APERTURE LIST*
%ADD10C,0.100000*%
%ADD11C,0.120000*%
%ADD12C,0.150000*%
G04 APERTURE END LIST*
D10*
X123270952Y-86922380D02*
X123270952Y-87636666D01*
X123223333Y-87779523D01*
X123128095Y-87874761D01*
X122985238Y-87922380D01*
X122890000Y-87922380D01*
X124223333Y-87922380D02*
X123747142Y-87922380D01*
X123747142Y-86922380D01*
X125128095Y-87827142D02*
X125080476Y-87874761D01*
X124937619Y-87922380D01*
X124842380Y-87922380D01*
X124699523Y-87874761D01*
X124604285Y-87779523D01*
X124556666Y-87684285D01*
X124509047Y-87493809D01*
X124509047Y-87350952D01*
X124556666Y-87160476D01*
X124604285Y-87065238D01*
X124699523Y-86970000D01*
X124842380Y-86922380D01*
X124937619Y-86922380D01*
X125080476Y-86970000D01*
X125128095Y-87017619D01*
X125842380Y-86922380D02*
X125842380Y-87636666D01*
X125794761Y-87779523D01*
X125699523Y-87874761D01*
X125556666Y-87922380D01*
X125461428Y-87922380D01*
X126794761Y-87922380D02*
X126318571Y-87922380D01*
X126318571Y-86922380D01*
X127699523Y-87827142D02*
X127651904Y-87874761D01*
X127509047Y-87922380D01*
X127413809Y-87922380D01*
X127270952Y-87874761D01*
X127175714Y-87779523D01*
X127128095Y-87684285D01*
X127080476Y-87493809D01*
X127080476Y-87350952D01*
X127128095Y-87160476D01*
X127175714Y-87065238D01*
X127270952Y-86970000D01*
X127413809Y-86922380D01*
X127509047Y-86922380D01*
X127651904Y-86970000D01*
X127699523Y-87017619D01*
X128413809Y-86922380D02*
X128413809Y-87636666D01*
X128366190Y-87779523D01*
X128270952Y-87874761D01*
X128128095Y-87922380D01*
X128032857Y-87922380D01*
X129366190Y-87922380D02*
X128890000Y-87922380D01*
X128890000Y-86922380D01*
X130270952Y-87827142D02*
X130223333Y-87874761D01*
X130080476Y-87922380D01*
X129985238Y-87922380D01*
X129842380Y-87874761D01*
X129747142Y-87779523D01*
X129699523Y-87684285D01*
X129651904Y-87493809D01*
X129651904Y-87350952D01*
X129699523Y-87160476D01*
X129747142Y-87065238D01*
X129842380Y-86970000D01*
X129985238Y-86922380D01*
X130080476Y-86922380D01*
X130223333Y-86970000D01*
X130270952Y-87017619D01*
X130985238Y-86922380D02*
X130985238Y-87636666D01*
X130937619Y-87779523D01*
X130842380Y-87874761D01*
X130699523Y-87922380D01*
X130604285Y-87922380D01*
X131937619Y-87922380D02*
X131461428Y-87922380D01*
X131461428Y-86922380D01*
X132842380Y-87827142D02*
X132794761Y-87874761D01*
X132651904Y-87922380D01*
X132556666Y-87922380D01*
X132413809Y-87874761D01*
X132318571Y-87779523D01*
X132270952Y-87684285D01*
X132223333Y-87493809D01*
X132223333Y-87350952D01*
X132270952Y-87160476D01*
X132318571Y-87065238D01*
X132413809Y-86970000D01*
X132556666Y-86922380D01*
X132651904Y-86922380D01*
X132794761Y-86970000D01*
X132842380Y-87017619D01*
D11*
%TO.C,BZ2*%
X179820000Y-88170000D02*
G75*
G03*
X179820000Y-88170000I-11000000J0D01*
G01*
%TO.C,U1*%
X138070000Y-90120000D02*
X138070000Y-88470000D01*
X117630000Y-90120000D02*
X138070000Y-90120000D01*
X117630000Y-84820000D02*
X117630000Y-90120000D01*
X138070000Y-84820000D02*
X117630000Y-84820000D01*
X138070000Y-86470000D02*
X138070000Y-84820000D01*
X138070000Y-88470000D02*
G75*
G02*
X138070000Y-86470000I0J1000000D01*
G01*
%TO.C,RV1*%
X134210000Y-108365000D02*
G75*
G03*
X134210000Y-108365000I-5715000J0D01*
G01*
%TO.C,REF\u002A\u002A*%
X180250000Y-84900000D02*
X181580000Y-84900000D01*
X180250000Y-86230000D02*
X180250000Y-84900000D01*
X180250000Y-87500000D02*
X182910000Y-87500000D01*
X182910000Y-87500000D02*
X182910000Y-92640000D01*
X180250000Y-87500000D02*
X180250000Y-92640000D01*
X180250000Y-92640000D02*
X182910000Y-92640000D01*
%TO.C,R3*%
X141290000Y-79950000D02*
X141290000Y-79620000D01*
X134750000Y-79950000D02*
X141290000Y-79950000D01*
X134750000Y-79620000D02*
X134750000Y-79950000D01*
X141290000Y-77210000D02*
X141290000Y-77540000D01*
X134750000Y-77210000D02*
X141290000Y-77210000D01*
X134750000Y-77540000D02*
X134750000Y-77210000D01*
%TO.C,R2*%
X134740000Y-93780000D02*
X134740000Y-94110000D01*
X141280000Y-93780000D02*
X134740000Y-93780000D01*
X141280000Y-94110000D02*
X141280000Y-93780000D01*
X134740000Y-96520000D02*
X134740000Y-96190000D01*
X141280000Y-96520000D02*
X134740000Y-96520000D01*
X141280000Y-96190000D02*
X141280000Y-96520000D01*
%TO.C,R1*%
X143750000Y-90740000D02*
X144080000Y-90740000D01*
X143750000Y-84200000D02*
X143750000Y-90740000D01*
X144080000Y-84200000D02*
X143750000Y-84200000D01*
X146490000Y-90740000D02*
X146160000Y-90740000D01*
X146490000Y-84200000D02*
X146490000Y-90740000D01*
X146160000Y-84200000D02*
X146490000Y-84200000D01*
%TO.C,C3*%
X145180000Y-102935000D02*
X145180000Y-103601000D01*
X145180000Y-100159000D02*
X145180000Y-100825000D01*
X139840000Y-102935000D02*
X139840000Y-103601000D01*
X139840000Y-100159000D02*
X139840000Y-100825000D01*
X139840000Y-103601000D02*
X145180000Y-103601000D01*
X139840000Y-100159000D02*
X145180000Y-100159000D01*
%TO.C,C2*%
X122640000Y-97285000D02*
X122640000Y-97951000D01*
X122640000Y-94509000D02*
X122640000Y-95175000D01*
X117300000Y-97285000D02*
X117300000Y-97951000D01*
X117300000Y-94509000D02*
X117300000Y-95175000D01*
X117300000Y-97951000D02*
X122640000Y-97951000D01*
X117300000Y-94509000D02*
X122640000Y-94509000D01*
%TO.C,C1*%
X121650000Y-77645000D02*
X121650000Y-76979000D01*
X121650000Y-80421000D02*
X121650000Y-79755000D01*
X126990000Y-77645000D02*
X126990000Y-76979000D01*
X126990000Y-80421000D02*
X126990000Y-79755000D01*
X126990000Y-76979000D02*
X121650000Y-76979000D01*
X126990000Y-80421000D02*
X121650000Y-80421000D01*
%TO.C,U1*%
D12*
X138522380Y-88231904D02*
X139331904Y-88231904D01*
X139427142Y-88184285D01*
X139474761Y-88136666D01*
X139522380Y-88041428D01*
X139522380Y-87850952D01*
X139474761Y-87755714D01*
X139427142Y-87708095D01*
X139331904Y-87660476D01*
X138522380Y-87660476D01*
X139522380Y-86660476D02*
X139522380Y-87231904D01*
X139522380Y-86946190D02*
X138522380Y-86946190D01*
X138665238Y-87041428D01*
X138760476Y-87136666D01*
X138808095Y-87231904D01*
%TO.C,RV1*%
X127974761Y-116032380D02*
X127641428Y-115556190D01*
X127403333Y-116032380D02*
X127403333Y-115032380D01*
X127784285Y-115032380D01*
X127879523Y-115080000D01*
X127927142Y-115127619D01*
X127974761Y-115222857D01*
X127974761Y-115365714D01*
X127927142Y-115460952D01*
X127879523Y-115508571D01*
X127784285Y-115556190D01*
X127403333Y-115556190D01*
X128260476Y-115032380D02*
X128593809Y-116032380D01*
X128927142Y-115032380D01*
X129784285Y-116032380D02*
X129212857Y-116032380D01*
X129498571Y-116032380D02*
X129498571Y-115032380D01*
X129403333Y-115175238D01*
X129308095Y-115270476D01*
X129212857Y-115318095D01*
%TO.C,R3*%
X137903333Y-81422380D02*
X137570000Y-80946190D01*
X137331904Y-81422380D02*
X137331904Y-80422380D01*
X137712857Y-80422380D01*
X137808095Y-80470000D01*
X137855714Y-80517619D01*
X137903333Y-80612857D01*
X137903333Y-80755714D01*
X137855714Y-80850952D01*
X137808095Y-80898571D01*
X137712857Y-80946190D01*
X137331904Y-80946190D01*
X138236666Y-80422380D02*
X138855714Y-80422380D01*
X138522380Y-80803333D01*
X138665238Y-80803333D01*
X138760476Y-80850952D01*
X138808095Y-80898571D01*
X138855714Y-80993809D01*
X138855714Y-81231904D01*
X138808095Y-81327142D01*
X138760476Y-81374761D01*
X138665238Y-81422380D01*
X138379523Y-81422380D01*
X138284285Y-81374761D01*
X138236666Y-81327142D01*
%TO.C,R2*%
X137843333Y-97972380D02*
X137510000Y-97496190D01*
X137271904Y-97972380D02*
X137271904Y-96972380D01*
X137652857Y-96972380D01*
X137748095Y-97020000D01*
X137795714Y-97067619D01*
X137843333Y-97162857D01*
X137843333Y-97305714D01*
X137795714Y-97400952D01*
X137748095Y-97448571D01*
X137652857Y-97496190D01*
X137271904Y-97496190D01*
X138224285Y-97067619D02*
X138271904Y-97020000D01*
X138367142Y-96972380D01*
X138605238Y-96972380D01*
X138700476Y-97020000D01*
X138748095Y-97067619D01*
X138795714Y-97162857D01*
X138795714Y-97258095D01*
X138748095Y-97400952D01*
X138176666Y-97972380D01*
X138795714Y-97972380D01*
%TO.C,R1*%
X143162380Y-87676666D02*
X142686190Y-88010000D01*
X143162380Y-88248095D02*
X142162380Y-88248095D01*
X142162380Y-87867142D01*
X142210000Y-87771904D01*
X142257619Y-87724285D01*
X142352857Y-87676666D01*
X142495714Y-87676666D01*
X142590952Y-87724285D01*
X142638571Y-87771904D01*
X142686190Y-87867142D01*
X142686190Y-88248095D01*
X143162380Y-86724285D02*
X143162380Y-87295714D01*
X143162380Y-87010000D02*
X142162380Y-87010000D01*
X142305238Y-87105238D01*
X142400476Y-87200476D01*
X142448095Y-87295714D01*
%TO.C,C3*%
X142303333Y-105027142D02*
X142255714Y-105074761D01*
X142112857Y-105122380D01*
X142017619Y-105122380D01*
X141874761Y-105074761D01*
X141779523Y-104979523D01*
X141731904Y-104884285D01*
X141684285Y-104693809D01*
X141684285Y-104550952D01*
X141731904Y-104360476D01*
X141779523Y-104265238D01*
X141874761Y-104170000D01*
X142017619Y-104122380D01*
X142112857Y-104122380D01*
X142255714Y-104170000D01*
X142303333Y-104217619D01*
X142636666Y-104122380D02*
X143255714Y-104122380D01*
X142922380Y-104503333D01*
X143065238Y-104503333D01*
X143160476Y-104550952D01*
X143208095Y-104598571D01*
X143255714Y-104693809D01*
X143255714Y-104931904D01*
X143208095Y-105027142D01*
X143160476Y-105074761D01*
X143065238Y-105122380D01*
X142779523Y-105122380D01*
X142684285Y-105074761D01*
X142636666Y-105027142D01*
%TO.C,C2*%
X119803333Y-99297142D02*
X119755714Y-99344761D01*
X119612857Y-99392380D01*
X119517619Y-99392380D01*
X119374761Y-99344761D01*
X119279523Y-99249523D01*
X119231904Y-99154285D01*
X119184285Y-98963809D01*
X119184285Y-98820952D01*
X119231904Y-98630476D01*
X119279523Y-98535238D01*
X119374761Y-98440000D01*
X119517619Y-98392380D01*
X119612857Y-98392380D01*
X119755714Y-98440000D01*
X119803333Y-98487619D01*
X120184285Y-98487619D02*
X120231904Y-98440000D01*
X120327142Y-98392380D01*
X120565238Y-98392380D01*
X120660476Y-98440000D01*
X120708095Y-98487619D01*
X120755714Y-98582857D01*
X120755714Y-98678095D01*
X120708095Y-98820952D01*
X120136666Y-99392380D01*
X120755714Y-99392380D01*
%TO.C,C1*%
X124213333Y-81797142D02*
X124165714Y-81844761D01*
X124022857Y-81892380D01*
X123927619Y-81892380D01*
X123784761Y-81844761D01*
X123689523Y-81749523D01*
X123641904Y-81654285D01*
X123594285Y-81463809D01*
X123594285Y-81320952D01*
X123641904Y-81130476D01*
X123689523Y-81035238D01*
X123784761Y-80940000D01*
X123927619Y-80892380D01*
X124022857Y-80892380D01*
X124165714Y-80940000D01*
X124213333Y-80987619D01*
X125165714Y-81892380D02*
X124594285Y-81892380D01*
X124880000Y-81892380D02*
X124880000Y-80892380D01*
X124784761Y-81035238D01*
X124689523Y-81130476D01*
X124594285Y-81178095D01*
%TD*%
M02*
