%TF.GenerationSoftware,KiCad,Pcbnew,(5.1.9-0-10_14)*%
%TF.CreationDate,2021-02-28T22:55:37+01:00*%
%TF.ProjectId,f_buzzer,665f6275-7a7a-4657-922e-6b696361645f,rev?*%
%TF.SameCoordinates,Original*%
%TF.FileFunction,Copper,L2,Bot*%
%TF.FilePolarity,Positive*%
%FSLAX46Y46*%
G04 Gerber Fmt 4.6, Leading zero omitted, Abs format (unit mm)*
G04 Created by KiCad (PCBNEW (5.1.9-0-10_14)) date 2021-02-28 22:55:37*
%MOMM*%
%LPD*%
G01*
G04 APERTURE LIST*
%TA.AperFunction,ComponentPad*%
%ADD10R,1.700000X1.700000*%
%TD*%
%TA.AperFunction,ComponentPad*%
%ADD11O,1.700000X1.700000*%
%TD*%
%TA.AperFunction,ComponentPad*%
%ADD12C,1.524000*%
%TD*%
%TA.AperFunction,ComponentPad*%
%ADD13O,1.500000X9.000000*%
%TD*%
%TA.AperFunction,ComponentPad*%
%ADD14O,1.500000X13.000000*%
%TD*%
%TA.AperFunction,ComponentPad*%
%ADD15O,1.600000X1.600000*%
%TD*%
%TA.AperFunction,ComponentPad*%
%ADD16R,1.600000X1.600000*%
%TD*%
%TA.AperFunction,ComponentPad*%
%ADD17C,1.600000*%
%TD*%
%TA.AperFunction,Conductor*%
%ADD18C,0.250000*%
%TD*%
%TA.AperFunction,Conductor*%
%ADD19C,0.254000*%
%TD*%
%TA.AperFunction,Conductor*%
%ADD20C,0.100000*%
%TD*%
G04 APERTURE END LIST*
D10*
%TO.P,J1,1*%
%TO.N,VCC*%
X181570000Y-86230000D03*
D11*
%TO.P,J1,2*%
%TO.N,DVR*%
X181570000Y-88770000D03*
%TO.P,J1,3*%
%TO.N,GND*%
X181570000Y-91310000D03*
%TD*%
D12*
%TO.P,RV1,1*%
%TO.N,Net-(C3-Pad1)*%
X131035000Y-108365000D03*
%TO.P,RV1,3*%
%TO.N,Net-(BZ1-Pad2)*%
X125955000Y-108365000D03*
%TO.P,RV1,2*%
%TO.N,Net-(BZ1-Pad1)*%
X128495000Y-105825000D03*
%TD*%
D13*
%TO.P,BZ2,2*%
%TO.N,Net-(BZ2-Pad2)*%
X168810000Y-93490000D03*
%TO.P,BZ2,1*%
%TO.N,Net-(BZ1-Pad1)*%
X168820000Y-82850000D03*
%TD*%
D14*
%TO.P,BZ1,2*%
%TO.N,Net-(BZ1-Pad2)*%
X161740000Y-99680000D03*
%TO.P,BZ1,1*%
%TO.N,Net-(BZ1-Pad1)*%
X161740000Y-85020000D03*
%TD*%
D15*
%TO.P,U1,16*%
%TO.N,Net-(U1-Pad16)*%
X136740000Y-91280000D03*
%TO.P,U1,8*%
%TO.N,GND*%
X118960000Y-83660000D03*
%TO.P,U1,15*%
%TO.N,Net-(C2-Pad2)*%
X134200000Y-91280000D03*
%TO.P,U1,7*%
%TO.N,Net-(C1-Pad2)*%
X121500000Y-83660000D03*
%TO.P,U1,14*%
%TO.N,Net-(C2-Pad1)*%
X131660000Y-91280000D03*
%TO.P,U1,6*%
%TO.N,Net-(C1-Pad1)*%
X124040000Y-83660000D03*
%TO.P,U1,13*%
%TO.N,Net-(U1-Pad13)*%
X129120000Y-91280000D03*
%TO.P,U1,5*%
%TO.N,Net-(BZ1-Pad2)*%
X126580000Y-83660000D03*
%TO.P,U1,12*%
%TO.N,Net-(R1-Pad1)*%
X126580000Y-91280000D03*
%TO.P,U1,4*%
%TO.N,Net-(U1-Pad10)*%
X129120000Y-83660000D03*
%TO.P,U1,11*%
%TO.N,DVR*%
X124040000Y-91280000D03*
%TO.P,U1,3*%
X131660000Y-83660000D03*
%TO.P,U1,10*%
%TO.N,Net-(U1-Pad10)*%
X121500000Y-91280000D03*
%TO.P,U1,2*%
%TO.N,Net-(R1-Pad1)*%
X134200000Y-83660000D03*
%TO.P,U1,9*%
%TO.N,GND*%
X118960000Y-91280000D03*
D16*
%TO.P,U1,1*%
X136740000Y-83660000D03*
%TD*%
D15*
%TO.P,R3,2*%
%TO.N,VCC*%
X141830000Y-78580000D03*
D17*
%TO.P,R3,1*%
%TO.N,Net-(C1-Pad2)*%
X134210000Y-78580000D03*
%TD*%
D15*
%TO.P,R2,2*%
%TO.N,Net-(C2-Pad2)*%
X134200000Y-95150000D03*
D17*
%TO.P,R2,1*%
%TO.N,VCC*%
X141820000Y-95150000D03*
%TD*%
D15*
%TO.P,R1,2*%
%TO.N,Net-(C3-Pad1)*%
X145120000Y-91280000D03*
D17*
%TO.P,R1,1*%
%TO.N,Net-(R1-Pad1)*%
X145120000Y-83660000D03*
%TD*%
%TO.P,C3,2*%
%TO.N,GND*%
X145010000Y-101880000D03*
%TO.P,C3,1*%
%TO.N,Net-(C3-Pad1)*%
X140010000Y-101880000D03*
%TD*%
%TO.P,C2,2*%
%TO.N,Net-(C2-Pad2)*%
X122470000Y-96230000D03*
%TO.P,C2,1*%
%TO.N,Net-(C2-Pad1)*%
X117470000Y-96230000D03*
%TD*%
%TO.P,C1,2*%
%TO.N,Net-(C1-Pad2)*%
X121820000Y-78700000D03*
%TO.P,C1,1*%
%TO.N,Net-(C1-Pad1)*%
X126820000Y-78700000D03*
%TD*%
D18*
%TO.N,Net-(BZ1-Pad2)*%
X162620000Y-99680000D02*
X168810000Y-93490000D01*
X161740000Y-99680000D02*
X162620000Y-99680000D01*
X125955000Y-115055000D02*
X125955000Y-108365000D01*
X126530000Y-115630000D02*
X125955000Y-115055000D01*
X132650000Y-115630000D02*
X126530000Y-115630000D01*
X141890000Y-106390000D02*
X132650000Y-115630000D01*
X155030000Y-106390000D02*
X141890000Y-106390000D01*
X161740000Y-99680000D02*
X155030000Y-106390000D01*
X115840000Y-87460000D02*
X122780000Y-87460000D01*
X115270000Y-88030000D02*
X115840000Y-87460000D01*
X122780000Y-87460000D02*
X126580000Y-83660000D01*
X115270000Y-107700000D02*
X115270000Y-88030000D01*
X115935000Y-108365000D02*
X115270000Y-107700000D01*
X125955000Y-108365000D02*
X115935000Y-108365000D01*
%TO.N,Net-(BZ1-Pad1)*%
X166650000Y-85020000D02*
X168820000Y-82850000D01*
X161740000Y-85020000D02*
X166650000Y-85020000D01*
X161740000Y-85020000D02*
X147350000Y-99410000D01*
X147350000Y-99410000D02*
X134910000Y-99410000D01*
X134910000Y-99410000D02*
X128495000Y-105825000D01*
%TO.N,VCC*%
X141830000Y-95140000D02*
X141820000Y-95150000D01*
X141830000Y-78580000D02*
X141830000Y-95140000D01*
X143860000Y-76550000D02*
X141830000Y-78580000D01*
X171900000Y-76550000D02*
X143860000Y-76550000D01*
X181580000Y-86230000D02*
X171900000Y-76550000D01*
X137200000Y-95150000D02*
X141820000Y-95150000D01*
X136740000Y-94690000D02*
X137200000Y-95150000D01*
X136740000Y-91280000D02*
X136740000Y-94690000D01*
%TD*%
D19*
%TO.N,GND*%
X142153886Y-77181312D02*
X141971335Y-77145000D01*
X141688665Y-77145000D01*
X141411426Y-77200147D01*
X141150273Y-77308320D01*
X140915241Y-77465363D01*
X140715363Y-77665241D01*
X140558320Y-77900273D01*
X140450147Y-78161426D01*
X140395000Y-78438665D01*
X140395000Y-78721335D01*
X140450147Y-78998574D01*
X140558320Y-79259727D01*
X140715363Y-79494759D01*
X140915241Y-79694637D01*
X141070000Y-79798043D01*
X141070001Y-93925274D01*
X140905241Y-94035363D01*
X140705363Y-94235241D01*
X140601957Y-94390000D01*
X137514801Y-94390000D01*
X137500000Y-94375199D01*
X137500000Y-92498043D01*
X137654759Y-92394637D01*
X137854637Y-92194759D01*
X138011680Y-91959727D01*
X138119853Y-91698574D01*
X138175000Y-91421335D01*
X138175000Y-91138665D01*
X138119853Y-90861426D01*
X138011680Y-90600273D01*
X137854637Y-90365241D01*
X137654759Y-90165363D01*
X137419727Y-90008320D01*
X137158574Y-89900147D01*
X136881335Y-89845000D01*
X136598665Y-89845000D01*
X136321426Y-89900147D01*
X136060273Y-90008320D01*
X135825241Y-90165363D01*
X135625363Y-90365241D01*
X135470000Y-90597759D01*
X135314637Y-90365241D01*
X135114759Y-90165363D01*
X134879727Y-90008320D01*
X134618574Y-89900147D01*
X134341335Y-89845000D01*
X134058665Y-89845000D01*
X133781426Y-89900147D01*
X133520273Y-90008320D01*
X133285241Y-90165363D01*
X133085363Y-90365241D01*
X132930000Y-90597759D01*
X132774637Y-90365241D01*
X132574759Y-90165363D01*
X132339727Y-90008320D01*
X132078574Y-89900147D01*
X131801335Y-89845000D01*
X131518665Y-89845000D01*
X131241426Y-89900147D01*
X130980273Y-90008320D01*
X130745241Y-90165363D01*
X130545363Y-90365241D01*
X130390000Y-90597759D01*
X130234637Y-90365241D01*
X130034759Y-90165363D01*
X129799727Y-90008320D01*
X129538574Y-89900147D01*
X129261335Y-89845000D01*
X128978665Y-89845000D01*
X128701426Y-89900147D01*
X128440273Y-90008320D01*
X128205241Y-90165363D01*
X128005363Y-90365241D01*
X127850000Y-90597759D01*
X127694637Y-90365241D01*
X127494759Y-90165363D01*
X127259727Y-90008320D01*
X126998574Y-89900147D01*
X126721335Y-89845000D01*
X126438665Y-89845000D01*
X126161426Y-89900147D01*
X125900273Y-90008320D01*
X125665241Y-90165363D01*
X125465363Y-90365241D01*
X125310000Y-90597759D01*
X125154637Y-90365241D01*
X124954759Y-90165363D01*
X124719727Y-90008320D01*
X124458574Y-89900147D01*
X124181335Y-89845000D01*
X123898665Y-89845000D01*
X123621426Y-89900147D01*
X123360273Y-90008320D01*
X123125241Y-90165363D01*
X122925363Y-90365241D01*
X122770000Y-90597759D01*
X122614637Y-90365241D01*
X122414759Y-90165363D01*
X122179727Y-90008320D01*
X121918574Y-89900147D01*
X121641335Y-89845000D01*
X121358665Y-89845000D01*
X121081426Y-89900147D01*
X120820273Y-90008320D01*
X120585241Y-90165363D01*
X120385363Y-90365241D01*
X120228320Y-90600273D01*
X120223933Y-90610865D01*
X120112385Y-90424869D01*
X119923414Y-90216481D01*
X119697420Y-90048963D01*
X119443087Y-89928754D01*
X119309039Y-89888096D01*
X119087000Y-90010085D01*
X119087000Y-91153000D01*
X119107000Y-91153000D01*
X119107000Y-91407000D01*
X119087000Y-91407000D01*
X119087000Y-92549915D01*
X119309039Y-92671904D01*
X119443087Y-92631246D01*
X119697420Y-92511037D01*
X119923414Y-92343519D01*
X120112385Y-92135131D01*
X120223933Y-91949135D01*
X120228320Y-91959727D01*
X120385363Y-92194759D01*
X120585241Y-92394637D01*
X120820273Y-92551680D01*
X121081426Y-92659853D01*
X121358665Y-92715000D01*
X121641335Y-92715000D01*
X121918574Y-92659853D01*
X122179727Y-92551680D01*
X122414759Y-92394637D01*
X122614637Y-92194759D01*
X122770000Y-91962241D01*
X122925363Y-92194759D01*
X123125241Y-92394637D01*
X123360273Y-92551680D01*
X123621426Y-92659853D01*
X123898665Y-92715000D01*
X124181335Y-92715000D01*
X124458574Y-92659853D01*
X124719727Y-92551680D01*
X124954759Y-92394637D01*
X125154637Y-92194759D01*
X125310000Y-91962241D01*
X125465363Y-92194759D01*
X125665241Y-92394637D01*
X125900273Y-92551680D01*
X126161426Y-92659853D01*
X126438665Y-92715000D01*
X126721335Y-92715000D01*
X126998574Y-92659853D01*
X127259727Y-92551680D01*
X127494759Y-92394637D01*
X127694637Y-92194759D01*
X127850000Y-91962241D01*
X128005363Y-92194759D01*
X128205241Y-92394637D01*
X128440273Y-92551680D01*
X128701426Y-92659853D01*
X128978665Y-92715000D01*
X129261335Y-92715000D01*
X129538574Y-92659853D01*
X129799727Y-92551680D01*
X130034759Y-92394637D01*
X130234637Y-92194759D01*
X130390000Y-91962241D01*
X130545363Y-92194759D01*
X130745241Y-92394637D01*
X130980273Y-92551680D01*
X131241426Y-92659853D01*
X131518665Y-92715000D01*
X131801335Y-92715000D01*
X132078574Y-92659853D01*
X132339727Y-92551680D01*
X132574759Y-92394637D01*
X132774637Y-92194759D01*
X132930000Y-91962241D01*
X133085363Y-92194759D01*
X133285241Y-92394637D01*
X133520273Y-92551680D01*
X133781426Y-92659853D01*
X134058665Y-92715000D01*
X134341335Y-92715000D01*
X134618574Y-92659853D01*
X134879727Y-92551680D01*
X135114759Y-92394637D01*
X135314637Y-92194759D01*
X135470000Y-91962241D01*
X135625363Y-92194759D01*
X135825241Y-92394637D01*
X135980000Y-92498044D01*
X135980001Y-94652668D01*
X135976324Y-94690000D01*
X135980001Y-94727333D01*
X135990998Y-94838986D01*
X136001795Y-94874580D01*
X136034454Y-94982246D01*
X136105026Y-95114276D01*
X136174967Y-95199498D01*
X136200000Y-95230001D01*
X136228998Y-95253799D01*
X136636196Y-95660997D01*
X136659999Y-95690001D01*
X136775724Y-95784974D01*
X136907753Y-95855546D01*
X137051014Y-95899003D01*
X137162667Y-95910000D01*
X137162676Y-95910000D01*
X137199999Y-95913676D01*
X137237322Y-95910000D01*
X140601957Y-95910000D01*
X140705363Y-96064759D01*
X140905241Y-96264637D01*
X141140273Y-96421680D01*
X141401426Y-96529853D01*
X141678665Y-96585000D01*
X141961335Y-96585000D01*
X142238574Y-96529853D01*
X142499727Y-96421680D01*
X142734759Y-96264637D01*
X142934637Y-96064759D01*
X143091680Y-95829727D01*
X143199853Y-95568574D01*
X143255000Y-95291335D01*
X143255000Y-95008665D01*
X143199853Y-94731426D01*
X143091680Y-94470273D01*
X142934637Y-94235241D01*
X142734759Y-94035363D01*
X142590000Y-93938638D01*
X142590000Y-91138665D01*
X143685000Y-91138665D01*
X143685000Y-91421335D01*
X143740147Y-91698574D01*
X143848320Y-91959727D01*
X144005363Y-92194759D01*
X144205241Y-92394637D01*
X144440273Y-92551680D01*
X144701426Y-92659853D01*
X144978665Y-92715000D01*
X145261335Y-92715000D01*
X145538574Y-92659853D01*
X145799727Y-92551680D01*
X146034759Y-92394637D01*
X146234637Y-92194759D01*
X146391680Y-91959727D01*
X146499853Y-91698574D01*
X146555000Y-91421335D01*
X146555000Y-91138665D01*
X146499853Y-90861426D01*
X146391680Y-90600273D01*
X146234637Y-90365241D01*
X146034759Y-90165363D01*
X145799727Y-90008320D01*
X145538574Y-89900147D01*
X145261335Y-89845000D01*
X144978665Y-89845000D01*
X144701426Y-89900147D01*
X144440273Y-90008320D01*
X144205241Y-90165363D01*
X144005363Y-90365241D01*
X143848320Y-90600273D01*
X143740147Y-90861426D01*
X143685000Y-91138665D01*
X142590000Y-91138665D01*
X142590000Y-83518665D01*
X143685000Y-83518665D01*
X143685000Y-83801335D01*
X143740147Y-84078574D01*
X143848320Y-84339727D01*
X144005363Y-84574759D01*
X144205241Y-84774637D01*
X144440273Y-84931680D01*
X144701426Y-85039853D01*
X144978665Y-85095000D01*
X145261335Y-85095000D01*
X145538574Y-85039853D01*
X145799727Y-84931680D01*
X146034759Y-84774637D01*
X146234637Y-84574759D01*
X146391680Y-84339727D01*
X146499853Y-84078574D01*
X146555000Y-83801335D01*
X146555000Y-83518665D01*
X146499853Y-83241426D01*
X146391680Y-82980273D01*
X146234637Y-82745241D01*
X146034759Y-82545363D01*
X145799727Y-82388320D01*
X145538574Y-82280147D01*
X145261335Y-82225000D01*
X144978665Y-82225000D01*
X144701426Y-82280147D01*
X144440273Y-82388320D01*
X144205241Y-82545363D01*
X144005363Y-82745241D01*
X143848320Y-82980273D01*
X143740147Y-83241426D01*
X143685000Y-83518665D01*
X142590000Y-83518665D01*
X142590000Y-79798043D01*
X142744759Y-79694637D01*
X142944637Y-79494759D01*
X143101680Y-79259727D01*
X143209853Y-78998574D01*
X143265000Y-78721335D01*
X143265000Y-78438665D01*
X143228688Y-78256114D01*
X144174802Y-77310000D01*
X171585199Y-77310000D01*
X180081928Y-85806730D01*
X180081928Y-87080000D01*
X180094188Y-87204482D01*
X180130498Y-87324180D01*
X180189463Y-87434494D01*
X180268815Y-87531185D01*
X180365506Y-87610537D01*
X180475820Y-87669502D01*
X180548380Y-87691513D01*
X180416525Y-87823368D01*
X180254010Y-88066589D01*
X180142068Y-88336842D01*
X180085000Y-88623740D01*
X180085000Y-88916260D01*
X180142068Y-89203158D01*
X180254010Y-89473411D01*
X180416525Y-89716632D01*
X180623368Y-89923475D01*
X180805534Y-90045195D01*
X180688645Y-90114822D01*
X180472412Y-90309731D01*
X180298359Y-90543080D01*
X180173175Y-90805901D01*
X180128524Y-90953110D01*
X180249845Y-91183000D01*
X181443000Y-91183000D01*
X181443000Y-91163000D01*
X181697000Y-91163000D01*
X181697000Y-91183000D01*
X182890155Y-91183000D01*
X183011476Y-90953110D01*
X182966825Y-90805901D01*
X182841641Y-90543080D01*
X182667588Y-90309731D01*
X182451355Y-90114822D01*
X182334466Y-90045195D01*
X182516632Y-89923475D01*
X182723475Y-89716632D01*
X182885990Y-89473411D01*
X182997932Y-89203158D01*
X183055000Y-88916260D01*
X183055000Y-88623740D01*
X182997932Y-88336842D01*
X182885990Y-88066589D01*
X182723475Y-87823368D01*
X182591620Y-87691513D01*
X182664180Y-87669502D01*
X182774494Y-87610537D01*
X182871185Y-87531185D01*
X182950537Y-87434494D01*
X183009502Y-87324180D01*
X183045812Y-87204482D01*
X183058072Y-87080000D01*
X183058072Y-85380000D01*
X183045812Y-85255518D01*
X183009502Y-85135820D01*
X182950537Y-85025506D01*
X182871185Y-84928815D01*
X182774494Y-84849463D01*
X182664180Y-84790498D01*
X182544482Y-84754188D01*
X182420000Y-84741928D01*
X181166730Y-84741928D01*
X175361125Y-78936323D01*
X180540497Y-78936323D01*
X180540497Y-79363677D01*
X180623870Y-79782821D01*
X180787412Y-80177645D01*
X181024837Y-80532977D01*
X181327023Y-80835163D01*
X181682355Y-81072588D01*
X182077179Y-81236130D01*
X182496323Y-81319503D01*
X182923677Y-81319503D01*
X183342821Y-81236130D01*
X183737645Y-81072588D01*
X184092977Y-80835163D01*
X184395163Y-80532977D01*
X184632588Y-80177645D01*
X184796130Y-79782821D01*
X184879503Y-79363677D01*
X184879503Y-78936323D01*
X184796130Y-78517179D01*
X184632588Y-78122355D01*
X184395163Y-77767023D01*
X184092977Y-77464837D01*
X183737645Y-77227412D01*
X183342821Y-77063870D01*
X182923677Y-76980497D01*
X182496323Y-76980497D01*
X182077179Y-77063870D01*
X181682355Y-77227412D01*
X181327023Y-77464837D01*
X181024837Y-77767023D01*
X180787412Y-78122355D01*
X180623870Y-78517179D01*
X180540497Y-78936323D01*
X175361125Y-78936323D01*
X173234801Y-76810000D01*
X182677721Y-76810000D01*
X183163893Y-76857670D01*
X183600498Y-76989489D01*
X184003185Y-77203600D01*
X184356612Y-77491848D01*
X184647327Y-77843261D01*
X184864242Y-78244439D01*
X184999106Y-78680113D01*
X185050000Y-79164344D01*
X185050001Y-93117711D01*
X185002330Y-93603894D01*
X184870512Y-94040497D01*
X184656399Y-94443186D01*
X184368150Y-94796613D01*
X184016739Y-95087327D01*
X183615564Y-95304240D01*
X183179886Y-95439106D01*
X182695664Y-95490000D01*
X178677581Y-95490000D01*
X178647937Y-95492920D01*
X178629238Y-95492789D01*
X178620067Y-95493689D01*
X178037777Y-95554890D01*
X177979191Y-95566916D01*
X177920420Y-95578127D01*
X177911598Y-95580790D01*
X177352285Y-95753928D01*
X177297167Y-95777098D01*
X177241678Y-95799516D01*
X177233542Y-95803843D01*
X176718510Y-96082319D01*
X176668936Y-96115757D01*
X176618862Y-96148524D01*
X176611721Y-96154348D01*
X176160588Y-96527558D01*
X176118431Y-96570010D01*
X176075699Y-96611856D01*
X176069825Y-96618957D01*
X175699773Y-97072685D01*
X175666679Y-97122496D01*
X175632873Y-97171868D01*
X175628490Y-97179974D01*
X175353616Y-97696938D01*
X175330812Y-97752265D01*
X175307256Y-97807225D01*
X175304531Y-97816029D01*
X175135304Y-98376536D01*
X175123682Y-98435231D01*
X175111248Y-98493727D01*
X175110285Y-98502892D01*
X175053150Y-99085595D01*
X175050000Y-99117582D01*
X175050001Y-105617711D01*
X175002330Y-106103894D01*
X174870512Y-106540497D01*
X174656399Y-106943186D01*
X174368150Y-107296613D01*
X174016739Y-107587327D01*
X173615564Y-107804240D01*
X173179886Y-107939106D01*
X172695664Y-107990000D01*
X143177581Y-107990000D01*
X143147937Y-107992920D01*
X143129238Y-107992789D01*
X143120067Y-107993689D01*
X142537777Y-108054890D01*
X142479191Y-108066916D01*
X142420420Y-108078127D01*
X142411598Y-108080790D01*
X141852285Y-108253928D01*
X141797167Y-108277098D01*
X141741678Y-108299516D01*
X141733542Y-108303843D01*
X141218510Y-108582319D01*
X141168936Y-108615757D01*
X141118862Y-108648524D01*
X141111721Y-108654348D01*
X140660588Y-109027558D01*
X140618431Y-109070010D01*
X140575699Y-109111856D01*
X140569825Y-109118957D01*
X140199773Y-109572685D01*
X140166679Y-109622496D01*
X140132873Y-109671868D01*
X140128490Y-109679974D01*
X139853616Y-110196938D01*
X139830812Y-110252265D01*
X139807256Y-110307225D01*
X139804531Y-110316029D01*
X139635304Y-110876536D01*
X139623682Y-110935231D01*
X139611248Y-110993727D01*
X139610285Y-111002892D01*
X139553150Y-111585595D01*
X139553150Y-111585608D01*
X139550001Y-111617581D01*
X139550000Y-117117721D01*
X139502330Y-117603894D01*
X139370512Y-118040497D01*
X139156399Y-118443186D01*
X138868150Y-118796613D01*
X138516739Y-119087327D01*
X138115564Y-119304240D01*
X137679886Y-119439106D01*
X137195664Y-119490000D01*
X117242279Y-119490000D01*
X116756106Y-119442330D01*
X116319503Y-119310512D01*
X115916814Y-119096399D01*
X115563387Y-118808150D01*
X115272673Y-118456739D01*
X115055760Y-118055564D01*
X114920894Y-117619886D01*
X114870000Y-117135664D01*
X114870000Y-116936323D01*
X115040497Y-116936323D01*
X115040497Y-117363677D01*
X115123870Y-117782821D01*
X115287412Y-118177645D01*
X115524837Y-118532977D01*
X115827023Y-118835163D01*
X116182355Y-119072588D01*
X116577179Y-119236130D01*
X116996323Y-119319503D01*
X117423677Y-119319503D01*
X117842821Y-119236130D01*
X118237645Y-119072588D01*
X118592977Y-118835163D01*
X118895163Y-118532977D01*
X119132588Y-118177645D01*
X119296130Y-117782821D01*
X119379503Y-117363677D01*
X119379503Y-116936323D01*
X119296130Y-116517179D01*
X119132588Y-116122355D01*
X118895163Y-115767023D01*
X118592977Y-115464837D01*
X118237645Y-115227412D01*
X117842821Y-115063870D01*
X117423677Y-114980497D01*
X116996323Y-114980497D01*
X116577179Y-115063870D01*
X116182355Y-115227412D01*
X115827023Y-115464837D01*
X115524837Y-115767023D01*
X115287412Y-116122355D01*
X115123870Y-116517179D01*
X115040497Y-116936323D01*
X114870000Y-116936323D01*
X114870000Y-108374801D01*
X115371200Y-108876002D01*
X115394999Y-108905001D01*
X115423997Y-108928799D01*
X115510723Y-108999974D01*
X115562329Y-109027558D01*
X115642753Y-109070546D01*
X115786014Y-109114003D01*
X115897667Y-109125000D01*
X115897677Y-109125000D01*
X115934999Y-109128676D01*
X115972322Y-109125000D01*
X124782659Y-109125000D01*
X124869880Y-109255535D01*
X125064465Y-109450120D01*
X125195001Y-109537341D01*
X125195000Y-115017677D01*
X125191324Y-115055000D01*
X125195000Y-115092322D01*
X125195000Y-115092332D01*
X125205997Y-115203985D01*
X125246574Y-115337753D01*
X125249454Y-115347246D01*
X125320026Y-115479276D01*
X125359871Y-115527826D01*
X125414999Y-115595001D01*
X125444002Y-115618803D01*
X125966200Y-116141002D01*
X125989999Y-116170001D01*
X126105724Y-116264974D01*
X126237753Y-116335546D01*
X126381014Y-116379003D01*
X126492667Y-116390000D01*
X126492675Y-116390000D01*
X126530000Y-116393676D01*
X126567325Y-116390000D01*
X132612678Y-116390000D01*
X132650000Y-116393676D01*
X132687322Y-116390000D01*
X132687333Y-116390000D01*
X132798986Y-116379003D01*
X132942247Y-116335546D01*
X133074276Y-116264974D01*
X133190001Y-116170001D01*
X133213804Y-116140997D01*
X142204802Y-107150000D01*
X154992678Y-107150000D01*
X155030000Y-107153676D01*
X155067322Y-107150000D01*
X155067333Y-107150000D01*
X155178986Y-107139003D01*
X155322247Y-107095546D01*
X155454276Y-107024974D01*
X155570001Y-106930001D01*
X155593804Y-106900997D01*
X160355000Y-102139801D01*
X160355000Y-105498036D01*
X160375040Y-105701506D01*
X160454236Y-105962580D01*
X160582843Y-106203187D01*
X160755919Y-106414080D01*
X160966812Y-106587157D01*
X161207419Y-106715764D01*
X161468493Y-106794960D01*
X161740000Y-106821701D01*
X162011506Y-106794960D01*
X162272580Y-106715764D01*
X162513187Y-106587157D01*
X162724080Y-106414081D01*
X162897157Y-106203188D01*
X163025764Y-105962581D01*
X163104960Y-105701507D01*
X163125000Y-105498037D01*
X163125000Y-100248726D01*
X163160001Y-100220001D01*
X163183804Y-100190997D01*
X167425001Y-95949801D01*
X167425001Y-97308037D01*
X167445041Y-97511507D01*
X167524237Y-97772581D01*
X167652844Y-98013188D01*
X167825920Y-98224081D01*
X168036813Y-98397157D01*
X168277420Y-98525764D01*
X168538494Y-98604960D01*
X168810000Y-98631701D01*
X169081507Y-98604960D01*
X169342581Y-98525764D01*
X169583188Y-98397157D01*
X169794081Y-98224081D01*
X169967157Y-98013188D01*
X170095764Y-97772581D01*
X170174960Y-97511507D01*
X170195000Y-97308037D01*
X170195000Y-91666890D01*
X180128524Y-91666890D01*
X180173175Y-91814099D01*
X180298359Y-92076920D01*
X180472412Y-92310269D01*
X180688645Y-92505178D01*
X180938748Y-92654157D01*
X181213109Y-92751481D01*
X181443000Y-92630814D01*
X181443000Y-91437000D01*
X181697000Y-91437000D01*
X181697000Y-92630814D01*
X181926891Y-92751481D01*
X182201252Y-92654157D01*
X182451355Y-92505178D01*
X182667588Y-92310269D01*
X182841641Y-92076920D01*
X182966825Y-91814099D01*
X183011476Y-91666890D01*
X182890155Y-91437000D01*
X181697000Y-91437000D01*
X181443000Y-91437000D01*
X180249845Y-91437000D01*
X180128524Y-91666890D01*
X170195000Y-91666890D01*
X170195000Y-89671963D01*
X170174960Y-89468493D01*
X170095764Y-89207419D01*
X169967157Y-88966812D01*
X169794080Y-88755919D01*
X169583187Y-88582843D01*
X169342580Y-88454236D01*
X169081506Y-88375040D01*
X168810000Y-88348299D01*
X168538493Y-88375040D01*
X168277419Y-88454236D01*
X168036812Y-88582843D01*
X167825919Y-88755920D01*
X167652843Y-88966813D01*
X167524236Y-89207420D01*
X167445040Y-89468494D01*
X167425000Y-89671964D01*
X167425001Y-93800198D01*
X163125000Y-98100199D01*
X163125000Y-93861963D01*
X163104960Y-93658493D01*
X163025764Y-93397419D01*
X162897157Y-93156812D01*
X162724081Y-92945919D01*
X162513188Y-92772843D01*
X162272581Y-92644236D01*
X162011507Y-92565040D01*
X161740000Y-92538299D01*
X161468494Y-92565040D01*
X161207420Y-92644236D01*
X160966813Y-92772843D01*
X160755920Y-92945919D01*
X160582844Y-93156812D01*
X160454237Y-93397419D01*
X160375041Y-93658493D01*
X160355001Y-93861963D01*
X160355000Y-99990198D01*
X154715199Y-105630000D01*
X141927322Y-105630000D01*
X141889999Y-105626324D01*
X141852676Y-105630000D01*
X141852667Y-105630000D01*
X141741014Y-105640997D01*
X141597753Y-105684454D01*
X141465724Y-105755026D01*
X141349999Y-105849999D01*
X141326201Y-105878997D01*
X132335199Y-114870000D01*
X126844802Y-114870000D01*
X126715000Y-114740199D01*
X126715000Y-109537341D01*
X126845535Y-109450120D01*
X127040120Y-109255535D01*
X127193005Y-109026727D01*
X127298314Y-108772490D01*
X127352000Y-108502592D01*
X127352000Y-108227408D01*
X129638000Y-108227408D01*
X129638000Y-108502592D01*
X129691686Y-108772490D01*
X129796995Y-109026727D01*
X129949880Y-109255535D01*
X130144465Y-109450120D01*
X130373273Y-109603005D01*
X130627510Y-109708314D01*
X130897408Y-109762000D01*
X131172592Y-109762000D01*
X131442490Y-109708314D01*
X131696727Y-109603005D01*
X131925535Y-109450120D01*
X132120120Y-109255535D01*
X132273005Y-109026727D01*
X132378314Y-108772490D01*
X132432000Y-108502592D01*
X132432000Y-108227408D01*
X132378314Y-107957510D01*
X132273005Y-107703273D01*
X132120120Y-107474465D01*
X131925535Y-107279880D01*
X131696727Y-107126995D01*
X131442490Y-107021686D01*
X131172592Y-106968000D01*
X130897408Y-106968000D01*
X130627510Y-107021686D01*
X130373273Y-107126995D01*
X130144465Y-107279880D01*
X129949880Y-107474465D01*
X129796995Y-107703273D01*
X129691686Y-107957510D01*
X129638000Y-108227408D01*
X127352000Y-108227408D01*
X127298314Y-107957510D01*
X127193005Y-107703273D01*
X127040120Y-107474465D01*
X126845535Y-107279880D01*
X126616727Y-107126995D01*
X126362490Y-107021686D01*
X126092592Y-106968000D01*
X125817408Y-106968000D01*
X125547510Y-107021686D01*
X125293273Y-107126995D01*
X125064465Y-107279880D01*
X124869880Y-107474465D01*
X124782659Y-107605000D01*
X116249802Y-107605000D01*
X116030000Y-107385199D01*
X116030000Y-105687408D01*
X127098000Y-105687408D01*
X127098000Y-105962592D01*
X127151686Y-106232490D01*
X127256995Y-106486727D01*
X127409880Y-106715535D01*
X127604465Y-106910120D01*
X127833273Y-107063005D01*
X128087510Y-107168314D01*
X128357408Y-107222000D01*
X128632592Y-107222000D01*
X128902490Y-107168314D01*
X129156727Y-107063005D01*
X129385535Y-106910120D01*
X129580120Y-106715535D01*
X129733005Y-106486727D01*
X129838314Y-106232490D01*
X129892000Y-105962592D01*
X129892000Y-105687408D01*
X129861372Y-105533429D01*
X133656136Y-101738665D01*
X138575000Y-101738665D01*
X138575000Y-102021335D01*
X138630147Y-102298574D01*
X138738320Y-102559727D01*
X138895363Y-102794759D01*
X139095241Y-102994637D01*
X139330273Y-103151680D01*
X139591426Y-103259853D01*
X139868665Y-103315000D01*
X140151335Y-103315000D01*
X140428574Y-103259853D01*
X140689727Y-103151680D01*
X140924759Y-102994637D01*
X141046694Y-102872702D01*
X144196903Y-102872702D01*
X144268486Y-103116671D01*
X144523996Y-103237571D01*
X144798184Y-103306300D01*
X145080512Y-103320217D01*
X145360130Y-103278787D01*
X145626292Y-103183603D01*
X145751514Y-103116671D01*
X145823097Y-102872702D01*
X145010000Y-102059605D01*
X144196903Y-102872702D01*
X141046694Y-102872702D01*
X141124637Y-102794759D01*
X141281680Y-102559727D01*
X141389853Y-102298574D01*
X141445000Y-102021335D01*
X141445000Y-101950512D01*
X143569783Y-101950512D01*
X143611213Y-102230130D01*
X143706397Y-102496292D01*
X143773329Y-102621514D01*
X144017298Y-102693097D01*
X144830395Y-101880000D01*
X145189605Y-101880000D01*
X146002702Y-102693097D01*
X146246671Y-102621514D01*
X146367571Y-102366004D01*
X146436300Y-102091816D01*
X146450217Y-101809488D01*
X146408787Y-101529870D01*
X146313603Y-101263708D01*
X146246671Y-101138486D01*
X146002702Y-101066903D01*
X145189605Y-101880000D01*
X144830395Y-101880000D01*
X144017298Y-101066903D01*
X143773329Y-101138486D01*
X143652429Y-101393996D01*
X143583700Y-101668184D01*
X143569783Y-101950512D01*
X141445000Y-101950512D01*
X141445000Y-101738665D01*
X141389853Y-101461426D01*
X141281680Y-101200273D01*
X141124637Y-100965241D01*
X141046694Y-100887298D01*
X144196903Y-100887298D01*
X145010000Y-101700395D01*
X145823097Y-100887298D01*
X145751514Y-100643329D01*
X145496004Y-100522429D01*
X145221816Y-100453700D01*
X144939488Y-100439783D01*
X144659870Y-100481213D01*
X144393708Y-100576397D01*
X144268486Y-100643329D01*
X144196903Y-100887298D01*
X141046694Y-100887298D01*
X140924759Y-100765363D01*
X140689727Y-100608320D01*
X140428574Y-100500147D01*
X140151335Y-100445000D01*
X139868665Y-100445000D01*
X139591426Y-100500147D01*
X139330273Y-100608320D01*
X139095241Y-100765363D01*
X138895363Y-100965241D01*
X138738320Y-101200273D01*
X138630147Y-101461426D01*
X138575000Y-101738665D01*
X133656136Y-101738665D01*
X135224802Y-100170000D01*
X147312678Y-100170000D01*
X147350000Y-100173676D01*
X147387322Y-100170000D01*
X147387333Y-100170000D01*
X147498986Y-100159003D01*
X147642247Y-100115546D01*
X147774276Y-100044974D01*
X147890001Y-99950001D01*
X147913804Y-99920997D01*
X160355000Y-87479802D01*
X160355000Y-90838036D01*
X160375040Y-91041506D01*
X160454236Y-91302580D01*
X160582843Y-91543187D01*
X160755919Y-91754080D01*
X160966812Y-91927157D01*
X161207419Y-92055764D01*
X161468493Y-92134960D01*
X161740000Y-92161701D01*
X162011506Y-92134960D01*
X162272580Y-92055764D01*
X162513187Y-91927157D01*
X162724080Y-91754081D01*
X162897157Y-91543188D01*
X163025764Y-91302581D01*
X163104960Y-91041507D01*
X163125000Y-90838037D01*
X163125000Y-85780000D01*
X166612678Y-85780000D01*
X166650000Y-85783676D01*
X166687322Y-85780000D01*
X166687333Y-85780000D01*
X166798986Y-85769003D01*
X166942247Y-85725546D01*
X167074276Y-85654974D01*
X167190001Y-85560001D01*
X167213804Y-85530998D01*
X167435001Y-85309800D01*
X167435001Y-86668037D01*
X167455041Y-86871507D01*
X167534237Y-87132581D01*
X167662844Y-87373188D01*
X167835920Y-87584081D01*
X168046813Y-87757157D01*
X168287420Y-87885764D01*
X168548494Y-87964960D01*
X168820000Y-87991701D01*
X169091507Y-87964960D01*
X169352581Y-87885764D01*
X169593188Y-87757157D01*
X169804081Y-87584081D01*
X169977157Y-87373188D01*
X170105764Y-87132581D01*
X170184960Y-86871507D01*
X170205000Y-86668037D01*
X170205000Y-79031963D01*
X170184960Y-78828493D01*
X170105764Y-78567419D01*
X169977157Y-78326812D01*
X169804080Y-78115919D01*
X169593187Y-77942843D01*
X169352580Y-77814236D01*
X169091506Y-77735040D01*
X168820000Y-77708299D01*
X168548493Y-77735040D01*
X168287419Y-77814236D01*
X168046812Y-77942843D01*
X167835919Y-78115920D01*
X167662843Y-78326813D01*
X167534236Y-78567420D01*
X167455040Y-78828494D01*
X167435000Y-79031964D01*
X167435001Y-83160197D01*
X166335199Y-84260000D01*
X163125000Y-84260000D01*
X163125000Y-79201963D01*
X163104960Y-78998493D01*
X163025764Y-78737419D01*
X162897157Y-78496812D01*
X162724081Y-78285919D01*
X162513188Y-78112843D01*
X162272581Y-77984236D01*
X162011507Y-77905040D01*
X161740000Y-77878299D01*
X161468494Y-77905040D01*
X161207420Y-77984236D01*
X160966813Y-78112843D01*
X160755920Y-78285919D01*
X160582844Y-78496812D01*
X160454237Y-78737419D01*
X160375041Y-78998493D01*
X160355001Y-79201963D01*
X160355000Y-85330198D01*
X147035199Y-98650000D01*
X134947322Y-98650000D01*
X134909999Y-98646324D01*
X134872677Y-98650000D01*
X134872667Y-98650000D01*
X134761014Y-98660997D01*
X134617753Y-98704454D01*
X134485723Y-98775026D01*
X134402083Y-98843668D01*
X134369999Y-98869999D01*
X134346201Y-98898997D01*
X128786571Y-104458628D01*
X128632592Y-104428000D01*
X128357408Y-104428000D01*
X128087510Y-104481686D01*
X127833273Y-104586995D01*
X127604465Y-104739880D01*
X127409880Y-104934465D01*
X127256995Y-105163273D01*
X127151686Y-105417510D01*
X127098000Y-105687408D01*
X116030000Y-105687408D01*
X116030000Y-96088665D01*
X116035000Y-96088665D01*
X116035000Y-96371335D01*
X116090147Y-96648574D01*
X116198320Y-96909727D01*
X116355363Y-97144759D01*
X116555241Y-97344637D01*
X116790273Y-97501680D01*
X117051426Y-97609853D01*
X117328665Y-97665000D01*
X117611335Y-97665000D01*
X117888574Y-97609853D01*
X118149727Y-97501680D01*
X118384759Y-97344637D01*
X118584637Y-97144759D01*
X118741680Y-96909727D01*
X118849853Y-96648574D01*
X118905000Y-96371335D01*
X118905000Y-96088665D01*
X121035000Y-96088665D01*
X121035000Y-96371335D01*
X121090147Y-96648574D01*
X121198320Y-96909727D01*
X121355363Y-97144759D01*
X121555241Y-97344637D01*
X121790273Y-97501680D01*
X122051426Y-97609853D01*
X122328665Y-97665000D01*
X122611335Y-97665000D01*
X122888574Y-97609853D01*
X123149727Y-97501680D01*
X123384759Y-97344637D01*
X123584637Y-97144759D01*
X123741680Y-96909727D01*
X123849853Y-96648574D01*
X123905000Y-96371335D01*
X123905000Y-96088665D01*
X123849853Y-95811426D01*
X123741680Y-95550273D01*
X123584637Y-95315241D01*
X123384759Y-95115363D01*
X123225074Y-95008665D01*
X132765000Y-95008665D01*
X132765000Y-95291335D01*
X132820147Y-95568574D01*
X132928320Y-95829727D01*
X133085363Y-96064759D01*
X133285241Y-96264637D01*
X133520273Y-96421680D01*
X133781426Y-96529853D01*
X134058665Y-96585000D01*
X134341335Y-96585000D01*
X134618574Y-96529853D01*
X134879727Y-96421680D01*
X135114759Y-96264637D01*
X135314637Y-96064759D01*
X135471680Y-95829727D01*
X135579853Y-95568574D01*
X135635000Y-95291335D01*
X135635000Y-95008665D01*
X135579853Y-94731426D01*
X135471680Y-94470273D01*
X135314637Y-94235241D01*
X135114759Y-94035363D01*
X134879727Y-93878320D01*
X134618574Y-93770147D01*
X134341335Y-93715000D01*
X134058665Y-93715000D01*
X133781426Y-93770147D01*
X133520273Y-93878320D01*
X133285241Y-94035363D01*
X133085363Y-94235241D01*
X132928320Y-94470273D01*
X132820147Y-94731426D01*
X132765000Y-95008665D01*
X123225074Y-95008665D01*
X123149727Y-94958320D01*
X122888574Y-94850147D01*
X122611335Y-94795000D01*
X122328665Y-94795000D01*
X122051426Y-94850147D01*
X121790273Y-94958320D01*
X121555241Y-95115363D01*
X121355363Y-95315241D01*
X121198320Y-95550273D01*
X121090147Y-95811426D01*
X121035000Y-96088665D01*
X118905000Y-96088665D01*
X118849853Y-95811426D01*
X118741680Y-95550273D01*
X118584637Y-95315241D01*
X118384759Y-95115363D01*
X118149727Y-94958320D01*
X117888574Y-94850147D01*
X117611335Y-94795000D01*
X117328665Y-94795000D01*
X117051426Y-94850147D01*
X116790273Y-94958320D01*
X116555241Y-95115363D01*
X116355363Y-95315241D01*
X116198320Y-95550273D01*
X116090147Y-95811426D01*
X116035000Y-96088665D01*
X116030000Y-96088665D01*
X116030000Y-91629040D01*
X117568091Y-91629040D01*
X117662930Y-91893881D01*
X117807615Y-92135131D01*
X117996586Y-92343519D01*
X118222580Y-92511037D01*
X118476913Y-92631246D01*
X118610961Y-92671904D01*
X118833000Y-92549915D01*
X118833000Y-91407000D01*
X117689376Y-91407000D01*
X117568091Y-91629040D01*
X116030000Y-91629040D01*
X116030000Y-90930960D01*
X117568091Y-90930960D01*
X117689376Y-91153000D01*
X118833000Y-91153000D01*
X118833000Y-90010085D01*
X118610961Y-89888096D01*
X118476913Y-89928754D01*
X118222580Y-90048963D01*
X117996586Y-90216481D01*
X117807615Y-90424869D01*
X117662930Y-90666119D01*
X117568091Y-90930960D01*
X116030000Y-90930960D01*
X116030000Y-88344801D01*
X116154802Y-88220000D01*
X122742678Y-88220000D01*
X122780000Y-88223676D01*
X122817322Y-88220000D01*
X122817333Y-88220000D01*
X122928986Y-88209003D01*
X123072247Y-88165546D01*
X123204276Y-88094974D01*
X123320001Y-88000001D01*
X123343804Y-87970997D01*
X126256114Y-85058688D01*
X126438665Y-85095000D01*
X126721335Y-85095000D01*
X126998574Y-85039853D01*
X127259727Y-84931680D01*
X127494759Y-84774637D01*
X127694637Y-84574759D01*
X127850000Y-84342241D01*
X128005363Y-84574759D01*
X128205241Y-84774637D01*
X128440273Y-84931680D01*
X128701426Y-85039853D01*
X128978665Y-85095000D01*
X129261335Y-85095000D01*
X129538574Y-85039853D01*
X129799727Y-84931680D01*
X130034759Y-84774637D01*
X130234637Y-84574759D01*
X130390000Y-84342241D01*
X130545363Y-84574759D01*
X130745241Y-84774637D01*
X130980273Y-84931680D01*
X131241426Y-85039853D01*
X131518665Y-85095000D01*
X131801335Y-85095000D01*
X132078574Y-85039853D01*
X132339727Y-84931680D01*
X132574759Y-84774637D01*
X132774637Y-84574759D01*
X132930000Y-84342241D01*
X133085363Y-84574759D01*
X133285241Y-84774637D01*
X133520273Y-84931680D01*
X133781426Y-85039853D01*
X134058665Y-85095000D01*
X134341335Y-85095000D01*
X134618574Y-85039853D01*
X134879727Y-84931680D01*
X135114759Y-84774637D01*
X135313357Y-84576039D01*
X135314188Y-84584482D01*
X135350498Y-84704180D01*
X135409463Y-84814494D01*
X135488815Y-84911185D01*
X135585506Y-84990537D01*
X135695820Y-85049502D01*
X135815518Y-85085812D01*
X135940000Y-85098072D01*
X136454250Y-85095000D01*
X136613000Y-84936250D01*
X136613000Y-83787000D01*
X136867000Y-83787000D01*
X136867000Y-84936250D01*
X137025750Y-85095000D01*
X137540000Y-85098072D01*
X137664482Y-85085812D01*
X137784180Y-85049502D01*
X137894494Y-84990537D01*
X137991185Y-84911185D01*
X138070537Y-84814494D01*
X138129502Y-84704180D01*
X138165812Y-84584482D01*
X138178072Y-84460000D01*
X138175000Y-83945750D01*
X138016250Y-83787000D01*
X136867000Y-83787000D01*
X136613000Y-83787000D01*
X136593000Y-83787000D01*
X136593000Y-83533000D01*
X136613000Y-83533000D01*
X136613000Y-82383750D01*
X136867000Y-82383750D01*
X136867000Y-83533000D01*
X138016250Y-83533000D01*
X138175000Y-83374250D01*
X138178072Y-82860000D01*
X138165812Y-82735518D01*
X138129502Y-82615820D01*
X138070537Y-82505506D01*
X137991185Y-82408815D01*
X137894494Y-82329463D01*
X137784180Y-82270498D01*
X137664482Y-82234188D01*
X137540000Y-82221928D01*
X137025750Y-82225000D01*
X136867000Y-82383750D01*
X136613000Y-82383750D01*
X136454250Y-82225000D01*
X135940000Y-82221928D01*
X135815518Y-82234188D01*
X135695820Y-82270498D01*
X135585506Y-82329463D01*
X135488815Y-82408815D01*
X135409463Y-82505506D01*
X135350498Y-82615820D01*
X135314188Y-82735518D01*
X135313357Y-82743961D01*
X135114759Y-82545363D01*
X134879727Y-82388320D01*
X134618574Y-82280147D01*
X134341335Y-82225000D01*
X134058665Y-82225000D01*
X133781426Y-82280147D01*
X133520273Y-82388320D01*
X133285241Y-82545363D01*
X133085363Y-82745241D01*
X132930000Y-82977759D01*
X132774637Y-82745241D01*
X132574759Y-82545363D01*
X132339727Y-82388320D01*
X132078574Y-82280147D01*
X131801335Y-82225000D01*
X131518665Y-82225000D01*
X131241426Y-82280147D01*
X130980273Y-82388320D01*
X130745241Y-82545363D01*
X130545363Y-82745241D01*
X130390000Y-82977759D01*
X130234637Y-82745241D01*
X130034759Y-82545363D01*
X129799727Y-82388320D01*
X129538574Y-82280147D01*
X129261335Y-82225000D01*
X128978665Y-82225000D01*
X128701426Y-82280147D01*
X128440273Y-82388320D01*
X128205241Y-82545363D01*
X128005363Y-82745241D01*
X127850000Y-82977759D01*
X127694637Y-82745241D01*
X127494759Y-82545363D01*
X127259727Y-82388320D01*
X126998574Y-82280147D01*
X126721335Y-82225000D01*
X126438665Y-82225000D01*
X126161426Y-82280147D01*
X125900273Y-82388320D01*
X125665241Y-82545363D01*
X125465363Y-82745241D01*
X125310000Y-82977759D01*
X125154637Y-82745241D01*
X124954759Y-82545363D01*
X124719727Y-82388320D01*
X124458574Y-82280147D01*
X124181335Y-82225000D01*
X123898665Y-82225000D01*
X123621426Y-82280147D01*
X123360273Y-82388320D01*
X123125241Y-82545363D01*
X122925363Y-82745241D01*
X122770000Y-82977759D01*
X122614637Y-82745241D01*
X122414759Y-82545363D01*
X122179727Y-82388320D01*
X121918574Y-82280147D01*
X121641335Y-82225000D01*
X121358665Y-82225000D01*
X121081426Y-82280147D01*
X120820273Y-82388320D01*
X120585241Y-82545363D01*
X120385363Y-82745241D01*
X120228320Y-82980273D01*
X120223933Y-82990865D01*
X120112385Y-82804869D01*
X119923414Y-82596481D01*
X119697420Y-82428963D01*
X119443087Y-82308754D01*
X119309039Y-82268096D01*
X119087000Y-82390085D01*
X119087000Y-83533000D01*
X119107000Y-83533000D01*
X119107000Y-83787000D01*
X119087000Y-83787000D01*
X119087000Y-84929915D01*
X119309039Y-85051904D01*
X119443087Y-85011246D01*
X119697420Y-84891037D01*
X119923414Y-84723519D01*
X120112385Y-84515131D01*
X120223933Y-84329135D01*
X120228320Y-84339727D01*
X120385363Y-84574759D01*
X120585241Y-84774637D01*
X120820273Y-84931680D01*
X121081426Y-85039853D01*
X121358665Y-85095000D01*
X121641335Y-85095000D01*
X121918574Y-85039853D01*
X122179727Y-84931680D01*
X122414759Y-84774637D01*
X122614637Y-84574759D01*
X122770000Y-84342241D01*
X122925363Y-84574759D01*
X123125241Y-84774637D01*
X123360273Y-84931680D01*
X123621426Y-85039853D01*
X123898665Y-85095000D01*
X124070199Y-85095000D01*
X122465199Y-86700000D01*
X115877325Y-86700000D01*
X115840000Y-86696324D01*
X115802675Y-86700000D01*
X115802667Y-86700000D01*
X115691014Y-86710997D01*
X115547753Y-86754454D01*
X115415724Y-86825026D01*
X115299999Y-86919999D01*
X115276200Y-86948998D01*
X114870000Y-87355199D01*
X114870000Y-84009040D01*
X117568091Y-84009040D01*
X117662930Y-84273881D01*
X117807615Y-84515131D01*
X117996586Y-84723519D01*
X118222580Y-84891037D01*
X118476913Y-85011246D01*
X118610961Y-85051904D01*
X118833000Y-84929915D01*
X118833000Y-83787000D01*
X117689376Y-83787000D01*
X117568091Y-84009040D01*
X114870000Y-84009040D01*
X114870000Y-83310960D01*
X117568091Y-83310960D01*
X117689376Y-83533000D01*
X118833000Y-83533000D01*
X118833000Y-82390085D01*
X118610961Y-82268096D01*
X118476913Y-82308754D01*
X118222580Y-82428963D01*
X117996586Y-82596481D01*
X117807615Y-82804869D01*
X117662930Y-83046119D01*
X117568091Y-83310960D01*
X114870000Y-83310960D01*
X114870000Y-79182279D01*
X114894116Y-78936323D01*
X115040497Y-78936323D01*
X115040497Y-79363677D01*
X115123870Y-79782821D01*
X115287412Y-80177645D01*
X115524837Y-80532977D01*
X115827023Y-80835163D01*
X116182355Y-81072588D01*
X116577179Y-81236130D01*
X116996323Y-81319503D01*
X117423677Y-81319503D01*
X117842821Y-81236130D01*
X118237645Y-81072588D01*
X118592977Y-80835163D01*
X118895163Y-80532977D01*
X119132588Y-80177645D01*
X119296130Y-79782821D01*
X119379503Y-79363677D01*
X119379503Y-78936323D01*
X119304383Y-78558665D01*
X120385000Y-78558665D01*
X120385000Y-78841335D01*
X120440147Y-79118574D01*
X120548320Y-79379727D01*
X120705363Y-79614759D01*
X120905241Y-79814637D01*
X121140273Y-79971680D01*
X121401426Y-80079853D01*
X121678665Y-80135000D01*
X121961335Y-80135000D01*
X122238574Y-80079853D01*
X122499727Y-79971680D01*
X122734759Y-79814637D01*
X122934637Y-79614759D01*
X123091680Y-79379727D01*
X123199853Y-79118574D01*
X123255000Y-78841335D01*
X123255000Y-78558665D01*
X125385000Y-78558665D01*
X125385000Y-78841335D01*
X125440147Y-79118574D01*
X125548320Y-79379727D01*
X125705363Y-79614759D01*
X125905241Y-79814637D01*
X126140273Y-79971680D01*
X126401426Y-80079853D01*
X126678665Y-80135000D01*
X126961335Y-80135000D01*
X127238574Y-80079853D01*
X127499727Y-79971680D01*
X127734759Y-79814637D01*
X127934637Y-79614759D01*
X128091680Y-79379727D01*
X128199853Y-79118574D01*
X128255000Y-78841335D01*
X128255000Y-78558665D01*
X128231131Y-78438665D01*
X132775000Y-78438665D01*
X132775000Y-78721335D01*
X132830147Y-78998574D01*
X132938320Y-79259727D01*
X133095363Y-79494759D01*
X133295241Y-79694637D01*
X133530273Y-79851680D01*
X133791426Y-79959853D01*
X134068665Y-80015000D01*
X134351335Y-80015000D01*
X134628574Y-79959853D01*
X134889727Y-79851680D01*
X135124759Y-79694637D01*
X135324637Y-79494759D01*
X135481680Y-79259727D01*
X135589853Y-78998574D01*
X135645000Y-78721335D01*
X135645000Y-78438665D01*
X135589853Y-78161426D01*
X135481680Y-77900273D01*
X135324637Y-77665241D01*
X135124759Y-77465363D01*
X134889727Y-77308320D01*
X134628574Y-77200147D01*
X134351335Y-77145000D01*
X134068665Y-77145000D01*
X133791426Y-77200147D01*
X133530273Y-77308320D01*
X133295241Y-77465363D01*
X133095363Y-77665241D01*
X132938320Y-77900273D01*
X132830147Y-78161426D01*
X132775000Y-78438665D01*
X128231131Y-78438665D01*
X128199853Y-78281426D01*
X128091680Y-78020273D01*
X127934637Y-77785241D01*
X127734759Y-77585363D01*
X127499727Y-77428320D01*
X127238574Y-77320147D01*
X126961335Y-77265000D01*
X126678665Y-77265000D01*
X126401426Y-77320147D01*
X126140273Y-77428320D01*
X125905241Y-77585363D01*
X125705363Y-77785241D01*
X125548320Y-78020273D01*
X125440147Y-78281426D01*
X125385000Y-78558665D01*
X123255000Y-78558665D01*
X123199853Y-78281426D01*
X123091680Y-78020273D01*
X122934637Y-77785241D01*
X122734759Y-77585363D01*
X122499727Y-77428320D01*
X122238574Y-77320147D01*
X121961335Y-77265000D01*
X121678665Y-77265000D01*
X121401426Y-77320147D01*
X121140273Y-77428320D01*
X120905241Y-77585363D01*
X120705363Y-77785241D01*
X120548320Y-78020273D01*
X120440147Y-78281426D01*
X120385000Y-78558665D01*
X119304383Y-78558665D01*
X119296130Y-78517179D01*
X119132588Y-78122355D01*
X118895163Y-77767023D01*
X118592977Y-77464837D01*
X118237645Y-77227412D01*
X117842821Y-77063870D01*
X117423677Y-76980497D01*
X116996323Y-76980497D01*
X116577179Y-77063870D01*
X116182355Y-77227412D01*
X115827023Y-77464837D01*
X115524837Y-77767023D01*
X115287412Y-78122355D01*
X115123870Y-78517179D01*
X115040497Y-78936323D01*
X114894116Y-78936323D01*
X114917670Y-78696107D01*
X115049489Y-78259502D01*
X115263600Y-77856815D01*
X115551848Y-77503388D01*
X115903261Y-77212673D01*
X116304439Y-76995758D01*
X116740113Y-76860894D01*
X117224344Y-76810000D01*
X142525198Y-76810000D01*
X142153886Y-77181312D01*
%TA.AperFunction,Conductor*%
D20*
G36*
X142153886Y-77181312D02*
G01*
X141971335Y-77145000D01*
X141688665Y-77145000D01*
X141411426Y-77200147D01*
X141150273Y-77308320D01*
X140915241Y-77465363D01*
X140715363Y-77665241D01*
X140558320Y-77900273D01*
X140450147Y-78161426D01*
X140395000Y-78438665D01*
X140395000Y-78721335D01*
X140450147Y-78998574D01*
X140558320Y-79259727D01*
X140715363Y-79494759D01*
X140915241Y-79694637D01*
X141070000Y-79798043D01*
X141070001Y-93925274D01*
X140905241Y-94035363D01*
X140705363Y-94235241D01*
X140601957Y-94390000D01*
X137514801Y-94390000D01*
X137500000Y-94375199D01*
X137500000Y-92498043D01*
X137654759Y-92394637D01*
X137854637Y-92194759D01*
X138011680Y-91959727D01*
X138119853Y-91698574D01*
X138175000Y-91421335D01*
X138175000Y-91138665D01*
X138119853Y-90861426D01*
X138011680Y-90600273D01*
X137854637Y-90365241D01*
X137654759Y-90165363D01*
X137419727Y-90008320D01*
X137158574Y-89900147D01*
X136881335Y-89845000D01*
X136598665Y-89845000D01*
X136321426Y-89900147D01*
X136060273Y-90008320D01*
X135825241Y-90165363D01*
X135625363Y-90365241D01*
X135470000Y-90597759D01*
X135314637Y-90365241D01*
X135114759Y-90165363D01*
X134879727Y-90008320D01*
X134618574Y-89900147D01*
X134341335Y-89845000D01*
X134058665Y-89845000D01*
X133781426Y-89900147D01*
X133520273Y-90008320D01*
X133285241Y-90165363D01*
X133085363Y-90365241D01*
X132930000Y-90597759D01*
X132774637Y-90365241D01*
X132574759Y-90165363D01*
X132339727Y-90008320D01*
X132078574Y-89900147D01*
X131801335Y-89845000D01*
X131518665Y-89845000D01*
X131241426Y-89900147D01*
X130980273Y-90008320D01*
X130745241Y-90165363D01*
X130545363Y-90365241D01*
X130390000Y-90597759D01*
X130234637Y-90365241D01*
X130034759Y-90165363D01*
X129799727Y-90008320D01*
X129538574Y-89900147D01*
X129261335Y-89845000D01*
X128978665Y-89845000D01*
X128701426Y-89900147D01*
X128440273Y-90008320D01*
X128205241Y-90165363D01*
X128005363Y-90365241D01*
X127850000Y-90597759D01*
X127694637Y-90365241D01*
X127494759Y-90165363D01*
X127259727Y-90008320D01*
X126998574Y-89900147D01*
X126721335Y-89845000D01*
X126438665Y-89845000D01*
X126161426Y-89900147D01*
X125900273Y-90008320D01*
X125665241Y-90165363D01*
X125465363Y-90365241D01*
X125310000Y-90597759D01*
X125154637Y-90365241D01*
X124954759Y-90165363D01*
X124719727Y-90008320D01*
X124458574Y-89900147D01*
X124181335Y-89845000D01*
X123898665Y-89845000D01*
X123621426Y-89900147D01*
X123360273Y-90008320D01*
X123125241Y-90165363D01*
X122925363Y-90365241D01*
X122770000Y-90597759D01*
X122614637Y-90365241D01*
X122414759Y-90165363D01*
X122179727Y-90008320D01*
X121918574Y-89900147D01*
X121641335Y-89845000D01*
X121358665Y-89845000D01*
X121081426Y-89900147D01*
X120820273Y-90008320D01*
X120585241Y-90165363D01*
X120385363Y-90365241D01*
X120228320Y-90600273D01*
X120223933Y-90610865D01*
X120112385Y-90424869D01*
X119923414Y-90216481D01*
X119697420Y-90048963D01*
X119443087Y-89928754D01*
X119309039Y-89888096D01*
X119087000Y-90010085D01*
X119087000Y-91153000D01*
X119107000Y-91153000D01*
X119107000Y-91407000D01*
X119087000Y-91407000D01*
X119087000Y-92549915D01*
X119309039Y-92671904D01*
X119443087Y-92631246D01*
X119697420Y-92511037D01*
X119923414Y-92343519D01*
X120112385Y-92135131D01*
X120223933Y-91949135D01*
X120228320Y-91959727D01*
X120385363Y-92194759D01*
X120585241Y-92394637D01*
X120820273Y-92551680D01*
X121081426Y-92659853D01*
X121358665Y-92715000D01*
X121641335Y-92715000D01*
X121918574Y-92659853D01*
X122179727Y-92551680D01*
X122414759Y-92394637D01*
X122614637Y-92194759D01*
X122770000Y-91962241D01*
X122925363Y-92194759D01*
X123125241Y-92394637D01*
X123360273Y-92551680D01*
X123621426Y-92659853D01*
X123898665Y-92715000D01*
X124181335Y-92715000D01*
X124458574Y-92659853D01*
X124719727Y-92551680D01*
X124954759Y-92394637D01*
X125154637Y-92194759D01*
X125310000Y-91962241D01*
X125465363Y-92194759D01*
X125665241Y-92394637D01*
X125900273Y-92551680D01*
X126161426Y-92659853D01*
X126438665Y-92715000D01*
X126721335Y-92715000D01*
X126998574Y-92659853D01*
X127259727Y-92551680D01*
X127494759Y-92394637D01*
X127694637Y-92194759D01*
X127850000Y-91962241D01*
X128005363Y-92194759D01*
X128205241Y-92394637D01*
X128440273Y-92551680D01*
X128701426Y-92659853D01*
X128978665Y-92715000D01*
X129261335Y-92715000D01*
X129538574Y-92659853D01*
X129799727Y-92551680D01*
X130034759Y-92394637D01*
X130234637Y-92194759D01*
X130390000Y-91962241D01*
X130545363Y-92194759D01*
X130745241Y-92394637D01*
X130980273Y-92551680D01*
X131241426Y-92659853D01*
X131518665Y-92715000D01*
X131801335Y-92715000D01*
X132078574Y-92659853D01*
X132339727Y-92551680D01*
X132574759Y-92394637D01*
X132774637Y-92194759D01*
X132930000Y-91962241D01*
X133085363Y-92194759D01*
X133285241Y-92394637D01*
X133520273Y-92551680D01*
X133781426Y-92659853D01*
X134058665Y-92715000D01*
X134341335Y-92715000D01*
X134618574Y-92659853D01*
X134879727Y-92551680D01*
X135114759Y-92394637D01*
X135314637Y-92194759D01*
X135470000Y-91962241D01*
X135625363Y-92194759D01*
X135825241Y-92394637D01*
X135980000Y-92498044D01*
X135980001Y-94652668D01*
X135976324Y-94690000D01*
X135980001Y-94727333D01*
X135990998Y-94838986D01*
X136001795Y-94874580D01*
X136034454Y-94982246D01*
X136105026Y-95114276D01*
X136174967Y-95199498D01*
X136200000Y-95230001D01*
X136228998Y-95253799D01*
X136636196Y-95660997D01*
X136659999Y-95690001D01*
X136775724Y-95784974D01*
X136907753Y-95855546D01*
X137051014Y-95899003D01*
X137162667Y-95910000D01*
X137162676Y-95910000D01*
X137199999Y-95913676D01*
X137237322Y-95910000D01*
X140601957Y-95910000D01*
X140705363Y-96064759D01*
X140905241Y-96264637D01*
X141140273Y-96421680D01*
X141401426Y-96529853D01*
X141678665Y-96585000D01*
X141961335Y-96585000D01*
X142238574Y-96529853D01*
X142499727Y-96421680D01*
X142734759Y-96264637D01*
X142934637Y-96064759D01*
X143091680Y-95829727D01*
X143199853Y-95568574D01*
X143255000Y-95291335D01*
X143255000Y-95008665D01*
X143199853Y-94731426D01*
X143091680Y-94470273D01*
X142934637Y-94235241D01*
X142734759Y-94035363D01*
X142590000Y-93938638D01*
X142590000Y-91138665D01*
X143685000Y-91138665D01*
X143685000Y-91421335D01*
X143740147Y-91698574D01*
X143848320Y-91959727D01*
X144005363Y-92194759D01*
X144205241Y-92394637D01*
X144440273Y-92551680D01*
X144701426Y-92659853D01*
X144978665Y-92715000D01*
X145261335Y-92715000D01*
X145538574Y-92659853D01*
X145799727Y-92551680D01*
X146034759Y-92394637D01*
X146234637Y-92194759D01*
X146391680Y-91959727D01*
X146499853Y-91698574D01*
X146555000Y-91421335D01*
X146555000Y-91138665D01*
X146499853Y-90861426D01*
X146391680Y-90600273D01*
X146234637Y-90365241D01*
X146034759Y-90165363D01*
X145799727Y-90008320D01*
X145538574Y-89900147D01*
X145261335Y-89845000D01*
X144978665Y-89845000D01*
X144701426Y-89900147D01*
X144440273Y-90008320D01*
X144205241Y-90165363D01*
X144005363Y-90365241D01*
X143848320Y-90600273D01*
X143740147Y-90861426D01*
X143685000Y-91138665D01*
X142590000Y-91138665D01*
X142590000Y-83518665D01*
X143685000Y-83518665D01*
X143685000Y-83801335D01*
X143740147Y-84078574D01*
X143848320Y-84339727D01*
X144005363Y-84574759D01*
X144205241Y-84774637D01*
X144440273Y-84931680D01*
X144701426Y-85039853D01*
X144978665Y-85095000D01*
X145261335Y-85095000D01*
X145538574Y-85039853D01*
X145799727Y-84931680D01*
X146034759Y-84774637D01*
X146234637Y-84574759D01*
X146391680Y-84339727D01*
X146499853Y-84078574D01*
X146555000Y-83801335D01*
X146555000Y-83518665D01*
X146499853Y-83241426D01*
X146391680Y-82980273D01*
X146234637Y-82745241D01*
X146034759Y-82545363D01*
X145799727Y-82388320D01*
X145538574Y-82280147D01*
X145261335Y-82225000D01*
X144978665Y-82225000D01*
X144701426Y-82280147D01*
X144440273Y-82388320D01*
X144205241Y-82545363D01*
X144005363Y-82745241D01*
X143848320Y-82980273D01*
X143740147Y-83241426D01*
X143685000Y-83518665D01*
X142590000Y-83518665D01*
X142590000Y-79798043D01*
X142744759Y-79694637D01*
X142944637Y-79494759D01*
X143101680Y-79259727D01*
X143209853Y-78998574D01*
X143265000Y-78721335D01*
X143265000Y-78438665D01*
X143228688Y-78256114D01*
X144174802Y-77310000D01*
X171585199Y-77310000D01*
X180081928Y-85806730D01*
X180081928Y-87080000D01*
X180094188Y-87204482D01*
X180130498Y-87324180D01*
X180189463Y-87434494D01*
X180268815Y-87531185D01*
X180365506Y-87610537D01*
X180475820Y-87669502D01*
X180548380Y-87691513D01*
X180416525Y-87823368D01*
X180254010Y-88066589D01*
X180142068Y-88336842D01*
X180085000Y-88623740D01*
X180085000Y-88916260D01*
X180142068Y-89203158D01*
X180254010Y-89473411D01*
X180416525Y-89716632D01*
X180623368Y-89923475D01*
X180805534Y-90045195D01*
X180688645Y-90114822D01*
X180472412Y-90309731D01*
X180298359Y-90543080D01*
X180173175Y-90805901D01*
X180128524Y-90953110D01*
X180249845Y-91183000D01*
X181443000Y-91183000D01*
X181443000Y-91163000D01*
X181697000Y-91163000D01*
X181697000Y-91183000D01*
X182890155Y-91183000D01*
X183011476Y-90953110D01*
X182966825Y-90805901D01*
X182841641Y-90543080D01*
X182667588Y-90309731D01*
X182451355Y-90114822D01*
X182334466Y-90045195D01*
X182516632Y-89923475D01*
X182723475Y-89716632D01*
X182885990Y-89473411D01*
X182997932Y-89203158D01*
X183055000Y-88916260D01*
X183055000Y-88623740D01*
X182997932Y-88336842D01*
X182885990Y-88066589D01*
X182723475Y-87823368D01*
X182591620Y-87691513D01*
X182664180Y-87669502D01*
X182774494Y-87610537D01*
X182871185Y-87531185D01*
X182950537Y-87434494D01*
X183009502Y-87324180D01*
X183045812Y-87204482D01*
X183058072Y-87080000D01*
X183058072Y-85380000D01*
X183045812Y-85255518D01*
X183009502Y-85135820D01*
X182950537Y-85025506D01*
X182871185Y-84928815D01*
X182774494Y-84849463D01*
X182664180Y-84790498D01*
X182544482Y-84754188D01*
X182420000Y-84741928D01*
X181166730Y-84741928D01*
X175361125Y-78936323D01*
X180540497Y-78936323D01*
X180540497Y-79363677D01*
X180623870Y-79782821D01*
X180787412Y-80177645D01*
X181024837Y-80532977D01*
X181327023Y-80835163D01*
X181682355Y-81072588D01*
X182077179Y-81236130D01*
X182496323Y-81319503D01*
X182923677Y-81319503D01*
X183342821Y-81236130D01*
X183737645Y-81072588D01*
X184092977Y-80835163D01*
X184395163Y-80532977D01*
X184632588Y-80177645D01*
X184796130Y-79782821D01*
X184879503Y-79363677D01*
X184879503Y-78936323D01*
X184796130Y-78517179D01*
X184632588Y-78122355D01*
X184395163Y-77767023D01*
X184092977Y-77464837D01*
X183737645Y-77227412D01*
X183342821Y-77063870D01*
X182923677Y-76980497D01*
X182496323Y-76980497D01*
X182077179Y-77063870D01*
X181682355Y-77227412D01*
X181327023Y-77464837D01*
X181024837Y-77767023D01*
X180787412Y-78122355D01*
X180623870Y-78517179D01*
X180540497Y-78936323D01*
X175361125Y-78936323D01*
X173234801Y-76810000D01*
X182677721Y-76810000D01*
X183163893Y-76857670D01*
X183600498Y-76989489D01*
X184003185Y-77203600D01*
X184356612Y-77491848D01*
X184647327Y-77843261D01*
X184864242Y-78244439D01*
X184999106Y-78680113D01*
X185050000Y-79164344D01*
X185050001Y-93117711D01*
X185002330Y-93603894D01*
X184870512Y-94040497D01*
X184656399Y-94443186D01*
X184368150Y-94796613D01*
X184016739Y-95087327D01*
X183615564Y-95304240D01*
X183179886Y-95439106D01*
X182695664Y-95490000D01*
X178677581Y-95490000D01*
X178647937Y-95492920D01*
X178629238Y-95492789D01*
X178620067Y-95493689D01*
X178037777Y-95554890D01*
X177979191Y-95566916D01*
X177920420Y-95578127D01*
X177911598Y-95580790D01*
X177352285Y-95753928D01*
X177297167Y-95777098D01*
X177241678Y-95799516D01*
X177233542Y-95803843D01*
X176718510Y-96082319D01*
X176668936Y-96115757D01*
X176618862Y-96148524D01*
X176611721Y-96154348D01*
X176160588Y-96527558D01*
X176118431Y-96570010D01*
X176075699Y-96611856D01*
X176069825Y-96618957D01*
X175699773Y-97072685D01*
X175666679Y-97122496D01*
X175632873Y-97171868D01*
X175628490Y-97179974D01*
X175353616Y-97696938D01*
X175330812Y-97752265D01*
X175307256Y-97807225D01*
X175304531Y-97816029D01*
X175135304Y-98376536D01*
X175123682Y-98435231D01*
X175111248Y-98493727D01*
X175110285Y-98502892D01*
X175053150Y-99085595D01*
X175050000Y-99117582D01*
X175050001Y-105617711D01*
X175002330Y-106103894D01*
X174870512Y-106540497D01*
X174656399Y-106943186D01*
X174368150Y-107296613D01*
X174016739Y-107587327D01*
X173615564Y-107804240D01*
X173179886Y-107939106D01*
X172695664Y-107990000D01*
X143177581Y-107990000D01*
X143147937Y-107992920D01*
X143129238Y-107992789D01*
X143120067Y-107993689D01*
X142537777Y-108054890D01*
X142479191Y-108066916D01*
X142420420Y-108078127D01*
X142411598Y-108080790D01*
X141852285Y-108253928D01*
X141797167Y-108277098D01*
X141741678Y-108299516D01*
X141733542Y-108303843D01*
X141218510Y-108582319D01*
X141168936Y-108615757D01*
X141118862Y-108648524D01*
X141111721Y-108654348D01*
X140660588Y-109027558D01*
X140618431Y-109070010D01*
X140575699Y-109111856D01*
X140569825Y-109118957D01*
X140199773Y-109572685D01*
X140166679Y-109622496D01*
X140132873Y-109671868D01*
X140128490Y-109679974D01*
X139853616Y-110196938D01*
X139830812Y-110252265D01*
X139807256Y-110307225D01*
X139804531Y-110316029D01*
X139635304Y-110876536D01*
X139623682Y-110935231D01*
X139611248Y-110993727D01*
X139610285Y-111002892D01*
X139553150Y-111585595D01*
X139553150Y-111585608D01*
X139550001Y-111617581D01*
X139550000Y-117117721D01*
X139502330Y-117603894D01*
X139370512Y-118040497D01*
X139156399Y-118443186D01*
X138868150Y-118796613D01*
X138516739Y-119087327D01*
X138115564Y-119304240D01*
X137679886Y-119439106D01*
X137195664Y-119490000D01*
X117242279Y-119490000D01*
X116756106Y-119442330D01*
X116319503Y-119310512D01*
X115916814Y-119096399D01*
X115563387Y-118808150D01*
X115272673Y-118456739D01*
X115055760Y-118055564D01*
X114920894Y-117619886D01*
X114870000Y-117135664D01*
X114870000Y-116936323D01*
X115040497Y-116936323D01*
X115040497Y-117363677D01*
X115123870Y-117782821D01*
X115287412Y-118177645D01*
X115524837Y-118532977D01*
X115827023Y-118835163D01*
X116182355Y-119072588D01*
X116577179Y-119236130D01*
X116996323Y-119319503D01*
X117423677Y-119319503D01*
X117842821Y-119236130D01*
X118237645Y-119072588D01*
X118592977Y-118835163D01*
X118895163Y-118532977D01*
X119132588Y-118177645D01*
X119296130Y-117782821D01*
X119379503Y-117363677D01*
X119379503Y-116936323D01*
X119296130Y-116517179D01*
X119132588Y-116122355D01*
X118895163Y-115767023D01*
X118592977Y-115464837D01*
X118237645Y-115227412D01*
X117842821Y-115063870D01*
X117423677Y-114980497D01*
X116996323Y-114980497D01*
X116577179Y-115063870D01*
X116182355Y-115227412D01*
X115827023Y-115464837D01*
X115524837Y-115767023D01*
X115287412Y-116122355D01*
X115123870Y-116517179D01*
X115040497Y-116936323D01*
X114870000Y-116936323D01*
X114870000Y-108374801D01*
X115371200Y-108876002D01*
X115394999Y-108905001D01*
X115423997Y-108928799D01*
X115510723Y-108999974D01*
X115562329Y-109027558D01*
X115642753Y-109070546D01*
X115786014Y-109114003D01*
X115897667Y-109125000D01*
X115897677Y-109125000D01*
X115934999Y-109128676D01*
X115972322Y-109125000D01*
X124782659Y-109125000D01*
X124869880Y-109255535D01*
X125064465Y-109450120D01*
X125195001Y-109537341D01*
X125195000Y-115017677D01*
X125191324Y-115055000D01*
X125195000Y-115092322D01*
X125195000Y-115092332D01*
X125205997Y-115203985D01*
X125246574Y-115337753D01*
X125249454Y-115347246D01*
X125320026Y-115479276D01*
X125359871Y-115527826D01*
X125414999Y-115595001D01*
X125444002Y-115618803D01*
X125966200Y-116141002D01*
X125989999Y-116170001D01*
X126105724Y-116264974D01*
X126237753Y-116335546D01*
X126381014Y-116379003D01*
X126492667Y-116390000D01*
X126492675Y-116390000D01*
X126530000Y-116393676D01*
X126567325Y-116390000D01*
X132612678Y-116390000D01*
X132650000Y-116393676D01*
X132687322Y-116390000D01*
X132687333Y-116390000D01*
X132798986Y-116379003D01*
X132942247Y-116335546D01*
X133074276Y-116264974D01*
X133190001Y-116170001D01*
X133213804Y-116140997D01*
X142204802Y-107150000D01*
X154992678Y-107150000D01*
X155030000Y-107153676D01*
X155067322Y-107150000D01*
X155067333Y-107150000D01*
X155178986Y-107139003D01*
X155322247Y-107095546D01*
X155454276Y-107024974D01*
X155570001Y-106930001D01*
X155593804Y-106900997D01*
X160355000Y-102139801D01*
X160355000Y-105498036D01*
X160375040Y-105701506D01*
X160454236Y-105962580D01*
X160582843Y-106203187D01*
X160755919Y-106414080D01*
X160966812Y-106587157D01*
X161207419Y-106715764D01*
X161468493Y-106794960D01*
X161740000Y-106821701D01*
X162011506Y-106794960D01*
X162272580Y-106715764D01*
X162513187Y-106587157D01*
X162724080Y-106414081D01*
X162897157Y-106203188D01*
X163025764Y-105962581D01*
X163104960Y-105701507D01*
X163125000Y-105498037D01*
X163125000Y-100248726D01*
X163160001Y-100220001D01*
X163183804Y-100190997D01*
X167425001Y-95949801D01*
X167425001Y-97308037D01*
X167445041Y-97511507D01*
X167524237Y-97772581D01*
X167652844Y-98013188D01*
X167825920Y-98224081D01*
X168036813Y-98397157D01*
X168277420Y-98525764D01*
X168538494Y-98604960D01*
X168810000Y-98631701D01*
X169081507Y-98604960D01*
X169342581Y-98525764D01*
X169583188Y-98397157D01*
X169794081Y-98224081D01*
X169967157Y-98013188D01*
X170095764Y-97772581D01*
X170174960Y-97511507D01*
X170195000Y-97308037D01*
X170195000Y-91666890D01*
X180128524Y-91666890D01*
X180173175Y-91814099D01*
X180298359Y-92076920D01*
X180472412Y-92310269D01*
X180688645Y-92505178D01*
X180938748Y-92654157D01*
X181213109Y-92751481D01*
X181443000Y-92630814D01*
X181443000Y-91437000D01*
X181697000Y-91437000D01*
X181697000Y-92630814D01*
X181926891Y-92751481D01*
X182201252Y-92654157D01*
X182451355Y-92505178D01*
X182667588Y-92310269D01*
X182841641Y-92076920D01*
X182966825Y-91814099D01*
X183011476Y-91666890D01*
X182890155Y-91437000D01*
X181697000Y-91437000D01*
X181443000Y-91437000D01*
X180249845Y-91437000D01*
X180128524Y-91666890D01*
X170195000Y-91666890D01*
X170195000Y-89671963D01*
X170174960Y-89468493D01*
X170095764Y-89207419D01*
X169967157Y-88966812D01*
X169794080Y-88755919D01*
X169583187Y-88582843D01*
X169342580Y-88454236D01*
X169081506Y-88375040D01*
X168810000Y-88348299D01*
X168538493Y-88375040D01*
X168277419Y-88454236D01*
X168036812Y-88582843D01*
X167825919Y-88755920D01*
X167652843Y-88966813D01*
X167524236Y-89207420D01*
X167445040Y-89468494D01*
X167425000Y-89671964D01*
X167425001Y-93800198D01*
X163125000Y-98100199D01*
X163125000Y-93861963D01*
X163104960Y-93658493D01*
X163025764Y-93397419D01*
X162897157Y-93156812D01*
X162724081Y-92945919D01*
X162513188Y-92772843D01*
X162272581Y-92644236D01*
X162011507Y-92565040D01*
X161740000Y-92538299D01*
X161468494Y-92565040D01*
X161207420Y-92644236D01*
X160966813Y-92772843D01*
X160755920Y-92945919D01*
X160582844Y-93156812D01*
X160454237Y-93397419D01*
X160375041Y-93658493D01*
X160355001Y-93861963D01*
X160355000Y-99990198D01*
X154715199Y-105630000D01*
X141927322Y-105630000D01*
X141889999Y-105626324D01*
X141852676Y-105630000D01*
X141852667Y-105630000D01*
X141741014Y-105640997D01*
X141597753Y-105684454D01*
X141465724Y-105755026D01*
X141349999Y-105849999D01*
X141326201Y-105878997D01*
X132335199Y-114870000D01*
X126844802Y-114870000D01*
X126715000Y-114740199D01*
X126715000Y-109537341D01*
X126845535Y-109450120D01*
X127040120Y-109255535D01*
X127193005Y-109026727D01*
X127298314Y-108772490D01*
X127352000Y-108502592D01*
X127352000Y-108227408D01*
X129638000Y-108227408D01*
X129638000Y-108502592D01*
X129691686Y-108772490D01*
X129796995Y-109026727D01*
X129949880Y-109255535D01*
X130144465Y-109450120D01*
X130373273Y-109603005D01*
X130627510Y-109708314D01*
X130897408Y-109762000D01*
X131172592Y-109762000D01*
X131442490Y-109708314D01*
X131696727Y-109603005D01*
X131925535Y-109450120D01*
X132120120Y-109255535D01*
X132273005Y-109026727D01*
X132378314Y-108772490D01*
X132432000Y-108502592D01*
X132432000Y-108227408D01*
X132378314Y-107957510D01*
X132273005Y-107703273D01*
X132120120Y-107474465D01*
X131925535Y-107279880D01*
X131696727Y-107126995D01*
X131442490Y-107021686D01*
X131172592Y-106968000D01*
X130897408Y-106968000D01*
X130627510Y-107021686D01*
X130373273Y-107126995D01*
X130144465Y-107279880D01*
X129949880Y-107474465D01*
X129796995Y-107703273D01*
X129691686Y-107957510D01*
X129638000Y-108227408D01*
X127352000Y-108227408D01*
X127298314Y-107957510D01*
X127193005Y-107703273D01*
X127040120Y-107474465D01*
X126845535Y-107279880D01*
X126616727Y-107126995D01*
X126362490Y-107021686D01*
X126092592Y-106968000D01*
X125817408Y-106968000D01*
X125547510Y-107021686D01*
X125293273Y-107126995D01*
X125064465Y-107279880D01*
X124869880Y-107474465D01*
X124782659Y-107605000D01*
X116249802Y-107605000D01*
X116030000Y-107385199D01*
X116030000Y-105687408D01*
X127098000Y-105687408D01*
X127098000Y-105962592D01*
X127151686Y-106232490D01*
X127256995Y-106486727D01*
X127409880Y-106715535D01*
X127604465Y-106910120D01*
X127833273Y-107063005D01*
X128087510Y-107168314D01*
X128357408Y-107222000D01*
X128632592Y-107222000D01*
X128902490Y-107168314D01*
X129156727Y-107063005D01*
X129385535Y-106910120D01*
X129580120Y-106715535D01*
X129733005Y-106486727D01*
X129838314Y-106232490D01*
X129892000Y-105962592D01*
X129892000Y-105687408D01*
X129861372Y-105533429D01*
X133656136Y-101738665D01*
X138575000Y-101738665D01*
X138575000Y-102021335D01*
X138630147Y-102298574D01*
X138738320Y-102559727D01*
X138895363Y-102794759D01*
X139095241Y-102994637D01*
X139330273Y-103151680D01*
X139591426Y-103259853D01*
X139868665Y-103315000D01*
X140151335Y-103315000D01*
X140428574Y-103259853D01*
X140689727Y-103151680D01*
X140924759Y-102994637D01*
X141046694Y-102872702D01*
X144196903Y-102872702D01*
X144268486Y-103116671D01*
X144523996Y-103237571D01*
X144798184Y-103306300D01*
X145080512Y-103320217D01*
X145360130Y-103278787D01*
X145626292Y-103183603D01*
X145751514Y-103116671D01*
X145823097Y-102872702D01*
X145010000Y-102059605D01*
X144196903Y-102872702D01*
X141046694Y-102872702D01*
X141124637Y-102794759D01*
X141281680Y-102559727D01*
X141389853Y-102298574D01*
X141445000Y-102021335D01*
X141445000Y-101950512D01*
X143569783Y-101950512D01*
X143611213Y-102230130D01*
X143706397Y-102496292D01*
X143773329Y-102621514D01*
X144017298Y-102693097D01*
X144830395Y-101880000D01*
X145189605Y-101880000D01*
X146002702Y-102693097D01*
X146246671Y-102621514D01*
X146367571Y-102366004D01*
X146436300Y-102091816D01*
X146450217Y-101809488D01*
X146408787Y-101529870D01*
X146313603Y-101263708D01*
X146246671Y-101138486D01*
X146002702Y-101066903D01*
X145189605Y-101880000D01*
X144830395Y-101880000D01*
X144017298Y-101066903D01*
X143773329Y-101138486D01*
X143652429Y-101393996D01*
X143583700Y-101668184D01*
X143569783Y-101950512D01*
X141445000Y-101950512D01*
X141445000Y-101738665D01*
X141389853Y-101461426D01*
X141281680Y-101200273D01*
X141124637Y-100965241D01*
X141046694Y-100887298D01*
X144196903Y-100887298D01*
X145010000Y-101700395D01*
X145823097Y-100887298D01*
X145751514Y-100643329D01*
X145496004Y-100522429D01*
X145221816Y-100453700D01*
X144939488Y-100439783D01*
X144659870Y-100481213D01*
X144393708Y-100576397D01*
X144268486Y-100643329D01*
X144196903Y-100887298D01*
X141046694Y-100887298D01*
X140924759Y-100765363D01*
X140689727Y-100608320D01*
X140428574Y-100500147D01*
X140151335Y-100445000D01*
X139868665Y-100445000D01*
X139591426Y-100500147D01*
X139330273Y-100608320D01*
X139095241Y-100765363D01*
X138895363Y-100965241D01*
X138738320Y-101200273D01*
X138630147Y-101461426D01*
X138575000Y-101738665D01*
X133656136Y-101738665D01*
X135224802Y-100170000D01*
X147312678Y-100170000D01*
X147350000Y-100173676D01*
X147387322Y-100170000D01*
X147387333Y-100170000D01*
X147498986Y-100159003D01*
X147642247Y-100115546D01*
X147774276Y-100044974D01*
X147890001Y-99950001D01*
X147913804Y-99920997D01*
X160355000Y-87479802D01*
X160355000Y-90838036D01*
X160375040Y-91041506D01*
X160454236Y-91302580D01*
X160582843Y-91543187D01*
X160755919Y-91754080D01*
X160966812Y-91927157D01*
X161207419Y-92055764D01*
X161468493Y-92134960D01*
X161740000Y-92161701D01*
X162011506Y-92134960D01*
X162272580Y-92055764D01*
X162513187Y-91927157D01*
X162724080Y-91754081D01*
X162897157Y-91543188D01*
X163025764Y-91302581D01*
X163104960Y-91041507D01*
X163125000Y-90838037D01*
X163125000Y-85780000D01*
X166612678Y-85780000D01*
X166650000Y-85783676D01*
X166687322Y-85780000D01*
X166687333Y-85780000D01*
X166798986Y-85769003D01*
X166942247Y-85725546D01*
X167074276Y-85654974D01*
X167190001Y-85560001D01*
X167213804Y-85530998D01*
X167435001Y-85309800D01*
X167435001Y-86668037D01*
X167455041Y-86871507D01*
X167534237Y-87132581D01*
X167662844Y-87373188D01*
X167835920Y-87584081D01*
X168046813Y-87757157D01*
X168287420Y-87885764D01*
X168548494Y-87964960D01*
X168820000Y-87991701D01*
X169091507Y-87964960D01*
X169352581Y-87885764D01*
X169593188Y-87757157D01*
X169804081Y-87584081D01*
X169977157Y-87373188D01*
X170105764Y-87132581D01*
X170184960Y-86871507D01*
X170205000Y-86668037D01*
X170205000Y-79031963D01*
X170184960Y-78828493D01*
X170105764Y-78567419D01*
X169977157Y-78326812D01*
X169804080Y-78115919D01*
X169593187Y-77942843D01*
X169352580Y-77814236D01*
X169091506Y-77735040D01*
X168820000Y-77708299D01*
X168548493Y-77735040D01*
X168287419Y-77814236D01*
X168046812Y-77942843D01*
X167835919Y-78115920D01*
X167662843Y-78326813D01*
X167534236Y-78567420D01*
X167455040Y-78828494D01*
X167435000Y-79031964D01*
X167435001Y-83160197D01*
X166335199Y-84260000D01*
X163125000Y-84260000D01*
X163125000Y-79201963D01*
X163104960Y-78998493D01*
X163025764Y-78737419D01*
X162897157Y-78496812D01*
X162724081Y-78285919D01*
X162513188Y-78112843D01*
X162272581Y-77984236D01*
X162011507Y-77905040D01*
X161740000Y-77878299D01*
X161468494Y-77905040D01*
X161207420Y-77984236D01*
X160966813Y-78112843D01*
X160755920Y-78285919D01*
X160582844Y-78496812D01*
X160454237Y-78737419D01*
X160375041Y-78998493D01*
X160355001Y-79201963D01*
X160355000Y-85330198D01*
X147035199Y-98650000D01*
X134947322Y-98650000D01*
X134909999Y-98646324D01*
X134872677Y-98650000D01*
X134872667Y-98650000D01*
X134761014Y-98660997D01*
X134617753Y-98704454D01*
X134485723Y-98775026D01*
X134402083Y-98843668D01*
X134369999Y-98869999D01*
X134346201Y-98898997D01*
X128786571Y-104458628D01*
X128632592Y-104428000D01*
X128357408Y-104428000D01*
X128087510Y-104481686D01*
X127833273Y-104586995D01*
X127604465Y-104739880D01*
X127409880Y-104934465D01*
X127256995Y-105163273D01*
X127151686Y-105417510D01*
X127098000Y-105687408D01*
X116030000Y-105687408D01*
X116030000Y-96088665D01*
X116035000Y-96088665D01*
X116035000Y-96371335D01*
X116090147Y-96648574D01*
X116198320Y-96909727D01*
X116355363Y-97144759D01*
X116555241Y-97344637D01*
X116790273Y-97501680D01*
X117051426Y-97609853D01*
X117328665Y-97665000D01*
X117611335Y-97665000D01*
X117888574Y-97609853D01*
X118149727Y-97501680D01*
X118384759Y-97344637D01*
X118584637Y-97144759D01*
X118741680Y-96909727D01*
X118849853Y-96648574D01*
X118905000Y-96371335D01*
X118905000Y-96088665D01*
X121035000Y-96088665D01*
X121035000Y-96371335D01*
X121090147Y-96648574D01*
X121198320Y-96909727D01*
X121355363Y-97144759D01*
X121555241Y-97344637D01*
X121790273Y-97501680D01*
X122051426Y-97609853D01*
X122328665Y-97665000D01*
X122611335Y-97665000D01*
X122888574Y-97609853D01*
X123149727Y-97501680D01*
X123384759Y-97344637D01*
X123584637Y-97144759D01*
X123741680Y-96909727D01*
X123849853Y-96648574D01*
X123905000Y-96371335D01*
X123905000Y-96088665D01*
X123849853Y-95811426D01*
X123741680Y-95550273D01*
X123584637Y-95315241D01*
X123384759Y-95115363D01*
X123225074Y-95008665D01*
X132765000Y-95008665D01*
X132765000Y-95291335D01*
X132820147Y-95568574D01*
X132928320Y-95829727D01*
X133085363Y-96064759D01*
X133285241Y-96264637D01*
X133520273Y-96421680D01*
X133781426Y-96529853D01*
X134058665Y-96585000D01*
X134341335Y-96585000D01*
X134618574Y-96529853D01*
X134879727Y-96421680D01*
X135114759Y-96264637D01*
X135314637Y-96064759D01*
X135471680Y-95829727D01*
X135579853Y-95568574D01*
X135635000Y-95291335D01*
X135635000Y-95008665D01*
X135579853Y-94731426D01*
X135471680Y-94470273D01*
X135314637Y-94235241D01*
X135114759Y-94035363D01*
X134879727Y-93878320D01*
X134618574Y-93770147D01*
X134341335Y-93715000D01*
X134058665Y-93715000D01*
X133781426Y-93770147D01*
X133520273Y-93878320D01*
X133285241Y-94035363D01*
X133085363Y-94235241D01*
X132928320Y-94470273D01*
X132820147Y-94731426D01*
X132765000Y-95008665D01*
X123225074Y-95008665D01*
X123149727Y-94958320D01*
X122888574Y-94850147D01*
X122611335Y-94795000D01*
X122328665Y-94795000D01*
X122051426Y-94850147D01*
X121790273Y-94958320D01*
X121555241Y-95115363D01*
X121355363Y-95315241D01*
X121198320Y-95550273D01*
X121090147Y-95811426D01*
X121035000Y-96088665D01*
X118905000Y-96088665D01*
X118849853Y-95811426D01*
X118741680Y-95550273D01*
X118584637Y-95315241D01*
X118384759Y-95115363D01*
X118149727Y-94958320D01*
X117888574Y-94850147D01*
X117611335Y-94795000D01*
X117328665Y-94795000D01*
X117051426Y-94850147D01*
X116790273Y-94958320D01*
X116555241Y-95115363D01*
X116355363Y-95315241D01*
X116198320Y-95550273D01*
X116090147Y-95811426D01*
X116035000Y-96088665D01*
X116030000Y-96088665D01*
X116030000Y-91629040D01*
X117568091Y-91629040D01*
X117662930Y-91893881D01*
X117807615Y-92135131D01*
X117996586Y-92343519D01*
X118222580Y-92511037D01*
X118476913Y-92631246D01*
X118610961Y-92671904D01*
X118833000Y-92549915D01*
X118833000Y-91407000D01*
X117689376Y-91407000D01*
X117568091Y-91629040D01*
X116030000Y-91629040D01*
X116030000Y-90930960D01*
X117568091Y-90930960D01*
X117689376Y-91153000D01*
X118833000Y-91153000D01*
X118833000Y-90010085D01*
X118610961Y-89888096D01*
X118476913Y-89928754D01*
X118222580Y-90048963D01*
X117996586Y-90216481D01*
X117807615Y-90424869D01*
X117662930Y-90666119D01*
X117568091Y-90930960D01*
X116030000Y-90930960D01*
X116030000Y-88344801D01*
X116154802Y-88220000D01*
X122742678Y-88220000D01*
X122780000Y-88223676D01*
X122817322Y-88220000D01*
X122817333Y-88220000D01*
X122928986Y-88209003D01*
X123072247Y-88165546D01*
X123204276Y-88094974D01*
X123320001Y-88000001D01*
X123343804Y-87970997D01*
X126256114Y-85058688D01*
X126438665Y-85095000D01*
X126721335Y-85095000D01*
X126998574Y-85039853D01*
X127259727Y-84931680D01*
X127494759Y-84774637D01*
X127694637Y-84574759D01*
X127850000Y-84342241D01*
X128005363Y-84574759D01*
X128205241Y-84774637D01*
X128440273Y-84931680D01*
X128701426Y-85039853D01*
X128978665Y-85095000D01*
X129261335Y-85095000D01*
X129538574Y-85039853D01*
X129799727Y-84931680D01*
X130034759Y-84774637D01*
X130234637Y-84574759D01*
X130390000Y-84342241D01*
X130545363Y-84574759D01*
X130745241Y-84774637D01*
X130980273Y-84931680D01*
X131241426Y-85039853D01*
X131518665Y-85095000D01*
X131801335Y-85095000D01*
X132078574Y-85039853D01*
X132339727Y-84931680D01*
X132574759Y-84774637D01*
X132774637Y-84574759D01*
X132930000Y-84342241D01*
X133085363Y-84574759D01*
X133285241Y-84774637D01*
X133520273Y-84931680D01*
X133781426Y-85039853D01*
X134058665Y-85095000D01*
X134341335Y-85095000D01*
X134618574Y-85039853D01*
X134879727Y-84931680D01*
X135114759Y-84774637D01*
X135313357Y-84576039D01*
X135314188Y-84584482D01*
X135350498Y-84704180D01*
X135409463Y-84814494D01*
X135488815Y-84911185D01*
X135585506Y-84990537D01*
X135695820Y-85049502D01*
X135815518Y-85085812D01*
X135940000Y-85098072D01*
X136454250Y-85095000D01*
X136613000Y-84936250D01*
X136613000Y-83787000D01*
X136867000Y-83787000D01*
X136867000Y-84936250D01*
X137025750Y-85095000D01*
X137540000Y-85098072D01*
X137664482Y-85085812D01*
X137784180Y-85049502D01*
X137894494Y-84990537D01*
X137991185Y-84911185D01*
X138070537Y-84814494D01*
X138129502Y-84704180D01*
X138165812Y-84584482D01*
X138178072Y-84460000D01*
X138175000Y-83945750D01*
X138016250Y-83787000D01*
X136867000Y-83787000D01*
X136613000Y-83787000D01*
X136593000Y-83787000D01*
X136593000Y-83533000D01*
X136613000Y-83533000D01*
X136613000Y-82383750D01*
X136867000Y-82383750D01*
X136867000Y-83533000D01*
X138016250Y-83533000D01*
X138175000Y-83374250D01*
X138178072Y-82860000D01*
X138165812Y-82735518D01*
X138129502Y-82615820D01*
X138070537Y-82505506D01*
X137991185Y-82408815D01*
X137894494Y-82329463D01*
X137784180Y-82270498D01*
X137664482Y-82234188D01*
X137540000Y-82221928D01*
X137025750Y-82225000D01*
X136867000Y-82383750D01*
X136613000Y-82383750D01*
X136454250Y-82225000D01*
X135940000Y-82221928D01*
X135815518Y-82234188D01*
X135695820Y-82270498D01*
X135585506Y-82329463D01*
X135488815Y-82408815D01*
X135409463Y-82505506D01*
X135350498Y-82615820D01*
X135314188Y-82735518D01*
X135313357Y-82743961D01*
X135114759Y-82545363D01*
X134879727Y-82388320D01*
X134618574Y-82280147D01*
X134341335Y-82225000D01*
X134058665Y-82225000D01*
X133781426Y-82280147D01*
X133520273Y-82388320D01*
X133285241Y-82545363D01*
X133085363Y-82745241D01*
X132930000Y-82977759D01*
X132774637Y-82745241D01*
X132574759Y-82545363D01*
X132339727Y-82388320D01*
X132078574Y-82280147D01*
X131801335Y-82225000D01*
X131518665Y-82225000D01*
X131241426Y-82280147D01*
X130980273Y-82388320D01*
X130745241Y-82545363D01*
X130545363Y-82745241D01*
X130390000Y-82977759D01*
X130234637Y-82745241D01*
X130034759Y-82545363D01*
X129799727Y-82388320D01*
X129538574Y-82280147D01*
X129261335Y-82225000D01*
X128978665Y-82225000D01*
X128701426Y-82280147D01*
X128440273Y-82388320D01*
X128205241Y-82545363D01*
X128005363Y-82745241D01*
X127850000Y-82977759D01*
X127694637Y-82745241D01*
X127494759Y-82545363D01*
X127259727Y-82388320D01*
X126998574Y-82280147D01*
X126721335Y-82225000D01*
X126438665Y-82225000D01*
X126161426Y-82280147D01*
X125900273Y-82388320D01*
X125665241Y-82545363D01*
X125465363Y-82745241D01*
X125310000Y-82977759D01*
X125154637Y-82745241D01*
X124954759Y-82545363D01*
X124719727Y-82388320D01*
X124458574Y-82280147D01*
X124181335Y-82225000D01*
X123898665Y-82225000D01*
X123621426Y-82280147D01*
X123360273Y-82388320D01*
X123125241Y-82545363D01*
X122925363Y-82745241D01*
X122770000Y-82977759D01*
X122614637Y-82745241D01*
X122414759Y-82545363D01*
X122179727Y-82388320D01*
X121918574Y-82280147D01*
X121641335Y-82225000D01*
X121358665Y-82225000D01*
X121081426Y-82280147D01*
X120820273Y-82388320D01*
X120585241Y-82545363D01*
X120385363Y-82745241D01*
X120228320Y-82980273D01*
X120223933Y-82990865D01*
X120112385Y-82804869D01*
X119923414Y-82596481D01*
X119697420Y-82428963D01*
X119443087Y-82308754D01*
X119309039Y-82268096D01*
X119087000Y-82390085D01*
X119087000Y-83533000D01*
X119107000Y-83533000D01*
X119107000Y-83787000D01*
X119087000Y-83787000D01*
X119087000Y-84929915D01*
X119309039Y-85051904D01*
X119443087Y-85011246D01*
X119697420Y-84891037D01*
X119923414Y-84723519D01*
X120112385Y-84515131D01*
X120223933Y-84329135D01*
X120228320Y-84339727D01*
X120385363Y-84574759D01*
X120585241Y-84774637D01*
X120820273Y-84931680D01*
X121081426Y-85039853D01*
X121358665Y-85095000D01*
X121641335Y-85095000D01*
X121918574Y-85039853D01*
X122179727Y-84931680D01*
X122414759Y-84774637D01*
X122614637Y-84574759D01*
X122770000Y-84342241D01*
X122925363Y-84574759D01*
X123125241Y-84774637D01*
X123360273Y-84931680D01*
X123621426Y-85039853D01*
X123898665Y-85095000D01*
X124070199Y-85095000D01*
X122465199Y-86700000D01*
X115877325Y-86700000D01*
X115840000Y-86696324D01*
X115802675Y-86700000D01*
X115802667Y-86700000D01*
X115691014Y-86710997D01*
X115547753Y-86754454D01*
X115415724Y-86825026D01*
X115299999Y-86919999D01*
X115276200Y-86948998D01*
X114870000Y-87355199D01*
X114870000Y-84009040D01*
X117568091Y-84009040D01*
X117662930Y-84273881D01*
X117807615Y-84515131D01*
X117996586Y-84723519D01*
X118222580Y-84891037D01*
X118476913Y-85011246D01*
X118610961Y-85051904D01*
X118833000Y-84929915D01*
X118833000Y-83787000D01*
X117689376Y-83787000D01*
X117568091Y-84009040D01*
X114870000Y-84009040D01*
X114870000Y-83310960D01*
X117568091Y-83310960D01*
X117689376Y-83533000D01*
X118833000Y-83533000D01*
X118833000Y-82390085D01*
X118610961Y-82268096D01*
X118476913Y-82308754D01*
X118222580Y-82428963D01*
X117996586Y-82596481D01*
X117807615Y-82804869D01*
X117662930Y-83046119D01*
X117568091Y-83310960D01*
X114870000Y-83310960D01*
X114870000Y-79182279D01*
X114894116Y-78936323D01*
X115040497Y-78936323D01*
X115040497Y-79363677D01*
X115123870Y-79782821D01*
X115287412Y-80177645D01*
X115524837Y-80532977D01*
X115827023Y-80835163D01*
X116182355Y-81072588D01*
X116577179Y-81236130D01*
X116996323Y-81319503D01*
X117423677Y-81319503D01*
X117842821Y-81236130D01*
X118237645Y-81072588D01*
X118592977Y-80835163D01*
X118895163Y-80532977D01*
X119132588Y-80177645D01*
X119296130Y-79782821D01*
X119379503Y-79363677D01*
X119379503Y-78936323D01*
X119304383Y-78558665D01*
X120385000Y-78558665D01*
X120385000Y-78841335D01*
X120440147Y-79118574D01*
X120548320Y-79379727D01*
X120705363Y-79614759D01*
X120905241Y-79814637D01*
X121140273Y-79971680D01*
X121401426Y-80079853D01*
X121678665Y-80135000D01*
X121961335Y-80135000D01*
X122238574Y-80079853D01*
X122499727Y-79971680D01*
X122734759Y-79814637D01*
X122934637Y-79614759D01*
X123091680Y-79379727D01*
X123199853Y-79118574D01*
X123255000Y-78841335D01*
X123255000Y-78558665D01*
X125385000Y-78558665D01*
X125385000Y-78841335D01*
X125440147Y-79118574D01*
X125548320Y-79379727D01*
X125705363Y-79614759D01*
X125905241Y-79814637D01*
X126140273Y-79971680D01*
X126401426Y-80079853D01*
X126678665Y-80135000D01*
X126961335Y-80135000D01*
X127238574Y-80079853D01*
X127499727Y-79971680D01*
X127734759Y-79814637D01*
X127934637Y-79614759D01*
X128091680Y-79379727D01*
X128199853Y-79118574D01*
X128255000Y-78841335D01*
X128255000Y-78558665D01*
X128231131Y-78438665D01*
X132775000Y-78438665D01*
X132775000Y-78721335D01*
X132830147Y-78998574D01*
X132938320Y-79259727D01*
X133095363Y-79494759D01*
X133295241Y-79694637D01*
X133530273Y-79851680D01*
X133791426Y-79959853D01*
X134068665Y-80015000D01*
X134351335Y-80015000D01*
X134628574Y-79959853D01*
X134889727Y-79851680D01*
X135124759Y-79694637D01*
X135324637Y-79494759D01*
X135481680Y-79259727D01*
X135589853Y-78998574D01*
X135645000Y-78721335D01*
X135645000Y-78438665D01*
X135589853Y-78161426D01*
X135481680Y-77900273D01*
X135324637Y-77665241D01*
X135124759Y-77465363D01*
X134889727Y-77308320D01*
X134628574Y-77200147D01*
X134351335Y-77145000D01*
X134068665Y-77145000D01*
X133791426Y-77200147D01*
X133530273Y-77308320D01*
X133295241Y-77465363D01*
X133095363Y-77665241D01*
X132938320Y-77900273D01*
X132830147Y-78161426D01*
X132775000Y-78438665D01*
X128231131Y-78438665D01*
X128199853Y-78281426D01*
X128091680Y-78020273D01*
X127934637Y-77785241D01*
X127734759Y-77585363D01*
X127499727Y-77428320D01*
X127238574Y-77320147D01*
X126961335Y-77265000D01*
X126678665Y-77265000D01*
X126401426Y-77320147D01*
X126140273Y-77428320D01*
X125905241Y-77585363D01*
X125705363Y-77785241D01*
X125548320Y-78020273D01*
X125440147Y-78281426D01*
X125385000Y-78558665D01*
X123255000Y-78558665D01*
X123199853Y-78281426D01*
X123091680Y-78020273D01*
X122934637Y-77785241D01*
X122734759Y-77585363D01*
X122499727Y-77428320D01*
X122238574Y-77320147D01*
X121961335Y-77265000D01*
X121678665Y-77265000D01*
X121401426Y-77320147D01*
X121140273Y-77428320D01*
X120905241Y-77585363D01*
X120705363Y-77785241D01*
X120548320Y-78020273D01*
X120440147Y-78281426D01*
X120385000Y-78558665D01*
X119304383Y-78558665D01*
X119296130Y-78517179D01*
X119132588Y-78122355D01*
X118895163Y-77767023D01*
X118592977Y-77464837D01*
X118237645Y-77227412D01*
X117842821Y-77063870D01*
X117423677Y-76980497D01*
X116996323Y-76980497D01*
X116577179Y-77063870D01*
X116182355Y-77227412D01*
X115827023Y-77464837D01*
X115524837Y-77767023D01*
X115287412Y-78122355D01*
X115123870Y-78517179D01*
X115040497Y-78936323D01*
X114894116Y-78936323D01*
X114917670Y-78696107D01*
X115049489Y-78259502D01*
X115263600Y-77856815D01*
X115551848Y-77503388D01*
X115903261Y-77212673D01*
X116304439Y-76995758D01*
X116740113Y-76860894D01*
X117224344Y-76810000D01*
X142525198Y-76810000D01*
X142153886Y-77181312D01*
G37*
%TD.AperFunction*%
%TD*%
M02*
