%TF.GenerationSoftware,KiCad,Pcbnew,(5.1.9-0-10_14)*%
%TF.CreationDate,2021-02-13T14:26:34+01:00*%
%TF.ProjectId,f_buzzer,665f6275-7a7a-4657-922e-6b696361645f,rev?*%
%TF.SameCoordinates,Original*%
%TF.FileFunction,Copper,L2,Bot*%
%TF.FilePolarity,Positive*%
%FSLAX46Y46*%
G04 Gerber Fmt 4.6, Leading zero omitted, Abs format (unit mm)*
G04 Created by KiCad (PCBNEW (5.1.9-0-10_14)) date 2021-02-13 14:26:34*
%MOMM*%
%LPD*%
G01*
G04 APERTURE LIST*
%TA.AperFunction,ComponentPad*%
%ADD10O,1.500000X14.000000*%
%TD*%
%TA.AperFunction,ComponentPad*%
%ADD11O,1.500000X10.000000*%
%TD*%
%TA.AperFunction,ComponentPad*%
%ADD12C,1.524000*%
%TD*%
%TA.AperFunction,ComponentPad*%
%ADD13R,1.700000X1.700000*%
%TD*%
%TA.AperFunction,ComponentPad*%
%ADD14O,1.700000X1.700000*%
%TD*%
%TA.AperFunction,Conductor*%
%ADD15C,0.250000*%
%TD*%
%TA.AperFunction,Conductor*%
%ADD16C,0.254000*%
%TD*%
%TA.AperFunction,Conductor*%
%ADD17C,0.100000*%
%TD*%
G04 APERTURE END LIST*
D10*
%TO.P,BZ1,2*%
%TO.N,Net-(BZ1-Pad2)*%
X161740000Y-99680000D03*
%TO.P,BZ1,1*%
%TO.N,Net-(BZ1-Pad1)*%
X161740000Y-85020000D03*
%TD*%
D11*
%TO.P,BZ2,2*%
%TO.N,Net-(BZ1-Pad2)*%
X168810000Y-93490000D03*
%TO.P,BZ2,1*%
%TO.N,Net-(BZ1-Pad1)*%
X168820000Y-82850000D03*
%TD*%
D12*
%TO.P,RV1,3*%
%TO.N,Net-(C3-Pad1)*%
X131035000Y-108365000D03*
%TO.P,RV1,2*%
%TO.N,Net-(BZ1-Pad2)*%
X125955000Y-108365000D03*
%TO.P,RV1,1*%
%TO.N,Net-(BZ1-Pad1)*%
X128495000Y-105825000D03*
%TD*%
D13*
%TO.P,REF\u002A\u002A,1*%
%TO.N,VCC*%
X181580000Y-86230000D03*
D14*
%TO.P,REF\u002A\u002A,2*%
%TO.N,/DVR*%
X181580000Y-88770000D03*
%TO.P,REF\u002A\u002A,3*%
%TO.N,GND*%
X181580000Y-91310000D03*
%TD*%
D15*
%TO.N,Net-(BZ1-Pad2)*%
X162620000Y-99680000D02*
X168810000Y-93490000D01*
X161740000Y-99680000D02*
X162620000Y-99680000D01*
X125955000Y-115055000D02*
X125955000Y-108365000D01*
X126530000Y-115630000D02*
X125955000Y-115055000D01*
X132650000Y-115630000D02*
X126530000Y-115630000D01*
X141890000Y-106390000D02*
X132650000Y-115630000D01*
X155030000Y-106390000D02*
X141890000Y-106390000D01*
X161740000Y-99680000D02*
X155030000Y-106390000D01*
%TO.N,Net-(BZ1-Pad1)*%
X147350000Y-99410000D02*
X134910000Y-99410000D01*
X134910000Y-99410000D02*
X128495000Y-105825000D01*
X161740000Y-85020000D02*
X147350000Y-99410000D01*
X166650000Y-85020000D02*
X168820000Y-82850000D01*
X161740000Y-85020000D02*
X166650000Y-85020000D01*
%TD*%
D16*
%TO.N,GND*%
X183163893Y-76857670D02*
X183600498Y-76989489D01*
X184003185Y-77203600D01*
X184356612Y-77491848D01*
X184647327Y-77843261D01*
X184864242Y-78244439D01*
X184999106Y-78680113D01*
X185050000Y-79164344D01*
X185050001Y-93117711D01*
X185002330Y-93603894D01*
X184870512Y-94040497D01*
X184656399Y-94443186D01*
X184368150Y-94796613D01*
X184016739Y-95087327D01*
X183615564Y-95304240D01*
X183179886Y-95439106D01*
X182695664Y-95490000D01*
X178677581Y-95490000D01*
X178647937Y-95492920D01*
X178629238Y-95492789D01*
X178620067Y-95493689D01*
X178037777Y-95554890D01*
X177979191Y-95566916D01*
X177920420Y-95578127D01*
X177911598Y-95580790D01*
X177352285Y-95753928D01*
X177297167Y-95777098D01*
X177241678Y-95799516D01*
X177233542Y-95803843D01*
X176718510Y-96082319D01*
X176668936Y-96115757D01*
X176618862Y-96148524D01*
X176611721Y-96154348D01*
X176160588Y-96527558D01*
X176118431Y-96570010D01*
X176075699Y-96611856D01*
X176069825Y-96618957D01*
X175699773Y-97072685D01*
X175666679Y-97122496D01*
X175632873Y-97171868D01*
X175628490Y-97179974D01*
X175353616Y-97696938D01*
X175330812Y-97752265D01*
X175307256Y-97807225D01*
X175304531Y-97816029D01*
X175135304Y-98376536D01*
X175123682Y-98435231D01*
X175111248Y-98493727D01*
X175110285Y-98502892D01*
X175053150Y-99085595D01*
X175050000Y-99117582D01*
X175050001Y-105617711D01*
X175002330Y-106103894D01*
X174870512Y-106540497D01*
X174656399Y-106943186D01*
X174368150Y-107296613D01*
X174016739Y-107587327D01*
X173615564Y-107804240D01*
X173179886Y-107939106D01*
X172695664Y-107990000D01*
X143177581Y-107990000D01*
X143147937Y-107992920D01*
X143129238Y-107992789D01*
X143120067Y-107993689D01*
X142537777Y-108054890D01*
X142479191Y-108066916D01*
X142420420Y-108078127D01*
X142411598Y-108080790D01*
X141852285Y-108253928D01*
X141797167Y-108277098D01*
X141741678Y-108299516D01*
X141733542Y-108303843D01*
X141218510Y-108582319D01*
X141168936Y-108615757D01*
X141118862Y-108648524D01*
X141111721Y-108654348D01*
X140660588Y-109027558D01*
X140618431Y-109070010D01*
X140575699Y-109111856D01*
X140569825Y-109118957D01*
X140199773Y-109572685D01*
X140166679Y-109622496D01*
X140132873Y-109671868D01*
X140128490Y-109679974D01*
X139853616Y-110196938D01*
X139830812Y-110252265D01*
X139807256Y-110307225D01*
X139804531Y-110316029D01*
X139635304Y-110876536D01*
X139623682Y-110935231D01*
X139611248Y-110993727D01*
X139610285Y-111002892D01*
X139553150Y-111585595D01*
X139553150Y-111585608D01*
X139550001Y-111617581D01*
X139550000Y-117117721D01*
X139502330Y-117603894D01*
X139370512Y-118040497D01*
X139156399Y-118443186D01*
X138868150Y-118796613D01*
X138516739Y-119087327D01*
X138115564Y-119304240D01*
X137679886Y-119439106D01*
X137195664Y-119490000D01*
X117242279Y-119490000D01*
X116756106Y-119442330D01*
X116319503Y-119310512D01*
X115916814Y-119096399D01*
X115563387Y-118808150D01*
X115272673Y-118456739D01*
X115055760Y-118055564D01*
X114920894Y-117619886D01*
X114870000Y-117135664D01*
X114870000Y-116936323D01*
X115040497Y-116936323D01*
X115040497Y-117363677D01*
X115123870Y-117782821D01*
X115287412Y-118177645D01*
X115524837Y-118532977D01*
X115827023Y-118835163D01*
X116182355Y-119072588D01*
X116577179Y-119236130D01*
X116996323Y-119319503D01*
X117423677Y-119319503D01*
X117842821Y-119236130D01*
X118237645Y-119072588D01*
X118592977Y-118835163D01*
X118895163Y-118532977D01*
X119132588Y-118177645D01*
X119296130Y-117782821D01*
X119379503Y-117363677D01*
X119379503Y-116936323D01*
X119296130Y-116517179D01*
X119132588Y-116122355D01*
X118895163Y-115767023D01*
X118592977Y-115464837D01*
X118237645Y-115227412D01*
X117842821Y-115063870D01*
X117423677Y-114980497D01*
X116996323Y-114980497D01*
X116577179Y-115063870D01*
X116182355Y-115227412D01*
X115827023Y-115464837D01*
X115524837Y-115767023D01*
X115287412Y-116122355D01*
X115123870Y-116517179D01*
X115040497Y-116936323D01*
X114870000Y-116936323D01*
X114870000Y-108227408D01*
X124558000Y-108227408D01*
X124558000Y-108502592D01*
X124611686Y-108772490D01*
X124716995Y-109026727D01*
X124869880Y-109255535D01*
X125064465Y-109450120D01*
X125195001Y-109537341D01*
X125195000Y-115017677D01*
X125191324Y-115055000D01*
X125195000Y-115092322D01*
X125195000Y-115092332D01*
X125205997Y-115203985D01*
X125246574Y-115337753D01*
X125249454Y-115347246D01*
X125320026Y-115479276D01*
X125359871Y-115527826D01*
X125414999Y-115595001D01*
X125444002Y-115618803D01*
X125966200Y-116141002D01*
X125989999Y-116170001D01*
X126105724Y-116264974D01*
X126237753Y-116335546D01*
X126381014Y-116379003D01*
X126492667Y-116390000D01*
X126492675Y-116390000D01*
X126530000Y-116393676D01*
X126567325Y-116390000D01*
X132612678Y-116390000D01*
X132650000Y-116393676D01*
X132687322Y-116390000D01*
X132687333Y-116390000D01*
X132798986Y-116379003D01*
X132942247Y-116335546D01*
X133074276Y-116264974D01*
X133190001Y-116170001D01*
X133213804Y-116140997D01*
X142204802Y-107150000D01*
X154992678Y-107150000D01*
X155030000Y-107153676D01*
X155067322Y-107150000D01*
X155067333Y-107150000D01*
X155178986Y-107139003D01*
X155322247Y-107095546D01*
X155454276Y-107024974D01*
X155570001Y-106930001D01*
X155593804Y-106900997D01*
X160355000Y-102139801D01*
X160355000Y-105998036D01*
X160375040Y-106201506D01*
X160454236Y-106462580D01*
X160582843Y-106703187D01*
X160755919Y-106914080D01*
X160966812Y-107087157D01*
X161207419Y-107215764D01*
X161468493Y-107294960D01*
X161740000Y-107321701D01*
X162011506Y-107294960D01*
X162272580Y-107215764D01*
X162513187Y-107087157D01*
X162724080Y-106914081D01*
X162897157Y-106703188D01*
X163025764Y-106462581D01*
X163104960Y-106201507D01*
X163125000Y-105998037D01*
X163125000Y-100248726D01*
X163160001Y-100220001D01*
X163183804Y-100190997D01*
X167425001Y-95949801D01*
X167425001Y-97808037D01*
X167445041Y-98011507D01*
X167524237Y-98272581D01*
X167652844Y-98513188D01*
X167825920Y-98724081D01*
X168036813Y-98897157D01*
X168277420Y-99025764D01*
X168538494Y-99104960D01*
X168810000Y-99131701D01*
X169081507Y-99104960D01*
X169342581Y-99025764D01*
X169583188Y-98897157D01*
X169794081Y-98724081D01*
X169967157Y-98513188D01*
X170095764Y-98272581D01*
X170174960Y-98011507D01*
X170195000Y-97808037D01*
X170195000Y-91666890D01*
X180138524Y-91666890D01*
X180183175Y-91814099D01*
X180308359Y-92076920D01*
X180482412Y-92310269D01*
X180698645Y-92505178D01*
X180948748Y-92654157D01*
X181223109Y-92751481D01*
X181453000Y-92630814D01*
X181453000Y-91437000D01*
X181707000Y-91437000D01*
X181707000Y-92630814D01*
X181936891Y-92751481D01*
X182211252Y-92654157D01*
X182461355Y-92505178D01*
X182677588Y-92310269D01*
X182851641Y-92076920D01*
X182976825Y-91814099D01*
X183021476Y-91666890D01*
X182900155Y-91437000D01*
X181707000Y-91437000D01*
X181453000Y-91437000D01*
X180259845Y-91437000D01*
X180138524Y-91666890D01*
X170195000Y-91666890D01*
X170195000Y-89171963D01*
X170174960Y-88968493D01*
X170095764Y-88707419D01*
X169967157Y-88466812D01*
X169794080Y-88255919D01*
X169694388Y-88174104D01*
X169804081Y-88084081D01*
X169977157Y-87873188D01*
X170105764Y-87632581D01*
X170184960Y-87371507D01*
X170205000Y-87168037D01*
X170205000Y-85380000D01*
X180091928Y-85380000D01*
X180091928Y-87080000D01*
X180104188Y-87204482D01*
X180140498Y-87324180D01*
X180199463Y-87434494D01*
X180278815Y-87531185D01*
X180375506Y-87610537D01*
X180485820Y-87669502D01*
X180558380Y-87691513D01*
X180426525Y-87823368D01*
X180264010Y-88066589D01*
X180152068Y-88336842D01*
X180095000Y-88623740D01*
X180095000Y-88916260D01*
X180152068Y-89203158D01*
X180264010Y-89473411D01*
X180426525Y-89716632D01*
X180633368Y-89923475D01*
X180815534Y-90045195D01*
X180698645Y-90114822D01*
X180482412Y-90309731D01*
X180308359Y-90543080D01*
X180183175Y-90805901D01*
X180138524Y-90953110D01*
X180259845Y-91183000D01*
X181453000Y-91183000D01*
X181453000Y-91163000D01*
X181707000Y-91163000D01*
X181707000Y-91183000D01*
X182900155Y-91183000D01*
X183021476Y-90953110D01*
X182976825Y-90805901D01*
X182851641Y-90543080D01*
X182677588Y-90309731D01*
X182461355Y-90114822D01*
X182344466Y-90045195D01*
X182526632Y-89923475D01*
X182733475Y-89716632D01*
X182895990Y-89473411D01*
X183007932Y-89203158D01*
X183065000Y-88916260D01*
X183065000Y-88623740D01*
X183007932Y-88336842D01*
X182895990Y-88066589D01*
X182733475Y-87823368D01*
X182601620Y-87691513D01*
X182674180Y-87669502D01*
X182784494Y-87610537D01*
X182881185Y-87531185D01*
X182960537Y-87434494D01*
X183019502Y-87324180D01*
X183055812Y-87204482D01*
X183068072Y-87080000D01*
X183068072Y-85380000D01*
X183055812Y-85255518D01*
X183019502Y-85135820D01*
X182960537Y-85025506D01*
X182881185Y-84928815D01*
X182784494Y-84849463D01*
X182674180Y-84790498D01*
X182554482Y-84754188D01*
X182430000Y-84741928D01*
X180730000Y-84741928D01*
X180605518Y-84754188D01*
X180485820Y-84790498D01*
X180375506Y-84849463D01*
X180278815Y-84928815D01*
X180199463Y-85025506D01*
X180140498Y-85135820D01*
X180104188Y-85255518D01*
X180091928Y-85380000D01*
X170205000Y-85380000D01*
X170205000Y-78936323D01*
X180540497Y-78936323D01*
X180540497Y-79363677D01*
X180623870Y-79782821D01*
X180787412Y-80177645D01*
X181024837Y-80532977D01*
X181327023Y-80835163D01*
X181682355Y-81072588D01*
X182077179Y-81236130D01*
X182496323Y-81319503D01*
X182923677Y-81319503D01*
X183342821Y-81236130D01*
X183737645Y-81072588D01*
X184092977Y-80835163D01*
X184395163Y-80532977D01*
X184632588Y-80177645D01*
X184796130Y-79782821D01*
X184879503Y-79363677D01*
X184879503Y-78936323D01*
X184796130Y-78517179D01*
X184632588Y-78122355D01*
X184395163Y-77767023D01*
X184092977Y-77464837D01*
X183737645Y-77227412D01*
X183342821Y-77063870D01*
X182923677Y-76980497D01*
X182496323Y-76980497D01*
X182077179Y-77063870D01*
X181682355Y-77227412D01*
X181327023Y-77464837D01*
X181024837Y-77767023D01*
X180787412Y-78122355D01*
X180623870Y-78517179D01*
X180540497Y-78936323D01*
X170205000Y-78936323D01*
X170205000Y-78531963D01*
X170184960Y-78328493D01*
X170105764Y-78067419D01*
X169977157Y-77826812D01*
X169804080Y-77615919D01*
X169593187Y-77442843D01*
X169352580Y-77314236D01*
X169091506Y-77235040D01*
X168820000Y-77208299D01*
X168548493Y-77235040D01*
X168287419Y-77314236D01*
X168046812Y-77442843D01*
X167835919Y-77615920D01*
X167662843Y-77826813D01*
X167534236Y-78067420D01*
X167455040Y-78328494D01*
X167435000Y-78531964D01*
X167435001Y-83160197D01*
X166335199Y-84260000D01*
X163125000Y-84260000D01*
X163125000Y-78701963D01*
X163104960Y-78498493D01*
X163025764Y-78237419D01*
X162897157Y-77996812D01*
X162724081Y-77785919D01*
X162513188Y-77612843D01*
X162272581Y-77484236D01*
X162011507Y-77405040D01*
X161740000Y-77378299D01*
X161468494Y-77405040D01*
X161207420Y-77484236D01*
X160966813Y-77612843D01*
X160755920Y-77785919D01*
X160582844Y-77996812D01*
X160454237Y-78237419D01*
X160375041Y-78498493D01*
X160355001Y-78701963D01*
X160355000Y-85330198D01*
X147035199Y-98650000D01*
X134947322Y-98650000D01*
X134909999Y-98646324D01*
X134872677Y-98650000D01*
X134872667Y-98650000D01*
X134761014Y-98660997D01*
X134617753Y-98704454D01*
X134485723Y-98775026D01*
X134402083Y-98843668D01*
X134369999Y-98869999D01*
X134346201Y-98898997D01*
X128786571Y-104458628D01*
X128632592Y-104428000D01*
X128357408Y-104428000D01*
X128087510Y-104481686D01*
X127833273Y-104586995D01*
X127604465Y-104739880D01*
X127409880Y-104934465D01*
X127256995Y-105163273D01*
X127151686Y-105417510D01*
X127098000Y-105687408D01*
X127098000Y-105962592D01*
X127151686Y-106232490D01*
X127256995Y-106486727D01*
X127409880Y-106715535D01*
X127604465Y-106910120D01*
X127833273Y-107063005D01*
X128087510Y-107168314D01*
X128357408Y-107222000D01*
X128632592Y-107222000D01*
X128902490Y-107168314D01*
X129156727Y-107063005D01*
X129385535Y-106910120D01*
X129580120Y-106715535D01*
X129733005Y-106486727D01*
X129838314Y-106232490D01*
X129892000Y-105962592D01*
X129892000Y-105687408D01*
X129861372Y-105533429D01*
X135224802Y-100170000D01*
X147312678Y-100170000D01*
X147350000Y-100173676D01*
X147387322Y-100170000D01*
X147387333Y-100170000D01*
X147498986Y-100159003D01*
X147642247Y-100115546D01*
X147774276Y-100044974D01*
X147890001Y-99950001D01*
X147913804Y-99920997D01*
X160355000Y-87479802D01*
X160355000Y-91338036D01*
X160375040Y-91541506D01*
X160454236Y-91802580D01*
X160582843Y-92043187D01*
X160755919Y-92254080D01*
X160872797Y-92350000D01*
X160755920Y-92445919D01*
X160582844Y-92656812D01*
X160454237Y-92897419D01*
X160375041Y-93158493D01*
X160355001Y-93361963D01*
X160355000Y-99990198D01*
X154715199Y-105630000D01*
X141927322Y-105630000D01*
X141889999Y-105626324D01*
X141852676Y-105630000D01*
X141852667Y-105630000D01*
X141741014Y-105640997D01*
X141597753Y-105684454D01*
X141465724Y-105755026D01*
X141349999Y-105849999D01*
X141326201Y-105878997D01*
X132335199Y-114870000D01*
X126844802Y-114870000D01*
X126715000Y-114740199D01*
X126715000Y-109537341D01*
X126845535Y-109450120D01*
X127040120Y-109255535D01*
X127193005Y-109026727D01*
X127298314Y-108772490D01*
X127352000Y-108502592D01*
X127352000Y-108227408D01*
X129638000Y-108227408D01*
X129638000Y-108502592D01*
X129691686Y-108772490D01*
X129796995Y-109026727D01*
X129949880Y-109255535D01*
X130144465Y-109450120D01*
X130373273Y-109603005D01*
X130627510Y-109708314D01*
X130897408Y-109762000D01*
X131172592Y-109762000D01*
X131442490Y-109708314D01*
X131696727Y-109603005D01*
X131925535Y-109450120D01*
X132120120Y-109255535D01*
X132273005Y-109026727D01*
X132378314Y-108772490D01*
X132432000Y-108502592D01*
X132432000Y-108227408D01*
X132378314Y-107957510D01*
X132273005Y-107703273D01*
X132120120Y-107474465D01*
X131925535Y-107279880D01*
X131696727Y-107126995D01*
X131442490Y-107021686D01*
X131172592Y-106968000D01*
X130897408Y-106968000D01*
X130627510Y-107021686D01*
X130373273Y-107126995D01*
X130144465Y-107279880D01*
X129949880Y-107474465D01*
X129796995Y-107703273D01*
X129691686Y-107957510D01*
X129638000Y-108227408D01*
X127352000Y-108227408D01*
X127298314Y-107957510D01*
X127193005Y-107703273D01*
X127040120Y-107474465D01*
X126845535Y-107279880D01*
X126616727Y-107126995D01*
X126362490Y-107021686D01*
X126092592Y-106968000D01*
X125817408Y-106968000D01*
X125547510Y-107021686D01*
X125293273Y-107126995D01*
X125064465Y-107279880D01*
X124869880Y-107474465D01*
X124716995Y-107703273D01*
X124611686Y-107957510D01*
X124558000Y-108227408D01*
X114870000Y-108227408D01*
X114870000Y-79182279D01*
X114894116Y-78936323D01*
X115040497Y-78936323D01*
X115040497Y-79363677D01*
X115123870Y-79782821D01*
X115287412Y-80177645D01*
X115524837Y-80532977D01*
X115827023Y-80835163D01*
X116182355Y-81072588D01*
X116577179Y-81236130D01*
X116996323Y-81319503D01*
X117423677Y-81319503D01*
X117842821Y-81236130D01*
X118237645Y-81072588D01*
X118592977Y-80835163D01*
X118895163Y-80532977D01*
X119132588Y-80177645D01*
X119296130Y-79782821D01*
X119379503Y-79363677D01*
X119379503Y-78936323D01*
X119296130Y-78517179D01*
X119132588Y-78122355D01*
X118895163Y-77767023D01*
X118592977Y-77464837D01*
X118237645Y-77227412D01*
X117842821Y-77063870D01*
X117423677Y-76980497D01*
X116996323Y-76980497D01*
X116577179Y-77063870D01*
X116182355Y-77227412D01*
X115827023Y-77464837D01*
X115524837Y-77767023D01*
X115287412Y-78122355D01*
X115123870Y-78517179D01*
X115040497Y-78936323D01*
X114894116Y-78936323D01*
X114917670Y-78696107D01*
X115049489Y-78259502D01*
X115263600Y-77856815D01*
X115551848Y-77503388D01*
X115903261Y-77212673D01*
X116304439Y-76995758D01*
X116740113Y-76860894D01*
X117224344Y-76810000D01*
X182677721Y-76810000D01*
X183163893Y-76857670D01*
%TA.AperFunction,Conductor*%
D17*
G36*
X183163893Y-76857670D02*
G01*
X183600498Y-76989489D01*
X184003185Y-77203600D01*
X184356612Y-77491848D01*
X184647327Y-77843261D01*
X184864242Y-78244439D01*
X184999106Y-78680113D01*
X185050000Y-79164344D01*
X185050001Y-93117711D01*
X185002330Y-93603894D01*
X184870512Y-94040497D01*
X184656399Y-94443186D01*
X184368150Y-94796613D01*
X184016739Y-95087327D01*
X183615564Y-95304240D01*
X183179886Y-95439106D01*
X182695664Y-95490000D01*
X178677581Y-95490000D01*
X178647937Y-95492920D01*
X178629238Y-95492789D01*
X178620067Y-95493689D01*
X178037777Y-95554890D01*
X177979191Y-95566916D01*
X177920420Y-95578127D01*
X177911598Y-95580790D01*
X177352285Y-95753928D01*
X177297167Y-95777098D01*
X177241678Y-95799516D01*
X177233542Y-95803843D01*
X176718510Y-96082319D01*
X176668936Y-96115757D01*
X176618862Y-96148524D01*
X176611721Y-96154348D01*
X176160588Y-96527558D01*
X176118431Y-96570010D01*
X176075699Y-96611856D01*
X176069825Y-96618957D01*
X175699773Y-97072685D01*
X175666679Y-97122496D01*
X175632873Y-97171868D01*
X175628490Y-97179974D01*
X175353616Y-97696938D01*
X175330812Y-97752265D01*
X175307256Y-97807225D01*
X175304531Y-97816029D01*
X175135304Y-98376536D01*
X175123682Y-98435231D01*
X175111248Y-98493727D01*
X175110285Y-98502892D01*
X175053150Y-99085595D01*
X175050000Y-99117582D01*
X175050001Y-105617711D01*
X175002330Y-106103894D01*
X174870512Y-106540497D01*
X174656399Y-106943186D01*
X174368150Y-107296613D01*
X174016739Y-107587327D01*
X173615564Y-107804240D01*
X173179886Y-107939106D01*
X172695664Y-107990000D01*
X143177581Y-107990000D01*
X143147937Y-107992920D01*
X143129238Y-107992789D01*
X143120067Y-107993689D01*
X142537777Y-108054890D01*
X142479191Y-108066916D01*
X142420420Y-108078127D01*
X142411598Y-108080790D01*
X141852285Y-108253928D01*
X141797167Y-108277098D01*
X141741678Y-108299516D01*
X141733542Y-108303843D01*
X141218510Y-108582319D01*
X141168936Y-108615757D01*
X141118862Y-108648524D01*
X141111721Y-108654348D01*
X140660588Y-109027558D01*
X140618431Y-109070010D01*
X140575699Y-109111856D01*
X140569825Y-109118957D01*
X140199773Y-109572685D01*
X140166679Y-109622496D01*
X140132873Y-109671868D01*
X140128490Y-109679974D01*
X139853616Y-110196938D01*
X139830812Y-110252265D01*
X139807256Y-110307225D01*
X139804531Y-110316029D01*
X139635304Y-110876536D01*
X139623682Y-110935231D01*
X139611248Y-110993727D01*
X139610285Y-111002892D01*
X139553150Y-111585595D01*
X139553150Y-111585608D01*
X139550001Y-111617581D01*
X139550000Y-117117721D01*
X139502330Y-117603894D01*
X139370512Y-118040497D01*
X139156399Y-118443186D01*
X138868150Y-118796613D01*
X138516739Y-119087327D01*
X138115564Y-119304240D01*
X137679886Y-119439106D01*
X137195664Y-119490000D01*
X117242279Y-119490000D01*
X116756106Y-119442330D01*
X116319503Y-119310512D01*
X115916814Y-119096399D01*
X115563387Y-118808150D01*
X115272673Y-118456739D01*
X115055760Y-118055564D01*
X114920894Y-117619886D01*
X114870000Y-117135664D01*
X114870000Y-116936323D01*
X115040497Y-116936323D01*
X115040497Y-117363677D01*
X115123870Y-117782821D01*
X115287412Y-118177645D01*
X115524837Y-118532977D01*
X115827023Y-118835163D01*
X116182355Y-119072588D01*
X116577179Y-119236130D01*
X116996323Y-119319503D01*
X117423677Y-119319503D01*
X117842821Y-119236130D01*
X118237645Y-119072588D01*
X118592977Y-118835163D01*
X118895163Y-118532977D01*
X119132588Y-118177645D01*
X119296130Y-117782821D01*
X119379503Y-117363677D01*
X119379503Y-116936323D01*
X119296130Y-116517179D01*
X119132588Y-116122355D01*
X118895163Y-115767023D01*
X118592977Y-115464837D01*
X118237645Y-115227412D01*
X117842821Y-115063870D01*
X117423677Y-114980497D01*
X116996323Y-114980497D01*
X116577179Y-115063870D01*
X116182355Y-115227412D01*
X115827023Y-115464837D01*
X115524837Y-115767023D01*
X115287412Y-116122355D01*
X115123870Y-116517179D01*
X115040497Y-116936323D01*
X114870000Y-116936323D01*
X114870000Y-108227408D01*
X124558000Y-108227408D01*
X124558000Y-108502592D01*
X124611686Y-108772490D01*
X124716995Y-109026727D01*
X124869880Y-109255535D01*
X125064465Y-109450120D01*
X125195001Y-109537341D01*
X125195000Y-115017677D01*
X125191324Y-115055000D01*
X125195000Y-115092322D01*
X125195000Y-115092332D01*
X125205997Y-115203985D01*
X125246574Y-115337753D01*
X125249454Y-115347246D01*
X125320026Y-115479276D01*
X125359871Y-115527826D01*
X125414999Y-115595001D01*
X125444002Y-115618803D01*
X125966200Y-116141002D01*
X125989999Y-116170001D01*
X126105724Y-116264974D01*
X126237753Y-116335546D01*
X126381014Y-116379003D01*
X126492667Y-116390000D01*
X126492675Y-116390000D01*
X126530000Y-116393676D01*
X126567325Y-116390000D01*
X132612678Y-116390000D01*
X132650000Y-116393676D01*
X132687322Y-116390000D01*
X132687333Y-116390000D01*
X132798986Y-116379003D01*
X132942247Y-116335546D01*
X133074276Y-116264974D01*
X133190001Y-116170001D01*
X133213804Y-116140997D01*
X142204802Y-107150000D01*
X154992678Y-107150000D01*
X155030000Y-107153676D01*
X155067322Y-107150000D01*
X155067333Y-107150000D01*
X155178986Y-107139003D01*
X155322247Y-107095546D01*
X155454276Y-107024974D01*
X155570001Y-106930001D01*
X155593804Y-106900997D01*
X160355000Y-102139801D01*
X160355000Y-105998036D01*
X160375040Y-106201506D01*
X160454236Y-106462580D01*
X160582843Y-106703187D01*
X160755919Y-106914080D01*
X160966812Y-107087157D01*
X161207419Y-107215764D01*
X161468493Y-107294960D01*
X161740000Y-107321701D01*
X162011506Y-107294960D01*
X162272580Y-107215764D01*
X162513187Y-107087157D01*
X162724080Y-106914081D01*
X162897157Y-106703188D01*
X163025764Y-106462581D01*
X163104960Y-106201507D01*
X163125000Y-105998037D01*
X163125000Y-100248726D01*
X163160001Y-100220001D01*
X163183804Y-100190997D01*
X167425001Y-95949801D01*
X167425001Y-97808037D01*
X167445041Y-98011507D01*
X167524237Y-98272581D01*
X167652844Y-98513188D01*
X167825920Y-98724081D01*
X168036813Y-98897157D01*
X168277420Y-99025764D01*
X168538494Y-99104960D01*
X168810000Y-99131701D01*
X169081507Y-99104960D01*
X169342581Y-99025764D01*
X169583188Y-98897157D01*
X169794081Y-98724081D01*
X169967157Y-98513188D01*
X170095764Y-98272581D01*
X170174960Y-98011507D01*
X170195000Y-97808037D01*
X170195000Y-91666890D01*
X180138524Y-91666890D01*
X180183175Y-91814099D01*
X180308359Y-92076920D01*
X180482412Y-92310269D01*
X180698645Y-92505178D01*
X180948748Y-92654157D01*
X181223109Y-92751481D01*
X181453000Y-92630814D01*
X181453000Y-91437000D01*
X181707000Y-91437000D01*
X181707000Y-92630814D01*
X181936891Y-92751481D01*
X182211252Y-92654157D01*
X182461355Y-92505178D01*
X182677588Y-92310269D01*
X182851641Y-92076920D01*
X182976825Y-91814099D01*
X183021476Y-91666890D01*
X182900155Y-91437000D01*
X181707000Y-91437000D01*
X181453000Y-91437000D01*
X180259845Y-91437000D01*
X180138524Y-91666890D01*
X170195000Y-91666890D01*
X170195000Y-89171963D01*
X170174960Y-88968493D01*
X170095764Y-88707419D01*
X169967157Y-88466812D01*
X169794080Y-88255919D01*
X169694388Y-88174104D01*
X169804081Y-88084081D01*
X169977157Y-87873188D01*
X170105764Y-87632581D01*
X170184960Y-87371507D01*
X170205000Y-87168037D01*
X170205000Y-85380000D01*
X180091928Y-85380000D01*
X180091928Y-87080000D01*
X180104188Y-87204482D01*
X180140498Y-87324180D01*
X180199463Y-87434494D01*
X180278815Y-87531185D01*
X180375506Y-87610537D01*
X180485820Y-87669502D01*
X180558380Y-87691513D01*
X180426525Y-87823368D01*
X180264010Y-88066589D01*
X180152068Y-88336842D01*
X180095000Y-88623740D01*
X180095000Y-88916260D01*
X180152068Y-89203158D01*
X180264010Y-89473411D01*
X180426525Y-89716632D01*
X180633368Y-89923475D01*
X180815534Y-90045195D01*
X180698645Y-90114822D01*
X180482412Y-90309731D01*
X180308359Y-90543080D01*
X180183175Y-90805901D01*
X180138524Y-90953110D01*
X180259845Y-91183000D01*
X181453000Y-91183000D01*
X181453000Y-91163000D01*
X181707000Y-91163000D01*
X181707000Y-91183000D01*
X182900155Y-91183000D01*
X183021476Y-90953110D01*
X182976825Y-90805901D01*
X182851641Y-90543080D01*
X182677588Y-90309731D01*
X182461355Y-90114822D01*
X182344466Y-90045195D01*
X182526632Y-89923475D01*
X182733475Y-89716632D01*
X182895990Y-89473411D01*
X183007932Y-89203158D01*
X183065000Y-88916260D01*
X183065000Y-88623740D01*
X183007932Y-88336842D01*
X182895990Y-88066589D01*
X182733475Y-87823368D01*
X182601620Y-87691513D01*
X182674180Y-87669502D01*
X182784494Y-87610537D01*
X182881185Y-87531185D01*
X182960537Y-87434494D01*
X183019502Y-87324180D01*
X183055812Y-87204482D01*
X183068072Y-87080000D01*
X183068072Y-85380000D01*
X183055812Y-85255518D01*
X183019502Y-85135820D01*
X182960537Y-85025506D01*
X182881185Y-84928815D01*
X182784494Y-84849463D01*
X182674180Y-84790498D01*
X182554482Y-84754188D01*
X182430000Y-84741928D01*
X180730000Y-84741928D01*
X180605518Y-84754188D01*
X180485820Y-84790498D01*
X180375506Y-84849463D01*
X180278815Y-84928815D01*
X180199463Y-85025506D01*
X180140498Y-85135820D01*
X180104188Y-85255518D01*
X180091928Y-85380000D01*
X170205000Y-85380000D01*
X170205000Y-78936323D01*
X180540497Y-78936323D01*
X180540497Y-79363677D01*
X180623870Y-79782821D01*
X180787412Y-80177645D01*
X181024837Y-80532977D01*
X181327023Y-80835163D01*
X181682355Y-81072588D01*
X182077179Y-81236130D01*
X182496323Y-81319503D01*
X182923677Y-81319503D01*
X183342821Y-81236130D01*
X183737645Y-81072588D01*
X184092977Y-80835163D01*
X184395163Y-80532977D01*
X184632588Y-80177645D01*
X184796130Y-79782821D01*
X184879503Y-79363677D01*
X184879503Y-78936323D01*
X184796130Y-78517179D01*
X184632588Y-78122355D01*
X184395163Y-77767023D01*
X184092977Y-77464837D01*
X183737645Y-77227412D01*
X183342821Y-77063870D01*
X182923677Y-76980497D01*
X182496323Y-76980497D01*
X182077179Y-77063870D01*
X181682355Y-77227412D01*
X181327023Y-77464837D01*
X181024837Y-77767023D01*
X180787412Y-78122355D01*
X180623870Y-78517179D01*
X180540497Y-78936323D01*
X170205000Y-78936323D01*
X170205000Y-78531963D01*
X170184960Y-78328493D01*
X170105764Y-78067419D01*
X169977157Y-77826812D01*
X169804080Y-77615919D01*
X169593187Y-77442843D01*
X169352580Y-77314236D01*
X169091506Y-77235040D01*
X168820000Y-77208299D01*
X168548493Y-77235040D01*
X168287419Y-77314236D01*
X168046812Y-77442843D01*
X167835919Y-77615920D01*
X167662843Y-77826813D01*
X167534236Y-78067420D01*
X167455040Y-78328494D01*
X167435000Y-78531964D01*
X167435001Y-83160197D01*
X166335199Y-84260000D01*
X163125000Y-84260000D01*
X163125000Y-78701963D01*
X163104960Y-78498493D01*
X163025764Y-78237419D01*
X162897157Y-77996812D01*
X162724081Y-77785919D01*
X162513188Y-77612843D01*
X162272581Y-77484236D01*
X162011507Y-77405040D01*
X161740000Y-77378299D01*
X161468494Y-77405040D01*
X161207420Y-77484236D01*
X160966813Y-77612843D01*
X160755920Y-77785919D01*
X160582844Y-77996812D01*
X160454237Y-78237419D01*
X160375041Y-78498493D01*
X160355001Y-78701963D01*
X160355000Y-85330198D01*
X147035199Y-98650000D01*
X134947322Y-98650000D01*
X134909999Y-98646324D01*
X134872677Y-98650000D01*
X134872667Y-98650000D01*
X134761014Y-98660997D01*
X134617753Y-98704454D01*
X134485723Y-98775026D01*
X134402083Y-98843668D01*
X134369999Y-98869999D01*
X134346201Y-98898997D01*
X128786571Y-104458628D01*
X128632592Y-104428000D01*
X128357408Y-104428000D01*
X128087510Y-104481686D01*
X127833273Y-104586995D01*
X127604465Y-104739880D01*
X127409880Y-104934465D01*
X127256995Y-105163273D01*
X127151686Y-105417510D01*
X127098000Y-105687408D01*
X127098000Y-105962592D01*
X127151686Y-106232490D01*
X127256995Y-106486727D01*
X127409880Y-106715535D01*
X127604465Y-106910120D01*
X127833273Y-107063005D01*
X128087510Y-107168314D01*
X128357408Y-107222000D01*
X128632592Y-107222000D01*
X128902490Y-107168314D01*
X129156727Y-107063005D01*
X129385535Y-106910120D01*
X129580120Y-106715535D01*
X129733005Y-106486727D01*
X129838314Y-106232490D01*
X129892000Y-105962592D01*
X129892000Y-105687408D01*
X129861372Y-105533429D01*
X135224802Y-100170000D01*
X147312678Y-100170000D01*
X147350000Y-100173676D01*
X147387322Y-100170000D01*
X147387333Y-100170000D01*
X147498986Y-100159003D01*
X147642247Y-100115546D01*
X147774276Y-100044974D01*
X147890001Y-99950001D01*
X147913804Y-99920997D01*
X160355000Y-87479802D01*
X160355000Y-91338036D01*
X160375040Y-91541506D01*
X160454236Y-91802580D01*
X160582843Y-92043187D01*
X160755919Y-92254080D01*
X160872797Y-92350000D01*
X160755920Y-92445919D01*
X160582844Y-92656812D01*
X160454237Y-92897419D01*
X160375041Y-93158493D01*
X160355001Y-93361963D01*
X160355000Y-99990198D01*
X154715199Y-105630000D01*
X141927322Y-105630000D01*
X141889999Y-105626324D01*
X141852676Y-105630000D01*
X141852667Y-105630000D01*
X141741014Y-105640997D01*
X141597753Y-105684454D01*
X141465724Y-105755026D01*
X141349999Y-105849999D01*
X141326201Y-105878997D01*
X132335199Y-114870000D01*
X126844802Y-114870000D01*
X126715000Y-114740199D01*
X126715000Y-109537341D01*
X126845535Y-109450120D01*
X127040120Y-109255535D01*
X127193005Y-109026727D01*
X127298314Y-108772490D01*
X127352000Y-108502592D01*
X127352000Y-108227408D01*
X129638000Y-108227408D01*
X129638000Y-108502592D01*
X129691686Y-108772490D01*
X129796995Y-109026727D01*
X129949880Y-109255535D01*
X130144465Y-109450120D01*
X130373273Y-109603005D01*
X130627510Y-109708314D01*
X130897408Y-109762000D01*
X131172592Y-109762000D01*
X131442490Y-109708314D01*
X131696727Y-109603005D01*
X131925535Y-109450120D01*
X132120120Y-109255535D01*
X132273005Y-109026727D01*
X132378314Y-108772490D01*
X132432000Y-108502592D01*
X132432000Y-108227408D01*
X132378314Y-107957510D01*
X132273005Y-107703273D01*
X132120120Y-107474465D01*
X131925535Y-107279880D01*
X131696727Y-107126995D01*
X131442490Y-107021686D01*
X131172592Y-106968000D01*
X130897408Y-106968000D01*
X130627510Y-107021686D01*
X130373273Y-107126995D01*
X130144465Y-107279880D01*
X129949880Y-107474465D01*
X129796995Y-107703273D01*
X129691686Y-107957510D01*
X129638000Y-108227408D01*
X127352000Y-108227408D01*
X127298314Y-107957510D01*
X127193005Y-107703273D01*
X127040120Y-107474465D01*
X126845535Y-107279880D01*
X126616727Y-107126995D01*
X126362490Y-107021686D01*
X126092592Y-106968000D01*
X125817408Y-106968000D01*
X125547510Y-107021686D01*
X125293273Y-107126995D01*
X125064465Y-107279880D01*
X124869880Y-107474465D01*
X124716995Y-107703273D01*
X124611686Y-107957510D01*
X124558000Y-108227408D01*
X114870000Y-108227408D01*
X114870000Y-79182279D01*
X114894116Y-78936323D01*
X115040497Y-78936323D01*
X115040497Y-79363677D01*
X115123870Y-79782821D01*
X115287412Y-80177645D01*
X115524837Y-80532977D01*
X115827023Y-80835163D01*
X116182355Y-81072588D01*
X116577179Y-81236130D01*
X116996323Y-81319503D01*
X117423677Y-81319503D01*
X117842821Y-81236130D01*
X118237645Y-81072588D01*
X118592977Y-80835163D01*
X118895163Y-80532977D01*
X119132588Y-80177645D01*
X119296130Y-79782821D01*
X119379503Y-79363677D01*
X119379503Y-78936323D01*
X119296130Y-78517179D01*
X119132588Y-78122355D01*
X118895163Y-77767023D01*
X118592977Y-77464837D01*
X118237645Y-77227412D01*
X117842821Y-77063870D01*
X117423677Y-76980497D01*
X116996323Y-76980497D01*
X116577179Y-77063870D01*
X116182355Y-77227412D01*
X115827023Y-77464837D01*
X115524837Y-77767023D01*
X115287412Y-78122355D01*
X115123870Y-78517179D01*
X115040497Y-78936323D01*
X114894116Y-78936323D01*
X114917670Y-78696107D01*
X115049489Y-78259502D01*
X115263600Y-77856815D01*
X115551848Y-77503388D01*
X115903261Y-77212673D01*
X116304439Y-76995758D01*
X116740113Y-76860894D01*
X117224344Y-76810000D01*
X182677721Y-76810000D01*
X183163893Y-76857670D01*
G37*
%TD.AperFunction*%
%TD*%
M02*
