G04 #@! TF.GenerationSoftware,KiCad,Pcbnew,(6.0.1-0)*
G04 #@! TF.CreationDate,2022-01-17T01:44:42+01:00*
G04 #@! TF.ProjectId,f_buzzer,665f6275-7a7a-4657-922e-6b696361645f,rev?*
G04 #@! TF.SameCoordinates,Original*
G04 #@! TF.FileFunction,Legend,Bot*
G04 #@! TF.FilePolarity,Positive*
%FSLAX46Y46*%
G04 Gerber Fmt 4.6, Leading zero omitted, Abs format (unit mm)*
G04 Created by KiCad (PCBNEW (6.0.1-0)) date 2022-01-17 01:44:42*
%MOMM*%
%LPD*%
G01*
G04 APERTURE LIST*
%ADD10C,0.150000*%
%ADD11C,0.120000*%
%ADD12O,1.500000X9.000000*%
%ADD13C,1.524000*%
%ADD14R,1.700000X1.700000*%
%ADD15O,1.700000X1.700000*%
%ADD16O,1.500000X13.000000*%
G04 APERTURE END LIST*
D10*
X179391904Y-90810000D02*
X179487142Y-90762380D01*
X179630000Y-90762380D01*
X179772857Y-90810000D01*
X179868095Y-90905238D01*
X179915714Y-91000476D01*
X179963333Y-91190952D01*
X179963333Y-91333809D01*
X179915714Y-91524285D01*
X179868095Y-91619523D01*
X179772857Y-91714761D01*
X179630000Y-91762380D01*
X179534761Y-91762380D01*
X179391904Y-91714761D01*
X179344285Y-91667142D01*
X179344285Y-91333809D01*
X179534761Y-91333809D01*
X178915714Y-91762380D02*
X178915714Y-90762380D01*
X178344285Y-91762380D01*
X178344285Y-90762380D01*
X177868095Y-91762380D02*
X177868095Y-90762380D01*
X177630000Y-90762380D01*
X177487142Y-90810000D01*
X177391904Y-90905238D01*
X177344285Y-91000476D01*
X177296666Y-91190952D01*
X177296666Y-91333809D01*
X177344285Y-91524285D01*
X177391904Y-91619523D01*
X177487142Y-91714761D01*
X177630000Y-91762380D01*
X177868095Y-91762380D01*
X180073333Y-85642380D02*
X179740000Y-86642380D01*
X179406666Y-85642380D01*
X178501904Y-86547142D02*
X178549523Y-86594761D01*
X178692380Y-86642380D01*
X178787619Y-86642380D01*
X178930476Y-86594761D01*
X179025714Y-86499523D01*
X179073333Y-86404285D01*
X179120952Y-86213809D01*
X179120952Y-86070952D01*
X179073333Y-85880476D01*
X179025714Y-85785238D01*
X178930476Y-85690000D01*
X178787619Y-85642380D01*
X178692380Y-85642380D01*
X178549523Y-85690000D01*
X178501904Y-85737619D01*
X177501904Y-86547142D02*
X177549523Y-86594761D01*
X177692380Y-86642380D01*
X177787619Y-86642380D01*
X177930476Y-86594761D01*
X178025714Y-86499523D01*
X178073333Y-86404285D01*
X178120952Y-86213809D01*
X178120952Y-86070952D01*
X178073333Y-85880476D01*
X178025714Y-85785238D01*
X177930476Y-85690000D01*
X177787619Y-85642380D01*
X177692380Y-85642380D01*
X177549523Y-85690000D01*
X177501904Y-85737619D01*
X179930476Y-89232380D02*
X179930476Y-88232380D01*
X179692380Y-88232380D01*
X179549523Y-88280000D01*
X179454285Y-88375238D01*
X179406666Y-88470476D01*
X179359047Y-88660952D01*
X179359047Y-88803809D01*
X179406666Y-88994285D01*
X179454285Y-89089523D01*
X179549523Y-89184761D01*
X179692380Y-89232380D01*
X179930476Y-89232380D01*
X179073333Y-88232380D02*
X178740000Y-89232380D01*
X178406666Y-88232380D01*
X177501904Y-89232380D02*
X177835238Y-88756190D01*
X178073333Y-89232380D02*
X178073333Y-88232380D01*
X177692380Y-88232380D01*
X177597142Y-88280000D01*
X177549523Y-88327619D01*
X177501904Y-88422857D01*
X177501904Y-88565714D01*
X177549523Y-88660952D01*
X177597142Y-88708571D01*
X177692380Y-88756190D01*
X178073333Y-88756190D01*
D11*
X176740000Y-92350000D02*
G75*
G03*
X176740000Y-92350000I-15000000J0D01*
G01*
%LPC*%
D12*
X168820000Y-82850000D03*
X168810000Y-93490000D03*
D13*
X131035000Y-108365000D03*
X128495000Y-105825000D03*
X125955000Y-108365000D03*
D14*
X181570000Y-86230000D03*
D15*
X181570000Y-88770000D03*
X181570000Y-91310000D03*
D16*
X161740000Y-85020000D03*
X161740000Y-99680000D03*
M02*
