G04 #@! TF.GenerationSoftware,KiCad,Pcbnew,(6.0.1-0)*
G04 #@! TF.CreationDate,2022-01-17T01:44:42+01:00*
G04 #@! TF.ProjectId,f_buzzer,665f6275-7a7a-4657-922e-6b696361645f,rev?*
G04 #@! TF.SameCoordinates,Original*
G04 #@! TF.FileFunction,Copper,L2,Bot*
G04 #@! TF.FilePolarity,Positive*
%FSLAX46Y46*%
G04 Gerber Fmt 4.6, Leading zero omitted, Abs format (unit mm)*
G04 Created by KiCad (PCBNEW (6.0.1-0)) date 2022-01-17 01:44:42*
%MOMM*%
%LPD*%
G01*
G04 APERTURE LIST*
G04 #@! TA.AperFunction,ComponentPad*
%ADD10O,1.500000X9.000000*%
G04 #@! TD*
G04 #@! TA.AperFunction,ComponentPad*
%ADD11C,1.524000*%
G04 #@! TD*
G04 #@! TA.AperFunction,ComponentPad*
%ADD12R,1.700000X1.700000*%
G04 #@! TD*
G04 #@! TA.AperFunction,ComponentPad*
%ADD13O,1.700000X1.700000*%
G04 #@! TD*
G04 #@! TA.AperFunction,ComponentPad*
%ADD14O,1.500000X13.000000*%
G04 #@! TD*
G04 #@! TA.AperFunction,ViaPad*
%ADD15C,0.800000*%
G04 #@! TD*
G04 #@! TA.AperFunction,Conductor*
%ADD16C,0.250000*%
G04 #@! TD*
G04 APERTURE END LIST*
D10*
X168820000Y-82850000D03*
X168810000Y-93490000D03*
D11*
X131035000Y-108365000D03*
X128495000Y-105825000D03*
X125955000Y-108365000D03*
D12*
X181570000Y-86230000D03*
D13*
X181570000Y-88770000D03*
X181570000Y-91310000D03*
D14*
X161740000Y-85020000D03*
X161740000Y-99680000D03*
D15*
X167610000Y-88760000D03*
X120900000Y-87520000D03*
X162820000Y-92869503D03*
X162820000Y-91870000D03*
X167594385Y-87760620D03*
X139150000Y-100584020D03*
X132150000Y-82020000D03*
X134600000Y-93220000D03*
D16*
X125955000Y-108365000D02*
X125955000Y-95305000D01*
X162820000Y-92869503D02*
X161740000Y-93949503D01*
X128449282Y-108365000D02*
X125955000Y-108365000D01*
X163111601Y-92869503D02*
X162820000Y-92869503D01*
X167610000Y-88760000D02*
X168810000Y-89960000D01*
X120900000Y-90250000D02*
X120900000Y-87520000D01*
X168810000Y-89960000D02*
X168810000Y-93490000D01*
X125955000Y-95305000D02*
X120900000Y-90250000D01*
X152936197Y-99859520D02*
X136954762Y-99859520D01*
X136954762Y-99859520D02*
X128449282Y-108365000D01*
X159926214Y-92869503D02*
X152936197Y-99859520D01*
X162820000Y-92869503D02*
X159926214Y-92869503D01*
X161740000Y-93949503D02*
X161740000Y-99680000D01*
X161740000Y-99680000D02*
X161740000Y-94870000D01*
X152749999Y-99410000D02*
X136768564Y-99410000D01*
X136768564Y-99410000D02*
X130353564Y-105825000D01*
X161740000Y-85020000D02*
X161740000Y-90420000D01*
X168820000Y-86535005D02*
X168820000Y-82850000D01*
X162820000Y-91870000D02*
X161740000Y-90790000D01*
X160015007Y-92144992D02*
X152749999Y-99410000D01*
X162820000Y-91870000D02*
X162545008Y-92144992D01*
X167594385Y-87760620D02*
X167584766Y-87760620D01*
X130353564Y-105825000D02*
X128495000Y-105825000D01*
X161740000Y-90790000D02*
X161740000Y-85020000D01*
X162545008Y-92144992D02*
X160015007Y-92144992D01*
X167594385Y-87760620D02*
X168820000Y-86535005D01*
X131035000Y-106415000D02*
X137140960Y-100309040D01*
X137140960Y-100309040D02*
X138875020Y-100309040D01*
X138875020Y-100309040D02*
X139150000Y-100584020D01*
X131035000Y-108365000D02*
X131035000Y-106415000D01*
X134200000Y-92820000D02*
X134200000Y-81280000D01*
X171900000Y-76550000D02*
X181580000Y-86230000D01*
X134200000Y-81280000D02*
X138930000Y-76550000D01*
X138930000Y-76550000D02*
X171900000Y-76550000D01*
X134600000Y-93220000D02*
X134200000Y-92820000D01*
X133460000Y-82020000D02*
X132150000Y-82020000D01*
X134200000Y-81280000D02*
X133460000Y-82020000D01*
G04 #@! TA.AperFunction,Conductor*
G36*
X137690027Y-76678002D02*
G01*
X137736520Y-76731658D01*
X137746624Y-76801932D01*
X137717130Y-76866512D01*
X137711002Y-76873094D01*
X135754546Y-78829549D01*
X133807747Y-80776348D01*
X133799461Y-80783888D01*
X133792982Y-80788000D01*
X133787557Y-80793777D01*
X133746357Y-80837651D01*
X133743602Y-80840493D01*
X133234499Y-81349596D01*
X133172187Y-81383621D01*
X133145404Y-81386500D01*
X132858200Y-81386500D01*
X132790079Y-81366498D01*
X132770853Y-81350157D01*
X132770580Y-81350460D01*
X132765668Y-81346037D01*
X132761253Y-81341134D01*
X132606752Y-81228882D01*
X132600724Y-81226198D01*
X132600722Y-81226197D01*
X132438319Y-81153891D01*
X132438318Y-81153891D01*
X132432288Y-81151206D01*
X132318606Y-81127042D01*
X132251944Y-81112872D01*
X132251939Y-81112872D01*
X132245487Y-81111500D01*
X132054513Y-81111500D01*
X132048061Y-81112872D01*
X132048056Y-81112872D01*
X131981394Y-81127042D01*
X131867712Y-81151206D01*
X131861682Y-81153891D01*
X131861681Y-81153891D01*
X131699278Y-81226197D01*
X131699276Y-81226198D01*
X131693248Y-81228882D01*
X131538747Y-81341134D01*
X131534326Y-81346044D01*
X131534325Y-81346045D01*
X131500492Y-81383621D01*
X131410960Y-81483056D01*
X131315473Y-81648444D01*
X131256458Y-81830072D01*
X131236496Y-82020000D01*
X131256458Y-82209928D01*
X131315473Y-82391556D01*
X131410960Y-82556944D01*
X131538747Y-82698866D01*
X131693248Y-82811118D01*
X131699276Y-82813802D01*
X131699278Y-82813803D01*
X131861681Y-82886109D01*
X131867712Y-82888794D01*
X131961112Y-82908647D01*
X132048056Y-82927128D01*
X132048061Y-82927128D01*
X132054513Y-82928500D01*
X132245487Y-82928500D01*
X132251939Y-82927128D01*
X132251944Y-82927128D01*
X132338888Y-82908647D01*
X132432288Y-82888794D01*
X132438319Y-82886109D01*
X132600722Y-82813803D01*
X132600724Y-82813802D01*
X132606752Y-82811118D01*
X132648911Y-82780488D01*
X132739671Y-82714546D01*
X132761253Y-82698866D01*
X132765668Y-82693963D01*
X132770580Y-82689540D01*
X132771705Y-82690789D01*
X132825014Y-82657949D01*
X132858200Y-82653500D01*
X133381233Y-82653500D01*
X133392416Y-82654027D01*
X133399909Y-82655702D01*
X133407834Y-82655453D01*
X133407835Y-82655453D01*
X133414630Y-82655239D01*
X133436542Y-82654550D01*
X133505255Y-82672401D01*
X133553412Y-82724569D01*
X133566500Y-82780488D01*
X133566500Y-92741233D01*
X133565973Y-92752416D01*
X133564298Y-92759909D01*
X133564547Y-92767835D01*
X133564547Y-92767836D01*
X133566438Y-92827986D01*
X133566500Y-92831945D01*
X133566500Y-92859856D01*
X133566997Y-92863790D01*
X133566997Y-92863791D01*
X133567005Y-92863856D01*
X133567938Y-92875693D01*
X133569327Y-92919889D01*
X133574978Y-92939339D01*
X133578987Y-92958700D01*
X133581526Y-92978797D01*
X133584445Y-92986168D01*
X133584445Y-92986170D01*
X133597804Y-93019912D01*
X133601649Y-93031142D01*
X133613982Y-93073593D01*
X133618015Y-93080412D01*
X133618017Y-93080417D01*
X133624293Y-93091028D01*
X133632988Y-93108776D01*
X133640448Y-93127617D01*
X133645111Y-93134035D01*
X133663123Y-93158827D01*
X133683114Y-93220355D01*
X133686496Y-93220000D01*
X133706458Y-93409928D01*
X133765473Y-93591556D01*
X133860960Y-93756944D01*
X133865378Y-93761851D01*
X133865379Y-93761852D01*
X133965458Y-93873001D01*
X133988747Y-93898866D01*
X134143248Y-94011118D01*
X134149276Y-94013802D01*
X134149278Y-94013803D01*
X134193912Y-94033675D01*
X134317712Y-94088794D01*
X134411112Y-94108647D01*
X134498056Y-94127128D01*
X134498061Y-94127128D01*
X134504513Y-94128500D01*
X134695487Y-94128500D01*
X134701939Y-94127128D01*
X134701944Y-94127128D01*
X134788887Y-94108647D01*
X134882288Y-94088794D01*
X135006088Y-94033675D01*
X135050722Y-94013803D01*
X135050724Y-94013802D01*
X135056752Y-94011118D01*
X135211253Y-93898866D01*
X135234542Y-93873001D01*
X135334621Y-93761852D01*
X135334622Y-93761851D01*
X135339040Y-93756944D01*
X135434527Y-93591556D01*
X135493542Y-93409928D01*
X135513504Y-93220000D01*
X135511381Y-93199798D01*
X135494232Y-93036635D01*
X135494232Y-93036633D01*
X135493542Y-93030072D01*
X135434527Y-92848444D01*
X135339040Y-92683056D01*
X135268910Y-92605168D01*
X135215675Y-92546045D01*
X135215674Y-92546044D01*
X135211253Y-92541134D01*
X135056752Y-92428882D01*
X135050724Y-92426198D01*
X135050722Y-92426197D01*
X134908251Y-92362765D01*
X134854155Y-92316785D01*
X134833500Y-92247658D01*
X134833500Y-81594594D01*
X134853502Y-81526473D01*
X134870405Y-81505499D01*
X139155499Y-77220405D01*
X139217811Y-77186379D01*
X139244594Y-77183500D01*
X171585406Y-77183500D01*
X171653527Y-77203502D01*
X171674501Y-77220405D01*
X180174595Y-85720499D01*
X180208621Y-85782811D01*
X180211500Y-85809594D01*
X180211500Y-87128134D01*
X180218255Y-87190316D01*
X180269385Y-87326705D01*
X180356739Y-87443261D01*
X180473295Y-87530615D01*
X180481704Y-87533767D01*
X180481705Y-87533768D01*
X180590451Y-87574535D01*
X180647216Y-87617176D01*
X180671916Y-87683738D01*
X180656709Y-87753087D01*
X180637316Y-87779568D01*
X180524829Y-87897279D01*
X180510629Y-87912138D01*
X180507715Y-87916410D01*
X180507714Y-87916411D01*
X180484427Y-87950548D01*
X180384743Y-88096680D01*
X180365612Y-88137894D01*
X180302512Y-88273833D01*
X180290688Y-88299305D01*
X180230989Y-88514570D01*
X180207251Y-88736695D01*
X180207548Y-88741848D01*
X180207548Y-88741851D01*
X180213011Y-88836590D01*
X180220110Y-88959715D01*
X180221247Y-88964761D01*
X180221248Y-88964767D01*
X180241119Y-89052939D01*
X180269222Y-89177639D01*
X180353266Y-89384616D01*
X180355965Y-89389020D01*
X180456944Y-89553803D01*
X180469987Y-89575088D01*
X180616250Y-89743938D01*
X180788126Y-89886632D01*
X180861955Y-89929774D01*
X180910679Y-89981412D01*
X180923750Y-90051195D01*
X180897019Y-90116967D01*
X180856562Y-90150327D01*
X180848457Y-90154546D01*
X180839738Y-90160036D01*
X180669433Y-90287905D01*
X180661726Y-90294748D01*
X180514590Y-90448717D01*
X180508104Y-90456727D01*
X180388098Y-90632649D01*
X180383000Y-90641623D01*
X180293338Y-90834783D01*
X180289775Y-90844470D01*
X180234389Y-91044183D01*
X180235912Y-91052607D01*
X180248292Y-91056000D01*
X182888344Y-91056000D01*
X182901875Y-91052027D01*
X182903180Y-91042947D01*
X182861214Y-90875875D01*
X182857894Y-90866124D01*
X182772972Y-90670814D01*
X182768105Y-90661739D01*
X182652426Y-90482926D01*
X182646136Y-90474757D01*
X182502806Y-90317240D01*
X182495273Y-90310215D01*
X182328139Y-90178222D01*
X182319556Y-90172520D01*
X182282602Y-90152120D01*
X182232631Y-90101687D01*
X182217859Y-90032245D01*
X182242975Y-89965839D01*
X182270327Y-89939232D01*
X182293797Y-89922491D01*
X182449860Y-89811173D01*
X182608096Y-89653489D01*
X182627771Y-89626109D01*
X182735435Y-89476277D01*
X182738453Y-89472077D01*
X182837430Y-89271811D01*
X182902370Y-89058069D01*
X182931529Y-88836590D01*
X182933156Y-88770000D01*
X182914852Y-88547361D01*
X182860431Y-88330702D01*
X182771354Y-88125840D01*
X182723084Y-88051226D01*
X182652822Y-87942617D01*
X182652820Y-87942614D01*
X182650014Y-87938277D01*
X182646532Y-87934450D01*
X182502798Y-87776488D01*
X182471746Y-87712642D01*
X182480141Y-87642143D01*
X182525317Y-87587375D01*
X182551761Y-87573706D01*
X182658297Y-87533767D01*
X182666705Y-87530615D01*
X182783261Y-87443261D01*
X182870615Y-87326705D01*
X182921745Y-87190316D01*
X182928500Y-87128134D01*
X182928500Y-85331866D01*
X182921745Y-85269684D01*
X182870615Y-85133295D01*
X182783261Y-85016739D01*
X182666705Y-84929385D01*
X182530316Y-84878255D01*
X182468134Y-84871500D01*
X181169595Y-84871500D01*
X181101474Y-84851498D01*
X181080500Y-84834595D01*
X175374829Y-79128924D01*
X180697418Y-79128924D01*
X180697835Y-79136150D01*
X180713179Y-79402257D01*
X180714004Y-79406462D01*
X180714005Y-79406470D01*
X180742848Y-79553483D01*
X180765889Y-79670923D01*
X180767276Y-79674974D01*
X180785275Y-79727544D01*
X180854573Y-79929950D01*
X180856499Y-79933779D01*
X180919495Y-80059032D01*
X180977591Y-80174544D01*
X180980017Y-80178073D01*
X180980020Y-80178079D01*
X181014642Y-80228454D01*
X181132666Y-80400179D01*
X181316929Y-80602681D01*
X181526969Y-80778302D01*
X181530595Y-80780577D01*
X181530597Y-80780578D01*
X181542429Y-80788000D01*
X181758901Y-80923792D01*
X181762803Y-80925554D01*
X181762807Y-80925556D01*
X182004520Y-81034694D01*
X182004524Y-81034696D01*
X182008432Y-81036460D01*
X182012551Y-81037680D01*
X182266832Y-81113002D01*
X182266837Y-81113003D01*
X182270945Y-81114220D01*
X182275179Y-81114868D01*
X182275184Y-81114869D01*
X182537340Y-81154984D01*
X182537342Y-81154984D01*
X182541582Y-81155633D01*
X182680913Y-81157822D01*
X182811045Y-81159867D01*
X182811051Y-81159867D01*
X182815336Y-81159934D01*
X183087141Y-81127042D01*
X183351967Y-81057566D01*
X183604914Y-80952792D01*
X183799510Y-80839079D01*
X183837598Y-80816822D01*
X183837599Y-80816821D01*
X183841301Y-80814658D01*
X184056754Y-80645722D01*
X184101539Y-80599508D01*
X184244303Y-80452186D01*
X184247286Y-80449108D01*
X184249819Y-80445660D01*
X184249823Y-80445655D01*
X184406834Y-80231909D01*
X184409372Y-80228454D01*
X184411418Y-80224686D01*
X184537962Y-79991621D01*
X184537963Y-79991619D01*
X184540012Y-79987845D01*
X184636789Y-79731732D01*
X184697912Y-79464854D01*
X184710031Y-79329075D01*
X184722031Y-79194616D01*
X184722251Y-79192151D01*
X184722341Y-79183599D01*
X184722666Y-79152485D01*
X184722692Y-79150000D01*
X184722523Y-79147519D01*
X184704362Y-78881123D01*
X184704361Y-78881117D01*
X184704070Y-78876846D01*
X184698433Y-78849623D01*
X184675790Y-78740284D01*
X184648550Y-78608747D01*
X184557157Y-78350664D01*
X184551590Y-78339877D01*
X184433550Y-78111178D01*
X184433549Y-78111177D01*
X184431585Y-78107371D01*
X184428270Y-78102654D01*
X184276619Y-77886877D01*
X184276614Y-77886871D01*
X184274155Y-77883372D01*
X184202189Y-77805927D01*
X184090703Y-77685954D01*
X184090700Y-77685951D01*
X184087782Y-77682811D01*
X184084466Y-77680097D01*
X184084463Y-77680094D01*
X183879233Y-77512114D01*
X183879226Y-77512109D01*
X183875915Y-77509399D01*
X183642472Y-77366345D01*
X183638555Y-77364626D01*
X183638552Y-77364624D01*
X183456506Y-77284712D01*
X183391775Y-77256297D01*
X183387647Y-77255121D01*
X183387644Y-77255120D01*
X183306557Y-77232022D01*
X183128462Y-77181290D01*
X183124220Y-77180686D01*
X183124214Y-77180685D01*
X182925596Y-77152418D01*
X182857406Y-77142713D01*
X182713671Y-77141961D01*
X182587908Y-77141302D01*
X182587902Y-77141302D01*
X182583622Y-77141280D01*
X182579378Y-77141839D01*
X182579374Y-77141839D01*
X182460397Y-77157503D01*
X182312177Y-77177016D01*
X182308037Y-77178149D01*
X182308035Y-77178149D01*
X182215360Y-77203502D01*
X182048093Y-77249261D01*
X181796257Y-77356678D01*
X181561329Y-77497280D01*
X181557978Y-77499964D01*
X181557976Y-77499966D01*
X181546202Y-77509399D01*
X181347657Y-77668463D01*
X181217209Y-77805927D01*
X181162716Y-77863351D01*
X181159194Y-77867062D01*
X180999428Y-78089400D01*
X180871314Y-78331364D01*
X180831399Y-78440439D01*
X180787234Y-78561127D01*
X180777225Y-78588477D01*
X180718899Y-78855980D01*
X180715058Y-78904783D01*
X180698003Y-79121496D01*
X180697418Y-79128924D01*
X175374829Y-79128924D01*
X173119000Y-76873095D01*
X173084974Y-76810783D01*
X173090039Y-76739968D01*
X173132586Y-76683132D01*
X173199106Y-76658321D01*
X173208095Y-76658000D01*
X182660672Y-76658000D01*
X182680057Y-76659500D01*
X182694858Y-76661805D01*
X182694861Y-76661805D01*
X182703730Y-76663186D01*
X182720899Y-76660941D01*
X182744839Y-76660108D01*
X183002770Y-76675710D01*
X183017874Y-76677544D01*
X183088648Y-76690514D01*
X183298879Y-76729040D01*
X183313641Y-76732678D01*
X183586408Y-76817675D01*
X183600627Y-76823069D01*
X183861140Y-76940316D01*
X183874609Y-76947385D01*
X184119095Y-77095182D01*
X184131617Y-77103825D01*
X184356507Y-77280016D01*
X184367895Y-77290106D01*
X184569894Y-77492105D01*
X184579984Y-77503493D01*
X184756175Y-77728383D01*
X184764818Y-77740905D01*
X184912615Y-77985391D01*
X184919684Y-77998860D01*
X185011613Y-78203118D01*
X185036930Y-78259370D01*
X185042325Y-78273592D01*
X185116238Y-78510786D01*
X185127321Y-78546353D01*
X185130960Y-78561121D01*
X185162785Y-78734783D01*
X185182456Y-78842126D01*
X185184290Y-78857230D01*
X185199455Y-79107929D01*
X185198198Y-79134639D01*
X185198195Y-79134859D01*
X185196814Y-79143730D01*
X185197978Y-79152632D01*
X185197978Y-79152635D01*
X185200936Y-79175251D01*
X185202000Y-79191589D01*
X185202000Y-93100672D01*
X185200500Y-93120057D01*
X185198324Y-93134035D01*
X185196814Y-93143730D01*
X185198788Y-93158827D01*
X185199059Y-93160897D01*
X185199892Y-93184839D01*
X185184290Y-93442770D01*
X185182456Y-93457874D01*
X185131068Y-93738297D01*
X185130962Y-93738873D01*
X185127322Y-93753641D01*
X185042326Y-94026404D01*
X185036931Y-94040627D01*
X185014636Y-94090166D01*
X184919686Y-94301136D01*
X184912615Y-94314609D01*
X184764818Y-94559095D01*
X184756175Y-94571617D01*
X184579984Y-94796507D01*
X184569894Y-94807895D01*
X184367895Y-95009894D01*
X184356507Y-95019984D01*
X184131617Y-95196175D01*
X184119095Y-95204818D01*
X183874609Y-95352615D01*
X183861140Y-95359684D01*
X183600630Y-95476930D01*
X183586408Y-95482325D01*
X183313641Y-95567322D01*
X183298879Y-95570960D01*
X183088648Y-95609486D01*
X183017874Y-95622456D01*
X183002770Y-95624290D01*
X182752071Y-95639455D01*
X182725361Y-95638198D01*
X182725141Y-95638195D01*
X182716270Y-95636814D01*
X182707368Y-95637978D01*
X182707365Y-95637978D01*
X182684749Y-95640936D01*
X182668411Y-95642000D01*
X178763207Y-95642000D01*
X178742303Y-95640254D01*
X178739137Y-95639721D01*
X178722539Y-95636929D01*
X178716419Y-95636854D01*
X178714867Y-95636835D01*
X178714862Y-95636835D01*
X178710000Y-95636776D01*
X178705172Y-95637467D01*
X178705053Y-95637475D01*
X178693583Y-95638575D01*
X178368831Y-95654529D01*
X178368827Y-95654529D01*
X178365741Y-95654681D01*
X178024798Y-95705256D01*
X178021803Y-95706006D01*
X178021804Y-95706006D01*
X177693454Y-95788253D01*
X177693449Y-95788255D01*
X177690453Y-95789005D01*
X177687554Y-95790042D01*
X177687545Y-95790045D01*
X177528190Y-95847063D01*
X177365927Y-95905122D01*
X177363144Y-95906438D01*
X177363135Y-95906442D01*
X177057128Y-96051173D01*
X177054346Y-96052489D01*
X177051704Y-96054072D01*
X177051705Y-96054072D01*
X176761359Y-96228098D01*
X176761350Y-96228104D01*
X176758709Y-96229687D01*
X176481864Y-96435009D01*
X176226478Y-96666478D01*
X175995009Y-96921864D01*
X175789687Y-97198709D01*
X175788104Y-97201350D01*
X175788098Y-97201359D01*
X175730774Y-97296999D01*
X175612489Y-97494346D01*
X175611175Y-97497125D01*
X175611173Y-97497128D01*
X175466442Y-97803135D01*
X175466438Y-97803144D01*
X175465122Y-97805927D01*
X175439278Y-97878156D01*
X175373822Y-98061095D01*
X175349005Y-98130453D01*
X175348255Y-98133449D01*
X175348253Y-98133454D01*
X175325292Y-98225119D01*
X175265256Y-98464798D01*
X175214681Y-98805741D01*
X175214529Y-98808827D01*
X175214529Y-98808831D01*
X175199349Y-99117828D01*
X175197756Y-99132544D01*
X175196929Y-99137461D01*
X175196776Y-99150000D01*
X175197466Y-99154815D01*
X175200727Y-99177588D01*
X175202000Y-99195451D01*
X175202000Y-105600672D01*
X175200500Y-105620056D01*
X175196814Y-105643730D01*
X175199059Y-105660897D01*
X175199892Y-105684839D01*
X175184290Y-105942770D01*
X175182456Y-105957874D01*
X175174066Y-106003656D01*
X175139192Y-106193964D01*
X175130962Y-106238873D01*
X175127322Y-106253641D01*
X175060779Y-106467185D01*
X175042326Y-106526404D01*
X175036931Y-106540627D01*
X174968371Y-106692963D01*
X174919686Y-106801136D01*
X174912615Y-106814609D01*
X174764818Y-107059095D01*
X174756175Y-107071617D01*
X174579984Y-107296507D01*
X174569894Y-107307895D01*
X174367895Y-107509894D01*
X174356507Y-107519984D01*
X174131617Y-107696175D01*
X174119095Y-107704818D01*
X173874609Y-107852615D01*
X173861140Y-107859684D01*
X173695763Y-107934114D01*
X173600630Y-107976930D01*
X173586408Y-107982325D01*
X173313641Y-108067322D01*
X173298879Y-108070960D01*
X173088648Y-108109486D01*
X173017874Y-108122456D01*
X173002770Y-108124290D01*
X172752071Y-108139455D01*
X172725361Y-108138198D01*
X172725141Y-108138195D01*
X172716270Y-108136814D01*
X172707368Y-108137978D01*
X172707365Y-108137978D01*
X172684749Y-108140936D01*
X172668411Y-108142000D01*
X143263207Y-108142000D01*
X143242303Y-108140254D01*
X143239137Y-108139721D01*
X143222539Y-108136929D01*
X143216419Y-108136854D01*
X143214867Y-108136835D01*
X143214862Y-108136835D01*
X143210000Y-108136776D01*
X143205172Y-108137467D01*
X143205053Y-108137475D01*
X143193583Y-108138575D01*
X142868831Y-108154529D01*
X142868827Y-108154529D01*
X142865741Y-108154681D01*
X142524798Y-108205256D01*
X142521803Y-108206006D01*
X142521804Y-108206006D01*
X142193454Y-108288253D01*
X142193449Y-108288255D01*
X142190453Y-108289005D01*
X142187554Y-108290042D01*
X142187545Y-108290045D01*
X142028190Y-108347064D01*
X141865927Y-108405122D01*
X141863144Y-108406438D01*
X141863135Y-108406442D01*
X141557128Y-108551173D01*
X141554346Y-108552489D01*
X141551704Y-108554072D01*
X141551705Y-108554072D01*
X141261359Y-108728098D01*
X141261350Y-108728104D01*
X141258709Y-108729687D01*
X141256224Y-108731530D01*
X140992031Y-108927469D01*
X140981864Y-108935009D01*
X140726478Y-109166478D01*
X140495009Y-109421864D01*
X140493168Y-109424347D01*
X140493165Y-109424350D01*
X140391732Y-109561117D01*
X140289687Y-109698709D01*
X140288104Y-109701350D01*
X140288098Y-109701359D01*
X140125440Y-109972739D01*
X140112489Y-109994346D01*
X140111175Y-109997125D01*
X140111173Y-109997128D01*
X139966442Y-110303135D01*
X139966438Y-110303144D01*
X139965122Y-110305927D01*
X139849005Y-110630453D01*
X139765256Y-110964798D01*
X139714681Y-111305741D01*
X139714529Y-111308827D01*
X139714529Y-111308831D01*
X139699349Y-111617828D01*
X139697756Y-111632544D01*
X139696929Y-111637461D01*
X139696776Y-111650000D01*
X139697466Y-111654815D01*
X139700727Y-111677588D01*
X139702000Y-111695451D01*
X139702000Y-117100672D01*
X139700500Y-117120056D01*
X139696814Y-117143730D01*
X139698454Y-117156270D01*
X139699059Y-117160897D01*
X139699892Y-117184839D01*
X139684290Y-117442770D01*
X139682456Y-117457874D01*
X139669486Y-117528648D01*
X139632271Y-117731732D01*
X139630962Y-117738873D01*
X139627322Y-117753641D01*
X139553165Y-117991621D01*
X139542326Y-118026404D01*
X139536931Y-118040627D01*
X139478385Y-118170713D01*
X139419686Y-118301136D01*
X139412615Y-118314609D01*
X139264818Y-118559095D01*
X139256175Y-118571617D01*
X139079984Y-118796507D01*
X139069894Y-118807895D01*
X138867895Y-119009894D01*
X138856507Y-119019984D01*
X138631617Y-119196175D01*
X138619095Y-119204818D01*
X138374609Y-119352615D01*
X138361140Y-119359684D01*
X138100630Y-119476930D01*
X138086408Y-119482325D01*
X137813641Y-119567322D01*
X137798879Y-119570960D01*
X137588648Y-119609486D01*
X137517874Y-119622456D01*
X137502770Y-119624290D01*
X137252071Y-119639455D01*
X137225361Y-119638198D01*
X137225141Y-119638195D01*
X137216270Y-119636814D01*
X137207368Y-119637978D01*
X137207365Y-119637978D01*
X137184749Y-119640936D01*
X137168411Y-119642000D01*
X117259328Y-119642000D01*
X117239943Y-119640500D01*
X117225142Y-119638195D01*
X117225139Y-119638195D01*
X117216270Y-119636814D01*
X117199101Y-119639059D01*
X117175161Y-119639892D01*
X116917230Y-119624290D01*
X116902126Y-119622456D01*
X116831352Y-119609486D01*
X116621121Y-119570960D01*
X116606359Y-119567322D01*
X116333592Y-119482325D01*
X116319370Y-119476930D01*
X116058860Y-119359684D01*
X116045391Y-119352615D01*
X115800905Y-119204818D01*
X115788383Y-119196175D01*
X115563493Y-119019984D01*
X115552105Y-119009894D01*
X115350106Y-118807895D01*
X115340016Y-118796507D01*
X115163825Y-118571617D01*
X115155182Y-118559095D01*
X115007385Y-118314609D01*
X115000314Y-118301136D01*
X114941616Y-118170713D01*
X114883069Y-118040627D01*
X114877674Y-118026404D01*
X114866835Y-117991621D01*
X114792678Y-117753641D01*
X114789038Y-117738873D01*
X114787730Y-117731732D01*
X114750514Y-117528648D01*
X114737544Y-117457874D01*
X114735710Y-117442770D01*
X114720545Y-117192071D01*
X114721802Y-117165361D01*
X114721805Y-117165141D01*
X114723186Y-117156270D01*
X114721547Y-117143730D01*
X114719610Y-117128924D01*
X115197418Y-117128924D01*
X115197835Y-117136150D01*
X115213179Y-117402257D01*
X115214004Y-117406462D01*
X115214005Y-117406470D01*
X115242848Y-117553483D01*
X115265889Y-117670923D01*
X115267276Y-117674974D01*
X115294212Y-117753647D01*
X115354573Y-117929950D01*
X115356499Y-117933779D01*
X115419495Y-118059032D01*
X115477591Y-118174544D01*
X115480017Y-118178073D01*
X115480020Y-118178079D01*
X115514642Y-118228454D01*
X115632666Y-118400179D01*
X115816929Y-118602681D01*
X116026969Y-118778302D01*
X116030595Y-118780577D01*
X116030597Y-118780578D01*
X116080703Y-118812009D01*
X116258901Y-118923792D01*
X116262803Y-118925554D01*
X116262807Y-118925556D01*
X116504520Y-119034694D01*
X116504524Y-119034696D01*
X116508432Y-119036460D01*
X116512551Y-119037680D01*
X116766832Y-119113002D01*
X116766837Y-119113003D01*
X116770945Y-119114220D01*
X116775179Y-119114868D01*
X116775184Y-119114869D01*
X117037340Y-119154984D01*
X117037342Y-119154984D01*
X117041582Y-119155633D01*
X117180913Y-119157822D01*
X117311045Y-119159867D01*
X117311051Y-119159867D01*
X117315336Y-119159934D01*
X117587141Y-119127042D01*
X117851967Y-119057566D01*
X118104914Y-118952792D01*
X118341301Y-118814658D01*
X118556754Y-118645722D01*
X118601539Y-118599508D01*
X118744303Y-118452186D01*
X118747286Y-118449108D01*
X118749819Y-118445660D01*
X118749823Y-118445655D01*
X118906834Y-118231909D01*
X118909372Y-118228454D01*
X118911418Y-118224686D01*
X119037962Y-117991621D01*
X119037963Y-117991619D01*
X119040012Y-117987845D01*
X119128508Y-117753647D01*
X119135271Y-117735750D01*
X119135272Y-117735746D01*
X119136789Y-117731732D01*
X119186386Y-117515180D01*
X119196954Y-117469038D01*
X119196955Y-117469034D01*
X119197912Y-117464854D01*
X119210031Y-117329075D01*
X119222031Y-117194616D01*
X119222251Y-117192151D01*
X119222692Y-117150000D01*
X119222523Y-117147519D01*
X119204362Y-116881123D01*
X119204361Y-116881117D01*
X119204070Y-116876846D01*
X119148550Y-116608747D01*
X119057157Y-116350664D01*
X119049277Y-116335395D01*
X118933550Y-116111178D01*
X118933549Y-116111177D01*
X118931585Y-116107371D01*
X118929122Y-116103866D01*
X118776619Y-115886877D01*
X118776614Y-115886871D01*
X118774155Y-115883372D01*
X118587782Y-115682811D01*
X118584466Y-115680097D01*
X118584463Y-115680094D01*
X118379233Y-115512114D01*
X118379226Y-115512109D01*
X118375915Y-115509399D01*
X118142472Y-115366345D01*
X118138555Y-115364626D01*
X118138552Y-115364624D01*
X118028232Y-115316197D01*
X117891775Y-115256297D01*
X117887647Y-115255121D01*
X117887644Y-115255120D01*
X117806557Y-115232022D01*
X117628462Y-115181290D01*
X117624220Y-115180686D01*
X117624214Y-115180685D01*
X117425596Y-115152418D01*
X117357406Y-115142713D01*
X117213671Y-115141961D01*
X117087908Y-115141302D01*
X117087902Y-115141302D01*
X117083622Y-115141280D01*
X117079378Y-115141839D01*
X117079374Y-115141839D01*
X116960397Y-115157503D01*
X116812177Y-115177016D01*
X116808037Y-115178149D01*
X116808035Y-115178149D01*
X116792251Y-115182467D01*
X116548093Y-115249261D01*
X116296257Y-115356678D01*
X116061329Y-115497280D01*
X116057978Y-115499964D01*
X116057976Y-115499966D01*
X116046202Y-115509399D01*
X115847657Y-115668463D01*
X115659194Y-115867062D01*
X115499428Y-116089400D01*
X115371314Y-116331364D01*
X115277225Y-116588477D01*
X115218899Y-116855980D01*
X115197418Y-117128924D01*
X114719610Y-117128924D01*
X114719064Y-117124749D01*
X114718000Y-117108411D01*
X114718000Y-87520000D01*
X119986496Y-87520000D01*
X119987186Y-87526565D01*
X119999334Y-87642143D01*
X120006458Y-87709928D01*
X120065473Y-87891556D01*
X120160960Y-88056944D01*
X120234137Y-88138215D01*
X120264853Y-88202221D01*
X120266500Y-88222524D01*
X120266500Y-90171233D01*
X120265973Y-90182416D01*
X120264298Y-90189909D01*
X120264547Y-90197835D01*
X120264547Y-90197836D01*
X120266438Y-90257986D01*
X120266500Y-90261945D01*
X120266500Y-90289856D01*
X120266997Y-90293790D01*
X120266997Y-90293791D01*
X120267005Y-90293856D01*
X120267938Y-90305693D01*
X120269327Y-90349889D01*
X120274978Y-90369339D01*
X120278987Y-90388700D01*
X120281526Y-90408797D01*
X120284445Y-90416168D01*
X120284445Y-90416170D01*
X120297804Y-90449912D01*
X120301649Y-90461142D01*
X120307978Y-90482926D01*
X120313982Y-90503593D01*
X120318015Y-90510412D01*
X120318017Y-90510417D01*
X120324293Y-90521028D01*
X120332988Y-90538776D01*
X120340448Y-90557617D01*
X120345110Y-90564033D01*
X120345110Y-90564034D01*
X120366436Y-90593387D01*
X120372952Y-90603307D01*
X120395458Y-90641362D01*
X120409779Y-90655683D01*
X120422619Y-90670716D01*
X120434528Y-90687107D01*
X120440634Y-90692158D01*
X120468605Y-90715298D01*
X120477384Y-90723288D01*
X125284595Y-95530499D01*
X125318621Y-95592811D01*
X125321500Y-95619594D01*
X125321500Y-107191996D01*
X125301498Y-107260117D01*
X125267771Y-107295209D01*
X125139730Y-107384864D01*
X125139727Y-107384866D01*
X125135219Y-107388023D01*
X124978023Y-107545219D01*
X124974866Y-107549727D01*
X124974864Y-107549730D01*
X124869031Y-107700876D01*
X124850512Y-107727324D01*
X124848189Y-107732306D01*
X124848186Y-107732311D01*
X124790250Y-107856556D01*
X124756560Y-107928804D01*
X124699022Y-108143537D01*
X124679647Y-108365000D01*
X124699022Y-108586463D01*
X124700446Y-108591776D01*
X124754050Y-108791827D01*
X124756560Y-108801196D01*
X124758882Y-108806177D01*
X124758883Y-108806178D01*
X124848186Y-108997689D01*
X124848189Y-108997694D01*
X124850512Y-109002676D01*
X124853668Y-109007183D01*
X124853669Y-109007185D01*
X124971994Y-109176170D01*
X124978023Y-109184781D01*
X125135219Y-109341977D01*
X125139727Y-109345134D01*
X125139730Y-109345136D01*
X125215495Y-109398187D01*
X125317323Y-109469488D01*
X125322305Y-109471811D01*
X125322310Y-109471814D01*
X125513822Y-109561117D01*
X125518804Y-109563440D01*
X125524112Y-109564862D01*
X125524114Y-109564863D01*
X125589949Y-109582503D01*
X125733537Y-109620978D01*
X125955000Y-109640353D01*
X126176463Y-109620978D01*
X126320051Y-109582503D01*
X126385886Y-109564863D01*
X126385888Y-109564862D01*
X126391196Y-109563440D01*
X126396178Y-109561117D01*
X126587690Y-109471814D01*
X126587695Y-109471811D01*
X126592677Y-109469488D01*
X126694505Y-109398187D01*
X126770270Y-109345136D01*
X126770273Y-109345134D01*
X126774781Y-109341977D01*
X126931977Y-109184781D01*
X126938007Y-109176170D01*
X127024791Y-109052229D01*
X127080248Y-109007901D01*
X127128004Y-108998500D01*
X128370515Y-108998500D01*
X128381698Y-108999027D01*
X128389191Y-109000702D01*
X128397117Y-109000453D01*
X128397118Y-109000453D01*
X128457268Y-108998562D01*
X128461227Y-108998500D01*
X128489138Y-108998500D01*
X128493073Y-108998003D01*
X128493138Y-108997995D01*
X128504975Y-108997062D01*
X128537233Y-108996048D01*
X128541252Y-108995922D01*
X128549171Y-108995673D01*
X128568625Y-108990021D01*
X128587982Y-108986013D01*
X128600212Y-108984468D01*
X128600213Y-108984468D01*
X128608079Y-108983474D01*
X128615450Y-108980555D01*
X128615452Y-108980555D01*
X128649194Y-108967196D01*
X128660424Y-108963351D01*
X128695265Y-108953229D01*
X128695266Y-108953229D01*
X128702875Y-108951018D01*
X128709694Y-108946985D01*
X128709699Y-108946983D01*
X128720310Y-108940707D01*
X128738058Y-108932012D01*
X128756899Y-108924552D01*
X128792669Y-108898564D01*
X128802589Y-108892048D01*
X128833817Y-108873580D01*
X128833820Y-108873578D01*
X128840644Y-108869542D01*
X128854965Y-108855221D01*
X128869999Y-108842380D01*
X128879976Y-108835131D01*
X128886389Y-108830472D01*
X128914580Y-108796395D01*
X128922570Y-108787616D01*
X129554596Y-108155590D01*
X129616908Y-108121564D01*
X129687723Y-108126629D01*
X129744559Y-108169176D01*
X129769370Y-108235696D01*
X129769212Y-108255666D01*
X129760562Y-108354545D01*
X129759647Y-108365000D01*
X129779022Y-108586463D01*
X129780446Y-108591776D01*
X129834050Y-108791827D01*
X129836560Y-108801196D01*
X129838882Y-108806177D01*
X129838883Y-108806178D01*
X129928186Y-108997689D01*
X129928189Y-108997694D01*
X129930512Y-109002676D01*
X129933668Y-109007183D01*
X129933669Y-109007185D01*
X130051994Y-109176170D01*
X130058023Y-109184781D01*
X130215219Y-109341977D01*
X130219727Y-109345134D01*
X130219730Y-109345136D01*
X130295495Y-109398187D01*
X130397323Y-109469488D01*
X130402305Y-109471811D01*
X130402310Y-109471814D01*
X130593822Y-109561117D01*
X130598804Y-109563440D01*
X130604112Y-109564862D01*
X130604114Y-109564863D01*
X130669949Y-109582503D01*
X130813537Y-109620978D01*
X131035000Y-109640353D01*
X131256463Y-109620978D01*
X131400051Y-109582503D01*
X131465886Y-109564863D01*
X131465888Y-109564862D01*
X131471196Y-109563440D01*
X131476178Y-109561117D01*
X131667690Y-109471814D01*
X131667695Y-109471811D01*
X131672677Y-109469488D01*
X131774505Y-109398187D01*
X131850270Y-109345136D01*
X131850273Y-109345134D01*
X131854781Y-109341977D01*
X132011977Y-109184781D01*
X132018007Y-109176170D01*
X132136331Y-109007185D01*
X132136332Y-109007183D01*
X132139488Y-109002676D01*
X132141811Y-108997694D01*
X132141814Y-108997689D01*
X132231117Y-108806178D01*
X132231118Y-108806177D01*
X132233440Y-108801196D01*
X132235951Y-108791827D01*
X132289554Y-108591776D01*
X132290978Y-108586463D01*
X132310353Y-108365000D01*
X132290978Y-108143537D01*
X132233440Y-107928804D01*
X132199750Y-107856556D01*
X132141814Y-107732311D01*
X132141811Y-107732306D01*
X132139488Y-107727324D01*
X132120969Y-107700876D01*
X132015136Y-107549730D01*
X132015134Y-107549727D01*
X132011977Y-107545219D01*
X131854781Y-107388023D01*
X131850273Y-107384866D01*
X131850270Y-107384864D01*
X131722229Y-107295209D01*
X131677901Y-107239752D01*
X131668500Y-107191996D01*
X131668500Y-106729594D01*
X131688502Y-106661473D01*
X131705405Y-106640499D01*
X137366459Y-100979445D01*
X137428771Y-100945419D01*
X137455554Y-100942540D01*
X138235201Y-100942540D01*
X138303322Y-100962542D01*
X138344319Y-101005539D01*
X138410960Y-101120964D01*
X138538747Y-101262886D01*
X138693248Y-101375138D01*
X138699276Y-101377822D01*
X138699278Y-101377823D01*
X138861681Y-101450129D01*
X138867712Y-101452814D01*
X138961113Y-101472667D01*
X139048056Y-101491148D01*
X139048061Y-101491148D01*
X139054513Y-101492520D01*
X139245487Y-101492520D01*
X139251939Y-101491148D01*
X139251944Y-101491148D01*
X139338887Y-101472667D01*
X139432288Y-101452814D01*
X139438319Y-101450129D01*
X139600722Y-101377823D01*
X139600724Y-101377822D01*
X139606752Y-101375138D01*
X139761253Y-101262886D01*
X139889040Y-101120964D01*
X139984527Y-100955576D01*
X140043542Y-100773948D01*
X140061210Y-100605849D01*
X140088223Y-100540193D01*
X140146445Y-100499563D01*
X140186520Y-100493020D01*
X152857430Y-100493020D01*
X152868613Y-100493547D01*
X152876106Y-100495222D01*
X152884032Y-100494973D01*
X152884033Y-100494973D01*
X152944183Y-100493082D01*
X152948142Y-100493020D01*
X152976053Y-100493020D01*
X152979988Y-100492523D01*
X152980053Y-100492515D01*
X152991890Y-100491582D01*
X153024148Y-100490568D01*
X153028167Y-100490442D01*
X153036086Y-100490193D01*
X153055540Y-100484541D01*
X153074897Y-100480533D01*
X153087127Y-100478988D01*
X153087128Y-100478988D01*
X153094994Y-100477994D01*
X153102365Y-100475075D01*
X153102367Y-100475075D01*
X153136109Y-100461716D01*
X153147339Y-100457871D01*
X153182180Y-100447749D01*
X153182181Y-100447749D01*
X153189790Y-100445538D01*
X153196609Y-100441505D01*
X153196614Y-100441503D01*
X153207225Y-100435227D01*
X153224973Y-100426532D01*
X153243814Y-100419072D01*
X153279584Y-100393084D01*
X153289504Y-100386568D01*
X153320732Y-100368100D01*
X153320735Y-100368098D01*
X153327559Y-100364062D01*
X153341880Y-100349741D01*
X153356914Y-100336900D01*
X153366891Y-100329651D01*
X153373304Y-100324992D01*
X153401495Y-100290915D01*
X153409485Y-100282136D01*
X160151714Y-93539908D01*
X160214026Y-93505882D01*
X160240809Y-93503003D01*
X160388371Y-93503003D01*
X160456492Y-93523005D01*
X160502985Y-93576661D01*
X160513089Y-93646935D01*
X160511753Y-93654554D01*
X160484787Y-93784767D01*
X160484521Y-93789378D01*
X160484521Y-93789379D01*
X160483958Y-93799153D01*
X160481500Y-93841775D01*
X160481500Y-105486999D01*
X160481749Y-105489786D01*
X160481749Y-105489792D01*
X160488009Y-105559929D01*
X160496383Y-105653762D01*
X160497864Y-105659176D01*
X160497865Y-105659181D01*
X160532809Y-105786912D01*
X160555663Y-105870451D01*
X160652378Y-106073218D01*
X160783471Y-106255654D01*
X160944799Y-106411992D01*
X161131262Y-106537290D01*
X161336967Y-106627588D01*
X161342418Y-106628897D01*
X161342422Y-106628898D01*
X161549954Y-106678722D01*
X161555411Y-106680032D01*
X161639475Y-106684879D01*
X161774083Y-106692640D01*
X161774086Y-106692640D01*
X161779690Y-106692963D01*
X162002715Y-106665975D01*
X162217435Y-106599918D01*
X162222415Y-106597348D01*
X162222419Y-106597346D01*
X162412081Y-106499454D01*
X162412082Y-106499454D01*
X162417064Y-106496882D01*
X162595292Y-106360123D01*
X162746485Y-106193964D01*
X162839012Y-106046463D01*
X162862885Y-106008405D01*
X162865864Y-106003656D01*
X162949656Y-105795217D01*
X162995213Y-105575233D01*
X162998500Y-105518225D01*
X162998500Y-93873001D01*
X162998251Y-93870215D01*
X162998157Y-93868096D01*
X163015109Y-93799153D01*
X163066643Y-93750319D01*
X163089686Y-93742136D01*
X163089548Y-93741711D01*
X163095832Y-93739669D01*
X163102288Y-93738297D01*
X163108319Y-93735612D01*
X163270722Y-93663306D01*
X163270724Y-93663305D01*
X163276752Y-93660621D01*
X163285103Y-93654554D01*
X163380462Y-93585271D01*
X163431253Y-93548369D01*
X163454091Y-93523005D01*
X163554621Y-93411355D01*
X163554622Y-93411354D01*
X163559040Y-93406447D01*
X163654527Y-93241059D01*
X163680040Y-93162539D01*
X163691417Y-93127525D01*
X163697241Y-93112815D01*
X163707493Y-93091028D01*
X163718884Y-93066821D01*
X163748876Y-92909597D01*
X163743309Y-92821103D01*
X163739324Y-92757765D01*
X163739324Y-92757763D01*
X163738826Y-92749853D01*
X163703330Y-92640606D01*
X163691815Y-92605168D01*
X163691815Y-92605167D01*
X163689365Y-92597628D01*
X163686028Y-92592369D01*
X163681452Y-92580811D01*
X163656568Y-92504229D01*
X163654527Y-92497947D01*
X163616886Y-92432751D01*
X163600148Y-92363756D01*
X163616885Y-92306753D01*
X163654527Y-92241556D01*
X163713542Y-92059928D01*
X163733504Y-91870000D01*
X163713542Y-91680072D01*
X163654527Y-91498444D01*
X163559040Y-91333056D01*
X163431253Y-91191134D01*
X163276752Y-91078882D01*
X163270724Y-91076198D01*
X163270722Y-91076197D01*
X163108319Y-91003891D01*
X163108318Y-91003891D01*
X163102288Y-91001206D01*
X163095832Y-90999834D01*
X163089548Y-90997792D01*
X163090066Y-90996197D01*
X163034956Y-90966441D01*
X163000638Y-90904290D01*
X162997840Y-90869676D01*
X162998395Y-90860052D01*
X162998395Y-90860040D01*
X162998500Y-90858225D01*
X162998500Y-87760620D01*
X166680881Y-87760620D01*
X166681571Y-87767185D01*
X166691638Y-87862963D01*
X166700843Y-87950548D01*
X166759858Y-88132176D01*
X166763161Y-88137898D01*
X166763162Y-88137899D01*
X166805271Y-88210833D01*
X166822009Y-88279828D01*
X166805272Y-88336831D01*
X166775473Y-88388444D01*
X166716458Y-88570072D01*
X166715768Y-88576633D01*
X166715768Y-88576635D01*
X166697186Y-88753435D01*
X166696496Y-88760000D01*
X166697186Y-88766565D01*
X166712308Y-88910439D01*
X166716458Y-88949928D01*
X166775473Y-89131556D01*
X166778776Y-89137278D01*
X166778777Y-89137279D01*
X166802079Y-89177639D01*
X166870960Y-89296944D01*
X166875378Y-89301851D01*
X166875379Y-89301852D01*
X166994325Y-89433955D01*
X166998747Y-89438866D01*
X167153248Y-89551118D01*
X167159276Y-89553802D01*
X167159278Y-89553803D01*
X167321681Y-89626109D01*
X167327712Y-89628794D01*
X167424147Y-89649292D01*
X167451697Y-89655148D01*
X167514170Y-89688877D01*
X167548492Y-89751026D01*
X167551500Y-89778395D01*
X167551500Y-97296999D01*
X167551749Y-97299786D01*
X167551749Y-97299792D01*
X167558009Y-97369929D01*
X167566383Y-97463762D01*
X167625663Y-97680451D01*
X167722378Y-97883218D01*
X167853471Y-98065654D01*
X168014799Y-98221992D01*
X168201262Y-98347290D01*
X168406967Y-98437588D01*
X168412418Y-98438897D01*
X168412422Y-98438898D01*
X168619954Y-98488722D01*
X168625411Y-98490032D01*
X168709475Y-98494879D01*
X168844083Y-98502640D01*
X168844086Y-98502640D01*
X168849690Y-98502963D01*
X169072715Y-98475975D01*
X169287435Y-98409918D01*
X169292415Y-98407348D01*
X169292419Y-98407346D01*
X169482081Y-98309454D01*
X169482082Y-98309454D01*
X169487064Y-98306882D01*
X169665292Y-98170123D01*
X169816485Y-98003964D01*
X169824047Y-97991910D01*
X169932885Y-97818405D01*
X169935864Y-97813656D01*
X170019656Y-97605217D01*
X170065213Y-97385233D01*
X170068500Y-97328225D01*
X170068500Y-91577966D01*
X180238257Y-91577966D01*
X180268565Y-91712446D01*
X180271645Y-91722275D01*
X180351770Y-91919603D01*
X180356413Y-91928794D01*
X180467694Y-92110388D01*
X180473777Y-92118699D01*
X180613213Y-92279667D01*
X180620580Y-92286883D01*
X180784434Y-92422916D01*
X180792881Y-92428831D01*
X180976756Y-92536279D01*
X180986042Y-92540729D01*
X181185001Y-92616703D01*
X181194899Y-92619579D01*
X181298250Y-92640606D01*
X181312299Y-92639410D01*
X181316000Y-92629065D01*
X181316000Y-92628517D01*
X181824000Y-92628517D01*
X181828064Y-92642359D01*
X181841478Y-92644393D01*
X181848184Y-92643534D01*
X181858262Y-92641392D01*
X182062255Y-92580191D01*
X182071842Y-92576433D01*
X182263095Y-92482739D01*
X182271945Y-92477464D01*
X182445328Y-92353792D01*
X182453200Y-92347139D01*
X182604052Y-92196812D01*
X182610730Y-92188965D01*
X182735003Y-92016020D01*
X182740313Y-92007183D01*
X182834670Y-91816267D01*
X182838469Y-91806672D01*
X182900377Y-91602910D01*
X182902555Y-91592837D01*
X182903986Y-91581962D01*
X182901775Y-91567778D01*
X182888617Y-91564000D01*
X181842115Y-91564000D01*
X181826876Y-91568475D01*
X181825671Y-91569865D01*
X181824000Y-91577548D01*
X181824000Y-92628517D01*
X181316000Y-92628517D01*
X181316000Y-91582115D01*
X181311525Y-91566876D01*
X181310135Y-91565671D01*
X181302452Y-91564000D01*
X180253225Y-91564000D01*
X180239694Y-91567973D01*
X180238257Y-91577966D01*
X170068500Y-91577966D01*
X170068500Y-89683001D01*
X170053617Y-89516238D01*
X170033513Y-89442749D01*
X169995817Y-89304960D01*
X169994337Y-89299549D01*
X169990368Y-89291226D01*
X169914208Y-89131556D01*
X169897622Y-89096782D01*
X169766529Y-88914346D01*
X169682834Y-88833240D01*
X169609229Y-88761911D01*
X169609226Y-88761909D01*
X169605201Y-88758008D01*
X169418738Y-88632710D01*
X169213033Y-88542412D01*
X169207582Y-88541103D01*
X169207578Y-88541102D01*
X169000046Y-88491278D01*
X169000045Y-88491278D01*
X168994589Y-88489968D01*
X168910525Y-88485121D01*
X168775917Y-88477360D01*
X168775914Y-88477360D01*
X168770310Y-88477037D01*
X168587476Y-88499162D01*
X168517448Y-88487488D01*
X168464846Y-88439806D01*
X168452509Y-88413010D01*
X168446569Y-88394729D01*
X168444527Y-88388444D01*
X168399114Y-88309786D01*
X168382376Y-88240792D01*
X168399113Y-88183789D01*
X168428912Y-88132176D01*
X168487927Y-87950548D01*
X168488369Y-87946344D01*
X168521678Y-87884649D01*
X168583827Y-87850327D01*
X168629597Y-87848670D01*
X168629963Y-87848724D01*
X168635411Y-87850032D01*
X168641008Y-87850355D01*
X168641010Y-87850355D01*
X168854083Y-87862640D01*
X168854086Y-87862640D01*
X168859690Y-87862963D01*
X169082715Y-87835975D01*
X169297435Y-87769918D01*
X169302415Y-87767348D01*
X169302419Y-87767346D01*
X169492081Y-87669454D01*
X169492082Y-87669454D01*
X169497064Y-87666882D01*
X169675292Y-87530123D01*
X169826485Y-87363964D01*
X169843629Y-87336635D01*
X169942885Y-87178405D01*
X169945864Y-87173656D01*
X170029656Y-86965217D01*
X170075213Y-86745233D01*
X170078500Y-86688225D01*
X170078500Y-79043001D01*
X170075551Y-79009952D01*
X170066655Y-78910284D01*
X170063617Y-78876238D01*
X170059244Y-78860250D01*
X170023492Y-78729569D01*
X170004337Y-78659549D01*
X169991123Y-78631844D01*
X169938536Y-78521595D01*
X169907622Y-78456782D01*
X169776529Y-78274346D01*
X169656494Y-78158024D01*
X169619229Y-78121911D01*
X169619226Y-78121909D01*
X169615201Y-78118008D01*
X169428738Y-77992710D01*
X169223033Y-77902412D01*
X169217582Y-77901103D01*
X169217578Y-77901102D01*
X169010046Y-77851278D01*
X169010045Y-77851278D01*
X169004589Y-77849968D01*
X168920525Y-77845121D01*
X168785917Y-77837360D01*
X168785914Y-77837360D01*
X168780310Y-77837037D01*
X168557285Y-77864025D01*
X168342565Y-77930082D01*
X168337585Y-77932652D01*
X168337581Y-77932654D01*
X168147919Y-78030546D01*
X168142936Y-78033118D01*
X167964708Y-78169877D01*
X167813515Y-78336036D01*
X167810537Y-78340783D01*
X167810535Y-78340786D01*
X167747519Y-78441243D01*
X167694136Y-78526344D01*
X167610344Y-78734783D01*
X167564787Y-78954767D01*
X167561500Y-79011775D01*
X167561500Y-86656999D01*
X167561749Y-86659784D01*
X167561749Y-86659794D01*
X167567497Y-86724200D01*
X167553629Y-86793829D01*
X167504319Y-86844907D01*
X167468195Y-86858646D01*
X167312097Y-86891826D01*
X167306067Y-86894511D01*
X167306066Y-86894511D01*
X167143663Y-86966817D01*
X167143661Y-86966818D01*
X167137633Y-86969502D01*
X167132292Y-86973382D01*
X167132291Y-86973383D01*
X167111107Y-86988774D01*
X166983132Y-87081754D01*
X166978711Y-87086664D01*
X166978710Y-87086665D01*
X166905072Y-87168449D01*
X166855345Y-87223676D01*
X166852044Y-87229394D01*
X166774350Y-87363964D01*
X166759858Y-87389064D01*
X166700843Y-87570692D01*
X166700153Y-87577253D01*
X166700153Y-87577255D01*
X166686899Y-87703365D01*
X166680881Y-87760620D01*
X162998500Y-87760620D01*
X162998500Y-79213001D01*
X162996419Y-79189677D01*
X162990615Y-79124653D01*
X162983617Y-79046238D01*
X162981968Y-79040208D01*
X162930423Y-78851795D01*
X162924337Y-78829549D01*
X162912982Y-78805741D01*
X162843251Y-78659549D01*
X162827622Y-78626782D01*
X162705465Y-78456782D01*
X162699805Y-78448905D01*
X162696529Y-78444346D01*
X162584762Y-78336036D01*
X162539229Y-78291911D01*
X162539226Y-78291909D01*
X162535201Y-78288008D01*
X162348738Y-78162710D01*
X162143033Y-78072412D01*
X162137582Y-78071103D01*
X162137578Y-78071102D01*
X161930046Y-78021278D01*
X161930045Y-78021278D01*
X161924589Y-78019968D01*
X161840525Y-78015121D01*
X161705917Y-78007360D01*
X161705914Y-78007360D01*
X161700310Y-78007037D01*
X161477285Y-78034025D01*
X161262565Y-78100082D01*
X161257585Y-78102652D01*
X161257581Y-78102654D01*
X161067919Y-78200546D01*
X161062936Y-78203118D01*
X160884708Y-78339877D01*
X160733515Y-78506036D01*
X160730537Y-78510783D01*
X160730535Y-78510786D01*
X160708224Y-78546353D01*
X160614136Y-78696344D01*
X160530344Y-78904783D01*
X160484787Y-79124767D01*
X160484521Y-79129378D01*
X160484521Y-79129379D01*
X160482971Y-79156270D01*
X160481500Y-79181775D01*
X160481500Y-90826999D01*
X160481749Y-90829786D01*
X160481749Y-90829792D01*
X160483059Y-90844470D01*
X160496383Y-90993762D01*
X160497864Y-90999176D01*
X160497865Y-90999181D01*
X160518935Y-91076197D01*
X160555663Y-91210451D01*
X160558075Y-91215509D01*
X160558077Y-91215513D01*
X160613280Y-91331248D01*
X160624553Y-91401344D01*
X160596140Y-91466407D01*
X160537061Y-91505780D01*
X160499554Y-91511492D01*
X160093774Y-91511492D01*
X160082591Y-91510965D01*
X160075098Y-91509290D01*
X160067172Y-91509539D01*
X160067171Y-91509539D01*
X160007008Y-91511430D01*
X160003050Y-91511492D01*
X159975151Y-91511492D01*
X159971161Y-91511996D01*
X159959327Y-91512928D01*
X159915118Y-91514318D01*
X159907504Y-91516530D01*
X159907499Y-91516531D01*
X159895666Y-91519969D01*
X159876303Y-91523980D01*
X159856210Y-91526518D01*
X159848843Y-91529435D01*
X159848838Y-91529436D01*
X159815099Y-91542794D01*
X159803872Y-91546638D01*
X159761414Y-91558974D01*
X159754588Y-91563011D01*
X159743979Y-91569285D01*
X159726231Y-91577980D01*
X159707390Y-91585440D01*
X159700974Y-91590102D01*
X159700973Y-91590102D01*
X159671620Y-91611428D01*
X159661700Y-91617944D01*
X159630472Y-91636412D01*
X159630469Y-91636414D01*
X159623645Y-91640450D01*
X159609324Y-91654771D01*
X159594291Y-91667611D01*
X159577900Y-91679520D01*
X159572849Y-91685626D01*
X159549709Y-91713597D01*
X159541719Y-91722376D01*
X152524499Y-98739595D01*
X152462187Y-98773621D01*
X152435404Y-98776500D01*
X136847331Y-98776500D01*
X136836148Y-98775973D01*
X136828655Y-98774298D01*
X136820729Y-98774547D01*
X136820728Y-98774547D01*
X136760578Y-98776438D01*
X136756619Y-98776500D01*
X136728708Y-98776500D01*
X136724774Y-98776997D01*
X136724773Y-98776997D01*
X136724708Y-98777005D01*
X136712871Y-98777938D01*
X136680613Y-98778952D01*
X136676594Y-98779078D01*
X136668675Y-98779327D01*
X136649221Y-98784979D01*
X136629864Y-98788987D01*
X136617634Y-98790532D01*
X136617633Y-98790532D01*
X136609767Y-98791526D01*
X136602396Y-98794445D01*
X136602394Y-98794445D01*
X136568652Y-98807804D01*
X136557422Y-98811649D01*
X136522581Y-98821771D01*
X136522580Y-98821771D01*
X136514971Y-98823982D01*
X136508152Y-98828015D01*
X136508147Y-98828017D01*
X136497536Y-98834293D01*
X136479788Y-98842988D01*
X136460947Y-98850448D01*
X136454531Y-98855110D01*
X136454530Y-98855110D01*
X136425177Y-98876436D01*
X136415257Y-98882952D01*
X136384029Y-98901420D01*
X136384026Y-98901422D01*
X136377202Y-98905458D01*
X136362881Y-98919779D01*
X136347848Y-98932619D01*
X136331457Y-98944528D01*
X136326406Y-98950634D01*
X136303266Y-98978605D01*
X136295276Y-98987384D01*
X130128064Y-105154595D01*
X130065752Y-105188621D01*
X130038969Y-105191500D01*
X129668004Y-105191500D01*
X129599883Y-105171498D01*
X129564791Y-105137771D01*
X129475136Y-105009730D01*
X129475134Y-105009727D01*
X129471977Y-105005219D01*
X129314781Y-104848023D01*
X129310273Y-104844866D01*
X129310270Y-104844864D01*
X129234505Y-104791813D01*
X129132677Y-104720512D01*
X129127695Y-104718189D01*
X129127690Y-104718186D01*
X128936178Y-104628883D01*
X128936177Y-104628882D01*
X128931196Y-104626560D01*
X128925888Y-104625138D01*
X128925886Y-104625137D01*
X128860051Y-104607497D01*
X128716463Y-104569022D01*
X128495000Y-104549647D01*
X128273537Y-104569022D01*
X128129949Y-104607497D01*
X128064114Y-104625137D01*
X128064112Y-104625138D01*
X128058804Y-104626560D01*
X128053823Y-104628882D01*
X128053822Y-104628883D01*
X127862311Y-104718186D01*
X127862306Y-104718189D01*
X127857324Y-104720512D01*
X127852817Y-104723668D01*
X127852815Y-104723669D01*
X127679730Y-104844864D01*
X127679727Y-104844866D01*
X127675219Y-104848023D01*
X127518023Y-105005219D01*
X127390512Y-105187324D01*
X127388189Y-105192306D01*
X127388186Y-105192311D01*
X127298883Y-105383822D01*
X127296560Y-105388804D01*
X127239022Y-105603537D01*
X127219647Y-105825000D01*
X127239022Y-106046463D01*
X127240446Y-106051776D01*
X127290579Y-106238873D01*
X127296560Y-106261196D01*
X127298882Y-106266177D01*
X127298883Y-106266178D01*
X127388186Y-106457689D01*
X127388189Y-106457694D01*
X127390512Y-106462676D01*
X127393668Y-106467183D01*
X127393669Y-106467185D01*
X127506902Y-106628898D01*
X127518023Y-106644781D01*
X127675219Y-106801977D01*
X127679727Y-106805134D01*
X127679730Y-106805136D01*
X127683949Y-106808090D01*
X127857323Y-106929488D01*
X127862305Y-106931811D01*
X127862310Y-106931814D01*
X127995826Y-106994073D01*
X128058804Y-107023440D01*
X128064112Y-107024862D01*
X128064114Y-107024863D01*
X128108335Y-107036712D01*
X128273537Y-107080978D01*
X128495000Y-107100353D01*
X128500475Y-107099874D01*
X128500482Y-107099874D01*
X128504128Y-107099555D01*
X128505715Y-107099874D01*
X128505981Y-107099874D01*
X128505981Y-107099927D01*
X128573733Y-107113542D01*
X128624727Y-107162941D01*
X128640918Y-107232067D01*
X128617167Y-107298973D01*
X128604207Y-107314170D01*
X128223782Y-107694595D01*
X128161470Y-107728621D01*
X128134687Y-107731500D01*
X127128004Y-107731500D01*
X127059883Y-107711498D01*
X127024791Y-107677771D01*
X126935136Y-107549730D01*
X126935134Y-107549727D01*
X126931977Y-107545219D01*
X126774781Y-107388023D01*
X126770273Y-107384866D01*
X126770270Y-107384864D01*
X126642229Y-107295209D01*
X126597901Y-107239752D01*
X126588500Y-107191996D01*
X126588500Y-95383768D01*
X126589027Y-95372585D01*
X126590702Y-95365092D01*
X126588562Y-95297001D01*
X126588500Y-95293044D01*
X126588500Y-95265144D01*
X126587996Y-95261153D01*
X126587063Y-95249311D01*
X126585923Y-95213036D01*
X126585674Y-95205111D01*
X126580021Y-95185652D01*
X126576012Y-95166293D01*
X126575846Y-95164983D01*
X126573474Y-95146203D01*
X126570558Y-95138837D01*
X126570556Y-95138831D01*
X126557200Y-95105098D01*
X126553355Y-95093868D01*
X126543230Y-95059017D01*
X126543230Y-95059016D01*
X126541019Y-95051407D01*
X126530705Y-95033966D01*
X126522008Y-95016213D01*
X126517472Y-95004758D01*
X126514552Y-94997383D01*
X126488563Y-94961612D01*
X126482047Y-94951692D01*
X126463578Y-94920463D01*
X126459542Y-94913638D01*
X126445221Y-94899317D01*
X126432380Y-94884283D01*
X126425131Y-94874306D01*
X126420472Y-94867893D01*
X126386395Y-94839702D01*
X126377616Y-94831712D01*
X121570405Y-90024500D01*
X121536379Y-89962188D01*
X121533500Y-89935405D01*
X121533500Y-88222524D01*
X121553502Y-88154403D01*
X121565858Y-88138221D01*
X121639040Y-88056944D01*
X121734527Y-87891556D01*
X121793542Y-87709928D01*
X121800667Y-87642143D01*
X121812814Y-87526565D01*
X121813504Y-87520000D01*
X121793542Y-87330072D01*
X121734527Y-87148444D01*
X121639040Y-86983056D01*
X121630331Y-86973383D01*
X121515675Y-86846045D01*
X121515674Y-86846044D01*
X121511253Y-86841134D01*
X121379257Y-86745233D01*
X121362094Y-86732763D01*
X121362093Y-86732762D01*
X121356752Y-86728882D01*
X121350724Y-86726198D01*
X121350722Y-86726197D01*
X121188319Y-86653891D01*
X121188318Y-86653891D01*
X121182288Y-86651206D01*
X121088888Y-86631353D01*
X121001944Y-86612872D01*
X121001939Y-86612872D01*
X120995487Y-86611500D01*
X120804513Y-86611500D01*
X120798061Y-86612872D01*
X120798056Y-86612872D01*
X120711112Y-86631353D01*
X120617712Y-86651206D01*
X120611682Y-86653891D01*
X120611681Y-86653891D01*
X120449278Y-86726197D01*
X120449276Y-86726198D01*
X120443248Y-86728882D01*
X120437907Y-86732762D01*
X120437906Y-86732763D01*
X120420743Y-86745233D01*
X120288747Y-86841134D01*
X120284326Y-86846044D01*
X120284325Y-86846045D01*
X120169670Y-86973383D01*
X120160960Y-86983056D01*
X120065473Y-87148444D01*
X120006458Y-87330072D01*
X119986496Y-87520000D01*
X114718000Y-87520000D01*
X114718000Y-79199328D01*
X114719500Y-79179943D01*
X114721805Y-79165142D01*
X114721805Y-79165139D01*
X114723186Y-79156270D01*
X114720941Y-79139101D01*
X114720587Y-79128924D01*
X115197418Y-79128924D01*
X115197835Y-79136150D01*
X115213179Y-79402257D01*
X115214004Y-79406462D01*
X115214005Y-79406470D01*
X115242848Y-79553483D01*
X115265889Y-79670923D01*
X115267276Y-79674974D01*
X115285275Y-79727544D01*
X115354573Y-79929950D01*
X115356499Y-79933779D01*
X115419495Y-80059032D01*
X115477591Y-80174544D01*
X115480017Y-80178073D01*
X115480020Y-80178079D01*
X115514642Y-80228454D01*
X115632666Y-80400179D01*
X115816929Y-80602681D01*
X116026969Y-80778302D01*
X116030595Y-80780577D01*
X116030597Y-80780578D01*
X116042429Y-80788000D01*
X116258901Y-80923792D01*
X116262803Y-80925554D01*
X116262807Y-80925556D01*
X116504520Y-81034694D01*
X116504524Y-81034696D01*
X116508432Y-81036460D01*
X116512551Y-81037680D01*
X116766832Y-81113002D01*
X116766837Y-81113003D01*
X116770945Y-81114220D01*
X116775179Y-81114868D01*
X116775184Y-81114869D01*
X117037340Y-81154984D01*
X117037342Y-81154984D01*
X117041582Y-81155633D01*
X117180913Y-81157822D01*
X117311045Y-81159867D01*
X117311051Y-81159867D01*
X117315336Y-81159934D01*
X117587141Y-81127042D01*
X117851967Y-81057566D01*
X118104914Y-80952792D01*
X118299510Y-80839079D01*
X118337598Y-80816822D01*
X118337599Y-80816821D01*
X118341301Y-80814658D01*
X118556754Y-80645722D01*
X118601539Y-80599508D01*
X118744303Y-80452186D01*
X118747286Y-80449108D01*
X118749819Y-80445660D01*
X118749823Y-80445655D01*
X118906834Y-80231909D01*
X118909372Y-80228454D01*
X118911418Y-80224686D01*
X119037962Y-79991621D01*
X119037963Y-79991619D01*
X119040012Y-79987845D01*
X119136789Y-79731732D01*
X119197912Y-79464854D01*
X119210031Y-79329075D01*
X119222031Y-79194616D01*
X119222251Y-79192151D01*
X119222341Y-79183599D01*
X119222666Y-79152485D01*
X119222692Y-79150000D01*
X119222523Y-79147519D01*
X119204362Y-78881123D01*
X119204361Y-78881117D01*
X119204070Y-78876846D01*
X119198433Y-78849623D01*
X119175790Y-78740284D01*
X119148550Y-78608747D01*
X119057157Y-78350664D01*
X119051590Y-78339877D01*
X118933550Y-78111178D01*
X118933549Y-78111177D01*
X118931585Y-78107371D01*
X118928270Y-78102654D01*
X118776619Y-77886877D01*
X118776614Y-77886871D01*
X118774155Y-77883372D01*
X118702189Y-77805927D01*
X118590703Y-77685954D01*
X118590700Y-77685951D01*
X118587782Y-77682811D01*
X118584466Y-77680097D01*
X118584463Y-77680094D01*
X118379233Y-77512114D01*
X118379226Y-77512109D01*
X118375915Y-77509399D01*
X118142472Y-77366345D01*
X118138555Y-77364626D01*
X118138552Y-77364624D01*
X117956506Y-77284712D01*
X117891775Y-77256297D01*
X117887647Y-77255121D01*
X117887644Y-77255120D01*
X117806557Y-77232022D01*
X117628462Y-77181290D01*
X117624220Y-77180686D01*
X117624214Y-77180685D01*
X117425596Y-77152418D01*
X117357406Y-77142713D01*
X117213671Y-77141961D01*
X117087908Y-77141302D01*
X117087902Y-77141302D01*
X117083622Y-77141280D01*
X117079378Y-77141839D01*
X117079374Y-77141839D01*
X116960397Y-77157503D01*
X116812177Y-77177016D01*
X116808037Y-77178149D01*
X116808035Y-77178149D01*
X116715360Y-77203502D01*
X116548093Y-77249261D01*
X116296257Y-77356678D01*
X116061329Y-77497280D01*
X116057978Y-77499964D01*
X116057976Y-77499966D01*
X116046202Y-77509399D01*
X115847657Y-77668463D01*
X115717209Y-77805927D01*
X115662716Y-77863351D01*
X115659194Y-77867062D01*
X115499428Y-78089400D01*
X115371314Y-78331364D01*
X115331399Y-78440439D01*
X115287234Y-78561127D01*
X115277225Y-78588477D01*
X115218899Y-78855980D01*
X115215058Y-78904783D01*
X115198003Y-79121496D01*
X115197418Y-79128924D01*
X114720587Y-79128924D01*
X114720108Y-79115161D01*
X114735710Y-78857230D01*
X114737544Y-78842126D01*
X114757215Y-78734783D01*
X114789040Y-78561121D01*
X114792679Y-78546353D01*
X114803763Y-78510786D01*
X114877675Y-78273592D01*
X114883070Y-78259370D01*
X114908387Y-78203118D01*
X115000316Y-77998860D01*
X115007385Y-77985391D01*
X115155182Y-77740905D01*
X115163825Y-77728383D01*
X115340016Y-77503493D01*
X115350106Y-77492105D01*
X115552105Y-77290106D01*
X115563493Y-77280016D01*
X115788383Y-77103825D01*
X115800905Y-77095182D01*
X116045391Y-76947385D01*
X116058860Y-76940316D01*
X116319373Y-76823069D01*
X116333592Y-76817675D01*
X116606359Y-76732678D01*
X116621121Y-76729040D01*
X116831352Y-76690514D01*
X116902126Y-76677544D01*
X116917230Y-76675710D01*
X117167929Y-76660545D01*
X117194639Y-76661802D01*
X117194859Y-76661805D01*
X117203730Y-76663186D01*
X117212632Y-76662022D01*
X117212635Y-76662022D01*
X117235251Y-76659064D01*
X117251589Y-76658000D01*
X137621906Y-76658000D01*
X137690027Y-76678002D01*
G37*
G04 #@! TD.AperFunction*
M02*
