G04 #@! TF.GenerationSoftware,KiCad,Pcbnew,(6.0.1-0)*
G04 #@! TF.CreationDate,2022-01-17T01:44:42+01:00*
G04 #@! TF.ProjectId,f_buzzer,665f6275-7a7a-4657-922e-6b696361645f,rev?*
G04 #@! TF.SameCoordinates,Original*
G04 #@! TF.FileFunction,Copper,L1,Top*
G04 #@! TF.FilePolarity,Positive*
%FSLAX46Y46*%
G04 Gerber Fmt 4.6, Leading zero omitted, Abs format (unit mm)*
G04 Created by KiCad (PCBNEW (6.0.1-0)) date 2022-01-17 01:44:42*
%MOMM*%
%LPD*%
G01*
G04 APERTURE LIST*
G04 Aperture macros list*
%AMRoundRect*
0 Rectangle with rounded corners*
0 $1 Rounding radius*
0 $2 $3 $4 $5 $6 $7 $8 $9 X,Y pos of 4 corners*
0 Add a 4 corners polygon primitive as box body*
4,1,4,$2,$3,$4,$5,$6,$7,$8,$9,$2,$3,0*
0 Add four circle primitives for the rounded corners*
1,1,$1+$1,$2,$3*
1,1,$1+$1,$4,$5*
1,1,$1+$1,$6,$7*
1,1,$1+$1,$8,$9*
0 Add four rect primitives between the rounded corners*
20,1,$1+$1,$2,$3,$4,$5,0*
20,1,$1+$1,$4,$5,$6,$7,0*
20,1,$1+$1,$6,$7,$8,$9,0*
20,1,$1+$1,$8,$9,$2,$3,0*%
G04 Aperture macros list end*
G04 #@! TA.AperFunction,ComponentPad*
%ADD10O,1.500000X9.000000*%
G04 #@! TD*
G04 #@! TA.AperFunction,SMDPad,CuDef*
%ADD11RoundRect,0.140000X0.140000X0.170000X-0.140000X0.170000X-0.140000X-0.170000X0.140000X-0.170000X0*%
G04 #@! TD*
G04 #@! TA.AperFunction,SMDPad,CuDef*
%ADD12RoundRect,0.135000X-0.185000X0.135000X-0.185000X-0.135000X0.185000X-0.135000X0.185000X0.135000X0*%
G04 #@! TD*
G04 #@! TA.AperFunction,SMDPad,CuDef*
%ADD13RoundRect,0.135000X0.135000X0.185000X-0.135000X0.185000X-0.135000X-0.185000X0.135000X-0.185000X0*%
G04 #@! TD*
G04 #@! TA.AperFunction,SMDPad,CuDef*
%ADD14RoundRect,0.135000X-0.135000X-0.185000X0.135000X-0.185000X0.135000X0.185000X-0.135000X0.185000X0*%
G04 #@! TD*
G04 #@! TA.AperFunction,ComponentPad*
%ADD15C,1.524000*%
G04 #@! TD*
G04 #@! TA.AperFunction,SMDPad,CuDef*
%ADD16RoundRect,0.150000X-0.150000X0.825000X-0.150000X-0.825000X0.150000X-0.825000X0.150000X0.825000X0*%
G04 #@! TD*
G04 #@! TA.AperFunction,ComponentPad*
%ADD17R,1.700000X1.700000*%
G04 #@! TD*
G04 #@! TA.AperFunction,ComponentPad*
%ADD18O,1.700000X1.700000*%
G04 #@! TD*
G04 #@! TA.AperFunction,SMDPad,CuDef*
%ADD19RoundRect,0.140000X-0.140000X-0.170000X0.140000X-0.170000X0.140000X0.170000X-0.140000X0.170000X0*%
G04 #@! TD*
G04 #@! TA.AperFunction,ComponentPad*
%ADD20O,1.500000X13.000000*%
G04 #@! TD*
G04 #@! TA.AperFunction,ViaPad*
%ADD21C,0.800000*%
G04 #@! TD*
G04 #@! TA.AperFunction,Conductor*
%ADD22C,0.250000*%
G04 #@! TD*
G04 APERTURE END LIST*
D10*
X168820000Y-82850000D03*
X168810000Y-93490000D03*
D11*
X125640000Y-82000000D03*
X124680000Y-82000000D03*
X136290000Y-87920000D03*
X135330000Y-87920000D03*
D12*
X135020000Y-84360000D03*
X135020000Y-85380000D03*
D13*
X133640000Y-93210000D03*
X132620000Y-93210000D03*
D14*
X130190000Y-82000000D03*
X131210000Y-82000000D03*
D15*
X131035000Y-108365000D03*
X128495000Y-105825000D03*
X125955000Y-108365000D03*
D16*
X132165000Y-85025000D03*
X130895000Y-85025000D03*
X129625000Y-85025000D03*
X128355000Y-85025000D03*
X127085000Y-85025000D03*
X125815000Y-85025000D03*
X124545000Y-85025000D03*
X123275000Y-85025000D03*
X123275000Y-89975000D03*
X124545000Y-89975000D03*
X125815000Y-89975000D03*
X127085000Y-89975000D03*
X128355000Y-89975000D03*
X129625000Y-89975000D03*
X130895000Y-89975000D03*
X132165000Y-89975000D03*
D17*
X181570000Y-86230000D03*
D18*
X181570000Y-88770000D03*
X181570000Y-91310000D03*
D19*
X126900000Y-93230000D03*
X127860000Y-93230000D03*
X129770000Y-93230000D03*
X130730000Y-93230000D03*
D11*
X128450000Y-82000000D03*
X127490000Y-82000000D03*
D20*
X161740000Y-85020000D03*
X161740000Y-99680000D03*
D21*
X167610000Y-88760000D03*
X120900000Y-87520000D03*
X162820000Y-92869503D03*
X162820000Y-91870000D03*
X167594385Y-87760620D03*
X139150000Y-100584020D03*
X132150000Y-82020000D03*
X134600000Y-93220000D03*
D22*
X124966072Y-87520000D02*
X120900000Y-87520000D01*
X127085000Y-85401072D02*
X124966072Y-87520000D01*
X167350000Y-88760000D02*
X163240497Y-92869503D01*
X167610000Y-88760000D02*
X167350000Y-88760000D01*
X127085000Y-85025000D02*
X127085000Y-85401072D01*
X163240497Y-92869503D02*
X162820000Y-92869503D01*
X163170000Y-91870000D02*
X162820000Y-91870000D01*
X167594385Y-87760620D02*
X167279380Y-87760620D01*
X167279380Y-87760620D02*
X163170000Y-91870000D01*
X125307590Y-81365480D02*
X126855480Y-81365480D01*
X124680000Y-82000000D02*
X124680000Y-81993070D01*
X124545000Y-82135000D02*
X124680000Y-82000000D01*
X127490000Y-82000000D02*
X127490000Y-81993070D01*
X129555480Y-81365480D02*
X130190000Y-82000000D01*
X124680000Y-81993070D02*
X125307590Y-81365480D01*
X124545000Y-85025000D02*
X124545000Y-82135000D01*
X127490000Y-81993070D02*
X128117590Y-81365480D01*
X126855480Y-81365480D02*
X127490000Y-82000000D01*
X128117590Y-81365480D02*
X129555480Y-81365480D01*
X128450000Y-82006930D02*
X127822410Y-82634520D01*
X128450000Y-82000000D02*
X128450000Y-82006930D01*
X125640000Y-82000000D02*
X125640000Y-84850000D01*
X125640000Y-84850000D02*
X125815000Y-85025000D01*
X127822410Y-82634520D02*
X126274520Y-82634520D01*
X126274520Y-82634520D02*
X125640000Y-82000000D01*
X130102410Y-93864520D02*
X130730000Y-93236930D01*
X130750000Y-93210000D02*
X130730000Y-93230000D01*
X130730000Y-93236930D02*
X130730000Y-93230000D01*
X132620000Y-93210000D02*
X130750000Y-93210000D01*
X128494520Y-93864520D02*
X130102410Y-93864520D01*
X130895000Y-89975000D02*
X130895000Y-93065000D01*
X130895000Y-93065000D02*
X130730000Y-93230000D01*
X127860000Y-93230000D02*
X128494520Y-93864520D01*
X129135480Y-92595480D02*
X129770000Y-93230000D01*
X126900000Y-93223070D02*
X127527590Y-92595480D01*
X129625000Y-89975000D02*
X129770000Y-90120000D01*
X126900000Y-93230000D02*
X126900000Y-93223070D01*
X127527590Y-92595480D02*
X129135480Y-92595480D01*
X129770000Y-90120000D02*
X129770000Y-93230000D01*
X136290000Y-86650000D02*
X136290000Y-87920000D01*
X139150000Y-100584020D02*
X139150000Y-90780000D01*
X135020000Y-85380000D02*
X136290000Y-86650000D01*
X139150000Y-90780000D02*
X136290000Y-87920000D01*
X130895000Y-85401072D02*
X130895000Y-85025000D01*
X131818448Y-86324520D02*
X130895000Y-85401072D01*
X130895000Y-85788928D02*
X130895000Y-85025000D01*
X127085000Y-89975000D02*
X127085000Y-89598928D01*
X133055480Y-86324520D02*
X131818448Y-86324520D01*
X135020000Y-84360000D02*
X133055480Y-86324520D01*
X127085000Y-89598928D02*
X130895000Y-85788928D01*
X132130000Y-82000000D02*
X132150000Y-82020000D01*
X132165000Y-91735000D02*
X132165000Y-89975000D01*
X133640000Y-93210000D02*
X132165000Y-91735000D01*
X134590000Y-93210000D02*
X134600000Y-93220000D01*
X133640000Y-93210000D02*
X134590000Y-93210000D01*
X131210000Y-82000000D02*
X132130000Y-82000000D01*
X124545000Y-89598928D02*
X128355000Y-85788928D01*
X124545000Y-89975000D02*
X124545000Y-89598928D01*
X128355000Y-85788928D02*
X128355000Y-85025000D01*
X129625000Y-84648928D02*
X129625000Y-85025000D01*
X169850000Y-77040000D02*
X139030000Y-77040000D01*
X139030000Y-77040000D02*
X132344520Y-83725480D01*
X129625000Y-85401072D02*
X129625000Y-85025000D01*
X130548448Y-83725480D02*
X129625000Y-84648928D01*
X132344520Y-83725480D02*
X130548448Y-83725480D01*
X125815000Y-89211072D02*
X129625000Y-85401072D01*
X181580000Y-88770000D02*
X169850000Y-77040000D01*
X125815000Y-89975000D02*
X125815000Y-89211072D01*
G04 #@! TA.AperFunction,Conductor*
G36*
X138280026Y-76678002D02*
G01*
X138326519Y-76731658D01*
X138336623Y-76801932D01*
X138307129Y-76866512D01*
X138301000Y-76873095D01*
X133258912Y-81915183D01*
X133196600Y-81949209D01*
X133125785Y-81944144D01*
X133068949Y-81901597D01*
X133045984Y-81843020D01*
X133045606Y-81843100D01*
X133045121Y-81840818D01*
X133044507Y-81839252D01*
X133044232Y-81836638D01*
X133043542Y-81830072D01*
X132984527Y-81648444D01*
X132889040Y-81483056D01*
X132761253Y-81341134D01*
X132637513Y-81251231D01*
X132612094Y-81232763D01*
X132612093Y-81232762D01*
X132606752Y-81228882D01*
X132600724Y-81226198D01*
X132600722Y-81226197D01*
X132438319Y-81153891D01*
X132438318Y-81153891D01*
X132432288Y-81151206D01*
X132318606Y-81127042D01*
X132251944Y-81112872D01*
X132251939Y-81112872D01*
X132245487Y-81111500D01*
X132054513Y-81111500D01*
X132048061Y-81112872D01*
X132048056Y-81112872D01*
X131981394Y-81127042D01*
X131867712Y-81151206D01*
X131861682Y-81153891D01*
X131861681Y-81153891D01*
X131708285Y-81222187D01*
X131637918Y-81231621D01*
X131608263Y-81223083D01*
X131602596Y-81219731D01*
X131594985Y-81217520D01*
X131594983Y-81217519D01*
X131471004Y-81181500D01*
X131446466Y-81174371D01*
X131440059Y-81173867D01*
X131440055Y-81173866D01*
X131412444Y-81171693D01*
X131412438Y-81171693D01*
X131409989Y-81171500D01*
X131210122Y-81171500D01*
X131010012Y-81171501D01*
X130973534Y-81174371D01*
X130876730Y-81202495D01*
X130825017Y-81217519D01*
X130825015Y-81217520D01*
X130817404Y-81219731D01*
X130810579Y-81223767D01*
X130810575Y-81223769D01*
X130764139Y-81251231D01*
X130695323Y-81268691D01*
X130635861Y-81251231D01*
X130589425Y-81223769D01*
X130589421Y-81223767D01*
X130582596Y-81219731D01*
X130574985Y-81217520D01*
X130574983Y-81217519D01*
X130451004Y-81181500D01*
X130426466Y-81174371D01*
X130420059Y-81173867D01*
X130420055Y-81173866D01*
X130392444Y-81171693D01*
X130392438Y-81171693D01*
X130389989Y-81171500D01*
X130309595Y-81171500D01*
X130241474Y-81151498D01*
X130220500Y-81134595D01*
X130059132Y-80973227D01*
X130051592Y-80964941D01*
X130047480Y-80958462D01*
X129997828Y-80911836D01*
X129994987Y-80909082D01*
X129975250Y-80889345D01*
X129972053Y-80886865D01*
X129963031Y-80879160D01*
X129949596Y-80866544D01*
X129930801Y-80848894D01*
X129923855Y-80845075D01*
X129923852Y-80845073D01*
X129913046Y-80839132D01*
X129896527Y-80828281D01*
X129896063Y-80827921D01*
X129880521Y-80815866D01*
X129873252Y-80812721D01*
X129873248Y-80812718D01*
X129839943Y-80798306D01*
X129829293Y-80793089D01*
X129790540Y-80771785D01*
X129770917Y-80766747D01*
X129752214Y-80760343D01*
X129740900Y-80755447D01*
X129740899Y-80755447D01*
X129733625Y-80752299D01*
X129725802Y-80751060D01*
X129725792Y-80751057D01*
X129689956Y-80745381D01*
X129678336Y-80742975D01*
X129643191Y-80733952D01*
X129643190Y-80733952D01*
X129635510Y-80731980D01*
X129615256Y-80731980D01*
X129595545Y-80730429D01*
X129583366Y-80728500D01*
X129575537Y-80727260D01*
X129546266Y-80730027D01*
X129531519Y-80731421D01*
X129519661Y-80731980D01*
X128196357Y-80731980D01*
X128185174Y-80731453D01*
X128177681Y-80729778D01*
X128169755Y-80730027D01*
X128169754Y-80730027D01*
X128109604Y-80731918D01*
X128105645Y-80731980D01*
X128077734Y-80731980D01*
X128073800Y-80732477D01*
X128073799Y-80732477D01*
X128073734Y-80732485D01*
X128061897Y-80733418D01*
X128030080Y-80734418D01*
X128025619Y-80734558D01*
X128017700Y-80734807D01*
X128000044Y-80739936D01*
X127998248Y-80740458D01*
X127978896Y-80744466D01*
X127971825Y-80745360D01*
X127958793Y-80747006D01*
X127951424Y-80749923D01*
X127951422Y-80749924D01*
X127917687Y-80763280D01*
X127906459Y-80767125D01*
X127863997Y-80779462D01*
X127857175Y-80783496D01*
X127857169Y-80783499D01*
X127846558Y-80789774D01*
X127828808Y-80798470D01*
X127817346Y-80803008D01*
X127817341Y-80803011D01*
X127809973Y-80805928D01*
X127794979Y-80816822D01*
X127774215Y-80831907D01*
X127764297Y-80838423D01*
X127753053Y-80845073D01*
X127726227Y-80860938D01*
X127711903Y-80875262D01*
X127696871Y-80888101D01*
X127680483Y-80900008D01*
X127662691Y-80921515D01*
X127652302Y-80934073D01*
X127644312Y-80942853D01*
X127575630Y-81011535D01*
X127513318Y-81045561D01*
X127442503Y-81040496D01*
X127397440Y-81011535D01*
X127359132Y-80973227D01*
X127351592Y-80964941D01*
X127347480Y-80958462D01*
X127297828Y-80911836D01*
X127294987Y-80909082D01*
X127275250Y-80889345D01*
X127272053Y-80886865D01*
X127263031Y-80879160D01*
X127249596Y-80866544D01*
X127230801Y-80848894D01*
X127223855Y-80845075D01*
X127223852Y-80845073D01*
X127213046Y-80839132D01*
X127196527Y-80828281D01*
X127196063Y-80827921D01*
X127180521Y-80815866D01*
X127173252Y-80812721D01*
X127173248Y-80812718D01*
X127139943Y-80798306D01*
X127129293Y-80793089D01*
X127090540Y-80771785D01*
X127070917Y-80766747D01*
X127052214Y-80760343D01*
X127040900Y-80755447D01*
X127040899Y-80755447D01*
X127033625Y-80752299D01*
X127025802Y-80751060D01*
X127025792Y-80751057D01*
X126989956Y-80745381D01*
X126978336Y-80742975D01*
X126943191Y-80733952D01*
X126943190Y-80733952D01*
X126935510Y-80731980D01*
X126915256Y-80731980D01*
X126895545Y-80730429D01*
X126883366Y-80728500D01*
X126875537Y-80727260D01*
X126846266Y-80730027D01*
X126831519Y-80731421D01*
X126819661Y-80731980D01*
X125386357Y-80731980D01*
X125375174Y-80731453D01*
X125367681Y-80729778D01*
X125359755Y-80730027D01*
X125359754Y-80730027D01*
X125299604Y-80731918D01*
X125295645Y-80731980D01*
X125267734Y-80731980D01*
X125263800Y-80732477D01*
X125263799Y-80732477D01*
X125263734Y-80732485D01*
X125251897Y-80733418D01*
X125220080Y-80734418D01*
X125215619Y-80734558D01*
X125207700Y-80734807D01*
X125190044Y-80739936D01*
X125188248Y-80740458D01*
X125168896Y-80744466D01*
X125161825Y-80745360D01*
X125148793Y-80747006D01*
X125141424Y-80749923D01*
X125141422Y-80749924D01*
X125107687Y-80763280D01*
X125096459Y-80767125D01*
X125053997Y-80779462D01*
X125047175Y-80783496D01*
X125047169Y-80783499D01*
X125036558Y-80789774D01*
X125018808Y-80798470D01*
X125007346Y-80803008D01*
X125007341Y-80803011D01*
X124999973Y-80805928D01*
X124984979Y-80816822D01*
X124964215Y-80831907D01*
X124954297Y-80838423D01*
X124943053Y-80845073D01*
X124916227Y-80860938D01*
X124901903Y-80875262D01*
X124886871Y-80888101D01*
X124870483Y-80900008D01*
X124852691Y-80921515D01*
X124842302Y-80934073D01*
X124834312Y-80942853D01*
X124632570Y-81144595D01*
X124570258Y-81178621D01*
X124543475Y-81181500D01*
X124474516Y-81181500D01*
X124472068Y-81181693D01*
X124472060Y-81181693D01*
X124444156Y-81183889D01*
X124444151Y-81183890D01*
X124437746Y-81184394D01*
X124338995Y-81213084D01*
X124288016Y-81227894D01*
X124288014Y-81227895D01*
X124280403Y-81230106D01*
X124273581Y-81234141D01*
X124273580Y-81234141D01*
X124241028Y-81253392D01*
X124139371Y-81313512D01*
X124023512Y-81429371D01*
X123940106Y-81570403D01*
X123894394Y-81727746D01*
X123891500Y-81764516D01*
X123891500Y-82235484D01*
X123891693Y-82237932D01*
X123891693Y-82237940D01*
X123893889Y-82265841D01*
X123894394Y-82272254D01*
X123896189Y-82278431D01*
X123906497Y-82313912D01*
X123911500Y-82349065D01*
X123911500Y-83502357D01*
X123891498Y-83570478D01*
X123837842Y-83616971D01*
X123767568Y-83627075D01*
X123721361Y-83610811D01*
X123695221Y-83595352D01*
X123680790Y-83589107D01*
X123546395Y-83550061D01*
X123532294Y-83550101D01*
X123529000Y-83557370D01*
X123529000Y-86486878D01*
X123532973Y-86500409D01*
X123540871Y-86501544D01*
X123680790Y-86460893D01*
X123695221Y-86454648D01*
X123824676Y-86378090D01*
X123832364Y-86372126D01*
X123898449Y-86346179D01*
X123968072Y-86360080D01*
X123984158Y-86370418D01*
X123988193Y-86374453D01*
X123995023Y-86378492D01*
X123995024Y-86378493D01*
X124025315Y-86396407D01*
X124131399Y-86459145D01*
X124139010Y-86461356D01*
X124139012Y-86461357D01*
X124191231Y-86476528D01*
X124291169Y-86505562D01*
X124297574Y-86506066D01*
X124297579Y-86506067D01*
X124326042Y-86508307D01*
X124326050Y-86508307D01*
X124328498Y-86508500D01*
X124761502Y-86508500D01*
X124763963Y-86508306D01*
X124763971Y-86508306D01*
X124768537Y-86507947D01*
X124838017Y-86522545D01*
X124888574Y-86572390D01*
X124904158Y-86641655D01*
X124879820Y-86708350D01*
X124867517Y-86722650D01*
X124740571Y-86849596D01*
X124678259Y-86883621D01*
X124651476Y-86886500D01*
X121608200Y-86886500D01*
X121540079Y-86866498D01*
X121520853Y-86850157D01*
X121520580Y-86850460D01*
X121515668Y-86846037D01*
X121511253Y-86841134D01*
X121393969Y-86755922D01*
X121362094Y-86732763D01*
X121362093Y-86732762D01*
X121356752Y-86728882D01*
X121350724Y-86726198D01*
X121350722Y-86726197D01*
X121188319Y-86653891D01*
X121188318Y-86653891D01*
X121182288Y-86651206D01*
X121088888Y-86631353D01*
X121001944Y-86612872D01*
X121001939Y-86612872D01*
X120995487Y-86611500D01*
X120804513Y-86611500D01*
X120798061Y-86612872D01*
X120798056Y-86612872D01*
X120711112Y-86631353D01*
X120617712Y-86651206D01*
X120611682Y-86653891D01*
X120611681Y-86653891D01*
X120449278Y-86726197D01*
X120449276Y-86726198D01*
X120443248Y-86728882D01*
X120437907Y-86732762D01*
X120437906Y-86732763D01*
X120420743Y-86745233D01*
X120288747Y-86841134D01*
X120284326Y-86846044D01*
X120284325Y-86846045D01*
X120169670Y-86973383D01*
X120160960Y-86983056D01*
X120065473Y-87148444D01*
X120006458Y-87330072D01*
X120005768Y-87336633D01*
X120005768Y-87336635D01*
X120002896Y-87363964D01*
X119986496Y-87520000D01*
X119987186Y-87526565D01*
X120001225Y-87660135D01*
X120006458Y-87709928D01*
X120065473Y-87891556D01*
X120160960Y-88056944D01*
X120165378Y-88061851D01*
X120165379Y-88061852D01*
X120284325Y-88193955D01*
X120288747Y-88198866D01*
X120443248Y-88311118D01*
X120449276Y-88313802D01*
X120449278Y-88313803D01*
X120611681Y-88386109D01*
X120617712Y-88388794D01*
X120711113Y-88408647D01*
X120798056Y-88427128D01*
X120798061Y-88427128D01*
X120804513Y-88428500D01*
X120995487Y-88428500D01*
X121001939Y-88427128D01*
X121001944Y-88427128D01*
X121088887Y-88408647D01*
X121182288Y-88388794D01*
X121188319Y-88386109D01*
X121350722Y-88313803D01*
X121350724Y-88313802D01*
X121356752Y-88311118D01*
X121511253Y-88198866D01*
X121515668Y-88193963D01*
X121520580Y-88189540D01*
X121521705Y-88190789D01*
X121575014Y-88157949D01*
X121608200Y-88153500D01*
X124790333Y-88153500D01*
X124858454Y-88173502D01*
X124904947Y-88227158D01*
X124915051Y-88297432D01*
X124885557Y-88362012D01*
X124879428Y-88368595D01*
X124793428Y-88454595D01*
X124731116Y-88488621D01*
X124704333Y-88491500D01*
X124328498Y-88491500D01*
X124326050Y-88491693D01*
X124326042Y-88491693D01*
X124297579Y-88493933D01*
X124297574Y-88493934D01*
X124291169Y-88494438D01*
X124204202Y-88519704D01*
X124139012Y-88538643D01*
X124139010Y-88538644D01*
X124131399Y-88540855D01*
X123988193Y-88625547D01*
X123985253Y-88628487D01*
X123920729Y-88653821D01*
X123851106Y-88639920D01*
X123832360Y-88627871D01*
X123824677Y-88621911D01*
X123695221Y-88545352D01*
X123680790Y-88539107D01*
X123546395Y-88500061D01*
X123532294Y-88500101D01*
X123529000Y-88507370D01*
X123529000Y-91436878D01*
X123532973Y-91450409D01*
X123540871Y-91451544D01*
X123680790Y-91410893D01*
X123695221Y-91404648D01*
X123824676Y-91328090D01*
X123832364Y-91322126D01*
X123898449Y-91296179D01*
X123968072Y-91310080D01*
X123984158Y-91320418D01*
X123988193Y-91324453D01*
X123995021Y-91328491D01*
X123995024Y-91328493D01*
X124005109Y-91334457D01*
X124131399Y-91409145D01*
X124139010Y-91411356D01*
X124139012Y-91411357D01*
X124191231Y-91426528D01*
X124291169Y-91455562D01*
X124297574Y-91456066D01*
X124297579Y-91456067D01*
X124326042Y-91458307D01*
X124326050Y-91458307D01*
X124328498Y-91458500D01*
X124761502Y-91458500D01*
X124763950Y-91458307D01*
X124763958Y-91458307D01*
X124792421Y-91456067D01*
X124792426Y-91456066D01*
X124798831Y-91455562D01*
X124898769Y-91426528D01*
X124950988Y-91411357D01*
X124950990Y-91411356D01*
X124958601Y-91409145D01*
X125101807Y-91324453D01*
X125104489Y-91321771D01*
X125168861Y-91296498D01*
X125238484Y-91310400D01*
X125254312Y-91320572D01*
X125258193Y-91324453D01*
X125401399Y-91409145D01*
X125409010Y-91411356D01*
X125409012Y-91411357D01*
X125461231Y-91426528D01*
X125561169Y-91455562D01*
X125567574Y-91456066D01*
X125567579Y-91456067D01*
X125596042Y-91458307D01*
X125596050Y-91458307D01*
X125598498Y-91458500D01*
X126031502Y-91458500D01*
X126033950Y-91458307D01*
X126033958Y-91458307D01*
X126062421Y-91456067D01*
X126062426Y-91456066D01*
X126068831Y-91455562D01*
X126168769Y-91426528D01*
X126220988Y-91411357D01*
X126220990Y-91411356D01*
X126228601Y-91409145D01*
X126371807Y-91324453D01*
X126374489Y-91321771D01*
X126438861Y-91296498D01*
X126508484Y-91310400D01*
X126524312Y-91320572D01*
X126528193Y-91324453D01*
X126671399Y-91409145D01*
X126679010Y-91411356D01*
X126679012Y-91411357D01*
X126731231Y-91426528D01*
X126831169Y-91455562D01*
X126837574Y-91456066D01*
X126837579Y-91456067D01*
X126866042Y-91458307D01*
X126866050Y-91458307D01*
X126868498Y-91458500D01*
X127301502Y-91458500D01*
X127303950Y-91458307D01*
X127303958Y-91458307D01*
X127332421Y-91456067D01*
X127332426Y-91456066D01*
X127338831Y-91455562D01*
X127438769Y-91426528D01*
X127490988Y-91411357D01*
X127490990Y-91411356D01*
X127498601Y-91409145D01*
X127641807Y-91324453D01*
X127644489Y-91321771D01*
X127708861Y-91296498D01*
X127778484Y-91310400D01*
X127794312Y-91320572D01*
X127798193Y-91324453D01*
X127941399Y-91409145D01*
X127949010Y-91411356D01*
X127949012Y-91411357D01*
X128001231Y-91426528D01*
X128101169Y-91455562D01*
X128107574Y-91456066D01*
X128107579Y-91456067D01*
X128136042Y-91458307D01*
X128136050Y-91458307D01*
X128138498Y-91458500D01*
X128571502Y-91458500D01*
X128573950Y-91458307D01*
X128573958Y-91458307D01*
X128602421Y-91456067D01*
X128602426Y-91456066D01*
X128608831Y-91455562D01*
X128708769Y-91426528D01*
X128760988Y-91411357D01*
X128760990Y-91411356D01*
X128768601Y-91409145D01*
X128911807Y-91324453D01*
X128914489Y-91321771D01*
X128978861Y-91296498D01*
X129048484Y-91310400D01*
X129064314Y-91320574D01*
X129068193Y-91324453D01*
X129075016Y-91328488D01*
X129081281Y-91333348D01*
X129080421Y-91334457D01*
X129123093Y-91380162D01*
X129136500Y-91436719D01*
X129136500Y-91835980D01*
X129116498Y-91904101D01*
X129062842Y-91950594D01*
X129010500Y-91961980D01*
X127606357Y-91961980D01*
X127595174Y-91961453D01*
X127587681Y-91959778D01*
X127579755Y-91960027D01*
X127579754Y-91960027D01*
X127519604Y-91961918D01*
X127515645Y-91961980D01*
X127487734Y-91961980D01*
X127483800Y-91962477D01*
X127483799Y-91962477D01*
X127483734Y-91962485D01*
X127471897Y-91963418D01*
X127440080Y-91964418D01*
X127435619Y-91964558D01*
X127427700Y-91964807D01*
X127413618Y-91968898D01*
X127408248Y-91970458D01*
X127388896Y-91974466D01*
X127381825Y-91975360D01*
X127368793Y-91977006D01*
X127361424Y-91979923D01*
X127361422Y-91979924D01*
X127327687Y-91993280D01*
X127316459Y-91997125D01*
X127273997Y-92009462D01*
X127267175Y-92013496D01*
X127267169Y-92013499D01*
X127256558Y-92019774D01*
X127238808Y-92028470D01*
X127227346Y-92033008D01*
X127227341Y-92033011D01*
X127219973Y-92035928D01*
X127202560Y-92048579D01*
X127184215Y-92061907D01*
X127174297Y-92068423D01*
X127155609Y-92079475D01*
X127136227Y-92090938D01*
X127121903Y-92105262D01*
X127106871Y-92118101D01*
X127090483Y-92130008D01*
X127062302Y-92164073D01*
X127054312Y-92172853D01*
X126852570Y-92374595D01*
X126790258Y-92408621D01*
X126763475Y-92411500D01*
X126694516Y-92411500D01*
X126692068Y-92411693D01*
X126692060Y-92411693D01*
X126664156Y-92413889D01*
X126664151Y-92413890D01*
X126657746Y-92414394D01*
X126560147Y-92442749D01*
X126508016Y-92457894D01*
X126508014Y-92457895D01*
X126500403Y-92460106D01*
X126493581Y-92464141D01*
X126493580Y-92464141D01*
X126446094Y-92492224D01*
X126359371Y-92543512D01*
X126243512Y-92659371D01*
X126160106Y-92800403D01*
X126114394Y-92957746D01*
X126111500Y-92994516D01*
X126111500Y-93465484D01*
X126111693Y-93467932D01*
X126111693Y-93467940D01*
X126113765Y-93494259D01*
X126114394Y-93502254D01*
X126160106Y-93659597D01*
X126243512Y-93800629D01*
X126359371Y-93916488D01*
X126366192Y-93920522D01*
X126438949Y-93963550D01*
X126500403Y-93999894D01*
X126508014Y-94002105D01*
X126508016Y-94002106D01*
X126548278Y-94013803D01*
X126657746Y-94045606D01*
X126664151Y-94046110D01*
X126664156Y-94046111D01*
X126692060Y-94048307D01*
X126692068Y-94048307D01*
X126694516Y-94048500D01*
X127105484Y-94048500D01*
X127107932Y-94048307D01*
X127107940Y-94048307D01*
X127135844Y-94046111D01*
X127135849Y-94046110D01*
X127142254Y-94045606D01*
X127251722Y-94013803D01*
X127291984Y-94002106D01*
X127291986Y-94002105D01*
X127299597Y-93999894D01*
X127306422Y-93995858D01*
X127315863Y-93990275D01*
X127384680Y-93972817D01*
X127444137Y-93990275D01*
X127453578Y-93995858D01*
X127460403Y-93999894D01*
X127468014Y-94002105D01*
X127468016Y-94002106D01*
X127508278Y-94013803D01*
X127617746Y-94045606D01*
X127624151Y-94046110D01*
X127624156Y-94046111D01*
X127652060Y-94048307D01*
X127652068Y-94048307D01*
X127654516Y-94048500D01*
X127730405Y-94048500D01*
X127798526Y-94068502D01*
X127819500Y-94085405D01*
X127990868Y-94256773D01*
X127998408Y-94265059D01*
X128002520Y-94271538D01*
X128008297Y-94276963D01*
X128052171Y-94318163D01*
X128055013Y-94320918D01*
X128074750Y-94340655D01*
X128077947Y-94343135D01*
X128086967Y-94350838D01*
X128119199Y-94381106D01*
X128126145Y-94384925D01*
X128126148Y-94384927D01*
X128136954Y-94390868D01*
X128153473Y-94401719D01*
X128169479Y-94414134D01*
X128176748Y-94417279D01*
X128176752Y-94417282D01*
X128210057Y-94431694D01*
X128220707Y-94436911D01*
X128259460Y-94458215D01*
X128267135Y-94460186D01*
X128267136Y-94460186D01*
X128279082Y-94463253D01*
X128297787Y-94469657D01*
X128316375Y-94477701D01*
X128324198Y-94478940D01*
X128324208Y-94478943D01*
X128360044Y-94484619D01*
X128371664Y-94487025D01*
X128403479Y-94495193D01*
X128414490Y-94498020D01*
X128434744Y-94498020D01*
X128454454Y-94499571D01*
X128474463Y-94502740D01*
X128482355Y-94501994D01*
X128501100Y-94500222D01*
X128518482Y-94498579D01*
X128530339Y-94498020D01*
X130023643Y-94498020D01*
X130034826Y-94498547D01*
X130042319Y-94500222D01*
X130050245Y-94499973D01*
X130050246Y-94499973D01*
X130110396Y-94498082D01*
X130114355Y-94498020D01*
X130142266Y-94498020D01*
X130146201Y-94497523D01*
X130146266Y-94497515D01*
X130158103Y-94496582D01*
X130190361Y-94495568D01*
X130194380Y-94495442D01*
X130202299Y-94495193D01*
X130221753Y-94489541D01*
X130241110Y-94485533D01*
X130253340Y-94483988D01*
X130253341Y-94483988D01*
X130261207Y-94482994D01*
X130268578Y-94480075D01*
X130268580Y-94480075D01*
X130302322Y-94466716D01*
X130313552Y-94462871D01*
X130348393Y-94452749D01*
X130348394Y-94452749D01*
X130356003Y-94450538D01*
X130362822Y-94446505D01*
X130362827Y-94446503D01*
X130373438Y-94440227D01*
X130391186Y-94431532D01*
X130410027Y-94424072D01*
X130445797Y-94398084D01*
X130455717Y-94391568D01*
X130486945Y-94373100D01*
X130486948Y-94373098D01*
X130493772Y-94369062D01*
X130508093Y-94354741D01*
X130523127Y-94341900D01*
X130533104Y-94334651D01*
X130539517Y-94329992D01*
X130567708Y-94295915D01*
X130575698Y-94287136D01*
X130777429Y-94085405D01*
X130839741Y-94051379D01*
X130866524Y-94048500D01*
X130935484Y-94048500D01*
X130937932Y-94048307D01*
X130937940Y-94048307D01*
X130965844Y-94046111D01*
X130965849Y-94046110D01*
X130972254Y-94045606D01*
X131081722Y-94013803D01*
X131121984Y-94002106D01*
X131121986Y-94002105D01*
X131129597Y-93999894D01*
X131191052Y-93963550D01*
X131263808Y-93920522D01*
X131270629Y-93916488D01*
X131306712Y-93880405D01*
X131369024Y-93846379D01*
X131395807Y-93843500D01*
X131971263Y-93843500D01*
X132039384Y-93863502D01*
X132060358Y-93880405D01*
X132087459Y-93907506D01*
X132094280Y-93911540D01*
X132182225Y-93963550D01*
X132227404Y-93990269D01*
X132235015Y-93992480D01*
X132235017Y-93992481D01*
X132308408Y-94013803D01*
X132383534Y-94035629D01*
X132389941Y-94036133D01*
X132389945Y-94036134D01*
X132417556Y-94038307D01*
X132417562Y-94038307D01*
X132420011Y-94038500D01*
X132619878Y-94038500D01*
X132819988Y-94038499D01*
X132856466Y-94035629D01*
X132979467Y-93999894D01*
X133004983Y-93992481D01*
X133004985Y-93992480D01*
X133012596Y-93990269D01*
X133019421Y-93986233D01*
X133019425Y-93986231D01*
X133065861Y-93958769D01*
X133134677Y-93941309D01*
X133194139Y-93958769D01*
X133240575Y-93986231D01*
X133240579Y-93986233D01*
X133247404Y-93990269D01*
X133255015Y-93992480D01*
X133255017Y-93992481D01*
X133328408Y-94013803D01*
X133403534Y-94035629D01*
X133409941Y-94036133D01*
X133409945Y-94036134D01*
X133437556Y-94038307D01*
X133437562Y-94038307D01*
X133440011Y-94038500D01*
X133639878Y-94038500D01*
X133839988Y-94038499D01*
X133876466Y-94035629D01*
X134031866Y-93990481D01*
X134102861Y-93990684D01*
X134131641Y-94004886D01*
X134132189Y-94003936D01*
X134137907Y-94007237D01*
X134143248Y-94011118D01*
X134149276Y-94013802D01*
X134149278Y-94013803D01*
X134233676Y-94051379D01*
X134317712Y-94088794D01*
X134411112Y-94108647D01*
X134498056Y-94127128D01*
X134498061Y-94127128D01*
X134504513Y-94128500D01*
X134695487Y-94128500D01*
X134701939Y-94127128D01*
X134701944Y-94127128D01*
X134788887Y-94108647D01*
X134882288Y-94088794D01*
X134966324Y-94051379D01*
X135050722Y-94013803D01*
X135050724Y-94013802D01*
X135056752Y-94011118D01*
X135072201Y-93999894D01*
X135152835Y-93941309D01*
X135211253Y-93898866D01*
X135234542Y-93873001D01*
X135334621Y-93761852D01*
X135334622Y-93761851D01*
X135339040Y-93756944D01*
X135434527Y-93591556D01*
X135493542Y-93409928D01*
X135497314Y-93374045D01*
X135512814Y-93226565D01*
X135513504Y-93220000D01*
X135512814Y-93213435D01*
X135494232Y-93036635D01*
X135494232Y-93036633D01*
X135493542Y-93030072D01*
X135434527Y-92848444D01*
X135406791Y-92800403D01*
X135382559Y-92758433D01*
X135339040Y-92683056D01*
X135324617Y-92667037D01*
X135215675Y-92546045D01*
X135215674Y-92546044D01*
X135211253Y-92541134D01*
X135099728Y-92460106D01*
X135062094Y-92432763D01*
X135062093Y-92432762D01*
X135056752Y-92428882D01*
X135050724Y-92426198D01*
X135050722Y-92426197D01*
X134888319Y-92353891D01*
X134888318Y-92353891D01*
X134882288Y-92351206D01*
X134788888Y-92331353D01*
X134701944Y-92312872D01*
X134701939Y-92312872D01*
X134695487Y-92311500D01*
X134504513Y-92311500D01*
X134498061Y-92312872D01*
X134498056Y-92312872D01*
X134411112Y-92331353D01*
X134317712Y-92351206D01*
X134311682Y-92353891D01*
X134311681Y-92353891D01*
X134276059Y-92369751D01*
X134143248Y-92428882D01*
X134142714Y-92427682D01*
X134080603Y-92442749D01*
X134037822Y-92432821D01*
X134032596Y-92429731D01*
X134024985Y-92427520D01*
X134024983Y-92427519D01*
X133882644Y-92386166D01*
X133882645Y-92386166D01*
X133876466Y-92384371D01*
X133870059Y-92383867D01*
X133870055Y-92383866D01*
X133842444Y-92381693D01*
X133842438Y-92381693D01*
X133839989Y-92381500D01*
X133759595Y-92381500D01*
X133691474Y-92361498D01*
X133670500Y-92344595D01*
X132835405Y-91509500D01*
X132801379Y-91447188D01*
X132798500Y-91420405D01*
X132798500Y-91299950D01*
X132818502Y-91231829D01*
X132829059Y-91218729D01*
X132828989Y-91218675D01*
X132833845Y-91212415D01*
X132839453Y-91206807D01*
X132843489Y-91199983D01*
X132843491Y-91199980D01*
X132920108Y-91070427D01*
X132924145Y-91063601D01*
X132926415Y-91055790D01*
X132949659Y-90975781D01*
X132970562Y-90903831D01*
X132971074Y-90897336D01*
X132973307Y-90868958D01*
X132973307Y-90868950D01*
X132973500Y-90866502D01*
X132973500Y-89083498D01*
X132971095Y-89052939D01*
X132971067Y-89052579D01*
X132971066Y-89052574D01*
X132970562Y-89046169D01*
X132931129Y-88910439D01*
X132926357Y-88894012D01*
X132926356Y-88894010D01*
X132924145Y-88886399D01*
X132892707Y-88833240D01*
X132843491Y-88750020D01*
X132843489Y-88750017D01*
X132839453Y-88743193D01*
X132721807Y-88625547D01*
X132714983Y-88621511D01*
X132714980Y-88621509D01*
X132585427Y-88544892D01*
X132585428Y-88544892D01*
X132578601Y-88540855D01*
X132570990Y-88538644D01*
X132570988Y-88538643D01*
X132505798Y-88519704D01*
X132418831Y-88494438D01*
X132412426Y-88493934D01*
X132412421Y-88493933D01*
X132383958Y-88491693D01*
X132383950Y-88491693D01*
X132381502Y-88491500D01*
X131948498Y-88491500D01*
X131946050Y-88491693D01*
X131946042Y-88491693D01*
X131917579Y-88493933D01*
X131917574Y-88493934D01*
X131911169Y-88494438D01*
X131824202Y-88519704D01*
X131759012Y-88538643D01*
X131759010Y-88538644D01*
X131751399Y-88540855D01*
X131608193Y-88625547D01*
X131605511Y-88628229D01*
X131541139Y-88653502D01*
X131471516Y-88639600D01*
X131455688Y-88629428D01*
X131451807Y-88625547D01*
X131308601Y-88540855D01*
X131300990Y-88538644D01*
X131300988Y-88538643D01*
X131235798Y-88519704D01*
X131148831Y-88494438D01*
X131142426Y-88493934D01*
X131142421Y-88493933D01*
X131113958Y-88491693D01*
X131113950Y-88491693D01*
X131111502Y-88491500D01*
X130678498Y-88491500D01*
X130676050Y-88491693D01*
X130676042Y-88491693D01*
X130647579Y-88493933D01*
X130647574Y-88493934D01*
X130641169Y-88494438D01*
X130554202Y-88519704D01*
X130489012Y-88538643D01*
X130489010Y-88538644D01*
X130481399Y-88540855D01*
X130338193Y-88625547D01*
X130335511Y-88628229D01*
X130271139Y-88653502D01*
X130201516Y-88639600D01*
X130185688Y-88629428D01*
X130181807Y-88625547D01*
X130038601Y-88540855D01*
X130030990Y-88538644D01*
X130030988Y-88538643D01*
X129965798Y-88519704D01*
X129878831Y-88494438D01*
X129872426Y-88493934D01*
X129872421Y-88493933D01*
X129843958Y-88491693D01*
X129843950Y-88491693D01*
X129841502Y-88491500D01*
X129408498Y-88491500D01*
X129406040Y-88491693D01*
X129406026Y-88491694D01*
X129401461Y-88492053D01*
X129331981Y-88477454D01*
X129281424Y-88427609D01*
X129265841Y-88358344D01*
X129290180Y-88291649D01*
X129302486Y-88277346D01*
X129391057Y-88188775D01*
X134544937Y-88188775D01*
X134546688Y-88198359D01*
X134588357Y-88341784D01*
X134594604Y-88356220D01*
X134669876Y-88483499D01*
X134679516Y-88495926D01*
X134784074Y-88600484D01*
X134796501Y-88610124D01*
X134923780Y-88685396D01*
X134938216Y-88691643D01*
X135058605Y-88726619D01*
X135072705Y-88726579D01*
X135076000Y-88719309D01*
X135076000Y-88192115D01*
X135071525Y-88176876D01*
X135070135Y-88175671D01*
X135062452Y-88174000D01*
X134561576Y-88174000D01*
X134546781Y-88178344D01*
X134544937Y-88188775D01*
X129391057Y-88188775D01*
X129930223Y-87649609D01*
X134545232Y-87649609D01*
X134548052Y-87663031D01*
X134559513Y-87666000D01*
X135057885Y-87666000D01*
X135073124Y-87661525D01*
X135074329Y-87660135D01*
X135076000Y-87652452D01*
X135076000Y-87126442D01*
X135072027Y-87112911D01*
X135064129Y-87111776D01*
X134938216Y-87148357D01*
X134923780Y-87154604D01*
X134796501Y-87229876D01*
X134784074Y-87239516D01*
X134679516Y-87344074D01*
X134669876Y-87356501D01*
X134594604Y-87483780D01*
X134588357Y-87498216D01*
X134546688Y-87641641D01*
X134545232Y-87649609D01*
X129930223Y-87649609D01*
X130999833Y-86579999D01*
X131062145Y-86545973D01*
X131132960Y-86551038D01*
X131178023Y-86579999D01*
X131314791Y-86716767D01*
X131322335Y-86725057D01*
X131326448Y-86731538D01*
X131332225Y-86736963D01*
X131376115Y-86778178D01*
X131378957Y-86780933D01*
X131398679Y-86800655D01*
X131401821Y-86803092D01*
X131401881Y-86803139D01*
X131410893Y-86810837D01*
X131430301Y-86829062D01*
X131443127Y-86841106D01*
X131458571Y-86849596D01*
X131460879Y-86850865D01*
X131477401Y-86861718D01*
X131493407Y-86874134D01*
X131500685Y-86877284D01*
X131500686Y-86877284D01*
X131533985Y-86891694D01*
X131544635Y-86896911D01*
X131583388Y-86918215D01*
X131591063Y-86920186D01*
X131591064Y-86920186D01*
X131603010Y-86923253D01*
X131621715Y-86929657D01*
X131640303Y-86937701D01*
X131648126Y-86938940D01*
X131648136Y-86938943D01*
X131683972Y-86944619D01*
X131695592Y-86947025D01*
X131727407Y-86955193D01*
X131738418Y-86958020D01*
X131758672Y-86958020D01*
X131778382Y-86959571D01*
X131798391Y-86962740D01*
X131806283Y-86961994D01*
X131825028Y-86960222D01*
X131842410Y-86958579D01*
X131854267Y-86958020D01*
X132976713Y-86958020D01*
X132987896Y-86958547D01*
X132995389Y-86960222D01*
X133003315Y-86959973D01*
X133003316Y-86959973D01*
X133063466Y-86958082D01*
X133067425Y-86958020D01*
X133095336Y-86958020D01*
X133099271Y-86957523D01*
X133099336Y-86957515D01*
X133111173Y-86956582D01*
X133143431Y-86955568D01*
X133147450Y-86955442D01*
X133155369Y-86955193D01*
X133174823Y-86949541D01*
X133194180Y-86945533D01*
X133206410Y-86943988D01*
X133206411Y-86943988D01*
X133214277Y-86942994D01*
X133221648Y-86940075D01*
X133221650Y-86940075D01*
X133255392Y-86926716D01*
X133266622Y-86922871D01*
X133301463Y-86912749D01*
X133301464Y-86912749D01*
X133309073Y-86910538D01*
X133315892Y-86906505D01*
X133315897Y-86906503D01*
X133326508Y-86900227D01*
X133344256Y-86891532D01*
X133363097Y-86884072D01*
X133398867Y-86858084D01*
X133408787Y-86851568D01*
X133440015Y-86833100D01*
X133440018Y-86833098D01*
X133446842Y-86829062D01*
X133461163Y-86814741D01*
X133476197Y-86801900D01*
X133477911Y-86800655D01*
X133492587Y-86789992D01*
X133497637Y-86783888D01*
X133497642Y-86783883D01*
X133520773Y-86755922D01*
X133528763Y-86747142D01*
X134253834Y-86022071D01*
X134316146Y-85988045D01*
X134386961Y-85993110D01*
X134425130Y-86017641D01*
X134425593Y-86017044D01*
X134431853Y-86021900D01*
X134437459Y-86027506D01*
X134577404Y-86110269D01*
X134585015Y-86112480D01*
X134585017Y-86112481D01*
X134675750Y-86138841D01*
X134733534Y-86155629D01*
X134739941Y-86156133D01*
X134739945Y-86156134D01*
X134767556Y-86158307D01*
X134767562Y-86158307D01*
X134770011Y-86158500D01*
X134850406Y-86158500D01*
X134918527Y-86178502D01*
X134939501Y-86195405D01*
X135619595Y-86875499D01*
X135653621Y-86937811D01*
X135656500Y-86964594D01*
X135656500Y-86998951D01*
X135636498Y-87067072D01*
X135598924Y-87104754D01*
X135588030Y-87111799D01*
X135584000Y-87120691D01*
X135584000Y-87398621D01*
X135566454Y-87462760D01*
X135550106Y-87490403D01*
X135547895Y-87498014D01*
X135547894Y-87498016D01*
X135541507Y-87520000D01*
X135504394Y-87647746D01*
X135503890Y-87654151D01*
X135503889Y-87654156D01*
X135502685Y-87669454D01*
X135501500Y-87684516D01*
X135501500Y-88155484D01*
X135501693Y-88157932D01*
X135501693Y-88157940D01*
X135503728Y-88183786D01*
X135504394Y-88192254D01*
X135520237Y-88246787D01*
X135544617Y-88330702D01*
X135550106Y-88349597D01*
X135554141Y-88356419D01*
X135554141Y-88356420D01*
X135566454Y-88377240D01*
X135584000Y-88441379D01*
X135584000Y-88713558D01*
X135587973Y-88727089D01*
X135595871Y-88728224D01*
X135721784Y-88691643D01*
X135736222Y-88685395D01*
X135745372Y-88679984D01*
X135814188Y-88662526D01*
X135873647Y-88679985D01*
X135881531Y-88684647D01*
X135890403Y-88689894D01*
X135898014Y-88692105D01*
X135898016Y-88692106D01*
X135948995Y-88706916D01*
X136047746Y-88735606D01*
X136054151Y-88736110D01*
X136054156Y-88736111D01*
X136082060Y-88738307D01*
X136082068Y-88738307D01*
X136084516Y-88738500D01*
X136160406Y-88738500D01*
X136228527Y-88758502D01*
X136249501Y-88775405D01*
X138479595Y-91005500D01*
X138513621Y-91067812D01*
X138516500Y-91094595D01*
X138516500Y-99881496D01*
X138496498Y-99949617D01*
X138484142Y-99965799D01*
X138410960Y-100047076D01*
X138315473Y-100212464D01*
X138256458Y-100394092D01*
X138236496Y-100584020D01*
X138256458Y-100773948D01*
X138315473Y-100955576D01*
X138410960Y-101120964D01*
X138538747Y-101262886D01*
X138693248Y-101375138D01*
X138699276Y-101377822D01*
X138699278Y-101377823D01*
X138861681Y-101450129D01*
X138867712Y-101452814D01*
X138961113Y-101472667D01*
X139048056Y-101491148D01*
X139048061Y-101491148D01*
X139054513Y-101492520D01*
X139245487Y-101492520D01*
X139251939Y-101491148D01*
X139251944Y-101491148D01*
X139338887Y-101472667D01*
X139432288Y-101452814D01*
X139438319Y-101450129D01*
X139600722Y-101377823D01*
X139600724Y-101377822D01*
X139606752Y-101375138D01*
X139761253Y-101262886D01*
X139889040Y-101120964D01*
X139984527Y-100955576D01*
X140043542Y-100773948D01*
X140063504Y-100584020D01*
X140043542Y-100394092D01*
X139984527Y-100212464D01*
X139889040Y-100047076D01*
X139815863Y-99965805D01*
X139785147Y-99901799D01*
X139783500Y-99881496D01*
X139783500Y-90858767D01*
X139784027Y-90847584D01*
X139785702Y-90840091D01*
X139785203Y-90824197D01*
X139783562Y-90772001D01*
X139783500Y-90768043D01*
X139783500Y-90740144D01*
X139782996Y-90736153D01*
X139782063Y-90724311D01*
X139780923Y-90688036D01*
X139780674Y-90680111D01*
X139778462Y-90672497D01*
X139778461Y-90672492D01*
X139775023Y-90660659D01*
X139771012Y-90641295D01*
X139769467Y-90629064D01*
X139768474Y-90621203D01*
X139765557Y-90613836D01*
X139765556Y-90613831D01*
X139752198Y-90580092D01*
X139748354Y-90568865D01*
X139738230Y-90534022D01*
X139736018Y-90526407D01*
X139725707Y-90508972D01*
X139717012Y-90491224D01*
X139709552Y-90472383D01*
X139698178Y-90456727D01*
X139683564Y-90436613D01*
X139677048Y-90426693D01*
X139658580Y-90395465D01*
X139658578Y-90395462D01*
X139654542Y-90388638D01*
X139640221Y-90374317D01*
X139627380Y-90359283D01*
X139620131Y-90349306D01*
X139615472Y-90342893D01*
X139581395Y-90314702D01*
X139572616Y-90306712D01*
X137115405Y-87849500D01*
X137081379Y-87787188D01*
X137078500Y-87760405D01*
X137078500Y-87684516D01*
X137077315Y-87669454D01*
X137076111Y-87654156D01*
X137076110Y-87654151D01*
X137075606Y-87647746D01*
X137038493Y-87520000D01*
X137032106Y-87498016D01*
X137032105Y-87498014D01*
X137029894Y-87490403D01*
X136997768Y-87436081D01*
X136950524Y-87356195D01*
X136950523Y-87356193D01*
X136946488Y-87349371D01*
X136947356Y-87348857D01*
X136923994Y-87289365D01*
X136923500Y-87278217D01*
X136923500Y-86728767D01*
X136924027Y-86717584D01*
X136925702Y-86710091D01*
X136923562Y-86642014D01*
X136923500Y-86638055D01*
X136923500Y-86610144D01*
X136922995Y-86606144D01*
X136922062Y-86594301D01*
X136921613Y-86579999D01*
X136920673Y-86550110D01*
X136915022Y-86530658D01*
X136911014Y-86511306D01*
X136910061Y-86503767D01*
X136908474Y-86491203D01*
X136905556Y-86483832D01*
X136892200Y-86450097D01*
X136888355Y-86438870D01*
X136887721Y-86436687D01*
X136876018Y-86396407D01*
X136871984Y-86389585D01*
X136871981Y-86389579D01*
X136865706Y-86378968D01*
X136857010Y-86361218D01*
X136852472Y-86349756D01*
X136852469Y-86349751D01*
X136849552Y-86342383D01*
X136836901Y-86324970D01*
X136823573Y-86306625D01*
X136817057Y-86296707D01*
X136798575Y-86265457D01*
X136794542Y-86258637D01*
X136780218Y-86244313D01*
X136767376Y-86229278D01*
X136755472Y-86212893D01*
X136721406Y-86184711D01*
X136712627Y-86176722D01*
X135885404Y-85349499D01*
X135851378Y-85287187D01*
X135848499Y-85260404D01*
X135848499Y-85180012D01*
X135845629Y-85143534D01*
X135800269Y-84987404D01*
X135796233Y-84980579D01*
X135796231Y-84980575D01*
X135768769Y-84934139D01*
X135751309Y-84865323D01*
X135768769Y-84805861D01*
X135796231Y-84759425D01*
X135796233Y-84759421D01*
X135800269Y-84752596D01*
X135845629Y-84596466D01*
X135848500Y-84559989D01*
X135848499Y-84160012D01*
X135845629Y-84123534D01*
X135817505Y-84026730D01*
X135802481Y-83975017D01*
X135802480Y-83975015D01*
X135800269Y-83967404D01*
X135717506Y-83827459D01*
X135602541Y-83712494D01*
X135462596Y-83629731D01*
X135454985Y-83627520D01*
X135454983Y-83627519D01*
X135312644Y-83586166D01*
X135312645Y-83586166D01*
X135306466Y-83584371D01*
X135300059Y-83583867D01*
X135300055Y-83583866D01*
X135272444Y-83581693D01*
X135272438Y-83581693D01*
X135269989Y-83581500D01*
X135020152Y-83581500D01*
X134770012Y-83581501D01*
X134733534Y-83584371D01*
X134672514Y-83602099D01*
X134585017Y-83627519D01*
X134585015Y-83627520D01*
X134577404Y-83629731D01*
X134437459Y-83712494D01*
X134322494Y-83827459D01*
X134239731Y-83967404D01*
X134237520Y-83975015D01*
X134237519Y-83975017D01*
X134211159Y-84065750D01*
X134194371Y-84123534D01*
X134193867Y-84129941D01*
X134193866Y-84129945D01*
X134191693Y-84157556D01*
X134191500Y-84160011D01*
X134191500Y-84240405D01*
X134171498Y-84308526D01*
X134154595Y-84329500D01*
X133171731Y-85312364D01*
X133109419Y-85346390D01*
X133038604Y-85341325D01*
X132981768Y-85298778D01*
X132976971Y-85289194D01*
X132967135Y-85280671D01*
X132959452Y-85279000D01*
X132037000Y-85279000D01*
X131968879Y-85258998D01*
X131922386Y-85205342D01*
X131911000Y-85153000D01*
X131911000Y-84897000D01*
X131931002Y-84828879D01*
X131984658Y-84782386D01*
X132037000Y-84771000D01*
X132954884Y-84771000D01*
X132970123Y-84766525D01*
X132971328Y-84765135D01*
X132972999Y-84757452D01*
X132972999Y-84136017D01*
X132972805Y-84131080D01*
X132970570Y-84102664D01*
X132968270Y-84090069D01*
X132968250Y-84090001D01*
X132968250Y-84089961D01*
X132967112Y-84083729D01*
X132968268Y-84083518D01*
X132968452Y-84019005D01*
X133000152Y-83965752D01*
X139255499Y-77710405D01*
X139317811Y-77676379D01*
X139344594Y-77673500D01*
X168338515Y-77673500D01*
X168406636Y-77693502D01*
X168453129Y-77747158D01*
X168463233Y-77817432D01*
X168433739Y-77882012D01*
X168375566Y-77919930D01*
X168342565Y-77930082D01*
X168337585Y-77932652D01*
X168337581Y-77932654D01*
X168147919Y-78030546D01*
X168142936Y-78033118D01*
X167964708Y-78169877D01*
X167813515Y-78336036D01*
X167810537Y-78340783D01*
X167810535Y-78340786D01*
X167747519Y-78441243D01*
X167694136Y-78526344D01*
X167610344Y-78734783D01*
X167564787Y-78954767D01*
X167561500Y-79011775D01*
X167561500Y-86656999D01*
X167561749Y-86659784D01*
X167561749Y-86659794D01*
X167567497Y-86724200D01*
X167553629Y-86793829D01*
X167504319Y-86844907D01*
X167468195Y-86858646D01*
X167312097Y-86891826D01*
X167306067Y-86894511D01*
X167306066Y-86894511D01*
X167143663Y-86966817D01*
X167143661Y-86966818D01*
X167137633Y-86969502D01*
X167132292Y-86973382D01*
X167132291Y-86973383D01*
X167111107Y-86988774D01*
X166983132Y-87081754D01*
X166978711Y-87086664D01*
X166978710Y-87086665D01*
X166905072Y-87168449D01*
X166855345Y-87223676D01*
X166800716Y-87318297D01*
X166774744Y-87363281D01*
X166754720Y-87389376D01*
X163213595Y-90930500D01*
X163151283Y-90964526D01*
X163080467Y-90959461D01*
X163023632Y-90916914D01*
X162998821Y-90850394D01*
X162998500Y-90841405D01*
X162998500Y-79213001D01*
X162996419Y-79189677D01*
X162990615Y-79124653D01*
X162983617Y-79046238D01*
X162981968Y-79040208D01*
X162930423Y-78851795D01*
X162924337Y-78829549D01*
X162912982Y-78805741D01*
X162843251Y-78659549D01*
X162827622Y-78626782D01*
X162705465Y-78456782D01*
X162699805Y-78448905D01*
X162696529Y-78444346D01*
X162584762Y-78336036D01*
X162539229Y-78291911D01*
X162539226Y-78291909D01*
X162535201Y-78288008D01*
X162348738Y-78162710D01*
X162143033Y-78072412D01*
X162137582Y-78071103D01*
X162137578Y-78071102D01*
X161930046Y-78021278D01*
X161930045Y-78021278D01*
X161924589Y-78019968D01*
X161840525Y-78015121D01*
X161705917Y-78007360D01*
X161705914Y-78007360D01*
X161700310Y-78007037D01*
X161477285Y-78034025D01*
X161262565Y-78100082D01*
X161257585Y-78102652D01*
X161257581Y-78102654D01*
X161067919Y-78200546D01*
X161062936Y-78203118D01*
X160884708Y-78339877D01*
X160733515Y-78506036D01*
X160730537Y-78510783D01*
X160730535Y-78510786D01*
X160708224Y-78546353D01*
X160614136Y-78696344D01*
X160530344Y-78904783D01*
X160484787Y-79124767D01*
X160484521Y-79129378D01*
X160484521Y-79129379D01*
X160482971Y-79156270D01*
X160481500Y-79181775D01*
X160481500Y-90826999D01*
X160481749Y-90829786D01*
X160481749Y-90829792D01*
X160485241Y-90868920D01*
X160496383Y-90993762D01*
X160497864Y-90999176D01*
X160497865Y-90999181D01*
X160515489Y-91063601D01*
X160555663Y-91210451D01*
X160558075Y-91215509D01*
X160558077Y-91215513D01*
X160572743Y-91246260D01*
X160652378Y-91413218D01*
X160783471Y-91595654D01*
X160944799Y-91751992D01*
X161131262Y-91877290D01*
X161336967Y-91967588D01*
X161342418Y-91968897D01*
X161342422Y-91968898D01*
X161549954Y-92018722D01*
X161555411Y-92020032D01*
X161638473Y-92024821D01*
X161774083Y-92032640D01*
X161774086Y-92032640D01*
X161779690Y-92032963D01*
X161809545Y-92029350D01*
X161879575Y-92041023D01*
X161932177Y-92088704D01*
X161944515Y-92115500D01*
X161985473Y-92241556D01*
X162023115Y-92306753D01*
X162039852Y-92375745D01*
X162023114Y-92432751D01*
X162007321Y-92460106D01*
X161985473Y-92497947D01*
X161983432Y-92504229D01*
X161956337Y-92587617D01*
X161916263Y-92646222D01*
X161850866Y-92673859D01*
X161829252Y-92674471D01*
X161705918Y-92667360D01*
X161705914Y-92667360D01*
X161700310Y-92667037D01*
X161477285Y-92694025D01*
X161262565Y-92760082D01*
X161257585Y-92762652D01*
X161257581Y-92762654D01*
X161091366Y-92848444D01*
X161062936Y-92863118D01*
X160884708Y-92999877D01*
X160733515Y-93166036D01*
X160730537Y-93170783D01*
X160730535Y-93170786D01*
X160692751Y-93231020D01*
X160614136Y-93356344D01*
X160530344Y-93564783D01*
X160484787Y-93784767D01*
X160484521Y-93789378D01*
X160484521Y-93789379D01*
X160483958Y-93799153D01*
X160481500Y-93841775D01*
X160481500Y-105486999D01*
X160481749Y-105489786D01*
X160481749Y-105489792D01*
X160488009Y-105559929D01*
X160496383Y-105653762D01*
X160497864Y-105659176D01*
X160497865Y-105659181D01*
X160532809Y-105786912D01*
X160555663Y-105870451D01*
X160652378Y-106073218D01*
X160783471Y-106255654D01*
X160944799Y-106411992D01*
X161131262Y-106537290D01*
X161336967Y-106627588D01*
X161342418Y-106628897D01*
X161342422Y-106628898D01*
X161549954Y-106678722D01*
X161555411Y-106680032D01*
X161639475Y-106684879D01*
X161774083Y-106692640D01*
X161774086Y-106692640D01*
X161779690Y-106692963D01*
X162002715Y-106665975D01*
X162217435Y-106599918D01*
X162222415Y-106597348D01*
X162222419Y-106597346D01*
X162412081Y-106499454D01*
X162412082Y-106499454D01*
X162417064Y-106496882D01*
X162595292Y-106360123D01*
X162746485Y-106193964D01*
X162839012Y-106046463D01*
X162862885Y-106008405D01*
X162865864Y-106003656D01*
X162949656Y-105795217D01*
X162995213Y-105575233D01*
X162998500Y-105518225D01*
X162998500Y-93873001D01*
X162998251Y-93870215D01*
X162998157Y-93868096D01*
X163015109Y-93799153D01*
X163066643Y-93750319D01*
X163089686Y-93742136D01*
X163089548Y-93741711D01*
X163095832Y-93739669D01*
X163102288Y-93738297D01*
X163108319Y-93735612D01*
X163270722Y-93663306D01*
X163270724Y-93663305D01*
X163276752Y-93660621D01*
X163288640Y-93651984D01*
X163425909Y-93552252D01*
X163425911Y-93552250D01*
X163431253Y-93548369D01*
X163517202Y-93452913D01*
X163546495Y-93429696D01*
X163548114Y-93429055D01*
X163583884Y-93403067D01*
X163593804Y-93396551D01*
X163625032Y-93378083D01*
X163625035Y-93378081D01*
X163631859Y-93374045D01*
X163646180Y-93359724D01*
X163661214Y-93346883D01*
X163671191Y-93339634D01*
X163677604Y-93334975D01*
X163705795Y-93300898D01*
X163713785Y-93292119D01*
X167320075Y-89685829D01*
X167382387Y-89651803D01*
X167435367Y-89651677D01*
X167451697Y-89655148D01*
X167514170Y-89688876D01*
X167548492Y-89751026D01*
X167551500Y-89778395D01*
X167551500Y-97296999D01*
X167551749Y-97299786D01*
X167551749Y-97299792D01*
X167558009Y-97369929D01*
X167566383Y-97463762D01*
X167625663Y-97680451D01*
X167722378Y-97883218D01*
X167853471Y-98065654D01*
X168014799Y-98221992D01*
X168201262Y-98347290D01*
X168406967Y-98437588D01*
X168412418Y-98438897D01*
X168412422Y-98438898D01*
X168619954Y-98488722D01*
X168625411Y-98490032D01*
X168709475Y-98494879D01*
X168844083Y-98502640D01*
X168844086Y-98502640D01*
X168849690Y-98502963D01*
X169072715Y-98475975D01*
X169287435Y-98409918D01*
X169292415Y-98407348D01*
X169292419Y-98407346D01*
X169482081Y-98309454D01*
X169482082Y-98309454D01*
X169487064Y-98306882D01*
X169665292Y-98170123D01*
X169816485Y-98003964D01*
X169824047Y-97991910D01*
X169932885Y-97818405D01*
X169935864Y-97813656D01*
X170019656Y-97605217D01*
X170065213Y-97385233D01*
X170068500Y-97328225D01*
X170068500Y-91577966D01*
X180238257Y-91577966D01*
X180268565Y-91712446D01*
X180271645Y-91722275D01*
X180351770Y-91919603D01*
X180356413Y-91928794D01*
X180467694Y-92110388D01*
X180473777Y-92118699D01*
X180613213Y-92279667D01*
X180620580Y-92286883D01*
X180784434Y-92422916D01*
X180792881Y-92428831D01*
X180976756Y-92536279D01*
X180986042Y-92540729D01*
X181185001Y-92616703D01*
X181194899Y-92619579D01*
X181298250Y-92640606D01*
X181312299Y-92639410D01*
X181316000Y-92629065D01*
X181316000Y-92628517D01*
X181824000Y-92628517D01*
X181828064Y-92642359D01*
X181841478Y-92644393D01*
X181848184Y-92643534D01*
X181858262Y-92641392D01*
X182062255Y-92580191D01*
X182071842Y-92576433D01*
X182263095Y-92482739D01*
X182271945Y-92477464D01*
X182445328Y-92353792D01*
X182453200Y-92347139D01*
X182604052Y-92196812D01*
X182610730Y-92188965D01*
X182735003Y-92016020D01*
X182740313Y-92007183D01*
X182834670Y-91816267D01*
X182838469Y-91806672D01*
X182900377Y-91602910D01*
X182902555Y-91592837D01*
X182903986Y-91581962D01*
X182901775Y-91567778D01*
X182888617Y-91564000D01*
X181842115Y-91564000D01*
X181826876Y-91568475D01*
X181825671Y-91569865D01*
X181824000Y-91577548D01*
X181824000Y-92628517D01*
X181316000Y-92628517D01*
X181316000Y-91582115D01*
X181311525Y-91566876D01*
X181310135Y-91565671D01*
X181302452Y-91564000D01*
X180253225Y-91564000D01*
X180239694Y-91567973D01*
X180238257Y-91577966D01*
X170068500Y-91577966D01*
X170068500Y-89683001D01*
X170065705Y-89651677D01*
X170058869Y-89575088D01*
X170053617Y-89516238D01*
X169994337Y-89299549D01*
X169897622Y-89096782D01*
X169766529Y-88914346D01*
X169682834Y-88833240D01*
X169609229Y-88761911D01*
X169609226Y-88761909D01*
X169605201Y-88758008D01*
X169418738Y-88632710D01*
X169213033Y-88542412D01*
X169207582Y-88541103D01*
X169207578Y-88541102D01*
X169000046Y-88491278D01*
X169000045Y-88491278D01*
X168994589Y-88489968D01*
X168910525Y-88485121D01*
X168775917Y-88477360D01*
X168775914Y-88477360D01*
X168770310Y-88477037D01*
X168587476Y-88499162D01*
X168517448Y-88487488D01*
X168464846Y-88439806D01*
X168452509Y-88413010D01*
X168446569Y-88394729D01*
X168444527Y-88388444D01*
X168438059Y-88377240D01*
X168414087Y-88335720D01*
X168399114Y-88309786D01*
X168382376Y-88240792D01*
X168399113Y-88183789D01*
X168428912Y-88132176D01*
X168487927Y-87950548D01*
X168488369Y-87946344D01*
X168521678Y-87884649D01*
X168583827Y-87850327D01*
X168629597Y-87848670D01*
X168629963Y-87848724D01*
X168635411Y-87850032D01*
X168641008Y-87850355D01*
X168641010Y-87850355D01*
X168854083Y-87862640D01*
X168854086Y-87862640D01*
X168859690Y-87862963D01*
X169082715Y-87835975D01*
X169297435Y-87769918D01*
X169302415Y-87767348D01*
X169302419Y-87767346D01*
X169492081Y-87669454D01*
X169492082Y-87669454D01*
X169497064Y-87666882D01*
X169675292Y-87530123D01*
X169826485Y-87363964D01*
X169831167Y-87356501D01*
X169942885Y-87178405D01*
X169945864Y-87173656D01*
X170029656Y-86965217D01*
X170075213Y-86745233D01*
X170078500Y-86688225D01*
X170078500Y-79043001D01*
X170075551Y-79009952D01*
X170066655Y-78910284D01*
X170063617Y-78876238D01*
X170059244Y-78860250D01*
X170023492Y-78729569D01*
X170004337Y-78659549D01*
X169991123Y-78631844D01*
X169938536Y-78521595D01*
X169907622Y-78456782D01*
X169776529Y-78274346D01*
X169656494Y-78158024D01*
X169619229Y-78121911D01*
X169619226Y-78121909D01*
X169615201Y-78118008D01*
X169428738Y-77992710D01*
X169251422Y-77914874D01*
X169197086Y-77869178D01*
X169176081Y-77801359D01*
X169195075Y-77732951D01*
X169248039Y-77685671D01*
X169302067Y-77673500D01*
X169535406Y-77673500D01*
X169603527Y-77693502D01*
X169624501Y-77710405D01*
X180221949Y-88307854D01*
X180255975Y-88370166D01*
X180254271Y-88430620D01*
X180230989Y-88514570D01*
X180230441Y-88519700D01*
X180230440Y-88519704D01*
X180226933Y-88552522D01*
X180207251Y-88736695D01*
X180207548Y-88741848D01*
X180207548Y-88741851D01*
X180213011Y-88836590D01*
X180220110Y-88959715D01*
X180221247Y-88964761D01*
X180221248Y-88964767D01*
X180241038Y-89052579D01*
X180269222Y-89177639D01*
X180353266Y-89384616D01*
X180469987Y-89575088D01*
X180616250Y-89743938D01*
X180788126Y-89886632D01*
X180861955Y-89929774D01*
X180910679Y-89981412D01*
X180923750Y-90051195D01*
X180897019Y-90116967D01*
X180856562Y-90150327D01*
X180848457Y-90154546D01*
X180839738Y-90160036D01*
X180669433Y-90287905D01*
X180661726Y-90294748D01*
X180514590Y-90448717D01*
X180508104Y-90456727D01*
X180388098Y-90632649D01*
X180383000Y-90641623D01*
X180293338Y-90834783D01*
X180289775Y-90844470D01*
X180234389Y-91044183D01*
X180235912Y-91052607D01*
X180248292Y-91056000D01*
X182888344Y-91056000D01*
X182901875Y-91052027D01*
X182903180Y-91042947D01*
X182861214Y-90875875D01*
X182857894Y-90866124D01*
X182772972Y-90670814D01*
X182768105Y-90661739D01*
X182652426Y-90482926D01*
X182646136Y-90474757D01*
X182502806Y-90317240D01*
X182495273Y-90310215D01*
X182328139Y-90178222D01*
X182319556Y-90172520D01*
X182282602Y-90152120D01*
X182232631Y-90101687D01*
X182217859Y-90032245D01*
X182242975Y-89965839D01*
X182270327Y-89939232D01*
X182293797Y-89922491D01*
X182449860Y-89811173D01*
X182608096Y-89653489D01*
X182667594Y-89570689D01*
X182735435Y-89476277D01*
X182738453Y-89472077D01*
X182837430Y-89271811D01*
X182894644Y-89083498D01*
X182900865Y-89063023D01*
X182900865Y-89063021D01*
X182902370Y-89058069D01*
X182931529Y-88836590D01*
X182933156Y-88770000D01*
X182914852Y-88547361D01*
X182860431Y-88330702D01*
X182771354Y-88125840D01*
X182723084Y-88051226D01*
X182652822Y-87942617D01*
X182652820Y-87942614D01*
X182650014Y-87938277D01*
X182612709Y-87897279D01*
X182502798Y-87776488D01*
X182471746Y-87712642D01*
X182480141Y-87642143D01*
X182525317Y-87587375D01*
X182551761Y-87573706D01*
X182658297Y-87533767D01*
X182666705Y-87530615D01*
X182783261Y-87443261D01*
X182870615Y-87326705D01*
X182921745Y-87190316D01*
X182928500Y-87128134D01*
X182928500Y-85331866D01*
X182921745Y-85269684D01*
X182870615Y-85133295D01*
X182783261Y-85016739D01*
X182666705Y-84929385D01*
X182530316Y-84878255D01*
X182468134Y-84871500D01*
X180671866Y-84871500D01*
X180609684Y-84878255D01*
X180473295Y-84929385D01*
X180356739Y-85016739D01*
X180269385Y-85133295D01*
X180218255Y-85269684D01*
X180211500Y-85331866D01*
X180211500Y-86201406D01*
X180191498Y-86269527D01*
X180137842Y-86316020D01*
X180067568Y-86326124D01*
X180002988Y-86296630D01*
X179996405Y-86290501D01*
X172834829Y-79128924D01*
X180697418Y-79128924D01*
X180697835Y-79136150D01*
X180713179Y-79402257D01*
X180714004Y-79406462D01*
X180714005Y-79406470D01*
X180742848Y-79553483D01*
X180765889Y-79670923D01*
X180767276Y-79674974D01*
X180785275Y-79727544D01*
X180854573Y-79929950D01*
X180856499Y-79933779D01*
X180919495Y-80059032D01*
X180977591Y-80174544D01*
X180980017Y-80178073D01*
X180980020Y-80178079D01*
X181014642Y-80228454D01*
X181132666Y-80400179D01*
X181316929Y-80602681D01*
X181526969Y-80778302D01*
X181530595Y-80780577D01*
X181530597Y-80780578D01*
X181553303Y-80794821D01*
X181758901Y-80923792D01*
X181762803Y-80925554D01*
X181762807Y-80925556D01*
X182004520Y-81034694D01*
X182004524Y-81034696D01*
X182008432Y-81036460D01*
X182074148Y-81055926D01*
X182266832Y-81113002D01*
X182266837Y-81113003D01*
X182270945Y-81114220D01*
X182275179Y-81114868D01*
X182275184Y-81114869D01*
X182537340Y-81154984D01*
X182537342Y-81154984D01*
X182541582Y-81155633D01*
X182680913Y-81157822D01*
X182811045Y-81159867D01*
X182811051Y-81159867D01*
X182815336Y-81159934D01*
X183087141Y-81127042D01*
X183351967Y-81057566D01*
X183604914Y-80952792D01*
X183841301Y-80814658D01*
X184056754Y-80645722D01*
X184101539Y-80599508D01*
X184244303Y-80452186D01*
X184247286Y-80449108D01*
X184249819Y-80445660D01*
X184249823Y-80445655D01*
X184406834Y-80231909D01*
X184409372Y-80228454D01*
X184411418Y-80224686D01*
X184537962Y-79991621D01*
X184537963Y-79991619D01*
X184540012Y-79987845D01*
X184636789Y-79731732D01*
X184697912Y-79464854D01*
X184710031Y-79329075D01*
X184722031Y-79194616D01*
X184722251Y-79192151D01*
X184722341Y-79183599D01*
X184722666Y-79152485D01*
X184722692Y-79150000D01*
X184722523Y-79147519D01*
X184704362Y-78881123D01*
X184704361Y-78881117D01*
X184704070Y-78876846D01*
X184698433Y-78849623D01*
X184675790Y-78740284D01*
X184648550Y-78608747D01*
X184557157Y-78350664D01*
X184551590Y-78339877D01*
X184433550Y-78111178D01*
X184433549Y-78111177D01*
X184431585Y-78107371D01*
X184428270Y-78102654D01*
X184276619Y-77886877D01*
X184276614Y-77886871D01*
X184274155Y-77883372D01*
X184147577Y-77747158D01*
X184090703Y-77685954D01*
X184090700Y-77685951D01*
X184087782Y-77682811D01*
X184084466Y-77680097D01*
X184084463Y-77680094D01*
X183879233Y-77512114D01*
X183879226Y-77512109D01*
X183875915Y-77509399D01*
X183642472Y-77366345D01*
X183638555Y-77364626D01*
X183638552Y-77364624D01*
X183456506Y-77284712D01*
X183391775Y-77256297D01*
X183387647Y-77255121D01*
X183387644Y-77255120D01*
X183306557Y-77232022D01*
X183128462Y-77181290D01*
X183124220Y-77180686D01*
X183124214Y-77180685D01*
X182925596Y-77152418D01*
X182857406Y-77142713D01*
X182713671Y-77141961D01*
X182587908Y-77141302D01*
X182587902Y-77141302D01*
X182583622Y-77141280D01*
X182579378Y-77141839D01*
X182579374Y-77141839D01*
X182460397Y-77157503D01*
X182312177Y-77177016D01*
X182308037Y-77178149D01*
X182308035Y-77178149D01*
X182052238Y-77248127D01*
X182048093Y-77249261D01*
X181796257Y-77356678D01*
X181561329Y-77497280D01*
X181557978Y-77499964D01*
X181557976Y-77499966D01*
X181546202Y-77509399D01*
X181347657Y-77668463D01*
X181221544Y-77801359D01*
X181175416Y-77849968D01*
X181159194Y-77867062D01*
X180999428Y-78089400D01*
X180871314Y-78331364D01*
X180831399Y-78440439D01*
X180787234Y-78561127D01*
X180777225Y-78588477D01*
X180718899Y-78855980D01*
X180715058Y-78904783D01*
X180698003Y-79121496D01*
X180697418Y-79128924D01*
X172834829Y-79128924D01*
X170579000Y-76873095D01*
X170544974Y-76810783D01*
X170550039Y-76739968D01*
X170592586Y-76683132D01*
X170659106Y-76658321D01*
X170668095Y-76658000D01*
X182660672Y-76658000D01*
X182680057Y-76659500D01*
X182694858Y-76661805D01*
X182694861Y-76661805D01*
X182703730Y-76663186D01*
X182720899Y-76660941D01*
X182744839Y-76660108D01*
X183002770Y-76675710D01*
X183017874Y-76677544D01*
X183088648Y-76690514D01*
X183298879Y-76729040D01*
X183313641Y-76732678D01*
X183586408Y-76817675D01*
X183600627Y-76823069D01*
X183861140Y-76940316D01*
X183874609Y-76947385D01*
X184119095Y-77095182D01*
X184131617Y-77103825D01*
X184356507Y-77280016D01*
X184367895Y-77290106D01*
X184569894Y-77492105D01*
X184579984Y-77503493D01*
X184756175Y-77728383D01*
X184764818Y-77740905D01*
X184912615Y-77985391D01*
X184919684Y-77998860D01*
X185011613Y-78203118D01*
X185036930Y-78259370D01*
X185042325Y-78273592D01*
X185116238Y-78510786D01*
X185127321Y-78546353D01*
X185130960Y-78561121D01*
X185162785Y-78734783D01*
X185182456Y-78842126D01*
X185184290Y-78857230D01*
X185199455Y-79107929D01*
X185198198Y-79134639D01*
X185198195Y-79134859D01*
X185196814Y-79143730D01*
X185197978Y-79152632D01*
X185197978Y-79152635D01*
X185200936Y-79175251D01*
X185202000Y-79191589D01*
X185202000Y-93100672D01*
X185200500Y-93120056D01*
X185196814Y-93143730D01*
X185199059Y-93160897D01*
X185199892Y-93184839D01*
X185184290Y-93442770D01*
X185182456Y-93457874D01*
X185180611Y-93467940D01*
X185131068Y-93738297D01*
X185130962Y-93738873D01*
X185127322Y-93753641D01*
X185042326Y-94026404D01*
X185036931Y-94040627D01*
X184924092Y-94291347D01*
X184919686Y-94301136D01*
X184912615Y-94314609D01*
X184764818Y-94559095D01*
X184756175Y-94571617D01*
X184579984Y-94796507D01*
X184569894Y-94807895D01*
X184367895Y-95009894D01*
X184356507Y-95019984D01*
X184131617Y-95196175D01*
X184119095Y-95204818D01*
X183874609Y-95352615D01*
X183861140Y-95359684D01*
X183600630Y-95476930D01*
X183586408Y-95482325D01*
X183313641Y-95567322D01*
X183298879Y-95570960D01*
X183088648Y-95609486D01*
X183017874Y-95622456D01*
X183002770Y-95624290D01*
X182752071Y-95639455D01*
X182725361Y-95638198D01*
X182725141Y-95638195D01*
X182716270Y-95636814D01*
X182707368Y-95637978D01*
X182707365Y-95637978D01*
X182684749Y-95640936D01*
X182668411Y-95642000D01*
X178763207Y-95642000D01*
X178742303Y-95640254D01*
X178739137Y-95639721D01*
X178722539Y-95636929D01*
X178716419Y-95636854D01*
X178714867Y-95636835D01*
X178714862Y-95636835D01*
X178710000Y-95636776D01*
X178705172Y-95637467D01*
X178705053Y-95637475D01*
X178693583Y-95638575D01*
X178368831Y-95654529D01*
X178368827Y-95654529D01*
X178365741Y-95654681D01*
X178024798Y-95705256D01*
X178021803Y-95706006D01*
X178021804Y-95706006D01*
X177693454Y-95788253D01*
X177693449Y-95788255D01*
X177690453Y-95789005D01*
X177687554Y-95790042D01*
X177687545Y-95790045D01*
X177528190Y-95847063D01*
X177365927Y-95905122D01*
X177363144Y-95906438D01*
X177363135Y-95906442D01*
X177057128Y-96051173D01*
X177054346Y-96052489D01*
X177051704Y-96054072D01*
X177051705Y-96054072D01*
X176761359Y-96228098D01*
X176761350Y-96228104D01*
X176758709Y-96229687D01*
X176481864Y-96435009D01*
X176226478Y-96666478D01*
X175995009Y-96921864D01*
X175789687Y-97198709D01*
X175788104Y-97201350D01*
X175788098Y-97201359D01*
X175730774Y-97296999D01*
X175612489Y-97494346D01*
X175611175Y-97497125D01*
X175611173Y-97497128D01*
X175466442Y-97803135D01*
X175466438Y-97803144D01*
X175465122Y-97805927D01*
X175439278Y-97878156D01*
X175373822Y-98061095D01*
X175349005Y-98130453D01*
X175348255Y-98133449D01*
X175348253Y-98133454D01*
X175325292Y-98225119D01*
X175265256Y-98464798D01*
X175214681Y-98805741D01*
X175214529Y-98808827D01*
X175214529Y-98808831D01*
X175199349Y-99117828D01*
X175197756Y-99132544D01*
X175196929Y-99137461D01*
X175196776Y-99150000D01*
X175197466Y-99154815D01*
X175200727Y-99177588D01*
X175202000Y-99195451D01*
X175202000Y-105600672D01*
X175200500Y-105620056D01*
X175196814Y-105643730D01*
X175199059Y-105660897D01*
X175199892Y-105684839D01*
X175184290Y-105942770D01*
X175182456Y-105957874D01*
X175174066Y-106003656D01*
X175139192Y-106193964D01*
X175130962Y-106238873D01*
X175127322Y-106253641D01*
X175060779Y-106467185D01*
X175042326Y-106526404D01*
X175036931Y-106540627D01*
X174968371Y-106692963D01*
X174919686Y-106801136D01*
X174912615Y-106814609D01*
X174764818Y-107059095D01*
X174756175Y-107071617D01*
X174579984Y-107296507D01*
X174569894Y-107307895D01*
X174367895Y-107509894D01*
X174356507Y-107519984D01*
X174131617Y-107696175D01*
X174119095Y-107704818D01*
X173874609Y-107852615D01*
X173861140Y-107859684D01*
X173695763Y-107934114D01*
X173600630Y-107976930D01*
X173586408Y-107982325D01*
X173313641Y-108067322D01*
X173298879Y-108070960D01*
X173088648Y-108109486D01*
X173017874Y-108122456D01*
X173002770Y-108124290D01*
X172752071Y-108139455D01*
X172725361Y-108138198D01*
X172725141Y-108138195D01*
X172716270Y-108136814D01*
X172707368Y-108137978D01*
X172707365Y-108137978D01*
X172684749Y-108140936D01*
X172668411Y-108142000D01*
X143263207Y-108142000D01*
X143242303Y-108140254D01*
X143239137Y-108139721D01*
X143222539Y-108136929D01*
X143216419Y-108136854D01*
X143214867Y-108136835D01*
X143214862Y-108136835D01*
X143210000Y-108136776D01*
X143205172Y-108137467D01*
X143205053Y-108137475D01*
X143193583Y-108138575D01*
X142868831Y-108154529D01*
X142868827Y-108154529D01*
X142865741Y-108154681D01*
X142524798Y-108205256D01*
X142521803Y-108206006D01*
X142521804Y-108206006D01*
X142193454Y-108288253D01*
X142193449Y-108288255D01*
X142190453Y-108289005D01*
X142187554Y-108290042D01*
X142187545Y-108290045D01*
X142028190Y-108347064D01*
X141865927Y-108405122D01*
X141863144Y-108406438D01*
X141863135Y-108406442D01*
X141557128Y-108551173D01*
X141554346Y-108552489D01*
X141551704Y-108554072D01*
X141551705Y-108554072D01*
X141261359Y-108728098D01*
X141261350Y-108728104D01*
X141258709Y-108729687D01*
X140981864Y-108935009D01*
X140726478Y-109166478D01*
X140495009Y-109421864D01*
X140493168Y-109424347D01*
X140493165Y-109424350D01*
X140391732Y-109561117D01*
X140289687Y-109698709D01*
X140288104Y-109701350D01*
X140288098Y-109701359D01*
X140125440Y-109972739D01*
X140112489Y-109994346D01*
X140111175Y-109997125D01*
X140111173Y-109997128D01*
X139966442Y-110303135D01*
X139966438Y-110303144D01*
X139965122Y-110305927D01*
X139849005Y-110630453D01*
X139765256Y-110964798D01*
X139714681Y-111305741D01*
X139714529Y-111308827D01*
X139714529Y-111308831D01*
X139699349Y-111617828D01*
X139697756Y-111632544D01*
X139696929Y-111637461D01*
X139696776Y-111650000D01*
X139697466Y-111654815D01*
X139700727Y-111677588D01*
X139702000Y-111695451D01*
X139702000Y-117100672D01*
X139700500Y-117120056D01*
X139696814Y-117143730D01*
X139698454Y-117156270D01*
X139699059Y-117160897D01*
X139699892Y-117184839D01*
X139684290Y-117442770D01*
X139682456Y-117457874D01*
X139669486Y-117528648D01*
X139632271Y-117731732D01*
X139630962Y-117738873D01*
X139627322Y-117753641D01*
X139553165Y-117991621D01*
X139542326Y-118026404D01*
X139536931Y-118040627D01*
X139478385Y-118170713D01*
X139419686Y-118301136D01*
X139412615Y-118314609D01*
X139264818Y-118559095D01*
X139256175Y-118571617D01*
X139079984Y-118796507D01*
X139069894Y-118807895D01*
X138867895Y-119009894D01*
X138856507Y-119019984D01*
X138631617Y-119196175D01*
X138619095Y-119204818D01*
X138374609Y-119352615D01*
X138361140Y-119359684D01*
X138100630Y-119476930D01*
X138086408Y-119482325D01*
X137813641Y-119567322D01*
X137798879Y-119570960D01*
X137588648Y-119609486D01*
X137517874Y-119622456D01*
X137502770Y-119624290D01*
X137252071Y-119639455D01*
X137225361Y-119638198D01*
X137225141Y-119638195D01*
X137216270Y-119636814D01*
X137207368Y-119637978D01*
X137207365Y-119637978D01*
X137184749Y-119640936D01*
X137168411Y-119642000D01*
X117259328Y-119642000D01*
X117239943Y-119640500D01*
X117225142Y-119638195D01*
X117225139Y-119638195D01*
X117216270Y-119636814D01*
X117199101Y-119639059D01*
X117175161Y-119639892D01*
X116917230Y-119624290D01*
X116902126Y-119622456D01*
X116831352Y-119609486D01*
X116621121Y-119570960D01*
X116606359Y-119567322D01*
X116333592Y-119482325D01*
X116319370Y-119476930D01*
X116058860Y-119359684D01*
X116045391Y-119352615D01*
X115800905Y-119204818D01*
X115788383Y-119196175D01*
X115563493Y-119019984D01*
X115552105Y-119009894D01*
X115350106Y-118807895D01*
X115340016Y-118796507D01*
X115163825Y-118571617D01*
X115155182Y-118559095D01*
X115007385Y-118314609D01*
X115000314Y-118301136D01*
X114941616Y-118170713D01*
X114883069Y-118040627D01*
X114877674Y-118026404D01*
X114866835Y-117991621D01*
X114792678Y-117753641D01*
X114789038Y-117738873D01*
X114787730Y-117731732D01*
X114750514Y-117528648D01*
X114737544Y-117457874D01*
X114735710Y-117442770D01*
X114720545Y-117192071D01*
X114721802Y-117165361D01*
X114721805Y-117165141D01*
X114723186Y-117156270D01*
X114721547Y-117143730D01*
X114719610Y-117128924D01*
X115197418Y-117128924D01*
X115197835Y-117136150D01*
X115213179Y-117402257D01*
X115214004Y-117406462D01*
X115214005Y-117406470D01*
X115242848Y-117553483D01*
X115265889Y-117670923D01*
X115267276Y-117674974D01*
X115294212Y-117753647D01*
X115354573Y-117929950D01*
X115356499Y-117933779D01*
X115419495Y-118059032D01*
X115477591Y-118174544D01*
X115480017Y-118178073D01*
X115480020Y-118178079D01*
X115514642Y-118228454D01*
X115632666Y-118400179D01*
X115816929Y-118602681D01*
X116026969Y-118778302D01*
X116030595Y-118780577D01*
X116030597Y-118780578D01*
X116080703Y-118812009D01*
X116258901Y-118923792D01*
X116262803Y-118925554D01*
X116262807Y-118925556D01*
X116504520Y-119034694D01*
X116504524Y-119034696D01*
X116508432Y-119036460D01*
X116512551Y-119037680D01*
X116766832Y-119113002D01*
X116766837Y-119113003D01*
X116770945Y-119114220D01*
X116775179Y-119114868D01*
X116775184Y-119114869D01*
X117037340Y-119154984D01*
X117037342Y-119154984D01*
X117041582Y-119155633D01*
X117180913Y-119157822D01*
X117311045Y-119159867D01*
X117311051Y-119159867D01*
X117315336Y-119159934D01*
X117587141Y-119127042D01*
X117851967Y-119057566D01*
X118104914Y-118952792D01*
X118341301Y-118814658D01*
X118556754Y-118645722D01*
X118601539Y-118599508D01*
X118744303Y-118452186D01*
X118747286Y-118449108D01*
X118749819Y-118445660D01*
X118749823Y-118445655D01*
X118906834Y-118231909D01*
X118909372Y-118228454D01*
X118911418Y-118224686D01*
X119037962Y-117991621D01*
X119037963Y-117991619D01*
X119040012Y-117987845D01*
X119128508Y-117753647D01*
X119135271Y-117735750D01*
X119135272Y-117735746D01*
X119136789Y-117731732D01*
X119186386Y-117515180D01*
X119196954Y-117469038D01*
X119196955Y-117469034D01*
X119197912Y-117464854D01*
X119210031Y-117329075D01*
X119222031Y-117194616D01*
X119222251Y-117192151D01*
X119222692Y-117150000D01*
X119222523Y-117147519D01*
X119204362Y-116881123D01*
X119204361Y-116881117D01*
X119204070Y-116876846D01*
X119148550Y-116608747D01*
X119057157Y-116350664D01*
X119049277Y-116335395D01*
X118933550Y-116111178D01*
X118933549Y-116111177D01*
X118931585Y-116107371D01*
X118929122Y-116103866D01*
X118776619Y-115886877D01*
X118776614Y-115886871D01*
X118774155Y-115883372D01*
X118587782Y-115682811D01*
X118584466Y-115680097D01*
X118584463Y-115680094D01*
X118379233Y-115512114D01*
X118379226Y-115512109D01*
X118375915Y-115509399D01*
X118142472Y-115366345D01*
X118138555Y-115364626D01*
X118138552Y-115364624D01*
X118028232Y-115316197D01*
X117891775Y-115256297D01*
X117887647Y-115255121D01*
X117887644Y-115255120D01*
X117806557Y-115232022D01*
X117628462Y-115181290D01*
X117624220Y-115180686D01*
X117624214Y-115180685D01*
X117425596Y-115152418D01*
X117357406Y-115142713D01*
X117213671Y-115141961D01*
X117087908Y-115141302D01*
X117087902Y-115141302D01*
X117083622Y-115141280D01*
X117079378Y-115141839D01*
X117079374Y-115141839D01*
X116960397Y-115157503D01*
X116812177Y-115177016D01*
X116808037Y-115178149D01*
X116808035Y-115178149D01*
X116792251Y-115182467D01*
X116548093Y-115249261D01*
X116296257Y-115356678D01*
X116061329Y-115497280D01*
X116057978Y-115499964D01*
X116057976Y-115499966D01*
X116046202Y-115509399D01*
X115847657Y-115668463D01*
X115659194Y-115867062D01*
X115499428Y-116089400D01*
X115371314Y-116331364D01*
X115277225Y-116588477D01*
X115218899Y-116855980D01*
X115197418Y-117128924D01*
X114719610Y-117128924D01*
X114719064Y-117124749D01*
X114718000Y-117108411D01*
X114718000Y-108365000D01*
X124679647Y-108365000D01*
X124699022Y-108586463D01*
X124756560Y-108801196D01*
X124758882Y-108806177D01*
X124758883Y-108806178D01*
X124848186Y-108997689D01*
X124848189Y-108997694D01*
X124850512Y-109002676D01*
X124853668Y-109007183D01*
X124853669Y-109007185D01*
X124971994Y-109176170D01*
X124978023Y-109184781D01*
X125135219Y-109341977D01*
X125139727Y-109345134D01*
X125139730Y-109345136D01*
X125215495Y-109398187D01*
X125317323Y-109469488D01*
X125322305Y-109471811D01*
X125322310Y-109471814D01*
X125513822Y-109561117D01*
X125518804Y-109563440D01*
X125524112Y-109564862D01*
X125524114Y-109564863D01*
X125589949Y-109582503D01*
X125733537Y-109620978D01*
X125955000Y-109640353D01*
X126176463Y-109620978D01*
X126320051Y-109582503D01*
X126385886Y-109564863D01*
X126385888Y-109564862D01*
X126391196Y-109563440D01*
X126396178Y-109561117D01*
X126587690Y-109471814D01*
X126587695Y-109471811D01*
X126592677Y-109469488D01*
X126694505Y-109398187D01*
X126770270Y-109345136D01*
X126770273Y-109345134D01*
X126774781Y-109341977D01*
X126931977Y-109184781D01*
X126938007Y-109176170D01*
X127056331Y-109007185D01*
X127056332Y-109007183D01*
X127059488Y-109002676D01*
X127061811Y-108997694D01*
X127061814Y-108997689D01*
X127151117Y-108806178D01*
X127151118Y-108806177D01*
X127153440Y-108801196D01*
X127210978Y-108586463D01*
X127230353Y-108365000D01*
X129759647Y-108365000D01*
X129779022Y-108586463D01*
X129836560Y-108801196D01*
X129838882Y-108806177D01*
X129838883Y-108806178D01*
X129928186Y-108997689D01*
X129928189Y-108997694D01*
X129930512Y-109002676D01*
X129933668Y-109007183D01*
X129933669Y-109007185D01*
X130051994Y-109176170D01*
X130058023Y-109184781D01*
X130215219Y-109341977D01*
X130219727Y-109345134D01*
X130219730Y-109345136D01*
X130295495Y-109398187D01*
X130397323Y-109469488D01*
X130402305Y-109471811D01*
X130402310Y-109471814D01*
X130593822Y-109561117D01*
X130598804Y-109563440D01*
X130604112Y-109564862D01*
X130604114Y-109564863D01*
X130669949Y-109582503D01*
X130813537Y-109620978D01*
X131035000Y-109640353D01*
X131256463Y-109620978D01*
X131400051Y-109582503D01*
X131465886Y-109564863D01*
X131465888Y-109564862D01*
X131471196Y-109563440D01*
X131476178Y-109561117D01*
X131667690Y-109471814D01*
X131667695Y-109471811D01*
X131672677Y-109469488D01*
X131774505Y-109398187D01*
X131850270Y-109345136D01*
X131850273Y-109345134D01*
X131854781Y-109341977D01*
X132011977Y-109184781D01*
X132018007Y-109176170D01*
X132136331Y-109007185D01*
X132136332Y-109007183D01*
X132139488Y-109002676D01*
X132141811Y-108997694D01*
X132141814Y-108997689D01*
X132231117Y-108806178D01*
X132231118Y-108806177D01*
X132233440Y-108801196D01*
X132290978Y-108586463D01*
X132310353Y-108365000D01*
X132290978Y-108143537D01*
X132233440Y-107928804D01*
X132199750Y-107856556D01*
X132141814Y-107732311D01*
X132141811Y-107732306D01*
X132139488Y-107727324D01*
X132120969Y-107700876D01*
X132015136Y-107549730D01*
X132015134Y-107549727D01*
X132011977Y-107545219D01*
X131854781Y-107388023D01*
X131850273Y-107384866D01*
X131850270Y-107384864D01*
X131774505Y-107331813D01*
X131672677Y-107260512D01*
X131667695Y-107258189D01*
X131667690Y-107258186D01*
X131476178Y-107168883D01*
X131476177Y-107168882D01*
X131471196Y-107166560D01*
X131465888Y-107165138D01*
X131465886Y-107165137D01*
X131400051Y-107147497D01*
X131256463Y-107109022D01*
X131035000Y-107089647D01*
X130813537Y-107109022D01*
X130669949Y-107147497D01*
X130604114Y-107165137D01*
X130604112Y-107165138D01*
X130598804Y-107166560D01*
X130593823Y-107168882D01*
X130593822Y-107168883D01*
X130402311Y-107258186D01*
X130402306Y-107258189D01*
X130397324Y-107260512D01*
X130392817Y-107263668D01*
X130392815Y-107263669D01*
X130219730Y-107384864D01*
X130219727Y-107384866D01*
X130215219Y-107388023D01*
X130058023Y-107545219D01*
X130054866Y-107549727D01*
X130054864Y-107549730D01*
X129949031Y-107700876D01*
X129930512Y-107727324D01*
X129928189Y-107732306D01*
X129928186Y-107732311D01*
X129870250Y-107856556D01*
X129836560Y-107928804D01*
X129779022Y-108143537D01*
X129759647Y-108365000D01*
X127230353Y-108365000D01*
X127210978Y-108143537D01*
X127153440Y-107928804D01*
X127119750Y-107856556D01*
X127061814Y-107732311D01*
X127061811Y-107732306D01*
X127059488Y-107727324D01*
X127040969Y-107700876D01*
X126935136Y-107549730D01*
X126935134Y-107549727D01*
X126931977Y-107545219D01*
X126774781Y-107388023D01*
X126770273Y-107384866D01*
X126770270Y-107384864D01*
X126694505Y-107331813D01*
X126592677Y-107260512D01*
X126587695Y-107258189D01*
X126587690Y-107258186D01*
X126396178Y-107168883D01*
X126396177Y-107168882D01*
X126391196Y-107166560D01*
X126385888Y-107165138D01*
X126385886Y-107165137D01*
X126320051Y-107147497D01*
X126176463Y-107109022D01*
X125955000Y-107089647D01*
X125733537Y-107109022D01*
X125589949Y-107147497D01*
X125524114Y-107165137D01*
X125524112Y-107165138D01*
X125518804Y-107166560D01*
X125513823Y-107168882D01*
X125513822Y-107168883D01*
X125322311Y-107258186D01*
X125322306Y-107258189D01*
X125317324Y-107260512D01*
X125312817Y-107263668D01*
X125312815Y-107263669D01*
X125139730Y-107384864D01*
X125139727Y-107384866D01*
X125135219Y-107388023D01*
X124978023Y-107545219D01*
X124974866Y-107549727D01*
X124974864Y-107549730D01*
X124869031Y-107700876D01*
X124850512Y-107727324D01*
X124848189Y-107732306D01*
X124848186Y-107732311D01*
X124790250Y-107856556D01*
X124756560Y-107928804D01*
X124699022Y-108143537D01*
X124679647Y-108365000D01*
X114718000Y-108365000D01*
X114718000Y-105825000D01*
X127219647Y-105825000D01*
X127239022Y-106046463D01*
X127240446Y-106051776D01*
X127290579Y-106238873D01*
X127296560Y-106261196D01*
X127298882Y-106266177D01*
X127298883Y-106266178D01*
X127388186Y-106457689D01*
X127388189Y-106457694D01*
X127390512Y-106462676D01*
X127393668Y-106467183D01*
X127393669Y-106467185D01*
X127506902Y-106628898D01*
X127518023Y-106644781D01*
X127675219Y-106801977D01*
X127679727Y-106805134D01*
X127679730Y-106805136D01*
X127683949Y-106808090D01*
X127857323Y-106929488D01*
X127862305Y-106931811D01*
X127862310Y-106931814D01*
X127995826Y-106994073D01*
X128058804Y-107023440D01*
X128064112Y-107024862D01*
X128064114Y-107024863D01*
X128129949Y-107042503D01*
X128273537Y-107080978D01*
X128495000Y-107100353D01*
X128716463Y-107080978D01*
X128860051Y-107042503D01*
X128925886Y-107024863D01*
X128925888Y-107024862D01*
X128931196Y-107023440D01*
X128994174Y-106994073D01*
X129127690Y-106931814D01*
X129127695Y-106931811D01*
X129132677Y-106929488D01*
X129306051Y-106808090D01*
X129310270Y-106805136D01*
X129310273Y-106805134D01*
X129314781Y-106801977D01*
X129471977Y-106644781D01*
X129483099Y-106628898D01*
X129596331Y-106467185D01*
X129596332Y-106467183D01*
X129599488Y-106462676D01*
X129601811Y-106457694D01*
X129601814Y-106457689D01*
X129691117Y-106266178D01*
X129691118Y-106266177D01*
X129693440Y-106261196D01*
X129699422Y-106238873D01*
X129749554Y-106051776D01*
X129750978Y-106046463D01*
X129770353Y-105825000D01*
X129750978Y-105603537D01*
X129693440Y-105388804D01*
X129691117Y-105383822D01*
X129601814Y-105192311D01*
X129601811Y-105192306D01*
X129599488Y-105187324D01*
X129471977Y-105005219D01*
X129314781Y-104848023D01*
X129310273Y-104844866D01*
X129310270Y-104844864D01*
X129234505Y-104791813D01*
X129132677Y-104720512D01*
X129127695Y-104718189D01*
X129127690Y-104718186D01*
X128936178Y-104628883D01*
X128936177Y-104628882D01*
X128931196Y-104626560D01*
X128925888Y-104625138D01*
X128925886Y-104625137D01*
X128860051Y-104607497D01*
X128716463Y-104569022D01*
X128495000Y-104549647D01*
X128273537Y-104569022D01*
X128129949Y-104607497D01*
X128064114Y-104625137D01*
X128064112Y-104625138D01*
X128058804Y-104626560D01*
X128053823Y-104628882D01*
X128053822Y-104628883D01*
X127862311Y-104718186D01*
X127862306Y-104718189D01*
X127857324Y-104720512D01*
X127852817Y-104723668D01*
X127852815Y-104723669D01*
X127679730Y-104844864D01*
X127679727Y-104844866D01*
X127675219Y-104848023D01*
X127518023Y-105005219D01*
X127390512Y-105187324D01*
X127388189Y-105192306D01*
X127388186Y-105192311D01*
X127298883Y-105383822D01*
X127296560Y-105388804D01*
X127239022Y-105603537D01*
X127219647Y-105825000D01*
X114718000Y-105825000D01*
X114718000Y-90863984D01*
X122467001Y-90863984D01*
X122467195Y-90868920D01*
X122469430Y-90897336D01*
X122471730Y-90909931D01*
X122514107Y-91055790D01*
X122520352Y-91070221D01*
X122596911Y-91199678D01*
X122606551Y-91212104D01*
X122712896Y-91318449D01*
X122725322Y-91328089D01*
X122854779Y-91404648D01*
X122869210Y-91410893D01*
X123003605Y-91449939D01*
X123017706Y-91449899D01*
X123021000Y-91442630D01*
X123021000Y-90247115D01*
X123016525Y-90231876D01*
X123015135Y-90230671D01*
X123007452Y-90229000D01*
X122485116Y-90229000D01*
X122469877Y-90233475D01*
X122468672Y-90234865D01*
X122467001Y-90242548D01*
X122467001Y-90863984D01*
X114718000Y-90863984D01*
X114718000Y-89702885D01*
X122467000Y-89702885D01*
X122471475Y-89718124D01*
X122472865Y-89719329D01*
X122480548Y-89721000D01*
X123002885Y-89721000D01*
X123018124Y-89716525D01*
X123019329Y-89715135D01*
X123021000Y-89707452D01*
X123021000Y-88513122D01*
X123017027Y-88499591D01*
X123009129Y-88498456D01*
X122869210Y-88539107D01*
X122854779Y-88545352D01*
X122725322Y-88621911D01*
X122712896Y-88631551D01*
X122606551Y-88737896D01*
X122596911Y-88750322D01*
X122520352Y-88879779D01*
X122514107Y-88894210D01*
X122471731Y-89040065D01*
X122469430Y-89052667D01*
X122467193Y-89081084D01*
X122467000Y-89086014D01*
X122467000Y-89702885D01*
X114718000Y-89702885D01*
X114718000Y-85913984D01*
X122467001Y-85913984D01*
X122467195Y-85918920D01*
X122469430Y-85947336D01*
X122471730Y-85959931D01*
X122514107Y-86105790D01*
X122520352Y-86120221D01*
X122596911Y-86249678D01*
X122606551Y-86262104D01*
X122712896Y-86368449D01*
X122725322Y-86378089D01*
X122854779Y-86454648D01*
X122869210Y-86460893D01*
X123003605Y-86499939D01*
X123017706Y-86499899D01*
X123021000Y-86492630D01*
X123021000Y-85297115D01*
X123016525Y-85281876D01*
X123015135Y-85280671D01*
X123007452Y-85279000D01*
X122485116Y-85279000D01*
X122469877Y-85283475D01*
X122468672Y-85284865D01*
X122467001Y-85292548D01*
X122467001Y-85913984D01*
X114718000Y-85913984D01*
X114718000Y-84752885D01*
X122467000Y-84752885D01*
X122471475Y-84768124D01*
X122472865Y-84769329D01*
X122480548Y-84771000D01*
X123002885Y-84771000D01*
X123018124Y-84766525D01*
X123019329Y-84765135D01*
X123021000Y-84757452D01*
X123021000Y-83563122D01*
X123017027Y-83549591D01*
X123009129Y-83548456D01*
X122869210Y-83589107D01*
X122854779Y-83595352D01*
X122725322Y-83671911D01*
X122712896Y-83681551D01*
X122606551Y-83787896D01*
X122596911Y-83800322D01*
X122520352Y-83929779D01*
X122514107Y-83944210D01*
X122471731Y-84090065D01*
X122469430Y-84102667D01*
X122467193Y-84131084D01*
X122467000Y-84136014D01*
X122467000Y-84752885D01*
X114718000Y-84752885D01*
X114718000Y-79199328D01*
X114719500Y-79179943D01*
X114721805Y-79165142D01*
X114721805Y-79165139D01*
X114723186Y-79156270D01*
X114720941Y-79139101D01*
X114720587Y-79128924D01*
X115197418Y-79128924D01*
X115197835Y-79136150D01*
X115213179Y-79402257D01*
X115214004Y-79406462D01*
X115214005Y-79406470D01*
X115242848Y-79553483D01*
X115265889Y-79670923D01*
X115267276Y-79674974D01*
X115285275Y-79727544D01*
X115354573Y-79929950D01*
X115356499Y-79933779D01*
X115419495Y-80059032D01*
X115477591Y-80174544D01*
X115480017Y-80178073D01*
X115480020Y-80178079D01*
X115514642Y-80228454D01*
X115632666Y-80400179D01*
X115816929Y-80602681D01*
X116026969Y-80778302D01*
X116030595Y-80780577D01*
X116030597Y-80780578D01*
X116053303Y-80794821D01*
X116258901Y-80923792D01*
X116262803Y-80925554D01*
X116262807Y-80925556D01*
X116504520Y-81034694D01*
X116504524Y-81034696D01*
X116508432Y-81036460D01*
X116574148Y-81055926D01*
X116766832Y-81113002D01*
X116766837Y-81113003D01*
X116770945Y-81114220D01*
X116775179Y-81114868D01*
X116775184Y-81114869D01*
X117037340Y-81154984D01*
X117037342Y-81154984D01*
X117041582Y-81155633D01*
X117180913Y-81157822D01*
X117311045Y-81159867D01*
X117311051Y-81159867D01*
X117315336Y-81159934D01*
X117587141Y-81127042D01*
X117851967Y-81057566D01*
X118104914Y-80952792D01*
X118341301Y-80814658D01*
X118556754Y-80645722D01*
X118601539Y-80599508D01*
X118744303Y-80452186D01*
X118747286Y-80449108D01*
X118749819Y-80445660D01*
X118749823Y-80445655D01*
X118906834Y-80231909D01*
X118909372Y-80228454D01*
X118911418Y-80224686D01*
X119037962Y-79991621D01*
X119037963Y-79991619D01*
X119040012Y-79987845D01*
X119136789Y-79731732D01*
X119197912Y-79464854D01*
X119210031Y-79329075D01*
X119222031Y-79194616D01*
X119222251Y-79192151D01*
X119222341Y-79183599D01*
X119222666Y-79152485D01*
X119222692Y-79150000D01*
X119222523Y-79147519D01*
X119204362Y-78881123D01*
X119204361Y-78881117D01*
X119204070Y-78876846D01*
X119198433Y-78849623D01*
X119175790Y-78740284D01*
X119148550Y-78608747D01*
X119057157Y-78350664D01*
X119051590Y-78339877D01*
X118933550Y-78111178D01*
X118933549Y-78111177D01*
X118931585Y-78107371D01*
X118928270Y-78102654D01*
X118776619Y-77886877D01*
X118776614Y-77886871D01*
X118774155Y-77883372D01*
X118647577Y-77747158D01*
X118590703Y-77685954D01*
X118590700Y-77685951D01*
X118587782Y-77682811D01*
X118584466Y-77680097D01*
X118584463Y-77680094D01*
X118379233Y-77512114D01*
X118379226Y-77512109D01*
X118375915Y-77509399D01*
X118142472Y-77366345D01*
X118138555Y-77364626D01*
X118138552Y-77364624D01*
X117956506Y-77284712D01*
X117891775Y-77256297D01*
X117887647Y-77255121D01*
X117887644Y-77255120D01*
X117806557Y-77232022D01*
X117628462Y-77181290D01*
X117624220Y-77180686D01*
X117624214Y-77180685D01*
X117425596Y-77152418D01*
X117357406Y-77142713D01*
X117213671Y-77141961D01*
X117087908Y-77141302D01*
X117087902Y-77141302D01*
X117083622Y-77141280D01*
X117079378Y-77141839D01*
X117079374Y-77141839D01*
X116960397Y-77157503D01*
X116812177Y-77177016D01*
X116808037Y-77178149D01*
X116808035Y-77178149D01*
X116552238Y-77248127D01*
X116548093Y-77249261D01*
X116296257Y-77356678D01*
X116061329Y-77497280D01*
X116057978Y-77499964D01*
X116057976Y-77499966D01*
X116046202Y-77509399D01*
X115847657Y-77668463D01*
X115721544Y-77801359D01*
X115675416Y-77849968D01*
X115659194Y-77867062D01*
X115499428Y-78089400D01*
X115371314Y-78331364D01*
X115331399Y-78440439D01*
X115287234Y-78561127D01*
X115277225Y-78588477D01*
X115218899Y-78855980D01*
X115215058Y-78904783D01*
X115198003Y-79121496D01*
X115197418Y-79128924D01*
X114720587Y-79128924D01*
X114720108Y-79115161D01*
X114735710Y-78857230D01*
X114737544Y-78842126D01*
X114757215Y-78734783D01*
X114789040Y-78561121D01*
X114792679Y-78546353D01*
X114803763Y-78510786D01*
X114877675Y-78273592D01*
X114883070Y-78259370D01*
X114908387Y-78203118D01*
X115000316Y-77998860D01*
X115007385Y-77985391D01*
X115155182Y-77740905D01*
X115163825Y-77728383D01*
X115340016Y-77503493D01*
X115350106Y-77492105D01*
X115552105Y-77290106D01*
X115563493Y-77280016D01*
X115788383Y-77103825D01*
X115800905Y-77095182D01*
X116045391Y-76947385D01*
X116058860Y-76940316D01*
X116319373Y-76823069D01*
X116333592Y-76817675D01*
X116606359Y-76732678D01*
X116621121Y-76729040D01*
X116831352Y-76690514D01*
X116902126Y-76677544D01*
X116917230Y-76675710D01*
X117167929Y-76660545D01*
X117194639Y-76661802D01*
X117194859Y-76661805D01*
X117203730Y-76663186D01*
X117212632Y-76662022D01*
X117212635Y-76662022D01*
X117235251Y-76659064D01*
X117251589Y-76658000D01*
X138211905Y-76658000D01*
X138280026Y-76678002D01*
G37*
G04 #@! TD.AperFunction*
M02*
